<svg width="39" height="39" viewBox="0 0 39 39" fill="none" xmlns="http://www.w3.org/2000/svg">
<g clip-path="url(#clip0)">
<path d="M1.21554 4.875H37.7811C38.1044 4.875 38.4144 4.61819 38.6429 4.16107C38.8715 3.70395 38.9999 3.08397 38.9999 2.4375C38.9999 1.79103 38.8715 1.17105 38.6429 0.713927C38.4144 0.256807 38.1044 0 37.7811 0L1.21554 0C0.89232 0 0.582335 0.256807 0.35378 0.713927C0.125226 1.17105 -0.00317383 1.79103 -0.00317383 2.4375C-0.00317383 3.08397 0.125226 3.70395 0.35378 4.16107C0.582335 4.61819 0.89232 4.875 1.21554 4.875Z" fill="#F19066"/>
<path d="M37.7811 17.0625H1.21554C0.89232 17.0625 0.582335 17.3193 0.35378 17.7764C0.125226 18.2335 -0.00317383 18.8535 -0.00317383 19.5C-0.00317383 20.1465 0.125226 20.7665 0.35378 21.2236C0.582335 21.6807 0.89232 21.9375 1.21554 21.9375H37.7811C38.1044 21.9375 38.4144 21.6807 38.6429 21.2236C38.8715 20.7665 38.9999 20.1465 38.9999 19.5C38.9999 18.8535 38.8715 18.2335 38.6429 17.7764C38.4144 17.3193 38.1044 17.0625 37.7811 17.0625Z" fill="#F19066"/>
<path d="M37.7814 34.125H13.406C13.0827 34.125 12.7728 34.3818 12.5442 34.8389C12.3157 35.296 12.1873 35.916 12.1873 36.5625C12.1873 37.209 12.3157 37.829 12.5442 38.2861C12.7728 38.7432 13.0827 39 13.406 39H37.7814C38.1046 39 38.4146 38.7432 38.6431 38.2861C38.8717 37.829 39.0001 37.209 39.0001 36.5625C39.0001 35.916 38.8717 35.296 38.6431 34.8389C38.4146 34.3818 38.1046 34.125 37.7814 34.125Z" fill="#F19066"/>
</g>
<defs>
<clipPath id="clip0">
<rect width="39" height="39" fill="white"/>
</clipPath>
</defs>
</svg>
