<svg id="e28185a2-cc72-4016-b3c6-8f08b31f3b04" data-name="Calque 1" xmlns="http://www.w3.org/2000/svg" xmlns:xlink="http://www.w3.org/1999/xlink" viewBox="0 0 403.29 363.32"><defs><clipPath id="f798be3f-92bc-42d2-b9fb-6159e1c89e22"><path d="M47,138.82s-2.07,2.27-1.24,6.83S57.16,181,59.85,186s5.17,4.13,7.45,2.89,22.34-14.27,28.13-17.79,16.14-9.51,16.14-9.51,9.51,4.34,9.31,2.27.83-6-2.07-9.1-8.07-.83-10.34.83-18.62,8.48-25.86,11-11,3.52-11,3.52L62.12,150.4" style="fill:none"/></clipPath><clipPath id="fe4b9c90-907f-48f9-a726-9307460df765"><path d="M86.19,123.45c-3.8,1.39-7.36,3-7.93,1.09-.62-2.06-2.69-8.89-2.69-8.89S61.5,104.27,59,106.34s8.07,20.69,6,21.51c-.74.3-3.36,1.17-6.34,2.41,1.34,2.19,4.46,6.1,11.31,10.21,10.34,6.21,12.62,7.87,12.62,7.87Z" style="fill:none"/></clipPath><clipPath id="a04e9c68-6be7-4028-82c4-1229fc920941"><path d="M80.74,114.61s-6.2,5.59-5.17,7,5.17-3.93,5.17-3.93L83,119a10.59,10.59,0,0,0-2.9,3.1c-.62,1.45,0,2.48,1.24,3.93s1.45,3.31,3.11,3.31S86.54,127,86.54,127a19.25,19.25,0,0,0,2.69,3.72c1,.83,3.93,1,3.93,1s10.55,29,13,33.3,3.1,7.66,10.34,6.83,4.76-6.83,2.49-12.21-16.55-24-20.28-28.34S93.36,125,89,119.58,82,113.37,80.74,114.61Z" style="fill:none"/></clipPath><clipPath id="ea35f616-a7dc-4d56-937f-7aa2602575d0"><path d="M92.53,271.5s-5.62,13.42-5.62,20.6.31,34.34-1.25,39.65-1.56,7.81.63,8.74,7.18.63,8.43,1.56,7.49,3.13,9,1.88-9.36-7.81-10.61-10.31S97.84,304.28,101,298s7.49-25.29,7.49-27.47S92.53,271.5,92.53,271.5Z" style="fill:none"/></clipPath><clipPath id="b28bc01d-ee05-4be8-b691-b30aa1d377ef"><path d="M60.69,272.74s-5,5.94-6.87,17.8-2.19,47.14-2.5,52.14-.62,5.93,2.5,7.49,10.3,5,12.17,5,2.5-1.25,0-5.62-9.36-6.25-9.36-10,15.61-47.15,17.48-54A48.14,48.14,0,0,0,76,274Z" style="fill:none"/></clipPath><clipPath id="ed15820f-2415-422f-8e12-5d78247feebb"><path d="M78.26,85.86a7.1,7.1,0,0,0-2.69-4.76C73.09,79.24,64,78.82,60.06,83.79S57.78,101,58.4,102.2c0,0-5.17-3.1-5.59,1.66s1.87,7,4.35,7A3.55,3.55,0,0,0,60.47,109s5.38,6.62,12.83,7.45S84.88,109,85.92,104.06,79.3,91.24,78.26,85.86Z" style="fill:none"/></clipPath></defs><g id="b809b41d-5841-4493-b9db-60eda5fc6c72" data-name="Calque 2"><g id="b9ef91ee-30e2-4536-a39b-2587c0d995b8" data-name="Background Simple"><path d="M402.8,162.87c-1.59-8.37-6.94-15.45-12.14-22.19Q347,84.07,303.38,27.45c-7-9.1-14.6-18.63-25.37-22.63C265.57.2,252.44,4,239.65,8.82c-6.06,1.72-12.74,4.66-19.91,7.59a225.81,225.81,0,0,1-37.6,8.88c-23.7-1.16-48-20.4-100.14-10-36.18,7.24-57.66,28-68.13,41.39A35.72,35.72,0,0,0,6,68.62c-4,9.87-4.1,20.93-2.69,31.49,3.92,29.34,18.47,56.83,19.56,86.41.72,19.36-4.42,38.48-11,56.69-4.56,12.62-9.9,26.32-5.59,39S24.09,303,37.51,304.3s26.76-3,39.13-8.33S101,284.11,114,280.54c26.55-7.3,54.9-1.74,81.23,6.31s52.2,18.62,79.58,21.53c15.24,1.62,31.95.36,43.73-9.44,18.65-15.5,17.32-44.81,30.8-65,8.61-12.89,22.55-21,34.29-31.11S405.7,178.1,402.8,162.87Z" style="fill:#f19066"/><path d="M402.8,162.87c-1.59-8.37-6.94-15.45-12.14-22.19Q347,84.07,303.38,27.45c-7-9.1-14.6-18.63-25.37-22.63C265.57.2,252.44,4,239.65,8.82c-6.06,1.72-12.74,4.66-19.91,7.59a225.81,225.81,0,0,1-37.6,8.88c-23.7-1.16-48-20.4-100.14-10-36.18,7.24-57.66,28-68.13,41.39A35.72,35.72,0,0,0,6,68.62c-4,9.87-4.1,20.93-2.69,31.49,3.92,29.34,18.47,56.83,19.56,86.41.72,19.36-4.42,38.48-11,56.69-4.56,12.62-9.9,26.32-5.59,39S24.09,303,37.51,304.3s26.76-3,39.13-8.33S101,284.11,114,280.54c26.55-7.3,54.9-1.74,81.23,6.31s52.2,18.62,79.58,21.53c15.24,1.62,31.95.36,43.73-9.44,18.65-15.5,17.32-44.81,30.8-65,8.61-12.89,22.55-21,34.29-31.11S405.7,178.1,402.8,162.87Z" style="fill:#fff;opacity:0.699999988079071;isolation:isolate"/></g><g id="b5d1d3dc-3128-434d-ad05-a4108f131436" data-name="Shadow"><ellipse cx="198.5" cy="348.32" rx="198.5" ry="15" style="fill:#f19066"/><ellipse cx="198.5" cy="348.32" rx="198.5" ry="15" style="fill:#fff;opacity:0.8999999761581421;isolation:isolate"/></g><g id="bd490fa8-1432-4b0d-bb2b-c4994270ff74" data-name="Picture 3"><rect x="169.91" y="44.24" width="203.86" height="168.54" style="fill:#f19066;opacity:0.5;isolation:isolate"/><rect x="178.39" y="32.35" width="201.23" height="171.4" style="fill:#fff;stroke:#263238;stroke-linecap:round;stroke-linejoin:round"/><rect x="189.63" y="41.71" width="178.75" height="152.67" style="fill:#fff;stroke:#263238;stroke-linecap:round;stroke-linejoin:round"/><path d="M368.38,83.7a45.3,45.3,0,0,1-6.79-.15C333.53,80.74,322.91,33.25,290,51c-24.45,13.14-13.53,38.17-14,59.37-.4,18.16-10.66,37.56-31.35,33.43C216.44,138.15,228,104.69,206.59,94a38.43,38.43,0,0,0-17-4v104.4H368.38Z" style="fill:#f19066;stroke:#263238;stroke-linecap:round;stroke-linejoin:round"/><circle cx="226.95" cy="68.87" r="14.99" style="fill:#f19066;stroke:#263238;stroke-linecap:round;stroke-linejoin:round"/></g><g id="a0e6e560-3390-4fdd-85f1-85a990c3c805" data-name="Picture 2"><rect x="132.99" y="195.13" width="160.52" height="136.44" style="fill:#f19066;opacity:0.6000000238418579;isolation:isolate"/><rect x="139.05" y="185.95" width="161.64" height="137.68" style="fill:#fff;stroke:#263238;stroke-linecap:round;stroke-linejoin:round"/><rect x="148.08" y="193.47" width="143.59" height="122.64" style="fill:#f19066;stroke:#263238;stroke-linecap:round;stroke-linejoin:round"/><circle cx="175.28" cy="236.73" r="12.04" style="fill:#fff;stroke:#263238;stroke-linecap:round;stroke-linejoin:round"/><path d="M291.67,196.4c-.68.2-1.35.4-2,.63-32.53,10.37-16.61,51.89-37.37,74s-46.36,9.69-73.35,4.85a68.92,68.92,0,0,0-30.83,1.23v39H291.67Z" style="fill:#fff;stroke:#263238;stroke-linecap:round;stroke-linejoin:round"/></g><g id="a3ac1dbd-6266-4221-8da5-7d544529d21a" data-name="Picture 1"><rect x="20.62" y="7.32" width="163.73" height="171.75" style="fill:#f19066;opacity:0.6000000238418579;isolation:isolate"/><rect x="27.59" y="0.5" width="201.23" height="171.4" style="fill:#fff;stroke:#263238;stroke-linecap:round;stroke-linejoin:round"/><rect x="38.83" y="9.87" width="178.75" height="152.67" style="fill:#fff;stroke:#263238;stroke-linecap:round;stroke-linejoin:round"/><path d="M217.58,40.89l-76.8,64.51L117.14,76.74A10.61,10.61,0,0,0,102.2,75.3l-.58.52L38.83,135.74v26.8H217.58Z" style="fill:#f19066;stroke:#263238;stroke-linecap:round;stroke-linejoin:round"/><circle cx="76.16" cy="37.04" r="14.99" style="fill:#f19066;stroke:#263238;stroke-linecap:round;stroke-linejoin:round"/></g><g id="e111ebcf-7513-4a16-a8e5-fa687a76308c" data-name="Plant"><path d="M358.93,316c-6.45,0-11.68,1.9-11.68,4.24v4.6a2,2,0,0,0,.67,1.4l1.81,16.3c0,1.84,4.12,3.34,9.2,3.34s9.2-1.5,9.2-3.34L370,326.23a2,2,0,0,0,.66-1.39v-4.6C370.61,317.9,365.38,316,358.93,316Z" style="fill:#263238;stroke:#263238;stroke-linecap:round;stroke-linejoin:round"/><path d="M362.41,296.5c-.06,0,1.55-4,1.68-4.24,1.51-2.78,6.07-7.27,9.56-6.62a4.21,4.21,0,0,1,3.2,5c0,.14-.07.27-.11.41-.71,2.4-3.3,4.08-5.51,4.92C368.63,297,362.42,296.5,362.41,296.5Z" style="fill:#263238"/><path d="M365.5,279.7c-.06,0,2.14-3.72,2.3-3.94,1.92-2.52,7.1-6.27,10.45-5.09a4.19,4.19,0,0,1,2.41,5.43,3,3,0,0,1-.18.41c-1.06,2.26-3.87,3.53-6.19,4C371.57,281.1,365.51,279.7,365.5,279.7Z" style="fill:#263238"/><path d="M372.89,261.67c-.06,0,2.14-3.73,2.3-3.94,1.92-2.53,7.1-6.27,10.45-5.09a4.2,4.2,0,0,1,2.42,5.41c-.06.14-.12.28-.19.42-1.06,2.27-3.87,3.53-6.19,4C379,263.06,372.89,261.67,372.89,261.67Z" style="fill:#263238"/><path d="M379,244.32c-.06,0,2.14-3.73,2.31-3.94,1.91-2.53,7.1-6.27,10.44-5.1a4.21,4.21,0,0,1,2.42,5.44,2.87,2.87,0,0,1-.18.4c-1.07,2.26-3.88,3.53-6.19,4C385.11,245.71,379,244.32,379,244.32Z" style="fill:#263238"/><path d="M380.13,228.53c-.06,0,1.08-4.15,1.18-4.41,1.18-2.93,5.19-7.92,8.73-7.67a4.22,4.22,0,0,1,3.76,4.62l-.06.38c-.43,2.47-2.81,4.43-4.91,5.52C386.36,228.28,380.13,228.53,380.13,228.53Z" style="fill:#263238"/><path d="M360.78,295.77c.06,0,.06-4.29,0-4.56-.36-3.14-2.91-9-6.39-9.7a4.2,4.2,0,0,0-4.85,3.43c0,.15,0,.3-.05.45-.24,2.49,1.54,5,3.28,6.61C354.85,293.88,360.78,295.77,360.78,295.77Z" style="fill:#263238"/><path d="M365.63,277.32c.07,0-.59-4.25-.66-4.52-.83-3.05-4.24-8.46-7.79-8.62a4.2,4.2,0,0,0-4.27,4.11c0,.15,0,.31,0,.46.14,2.5,2.28,4.73,4.24,6.05C359.48,276.35,365.63,277.32,365.63,277.32Z" style="fill:#263238"/><path d="M372.64,260.32c.06,0-.59-4.25-.67-4.51-.83-3.06-4.24-8.47-7.79-8.63a4.2,4.2,0,0,0-4.27,4.13c0,.15,0,.3,0,.45.14,2.5,2.28,4.72,4.24,6C366.48,259.35,372.63,260.32,372.64,260.32Z" style="fill:#263238"/><path d="M378.33,244.36c.06,0-.6-4.25-.67-4.51-.83-3.06-4.24-8.47-7.79-8.63a4.2,4.2,0,0,0-4.27,4.13c0,.15,0,.3,0,.45.14,2.5,2.28,4.73,4.24,6C372.17,243.39,378.32,244.36,378.33,244.36Z" style="fill:#263238"/><path d="M379.92,229.05c.06,0-1.05-4.16-1.15-4.42-1.17-2.94-5.15-7.95-8.69-7.71a4.2,4.2,0,0,0-3.79,4.57,3,3,0,0,0,.06.43c.42,2.47,2.78,4.45,4.88,5.54C373.69,228.76,379.92,229.05,379.92,229.05Z" style="fill:#263238"/><path d="M378.39,215c.05,0,1-4.18,1-4.45.32-3.15-.91-9.43-4.16-10.86a4.21,4.21,0,0,0-5.48,2.33c-.05.13-.1.27-.14.41-.77,2.38.42,5.23,1.78,7.17C373,211.89,378.38,215,378.39,215Z" style="fill:#263238"/><path d="M358.24,319s.06-1.82.29-5,.62-7.63,1.34-13c.35-2.68.79-5.57,1.33-8.62.26-1.54.57-3.06.89-4.7.19-.79.37-1.59.56-2.39s.45-1.62.68-2.44a95.2,95.2,0,0,1,3.55-9.83c1.37-3.27,2.86-6.53,4.34-9.79s2.92-6.53,4.18-9.81a72.89,72.89,0,0,0,3.07-9.81,53.76,53.76,0,0,0,1.19-9.54,73.25,73.25,0,0,0-.15-8.64c-.18-2.68-.5-5.12-.81-7.28s-.67-4-1-5.56c-.63-3.07-1.13-4.79-1.13-4.79s.53,1.71,1.23,4.77c.35,1.53.74,3.39,1.11,5.55s.73,4.59,1,7.28a76.43,76.43,0,0,1,.35,8.69,55.18,55.18,0,0,1-1,9.68,72.33,72.33,0,0,1-2.89,10c-1.2,3.34-2.59,6.66-4,10s-2.82,6.59-4.11,9.86a94.7,94.7,0,0,0-3.28,9.71c-.2.81-.45,1.56-.6,2.38l-.51,2.4c-.27,1.54-.55,3.12-.77,4.62-.48,3-.85,5.9-1.14,8.56-.59,5.32-.88,9.77-1,12.88s-.18,4.88-.18,4.88a1.25,1.25,0,1,1-2.49.22.81.81,0,0,1,0-.22h0Z" style="fill:#263238"/><path d="M348.56,301.83c-.05,0-.93-3.48-1-3.71-.34-2.64.54-7.95,3.24-9.23a3.51,3.51,0,0,1,4.64,1.8,2.24,2.24,0,0,1,.14.36c.71,2-.22,4.41-1.32,6.07C353,299.08,348.56,301.83,348.56,301.83Z" style="fill:#263238"/><path d="M342.35,288.87c-.05,0-.38-3.59-.38-3.82.06-2.66,1.73-7.78,4.59-8.63a3.54,3.54,0,0,1,4.33,2.51,2.33,2.33,0,0,1,.08.36c.4,2.07-.89,4.32-2.23,5.8C347.18,286.82,342.35,288.87,342.35,288.87Z" style="fill:#263238"/><path d="M338.46,272.94s-.38-3.59-.38-3.82c.06-2.66,1.74-7.78,4.6-8.63A3.52,3.52,0,0,1,347,263c0,.13.06.26.08.39.4,2.07-.89,4.32-2.23,5.8C343.29,270.89,338.47,272.94,338.46,272.94Z" style="fill:#263238"/><path d="M334.07,258.09c-.06,0-.39-3.59-.39-3.82.06-2.66,1.74-7.77,4.6-8.63a3.53,3.53,0,0,1,4.32,2.5c0,.12.06.24.08.37.4,2.07-.89,4.32-2.22,5.8C338.89,256,334.07,258.09,334.07,258.09Z" style="fill:#263238"/><path d="M327,246.81c-.05,0-1.32-3.36-1.38-3.59-.65-2.58-.38-8,2.15-9.53A3.53,3.53,0,0,1,332.6,235c.06.11.12.22.17.33.93,1.89.28,4.4-.62,6.18C331.12,243.55,327,246.8,327,246.81Z" style="fill:#263238"/><path d="M347.09,302.15c.05,0-2.08-2.95-2.24-3.12-1.8-2-6.44-4.7-9.15-3.45a3.53,3.53,0,0,0-1.6,4.73c.06.11.12.22.19.33,1.07,1.82,3.52,2.66,5.5,2.89C342.11,303.79,347.08,302.15,347.09,302.15Z" style="fill:#263238"/><path d="M341.26,287.18c.05,0-2.5-2.6-2.68-2.74-2.08-1.67-7.08-3.67-9.57-2a3.54,3.54,0,0,0-.86,4.93,3.25,3.25,0,0,0,.23.29c1.33,1.63,3.89,2.09,5.88,2C336.59,289.57,341.26,287.19,341.26,287.18Z" style="fill:#263238"/><path d="M337.62,272.15c.05,0-2.5-2.6-2.68-2.74-2.08-1.67-7.08-3.67-9.57-2a3.54,3.54,0,0,0-.86,4.93,3.25,3.25,0,0,0,.23.29c1.33,1.63,3.89,2.09,5.88,2C333,274.53,337.62,272.15,337.62,272.15Z" style="fill:#263238"/><path d="M333.61,258.48s-2.51-2.6-2.69-2.75c-2.08-1.67-7.07-3.66-9.56-2a3.53,3.53,0,0,0-.88,4.91,2.34,2.34,0,0,0,.24.31c1.34,1.63,3.89,2.09,5.88,2C328.93,260.86,333.6,258.48,333.61,258.48Z" style="fill:#263238"/><path d="M327.12,247.26s-2.78-2.31-3-2.43c-2.25-1.43-7.44-2.87-9.73-1a3.52,3.52,0,0,0-.33,5,2.37,2.37,0,0,0,.27.28c1.51,1.47,4.1,1.65,6.06,1.36C322.74,250.14,327.11,247.26,327.12,247.26Z" style="fill:#263238"/><path d="M319.14,238.47c.05,0-1.4-3.33-1.52-3.53-1.34-2.3-5.28-6-8.19-5.33a3.53,3.53,0,0,0-2.58,4.27c0,.13.07.25.11.37.65,2,2.87,3.35,4.75,4C313.92,239,319.13,238.47,319.14,238.47Z" style="fill:#263238"/><path d="M356.85,319.23s-.86-1.27-2.25-3.52-3.35-5.5-5.51-9.5c-1.09-2-2.22-4.18-3.36-6.53-.58-1.17-1.12-2.36-1.71-3.64-.27-.63-.53-1.26-.8-1.9s-.5-1.33-.75-2A77,77,0,0,1,340,283.7c-.68-2.91-1.28-5.87-1.9-8.81s-1.23-5.9-2-8.75a61.72,61.72,0,0,0-2.76-8.2,45.57,45.57,0,0,0-3.9-7.08,64.79,64.79,0,0,0-4.38-5.8c-1.45-1.74-2.87-3.24-4.15-4.56s-2.45-2.41-3.42-3.3c-1.95-1.77-3.14-2.7-3.14-2.7s1.21.9,3.2,2.64c1,.87,2.18,1.94,3.5,3.23s2.77,2.76,4.26,4.47a66.16,66.16,0,0,1,4.53,5.75,45.8,45.8,0,0,1,4.11,7.08,63.37,63.37,0,0,1,3,8.24c.84,2.87,1.53,5.81,2.21,8.75s1.34,5.88,2.07,8.74a78.49,78.49,0,0,0,2.58,8.23c.26.65.46,1.29.76,1.92s.57,1.26.84,1.88c.58,1.18,1.17,2.4,1.76,3.53,1.18,2.3,2.35,4.44,3.46,6.39,2.23,3.91,4.23,7.08,5.66,9.28s2.29,3.41,2.29,3.41a1.05,1.05,0,0,1-.25,1.46,1,1,0,0,1-1.4-.17l-.06-.08h0Z" style="fill:#263238"/></g><g id="afbf27de-5e09-4b6b-82f6-f29269817c81" data-name="Character"><path d="M75.57,115.65s2.07,6.83,2.69,8.89,4.76,0,8.9-1.44,13.65-6.21,15.72-4.35,18.2,43,17.38,46.14-1.86,5-7.24,3.72-7.45-6.83-7.45-6.83l-2.69,9.52A84.92,84.92,0,0,1,111,189.92c2.69,9.72,8.27,41.17,8.69,50.06s3.1,28.76,3.1,28.76-2.07,1.86-12.62,3.93-15.93,2.07-15.93,2.07l.21,3.31a56.9,56.9,0,0,1-21.72.41,87.39,87.39,0,0,1-19.87-5.58s8.23-33.88,8-41.38-2.07-13.65-1.65-20.69,5-17.79,5-17.79,3.31-6.21-1.45-18.2-12.61-30-14.68-35.38S63,128.68,65,127.85s-8.48-19.44-6-21.51S75.57,115.65,75.57,115.65Z" style="fill:#f19066;stroke:#263238;stroke-linecap:round;stroke-linejoin:round"/><path d="M47,138.82s-2.07,2.27-1.24,6.83S57.16,181,59.85,186s5.17,4.13,7.45,2.89,22.34-14.27,28.13-17.79,16.14-9.51,16.14-9.51,9.51,4.34,9.31,2.27.83-6-2.07-9.1-8.07-.83-10.34.83-18.62,8.48-25.86,11-11,3.52-11,3.52L62.12,150.4" style="fill:#fff"/><g style="clip-path:url(#f798be3f-92bc-42d2-b9fb-6159e1c89e22)"><path d="M66.2,183.15c-3.35-.84-6.71-7.55-6.71-7.55s2.94-2.93,6.29-6.71a13.54,13.54,0,0,0,2.81-5.14L62.12,150.4h0l-11.43.88s-1,1.08-2.45,2.78c3.5,10.91,9.65,28.3,11.61,31.93,2.69,5,5.17,4.13,7.45,2.89s22.34-14.27,28.13-17.79,16.14-9.51,16.14-9.51a55.52,55.52,0,0,0,6.36,2.43c-1.14-3.39-2.25-6.44-2.25-6.44H104.63c-.77.36-1.61.74-2.51,1.14l-.7,5.57" style="fill:#f19066;opacity:0.5;isolation:isolate"/><path d="M92.53,271.5s-5.62,13.42-5.62,20.6.31,34.34-1.25,39.65-1.56,7.81.63,8.74c0-4.09,1.71-16.87,5.07-34.48s2.09-24.74,2.09-24.74,6.29-1.26,9.23-2.1c1.16-.33,2.85-1,4.47-1.67a54.38,54.38,0,0,0,1.3-6.94C108.45,268.37,92.53,271.5,92.53,271.5Z" style="fill:#f19066;opacity:0.5;isolation:isolate"/></g><path d="M47,138.82s-2.07,2.27-1.24,6.83S57.16,181,59.85,186s5.17,4.13,7.45,2.89,22.34-14.27,28.13-17.79,16.14-9.51,16.14-9.51,9.51,4.34,9.31,2.27.83-6-2.07-9.1-8.07-.83-10.34.83-18.62,8.48-25.86,11-11,3.52-11,3.52L62.12,150.4" style="fill:none;stroke:#263238;stroke-linecap:round;stroke-linejoin:round"/><path d="M118.81,154.75c-2.9-3.1-8.07-.83-10.34.83-.19.13-.46.29-.81.49a12,12,0,0,1,2.25,3.85c.26.77.46,1.53.63,2.25l1-.59s9.51,4.34,9.31,2.27S121.71,157.85,118.81,154.75Z" style="fill:#fff;stroke:#263238;stroke-linecap:round;stroke-linejoin:round"/><path d="M86.19,123.45c-3.8,1.39-7.36,3-7.93,1.09-.62-2.06-2.69-8.89-2.69-8.89S61.5,104.27,59,106.34s8.07,20.69,6,21.51c-.74.3-3.36,1.17-6.34,2.41,1.34,2.19,4.46,6.1,11.31,10.21,10.34,6.21,12.62,7.87,12.62,7.87Z" style="fill:#fff"/><g style="clip-path:url(#fe4b9c90-907f-48f9-a726-9307460df765)"><path d="M75.57,115.65s-12.81-10.36-16.13-9.5l-.55.36c-1.2,1.71,2.38,9.48,4.66,15.16a15.23,15.23,0,0,0,5.17.26,34.6,34.6,0,0,0,7.72-3.42C76,116.91,75.57,115.65,75.57,115.65Z" style="fill:#f19066;opacity:0.5;isolation:isolate"/></g><path d="M86.19,123.45c-3.8,1.39-7.36,3-7.93,1.09-.62-2.06-2.69-8.89-2.69-8.89S61.5,104.27,59,106.34s8.07,20.69,6,21.51c-.74.3-3.36,1.17-6.34,2.41,1.34,2.19,4.46,6.1,11.31,10.21,10.34,6.21,12.62,7.87,12.62,7.87Z" style="fill:none;stroke:#263238;stroke-linecap:round;stroke-linejoin:round"/><path d="M77.37,88.06s4.53-8.15.18-14.82c-6.39-9.77-20.3-9.36-31.22-1.56C35.61,79.34,34.9,94.24,34.65,103.1s4.05,16.93-.76,23.64S22,140.17,24.29,152.79s8.34,16.93,25.78,16.93S75.41,152.54,71.61,141s-7.8-21.53-7.8-25.29-11-25.22-1.35-28.17S77.37,88.06,77.37,88.06Z" style="fill:#263238;stroke:#263238;stroke-linecap:round;stroke-linejoin:round"/><path d="M71,80a11,11,0,0,0-12.86,1.2C51.55,86.63,48.86,95,48.86,104s9,27.23,11.67,38.6.3,26-16.46,26.63" style="fill:none;stroke:#fff;stroke-linecap:round;stroke-linejoin:round;stroke-width:0.5px"/><path d="M73.4,80.34S71,70.77,57.54,72.56,38.69,95.3,40.48,108.17s17.06,35.91,18.25,43.69-1.49,11.5-1.49,11.5" style="fill:none;stroke:#fff;stroke-linecap:round;stroke-linejoin:round;stroke-width:0.5px"/><path d="M43.47,118.94s2.7,6.58.9,21.25S32.4,158.74,30.31,154s.9-8.68,3.89-9" style="fill:none;stroke:#fff;stroke-linecap:round;stroke-linejoin:round;stroke-width:0.5px"/><path d="M81.91,118.93s-3.53-.16-4,1,4.81,1.76,4.81,1.76Z" style="fill:#fff;stroke:#263238;stroke-linecap:round;stroke-linejoin:round"/><path d="M80.74,114.61s-6.2,5.59-5.17,7,5.17-3.93,5.17-3.93L83,119a10.59,10.59,0,0,0-2.9,3.1c-.62,1.45,0,2.48,1.24,3.93s1.45,3.31,3.11,3.31S86.54,127,86.54,127a19.25,19.25,0,0,0,2.69,3.72c1,.83,3.93,1,3.93,1s10.55,29,13,33.3,3.1,7.66,10.34,6.83,4.76-6.83,2.49-12.21-16.55-24-20.28-28.34S93.36,125,89,119.58,82,113.37,80.74,114.61Z" style="fill:#fff"/><g style="clip-path:url(#a04e9c68-6be7-4028-82c4-1229fc920941)"><path d="M112,165.65c-4-5-16-31.33-18.84-33.86,0,0,10.55,29,13,33.3s3.1,7.66,10.34,6.83a6.77,6.77,0,0,0,3.42-1.19A16,16,0,0,1,112,165.65Z" style="fill:#f19066;opacity:0.5;isolation:isolate"/></g><path d="M80.74,114.61s-6.2,5.59-5.17,7,5.17-3.93,5.17-3.93L83,119a10.59,10.59,0,0,0-2.9,3.1c-.62,1.45,0,2.48,1.24,3.93s1.45,3.31,3.11,3.31S86.54,127,86.54,127a19.25,19.25,0,0,0,2.69,3.72c1,.83,3.93,1,3.93,1s10.55,29,13,33.3,3.1,7.66,10.34,6.83,4.76-6.83,2.49-12.21-16.55-24-20.28-28.34S93.36,125,89,119.58,82,113.37,80.74,114.61Z" style="fill:none;stroke:#263238;stroke-linecap:round;stroke-linejoin:round"/><path d="M86.67,125.32c-2.34,0-2.2,4-2.2,4,1.65,0,2.07-2.27,2.07-2.27a19.25,19.25,0,0,0,2.69,3.72c1,.83,3.93,1,3.93,1C90.31,129.25,89,125.32,86.67,125.32Z" style="fill:#f19066"/><path d="M81.11,125.51s-.48-2.25,0-2.89a34.62,34.62,0,0,1,2.57-2.57" style="fill:none;stroke:#263238;stroke-linecap:round;stroke-linejoin:round;stroke-width:0.5px"/><path d="M82.39,127.43s-.64-3.21,0-3.69,3.37-2.09,3.37-2.09" style="fill:none;stroke:#263238;stroke-linecap:round;stroke-linejoin:round;stroke-width:0.5px"/><path d="M92.53,271.5s-5.62,13.42-5.62,20.6.31,34.34-1.25,39.65-1.56,7.81.63,8.74,7.18.63,8.43,1.56,7.49,3.13,9,1.88-9.36-7.81-10.61-10.31S97.84,304.28,101,298s7.49-25.29,7.49-27.47S92.53,271.5,92.53,271.5Z" style="fill:#fff"/><g style="clip-path:url(#ea35f616-a7dc-4d56-937f-7aa2602575d0)"><path d="M92.53,271.5s-5.62,13.42-5.62,20.6.31,34.34-1.25,39.65-1.56,7.81.63,8.74c0-4.09,1.71-16.87,5.07-34.48s2.09-24.74,2.09-24.74,6.29-1.26,9.23-2.1c1.16-.33,2.85-1,4.47-1.67a54.38,54.38,0,0,0,1.3-6.94C108.45,268.37,92.53,271.5,92.53,271.5Z" style="fill:#f19066;opacity:0.5;isolation:isolate"/></g><path d="M92.53,271.5s-5.62,13.42-5.62,20.6.31,34.34-1.25,39.65-1.56,7.81.63,8.74,7.18.63,8.43,1.56,7.49,3.13,9,1.88-9.36-7.81-10.61-10.31S97.84,304.28,101,298s7.49-25.29,7.49-27.47S92.53,271.5,92.53,271.5Z" style="fill:none;stroke:#263238;stroke-linecap:round;stroke-linejoin:round"/><path d="M93.16,333.62l-2.5,3.13-5.46-3.33c-1.07,4.17-.85,6.24,1.09,7.07,2.18.94,7.18.63,8.43,1.56s7.49,3.13,9,1.88S94.41,336.12,93.16,333.62Z" style="fill:#f19066;stroke:#263238;stroke-linecap:round;stroke-linejoin:round"/><path d="M60.69,272.74s-5,5.94-6.87,17.8-2.19,47.14-2.5,52.14-.62,5.93,2.5,7.49,10.3,5,12.17,5,2.5-1.25,0-5.62-9.36-6.25-9.36-10,15.61-47.15,17.48-54A48.14,48.14,0,0,0,76,274Z" style="fill:#fff"/><g style="clip-path:url(#b28bc01d-ee05-4be8-b691-b30aa1d377ef)"><path d="M53.82,290.54c-1.87,11.86-2.19,47.14-2.5,52.14s-.6,5.9,2.34,7.41c.08-5.31.35-15.84,1.22-28.57C56.14,303.07,60.33,280,60.33,280A47.67,47.67,0,0,0,70,282.1a36.34,36.34,0,0,0,4.89.38A44.88,44.88,0,0,0,76,274l-15.3-1.25S55.69,278.68,53.82,290.54Z" style="fill:#f19066;opacity:0.5;isolation:isolate"/></g><path d="M60.69,272.74s-5,5.94-6.87,17.8-2.19,47.14-2.5,52.14-.62,5.93,2.5,7.49,10.3,5,12.17,5,2.5-1.25,0-5.62-9.36-6.25-9.36-10,15.61-47.15,17.48-54A48.14,48.14,0,0,0,76,274Z" style="fill:none;stroke:#263238;stroke-linecap:round;stroke-linejoin:round"/><path d="M66,355.17c1.88,0,2.5-1.25,0-5.62-1.77-3.1-5.73-4.95-7.89-7.1l-2.72,2.73-4.07-2.27c-.31,4.79-.56,5.73,2.51,7.26S64.12,355.17,66,355.17Z" style="fill:#f19066;stroke:#263238;stroke-linecap:round;stroke-linejoin:round"/><path d="M78.26,85.86a7.1,7.1,0,0,0-2.69-4.76C73.09,79.24,64,78.82,60.06,83.79S57.78,101,58.4,102.2c0,0-5.17-3.1-5.59,1.66s1.87,7,4.35,7A3.55,3.55,0,0,0,60.47,109s5.38,6.62,12.83,7.45S84.88,109,85.92,104.06,79.3,91.24,78.26,85.86Z" style="fill:#fff"/><g style="clip-path:url(#ed15820f-2415-422f-8e12-5d78247feebb)"><path d="M68.72,111c-5-3.36-8.39-10.48-9.65-15.52-.93-3.71.2-9,.85-11.54-3.75,5.08-2.13,17-1.52,18.23,0,0-5.17-3.1-5.59,1.66s1.87,7,4.35,7A3.56,3.56,0,0,0,60.47,109s5.38,6.62,12.83,7.45a8.86,8.86,0,0,0,6.41-1.82A20.31,20.31,0,0,1,68.72,111Z" style="fill:#f19066;opacity:0.5;isolation:isolate"/></g><path d="M78.26,85.86a7.1,7.1,0,0,0-2.69-4.76C73.09,79.24,64,78.82,60.06,83.79S57.78,101,58.4,102.2c0,0-5.17-3.1-5.59,1.66s1.87,7,4.35,7A3.55,3.55,0,0,0,60.47,109s5.38,6.62,12.83,7.45S84.88,109,85.92,104.06,79.3,91.24,78.26,85.86Z" style="fill:none;stroke:#263238;stroke-linecap:round;stroke-linejoin:round"/><path d="M75.25,89a9.76,9.76,0,0,0,.27,4.74c.82,2,3.93,4.2,3.53,5s-1.76,1.09-1.76,1.09" style="fill:none;stroke:#263238;stroke-linecap:round;stroke-linejoin:round"/><path d="M77.15,105.94s-1.9.81-4.74-1" style="fill:none;stroke:#263238;stroke-linecap:round;stroke-linejoin:round"/><path d="M69.62,93.75c.14.85-.08,1.6-.48,1.66s-.85-.57-1-1.41.08-1.6.48-1.66S69.48,92.9,69.62,93.75Z" style="fill:#263238"/><path d="M78.19,90.4c.27.82.17,1.59-.22,1.72s-.93-.43-1.2-1.25-.17-1.58.22-1.71S77.92,89.58,78.19,90.4Z" style="fill:#263238"/><path d="M65.23,92.11s-.41-3,1.89-3.93,3.53-.27,3.53-.27" style="fill:none;stroke:#263238;stroke-linecap:round;stroke-linejoin:round"/><path d="M75,87.78s.25-2.42,1.76-2.17" style="fill:none;stroke:#263238;stroke-linecap:round;stroke-linejoin:round"/><path d="M94.19,274.74s5.38,0,15.93-2.07,12.62-3.93,12.62-3.93-2.69-19.86-3.1-28.76-5.88-39.66-8.6-49.73c-3.25,2.28-8.26,4.79-16,6.94a41.72,41.72,0,0,1-31.14-3.42c-1,2.56-4.31,11.12-4.66,17-.42,7,1.45,13.24,1.65,20.69s-8.07,41.38-8.07,41.38a87.39,87.39,0,0,0,19.87,5.58A56.9,56.9,0,0,0,94.41,278Z" style="fill:#263238;stroke:#263238;stroke-linecap:round;stroke-linejoin:round"/><polyline points="94.19 274.74 93.16 214.36 98.78 204.68" style="fill:none;stroke:#fff;stroke-linecap:round;stroke-linejoin:round"/><path d="M75.92,200.13a13.32,13.32,0,0,1-7.44,9.57" style="fill:none;stroke:#fff;stroke-linecap:round;stroke-linejoin:round;stroke-width:0.5px"/><path d="M66,270.93c-.43,2.89-.7,4.66-.7,4.66" style="fill:none;stroke:#fff;stroke-linecap:round;stroke-linejoin:round;stroke-width:0.5px"/><path d="M69.54,198.71a54,54,0,0,0-1.77,19.14c1.06,9.92,1.77,27.28.35,37.9-.55,4.14-1.1,8.07-1.57,11.32" style="fill:none;stroke:#fff;stroke-linecap:round;stroke-linejoin:round;stroke-width:0.5px"/><path d="M55.37,267.45s11,8.85,36.49,6" style="fill:none;stroke:#fff;stroke-linecap:round;stroke-linejoin:round;stroke-width:0.5px"/><path d="M97.17,270.28s11,.71,23.74-6.73" style="fill:none;stroke:#fff;stroke-linecap:round;stroke-linejoin:round;stroke-width:0.5px"/></g></g></svg>