<?xml version="1.0" encoding="utf-8"?>
<svg viewBox="-10.909 -13.915 758.976 222.751" xmlns="http://www.w3.org/2000/svg" xmlns:xlink="http://www.w3.org/1999/xlink">
  <g transform="matrix(1, 0, 0, 1, 6.821781, 3.346534)">
    <path class="st0" d="M67.5,34.5c-6.1,0-9.1-4.8-11.6-8.6c-2.4-3.7-4-6-6.9-6c-3,0-4.6,2.3-6.9,6c-2.4,3.8-5.4,8.6-11.6,8.6 c-6.1,0-9.1-4.8-11.6-8.6c-2.4-3.7-4-6-6.9-6c-1.5,0-2.7-1.2-2.7-2.7s1.2-2.7,2.7-2.7c6.1,0,9.1,4.8,11.6,8.6c2.4,3.7,4,6,6.9,6 c3,0,4.6-2.3,6.9-6c2.4-3.8,5.4-8.6,11.6-8.6c6.1,0,9.1,4.8,11.6,8.6c2.4,3.7,4,6,6.9,6c3,0,4.6-2.3,6.9-6 c2.4-3.8,5.4-8.6,11.6-8.6c6.1,0,9.1,4.8,11.6,8.6c2.4,3.7,4,6,6.9,6c3,0,4.6-2.3,6.9-6c2.4-3.8,5.4-8.6,11.6-8.6 c6.1,0,9.1,4.8,11.6,8.6c2.4,3.7,4,6,6.9,6c3,0,4.6-2.3,6.9-6c2.4-3.8,5.4-8.6,11.6-8.6c1.5,0,2.7,1.2,2.7,2.7s-1.2,2.7-2.7,2.7 c-3,0-4.6,2.3-6.9,6c-2.4,3.8-5.4,8.6-11.6,8.6c-6.1,0-9.1-4.8-11.6-8.6c-2.4-3.7-4-6-6.9-6c-3,0-4.6,2.3-6.9,6 c-2.4,3.8-5.4,8.6-11.6,8.6c-6.1,0-9.1-4.8-11.6-8.6c-2.4-3.7-4-6-6.9-6c-3,0-4.6,2.3-6.9,6C76.6,29.8,73.6,34.5,67.5,34.5z" style="fill: rgb(248, 200, 179);"/>
  </g>
  <g transform="matrix(1, 0, 0, 1, 125.099983, -5.636522)">
    <path class="st0" d="M102.5,45c-1.8,0.1-3.5-0.7-4.8-2l-6.8-6.8L84.1,43c-2.6,2.6-6.9,2.6-9.5,0c-2.6-2.6-2.6-6.9,0-9.5l6.8-6.8 l-6.8-6.8c-1.3-1.3-2-3-2-4.8c0-1.8,0.7-3.5,2-4.8c1.3-1.3,3-2,4.8-2c0,0,0,0,0,0c1.8,0,3.5,0.7,4.8,2l6.8,6.8l6.8-6.8 c1.3-1.3,3-2,4.8-2c0,0,0,0,0,0c1.8,0,3.5,0.7,4.8,2c2.6,2.6,2.6,6.9,0,9.5l-6.8,6.8l6.8,6.8c2.6,2.6,2.6,6.9,0,9.5 C106,44.3,104.3,45,102.5,45z M90.9,31l9.4,9.4c0.6,0.6,1.4,0.9,2.2,0.9c0,0,0,0,0,0c0.8,0,1.6-0.3,2.2-0.9c1.2-1.2,1.2-3.2,0-4.4 l-9.4-9.4l9.4-9.4c1.2-1.2,1.2-3.2,0-4.4c-1.2-1.2-3.2-1.2-4.4,0l-9.4,9.4l-9.4-9.4C81,12.3,80.2,12,79.4,12c0,0,0,0,0,0 c-0.8,0-1.6,0.3-2.2,0.9c-0.6,0.6-0.9,1.4-0.9,2.2c0,0.8,0.3,1.6,0.9,2.2l9.4,9.4L77.2,36c-1.2,1.2-1.2,3.2,0,4.4 c1.2,1.2,3.2,1.2,4.4,0L90.9,31z" style="fill: rgb(38, 50, 56);"/>
  </g>
  <g transform="matrix(1, 0, 0, 1, 30.300028, 65.414177)">
    <g>
      <g>
        <path class="st0" d="M78,24.5l17.1,17.1l17.1-17.1L95.1,7.4L78,24.5z M95.1,44.7c-0.3,0-0.6-0.1-0.9-0.4L75.3,25.4 c-0.5-0.5-0.5-1.3,0-1.8L94.2,4.7c0.5-0.5,1.3-0.5,1.8,0l18.9,18.9c0.5,0.5,0.5,1.3,0,1.8L96,44.3 C95.7,44.5,95.4,44.7,95.1,44.7z" style="fill: rgb(38, 50, 56);"/>
      </g>
    </g>
    <rect x="72.1" y="11.1" transform="matrix(0.7071 -0.7071 0.7071 0.7071 7.6931 67.573)" class="st0" width="26.7" height="26.7" style="fill: rgb(38, 50, 56);"/>
  </g>
  <g transform="matrix(1, 0, 0, 1, -71.531265, 139.596497)">
    <path class="st0" d="M84.1,49.3c-4.7,0-9.4-1.8-12.9-5.3c-7.1-7.1-7.1-18.7,0-25.8c7.1-7.1,18.7-7.1,25.8,0l0,0l0,0 c3.5,3.5,5.4,8,5.4,12.9c0,4.9-1.9,9.5-5.4,12.9C93.4,47.5,88.8,49.3,84.1,49.3z M84.1,16.4c-3.7,0-7.5,1.4-10.3,4.3 c-5.7,5.7-5.7,15,0,20.7c5.7,5.7,15,5.7,20.7,0c2.8-2.8,4.3-6.4,4.3-10.3c0-3.9-1.5-7.6-4.3-10.3l0,0 C91.6,17.8,87.8,16.4,84.1,16.4z" style="fill: rgb(38, 50, 56);"/>
    <path class="st0" d="M97.8,49.3c-4.7,0-9.4-1.8-12.9-5.3c-3.5-3.5-5.4-8-5.4-12.9c0-4.9,1.9-9.5,5.4-12.9c7.1-7.1,18.7-7.1,25.8,0 l0,0c7.1,7.1,7.1,18.7,0,25.8C107.2,47.5,102.5,49.3,97.8,49.3z M97.8,16.4c-3.7,0-7.5,1.4-10.3,4.3c-2.8,2.8-4.3,6.4-4.3,10.3 c0,3.9,1.5,7.6,4.3,10.3c5.7,5.7,15,5.7,20.7,0c5.7-5.7,5.7-15,0-20.7C105.3,17.8,101.5,16.4,97.8,16.4z" style="fill: rgb(38, 50, 56);"/>
  </g>
  <g transform="matrix(1, 0, 0, 1, 111.143005, 150.6353)">
    <path class="st0" d="M95,31c0,5-4,9-9,9c-5,0-9-4-9-9s4-9,9-9C91,22,95,26,95,31z" style="fill: rgb(38, 50, 56);"/>
    <path class="st0" d="M86,46.4c-8.5,0-15.4-6.9-15.4-15.4S77.5,15.6,86,15.6s15.4,6.9,15.4,15.4S94.5,46.4,86,46.4z M86,17.5 c-7.5,0-13.5,6.1-13.5,13.5c0,7.5,6.1,13.5,13.5,13.5c7.5,0,13.5-6.1,13.5-13.5C99.5,23.5,93.5,17.5,86,17.5z" style="fill: rgb(38, 50, 56);"/>
  </g>
  <g transform="matrix(1, 0, 0, 1, 388.056091, -16.750717)">
    <g>
      <path class="st0" d="M80.3,14.5c0,1.3-1,2.3-2.3,2.3c-1.3,0-2.3-1-2.3-2.3c0-1.3,1-2.3,2.3-2.3C79.2,12.2,80.3,13.2,80.3,14.5z" style="fill: rgb(248, 200, 179);"/>
    </g>
    <g>
      <path class="st0" d="M87.7,14.5c0,1.3-1,2.3-2.3,2.3c-1.3,0-2.3-1-2.3-2.3c0-1.3,1-2.3,2.3-2.3C86.6,12.2,87.7,13.2,87.7,14.5z" style="fill: rgb(248, 200, 179);"/>
    </g>
    <g>
      <path class="st0" d="M95.1,14.5c0,1.3-1,2.3-2.3,2.3c-1.3,0-2.3-1-2.3-2.3c0-1.3,1-2.3,2.3-2.3C94,12.2,95.1,13.2,95.1,14.5z" style="fill: rgb(248, 200, 179);"/>
    </g>
    <g>
      <path class="st0" d="M102.5,14.5c0,1.3-1,2.3-2.3,2.3c-1.3,0-2.3-1-2.3-2.3c0-1.3,1-2.3,2.3-2.3 C101.4,12.2,102.5,13.2,102.5,14.5z" style="fill: rgb(248, 200, 179);"/>
    </g>
    <g>
      <path class="st0" d="M109.9,14.5c0,1.3-1,2.3-2.3,2.3c-1.3,0-2.3-1-2.3-2.3c0-1.3,1-2.3,2.3-2.3 C108.8,12.2,109.9,13.2,109.9,14.5z" style="fill: rgb(248, 200, 179);"/>
    </g>
    <g>
      <path class="st0" d="M117.3,14.5c0,1.3-1,2.3-2.3,2.3c-1.3,0-2.3-1-2.3-2.3c0-1.3,1-2.3,2.3-2.3 C116.2,12.2,117.3,13.2,117.3,14.5z" style="fill: rgb(248, 200, 179);"/>
    </g>
    <g>
      <path class="st0" d="M80.3,21.8c0,1.3-1,2.3-2.3,2.3c-1.3,0-2.3-1-2.3-2.3c0-1.3,1-2.3,2.3-2.3C79.2,19.5,80.3,20.5,80.3,21.8z" style="fill: rgb(248, 200, 179);"/>
    </g>
    <g>
      <path class="st0" d="M87.7,21.8c0,1.3-1,2.3-2.3,2.3c-1.3,0-2.3-1-2.3-2.3c0-1.3,1-2.3,2.3-2.3C86.6,19.5,87.7,20.5,87.7,21.8z" style="fill: rgb(248, 200, 179);"/>
    </g>
    <g>
      <path class="st0" d="M95.1,21.8c0,1.3-1,2.3-2.3,2.3c-1.3,0-2.3-1-2.3-2.3c0-1.3,1-2.3,2.3-2.3C94,19.5,95.1,20.5,95.1,21.8z" style="fill: rgb(248, 200, 179);"/>
    </g>
    <g>
      <path class="st0" d="M102.5,21.8c0,1.3-1,2.3-2.3,2.3c-1.3,0-2.3-1-2.3-2.3c0-1.3,1-2.3,2.3-2.3 C101.4,19.5,102.5,20.5,102.5,21.8z" style="fill: rgb(248, 200, 179);"/>
    </g>
    <g>
      <path class="st0" d="M109.9,21.8c0,1.3-1,2.3-2.3,2.3c-1.3,0-2.3-1-2.3-2.3c0-1.3,1-2.3,2.3-2.3 C108.8,19.5,109.9,20.5,109.9,21.8z" style="fill: rgb(248, 200, 179);"/>
    </g>
    <g>
      <path class="st0" d="M117.3,21.8c0,1.3-1,2.3-2.3,2.3c-1.3,0-2.3-1-2.3-2.3c0-1.3,1-2.3,2.3-2.3 C116.2,19.5,117.3,20.5,117.3,21.8z" style="fill: rgb(248, 200, 179);"/>
    </g>
    <g>
      <path class="st0" d="M80.3,29.1c0,1.3-1,2.3-2.3,2.3c-1.3,0-2.3-1-2.3-2.3c0-1.3,1-2.3,2.3-2.3C79.2,26.8,80.3,27.8,80.3,29.1z" style="fill: rgb(248, 200, 179);"/>
    </g>
    <g>
      <path class="st0" d="M87.7,29.1c0,1.3-1,2.3-2.3,2.3c-1.3,0-2.3-1-2.3-2.3c0-1.3,1-2.3,2.3-2.3C86.6,26.8,87.7,27.8,87.7,29.1z" style="fill: rgb(248, 200, 179);"/>
    </g>
    <g>
      <path class="st0" d="M95.1,29.1c0,1.3-1,2.3-2.3,2.3c-1.3,0-2.3-1-2.3-2.3c0-1.3,1-2.3,2.3-2.3C94,26.8,95.1,27.8,95.1,29.1z" style="fill: rgb(248, 200, 179);"/>
    </g>
    <g>
      <path class="st0" d="M102.5,29.1c0,1.3-1,2.3-2.3,2.3c-1.3,0-2.3-1-2.3-2.3c0-1.3,1-2.3,2.3-2.3 C101.4,26.8,102.5,27.8,102.5,29.1z" style="fill: rgb(248, 200, 179);"/>
    </g>
    <g>
      <path class="st0" d="M109.9,29.1c0,1.3-1,2.3-2.3,2.3c-1.3,0-2.3-1-2.3-2.3c0-1.3,1-2.3,2.3-2.3 C108.8,26.8,109.9,27.8,109.9,29.1z" style="fill: rgb(248, 200, 179);"/>
    </g>
    <g>
      <path class="st0" d="M117.3,29.1c0,1.3-1,2.3-2.3,2.3c-1.3,0-2.3-1-2.3-2.3c0-1.3,1-2.3,2.3-2.3 C116.2,26.8,117.3,27.8,117.3,29.1z" style="fill: rgb(248, 200, 179);"/>
    </g>
    <g>
      <path class="st0" d="M80.3,36.4c0,1.3-1,2.3-2.3,2.3c-1.3,0-2.3-1-2.3-2.3c0-1.3,1-2.3,2.3-2.3C79.2,34,80.3,35.1,80.3,36.4z" style="fill: rgb(248, 200, 179);"/>
    </g>
    <g>
      <path class="st0" d="M87.7,36.4c0,1.3-1,2.3-2.3,2.3c-1.3,0-2.3-1-2.3-2.3c0-1.3,1-2.3,2.3-2.3C86.6,34,87.7,35.1,87.7,36.4z" style="fill: rgb(248, 200, 179);"/>
    </g>
    <g>
      <path class="st0" d="M95.1,36.4c0,1.3-1,2.3-2.3,2.3c-1.3,0-2.3-1-2.3-2.3c0-1.3,1-2.3,2.3-2.3C94,34,95.1,35.1,95.1,36.4z" style="fill: rgb(248, 200, 179);"/>
    </g>
    <g>
      <path class="st0" d="M102.5,36.4c0,1.3-1,2.3-2.3,2.3c-1.3,0-2.3-1-2.3-2.3c0-1.3,1-2.3,2.3-2.3C101.4,34,102.5,35.1,102.5,36.4z " style="fill: rgb(248, 200, 179);"/>
    </g>
    <g>
      <path class="st0" d="M109.9,36.4c0,1.3-1,2.3-2.3,2.3c-1.3,0-2.3-1-2.3-2.3c0-1.3,1-2.3,2.3-2.3C108.8,34,109.9,35.1,109.9,36.4z " style="fill: rgb(248, 200, 179);"/>
    </g>
    <g>
      <path class="st0" d="M117.3,36.4c0,1.3-1,2.3-2.3,2.3c-1.3,0-2.3-1-2.3-2.3c0-1.3,1-2.3,2.3-2.3C116.2,34,117.3,35.1,117.3,36.4z " style="fill: rgb(248, 200, 179);"/>
    </g>
    <g>
      <path class="st0" d="M80.3,43.7c0,1.3-1,2.3-2.3,2.3c-1.3,0-2.3-1-2.3-2.3c0-1.3,1-2.3,2.3-2.3C79.2,41.3,80.3,42.4,80.3,43.7z" style="fill: rgb(248, 200, 179);"/>
    </g>
    <g>
      <path class="st0" d="M87.7,43.7c0,1.3-1,2.3-2.3,2.3c-1.3,0-2.3-1-2.3-2.3c0-1.3,1-2.3,2.3-2.3C86.6,41.3,87.7,42.4,87.7,43.7z" style="fill: rgb(248, 200, 179);"/>
    </g>
    <g>
      <path class="st0" d="M95.1,43.7c0,1.3-1,2.3-2.3,2.3c-1.3,0-2.3-1-2.3-2.3c0-1.3,1-2.3,2.3-2.3C94,41.3,95.1,42.4,95.1,43.7z" style="fill: rgb(248, 200, 179);"/>
    </g>
    <g>
      <path class="st0" d="M102.5,43.7c0,1.3-1,2.3-2.3,2.3c-1.3,0-2.3-1-2.3-2.3c0-1.3,1-2.3,2.3-2.3 C101.4,41.3,102.5,42.4,102.5,43.7z" style="fill: rgb(248, 200, 179);"/>
    </g>
    <g>
      <path class="st0" d="M109.9,43.7c0,1.3-1,2.3-2.3,2.3c-1.3,0-2.3-1-2.3-2.3c0-1.3,1-2.3,2.3-2.3 C108.8,41.3,109.9,42.4,109.9,43.7z" style="fill: rgb(248, 200, 179);"/>
    </g>
    <g>
      <path class="st0" d="M117.3,43.7c0,1.3-1,2.3-2.3,2.3c-1.3,0-2.3-1-2.3-2.3c0-1.3,1-2.3,2.3-2.3 C116.2,41.3,117.3,42.4,117.3,43.7z" style="fill: rgb(248, 200, 179);"/>
    </g>
    <g>
      <path class="st0" d="M80.3,50.9c0,1.3-1,2.3-2.3,2.3c-1.3,0-2.3-1-2.3-2.3c0-1.3,1-2.3,2.3-2.3C79.2,48.6,80.3,49.7,80.3,50.9z" style="fill: rgb(248, 200, 179);"/>
    </g>
    <g>
      <path class="st0" d="M87.7,50.9c0,1.3-1,2.3-2.3,2.3c-1.3,0-2.3-1-2.3-2.3c0-1.3,1-2.3,2.3-2.3C86.6,48.6,87.7,49.6,87.7,50.9z" style="fill: rgb(248, 200, 179);"/>
    </g>
    <g>
      <path class="st0" d="M95.1,50.9c0,1.3-1,2.3-2.3,2.3s-2.3-1-2.3-2.3c0-1.3,1-2.3,2.3-2.3C94,48.6,95.1,49.7,95.1,50.9z" style="fill: rgb(248, 200, 179);"/>
    </g>
    <g>
      <path class="st0" d="M102.5,50.9c0,1.3-1,2.3-2.3,2.3c-1.3,0-2.3-1-2.3-2.3c0-1.3,1-2.3,2.3-2.3 C101.4,48.6,102.5,49.6,102.5,50.9z" style="fill: rgb(248, 200, 179);"/>
    </g>
    <g>
      <path class="st0" d="M109.9,50.9c0,1.3-1,2.3-2.3,2.3c-1.3,0-2.3-1-2.3-2.3c0-1.3,1-2.3,2.3-2.3 C108.8,48.6,109.9,49.6,109.9,50.9z" style="fill: rgb(248, 200, 179);"/>
    </g>
    <g>
      <path class="st0" d="M117.3,50.9c0,1.3-1,2.3-2.3,2.3c-1.3,0-2.3-1-2.3-2.3c0-1.3,1-2.3,2.3-2.3 C116.2,48.6,117.3,49.7,117.3,50.9z" style="fill: rgb(248, 200, 179);"/>
    </g>
    <rect x="64.6" y="8.7" class="st1" width="23.9" height="23.9" style="fill: rgb(38, 50, 56);"/>
  </g>
  <g transform="matrix(1, 0, 0, 1, 88.685753, 66.743195)">
    <path class="st0" d="M86,40.9c-5.5,0-9.9-4.4-9.9-9.9s4.4-9.9,9.9-9.9c5.5,0,9.9,4.4,9.9,9.9S91.5,40.9,86,40.9z M86,22.9 c-4.4,0-8.1,3.6-8.1,8.1s3.6,8.1,8.1,8.1c4.4,0,8.1-3.6,8.1-8.1S90.4,22.9,86,22.9z" style="fill: rgb(248, 200, 179);"/>
  </g>
  <g transform="matrix(1, 0, 0, 1, 492.352692, 57.013935)">
    <g>
      <path class="st0" d="M86,48.4c-9.6,0-17.4-7.8-17.4-17.4c0-9.6,7.8-17.4,17.4-17.4c9.6,0,17.4,7.8,17.4,17.4 C103.4,40.6,95.6,48.4,86,48.4z M86,19.5c-6.3,0-11.5,5.2-11.5,11.5c0,6.3,5.2,11.5,11.5,11.5c6.3,0,11.5-5.2,11.5-11.5 C97.5,24.7,92.3,19.5,86,19.5z" style="fill: rgb(38, 50, 56);"/>
    </g>
  </g>
  <g transform="matrix(1, 0, 0, 1, 481.292969, 96.99939)">
    <path class="st0" d="M52.9,106.2c-0.2,0-0.5-0.1-0.6-0.3c-0.4-0.4-0.4-0.9,0-1.3l3.9-3.9c0.4-0.4,0.9-0.4,1.3,0 c0.4,0.4,0.4,0.9,0,1.3l-3.9,3.9C53.4,106.1,53.2,106.2,52.9,106.2z M67.1,91.9c-0.2,0-0.5-0.1-0.6-0.3c-0.4-0.4-0.4-0.9,0-1.3 l3.9-3.9c0.4-0.4,0.9-0.4,1.3,0s0.4,0.9,0,1.3l-3.9,3.9C67.6,91.9,67.4,91.9,67.1,91.9z M81.3,77.7c-0.2,0-0.5-0.1-0.6-0.3 c-0.4-0.4-0.4-0.9,0-1.3l3.9-3.9c0.4-0.4,0.9-0.4,1.3,0c0.4,0.4,0.4,0.9,0,1.3L82,77.5C81.8,77.6,81.6,77.7,81.3,77.7z M95.5,63.5 c-0.2,0-0.5-0.1-0.6-0.3c-0.4-0.4-0.4-0.9,0-1.3l3.9-3.9c0.4-0.4,0.9-0.4,1.3,0c0.4,0.4,0.4,0.9,0,1.3l-3.9,3.9 C96,63.4,95.8,63.5,95.5,63.5z M109.8,49.3c-0.2,0-0.5-0.1-0.6-0.3c-0.4-0.4-0.4-0.9,0-1.3l3.9-3.9c0.4-0.4,0.9-0.4,1.3,0 c0.4,0.4,0.4,0.9,0,1.3l-3.9,3.9C110.2,49.2,110,49.3,109.8,49.3z M124,35.1c-0.2,0-0.5-0.1-0.6-0.3c-0.4-0.4-0.4-0.9,0-1.3 l3.9-3.9c0.4-0.4,0.9-0.4,1.3,0c0.4,0.4,0.4,0.9,0,1.3l-3.9,3.9C124.4,35,124.2,35.1,124,35.1z" style="fill: rgb(248, 200, 179);"/>
    <path class="st0" d="M52.9,89.8c-0.2,0-0.5-0.1-0.6-0.3c-0.4-0.4-0.4-0.9,0-1.3l76-76c0.4-0.4,0.9-0.4,1.3,0 c0.4,0.4,0.4,0.9,0,1.3l-76,76C53.4,89.7,53.2,89.8,52.9,89.8z" style="fill: rgb(248, 200, 179);"/>
  </g>
  <g transform="matrix(1, 0, 0, 1, 536.63385, 105.009377)">
    <path class="st0" d="M103.6,55.2h-8.8v-8.9c0-2.1-1.7-3.8-3.8-3.8c-2.1,0-3.8,1.7-3.8,3.8v8.9h-8.9c-2.1,0-3.8,1.7-3.8,3.8 c0,2.1,1.7,3.8,3.8,3.8h8.9v8.9c0,2.1,1.7,3.8,3.8,3.8c2.1,0,3.8-1.7,3.8-3.8v-8.9h8.8c2.1,0,3.8-1.7,3.8-3.8 C107.4,56.9,105.7,55.2,103.6,55.2z" style="fill: rgb(38, 50, 56);"/>
  </g>
  <g transform="matrix(1, 0, 0, 1, 570.039978, 40.571384)">
    <g>
      <path class="st0" d="M90.9,68.1c-5,0-9.1-4.1-9.1-9.1c0-5,4.1-9.1,9.1-9.1c5,0,9.1,4.1,9.1,9.1C100,64,95.9,68.1,90.9,68.1z M90.9,53c-3.3,0-6,2.7-6,6c0,3.3,2.7,6,6,6c3.3,0,6-2.7,6-6C96.9,55.7,94.3,53,90.9,53z" style="fill: rgb(248, 200, 179);"/>
    </g>
  </g>
  <g transform="matrix(1, 0, 0, 1, 620.782288, -20.834232)">
    <path class="st0" d="M111.5,56.5H75.2l18.1-18.1L111.5,56.5z M80.2,54.4h26.3L93.3,41.3L80.2,54.4z" style="fill: rgb(248, 200, 179);"/>
    <path class="st1" d="M88.5,79.6L70.4,61.5h36.2L88.5,79.6z M75.4,63.5l13.2,13.2l13.2-13.2H75.4z" style="fill: rgb(38, 50, 56);"/>
  </g>
  <g transform="matrix(1, 0, 0, 1, 460.467804, 5.312648)">
    <path class="st0" d="M86,40.9c-5.5,0-9.9-4.4-9.9-9.9s4.4-9.9,9.9-9.9c5.5,0,9.9,4.4,9.9,9.9S91.5,40.9,86,40.9z M86,22.9 c-4.4,0-8.1,3.6-8.1,8.1s3.6,8.1,8.1,8.1c4.4,0,8.1-3.6,8.1-8.1S90.4,22.9,86,22.9z" style="fill: rgb(248, 200, 179);"/>
  </g>
</svg>