<?xml version="1.0" encoding="UTF-8" standalone="no"?>
<svg
   xmlns:dc="http://purl.org/dc/elements/1.1/"
   xmlns:cc="http://creativecommons.org/ns#"
   xmlns:rdf="http://www.w3.org/1999/02/22-rdf-syntax-ns#"
   xmlns:svg="http://www.w3.org/2000/svg"
   xmlns="http://www.w3.org/2000/svg"
   viewBox="0 0 64 64"
   height="64"
   width="64"
   xml:space="preserve"
   id="svg2"
   version="1.1"><metadata
     id="metadata8"><rdf:RDF><cc:Work
         rdf:about=""><dc:format>image/svg+xml</dc:format><dc:type
           rdf:resource="http://purl.org/dc/dcmitype/StillImage" /></cc:Work></rdf:RDF></metadata><defs
     id="defs6"><clipPath
       id="clipPath18"
       clipPathUnits="userSpaceOnUse"><path
         id="path16"
         d="M 0,48 H 48 V 0 H 0 Z" /></clipPath></defs><g
     transform="matrix(1.3333333,0,0,-1.3333333,0,64)"
     id="g10"><g
       id="g12"><g
         clip-path="url(#clipPath18)"
         id="g14"><g
           transform="translate(8,36)"
           id="g20"><path
             id="path22"
             style="fill:#f19066;fill-opacity:1;fill-rule:nonzero;stroke:none"
             d="M 0,0 H 36 V 4 H 0 C -2.21,4 -4,2.21 -4,0 v -22 h -4 v -6 h 28 v 6 H 0 Z" /></g><g
           transform="translate(46,32)"
           id="g24"><path
             id="path26"
             style="fill:#263238;fill-opacity:1;fill-rule:nonzero;stroke:none"
             d="m 0,0 h -12 c -1.1,0 -2,-0.9 -2,-2 v -20 c 0,-1.1 0.9,-2 2,-2 H 0 c 1.1,0 2,0.9 2,2 V -2 C 2,-0.9 1.1,0 0,0" /></g><path
           id="path28"
           style="fill:#ffffff;fill-opacity:1;fill-rule:nonzero;stroke:none"
           d="m 44,14 h -8 v 14 h 8 z" /></g></g></g></svg>