<?xml version="1.0" encoding="UTF-8" standalone="no"?>
<svg
   xmlns:dc="http://purl.org/dc/elements/1.1/"
   xmlns:cc="http://creativecommons.org/ns#"
   xmlns:rdf="http://www.w3.org/1999/02/22-rdf-syntax-ns#"
   xmlns:svg="http://www.w3.org/2000/svg"
   xmlns="http://www.w3.org/2000/svg"
   viewBox="0 0 64 64"
   height="64"
   width="64"
   xml:space="preserve"
   id="svg2"
   version="1.1"><metadata
     id="metadata8"><rdf:RDF><cc:Work
         rdf:about=""><dc:format>image/svg+xml</dc:format><dc:type
           rdf:resource="http://purl.org/dc/dcmitype/StillImage" /></cc:Work></rdf:RDF></metadata><defs
     id="defs6"><clipPath
       id="clipPath18"
       clipPathUnits="userSpaceOnUse"><path
         id="path16"
         d="M 0,48 H 48 V 0 H 0 Z" /></clipPath></defs><g
     transform="matrix(1.3333333,0,0,-1.3333333,0,64)"
     id="g10"><g
       id="g12"><g
         clip-path="url(#clipPath18)"
         id="g14"><g
           transform="translate(33.8398,8.1299)"
           id="g20"><path
             id="path22"
             style="fill:#263238;fill-opacity:1;fill-rule:nonzero;stroke:none"
             d="m 0,0 c -2.38,0 -4.47,0.601 -6.2,1.771 -2.97,2.019 -4.75,5.299 -4.75,8.779 0,0.551 0.45,1 1,1 0.55,0 1,-0.449 1,-1 0,-2.81 1.45,-5.47 3.88,-7.12 C -3.66,2.47 -2,2 0,2 0.48,2 1.29,2.05 2.09,2.19 2.63,2.29 3.15,1.92 3.25,1.38 3.351,0.84 2.98,0.32 2.44,0.22 1.271,0.01 0.28,0 0,0 m -14.33,-3.7 c -0.26,0 -0.51,0.1 -0.71,0.301 -1.73,1.75 -2.67,2.859 -4.02,5.269 -1.38,2.46 -2.11,5.47 -2.11,8.691 0,5.939 5.08,10.779 11.33,10.779 6.25,0 11.33,-4.83 11.33,-10.779 0,-0.551 -0.45,-1 -1,-1 -0.55,0 -1,0.449 -1,1 0,4.839 -4.179,8.779 -9.33,8.779 -5.14,0 -9.33,-3.94 -9.33,-8.779 0,-2.881 0.64,-5.54 1.85,-7.71 1.29,-2.301 2.15,-3.29 3.69,-4.841 0.39,-0.39 0.39,-1.03 -0.01,-1.409 -0.18,-0.211 -0.44,-0.301 -0.69,-0.301 m -12.51,24.13 c -0.2,0 -0.4,0.06 -0.58,0.18 -0.45,0.32 -0.56,0.94 -0.24,1.39 1.98,2.8 4.51,5 7.51,6.55 6.29,3.25 14.33,3.26 20.63,0.02 2.99,-1.54 5.51,-3.72 7.5,-6.5 C 8.3,21.62 8.2,21 7.75,20.68 7.3,20.36 6.67,20.46 6.351,20.91 c -1.801,2.52 -4.08,4.5 -6.781,5.88 -5.74,2.95 -13.07,2.94 -18.8,-0.02 -2.71,-1.4 -5,-3.39 -6.79,-5.93 -0.2,-0.27 -0.51,-0.41 -0.82,-0.41 m 28.62,10.5 c -0.16,0 -0.31,0.04 -0.46,0.11 -3.83,1.98 -7.16,2.83 -11.14,2.83 -3.97,0 -7.71,-0.95 -11.14,-2.82 -0.49,-0.26 -1.09,-0.09 -1.36,0.4 -0.26,0.49 -0.09,1.09 0.4,1.36 3.73,2.03 7.8,3.06 12.1,3.06 4.26,0 7.98,-0.94 12.06,-3.05 C 2.73,32.57 2.92,31.96 2.67,31.47 2.49,31.13 2.141,30.93 1.78,30.93" /></g><g
           transform="translate(29.8096,4)"
           id="g24"><path
             id="path26"
             style="fill:#f19066;fill-opacity:1;fill-rule:nonzero;stroke:none"
             d="m 0,0 c -0.09,0 -0.18,0.01 -0.26,0.04 -3.189,0.87 -5.27,2.05 -7.429,4.2 -2.79,2.78 -4.331,6.49 -4.331,10.44 0,3.25 2.76,5.89 6.161,5.89 3.399,0 6.16,-2.64 6.16,-5.89 0,-2.14 1.87,-3.89 4.159,-3.89 2.29,0 4.16,1.74 4.16,3.89 0,7.54 -6.5,13.67 -14.49,13.67 -5.69,0 -10.88,-3.16 -13.219,-8.06 -0.781,-1.62 -1.171,-3.51 -1.171,-5.61 0,-1.56 0.14,-4.02 1.33,-7.21 0.19,-0.52 -0.07,-1.09 -0.59,-1.29 -0.52,-0.19 -1.089,0.07 -1.29,0.59 -0.98,2.63 -1.46,5.21 -1.46,7.91 0,2.4 0.46,4.58 1.371,6.47 2.67,5.58 8.569,9.19 15.02,9.19 9.089,0 16.489,-7.03 16.489,-15.67 0,-3.25 -2.769,-5.89 -6.16,-5.89 -3.389,0 -6.16,2.64 -6.16,5.89 0,2.14 -1.869,3.89 -4.16,3.89 -2.29,0 -4.16,-1.74 -4.16,-3.89 0,-3.41 1.33,-6.62 3.74,-9.02 C -4.399,3.77 -2.56,2.73 0.261,1.96 0.79,1.81 1.11,1.26 0.96,0.73 0.841,0.29 0.44,0 0,0" /></g></g></g></g></svg>