<?xml version="1.0" encoding="UTF-8" standalone="no"?>
<svg
   xmlns:dc="http://purl.org/dc/elements/1.1/"
   xmlns:cc="http://creativecommons.org/ns#"
   xmlns:rdf="http://www.w3.org/1999/02/22-rdf-syntax-ns#"
   xmlns:svg="http://www.w3.org/2000/svg"
   xmlns="http://www.w3.org/2000/svg"
   viewBox="0 0 64 64"
   height="64"
   width="64"
   xml:space="preserve"
   id="svg2"
   version="1.1"><metadata
     id="metadata8"><rdf:RDF><cc:Work
         rdf:about=""><dc:format>image/svg+xml</dc:format><dc:type
           rdf:resource="http://purl.org/dc/dcmitype/StillImage" /></cc:Work></rdf:RDF></metadata><defs
     id="defs6"><clipPath
       id="clipPath18"
       clipPathUnits="userSpaceOnUse"><path
         id="path16"
         d="M 0,48 H 48 V 0 H 0 Z" /></clipPath></defs><g
     transform="matrix(1.3333333,0,0,-1.3333333,0,64)"
     id="g10"><g
       id="g12"><g
         clip-path="url(#clipPath18)"
         id="g14"><g
           transform="translate(24,10)"
           id="g20"><path
             id="path22"
             style="fill:#f19066;fill-opacity:1;fill-rule:nonzero;stroke:none"
             d="m 0,0 c -7.73,0 -14,6.27 -14,14 0,7.73 6.27,14 14,14 C 7.73,28 14,21.73 14,14 14,6.27 7.73,0 0,0 M 17.88,16 C 16.96,24.34 10.34,30.96 2,31.88 V 36 H -2 V 31.88 C -10.34,30.96 -16.96,24.34 -17.88,16 H -22 v -4 h 4.12 C -16.96,3.66 -10.34,-2.96 -2,-3.88 V -8 h 4 v 4.12 C 10.34,-2.96 16.96,3.66 17.88,12 H 22 v 4 z M 0,22 c -4.42,0 -8,-3.58 -8,-8 0,-4.42 3.58,-8 8,-8 4.42,0 8,3.58 8,8 0,4.42 -3.58,8 -8,8" /></g><g
           transform="translate(24,32)"
           id="g24"><path
             id="path26"
             style="fill:#263238;fill-opacity:1;fill-rule:nonzero;stroke:none"
             d="m 0,0 c -4.42,0 -8,-3.58 -8,-8 0,-4.42 3.58,-8 8,-8 4.42,0 8,3.58 8,8 0,4.42 -3.58,8 -8,8" /></g></g></g></g></svg>