<?xml version="1.0" encoding="UTF-8" standalone="no"?>
<svg
   xmlns:dc="http://purl.org/dc/elements/1.1/"
   xmlns:cc="http://creativecommons.org/ns#"
   xmlns:rdf="http://www.w3.org/1999/02/22-rdf-syntax-ns#"
   xmlns:svg="http://www.w3.org/2000/svg"
   xmlns="http://www.w3.org/2000/svg"
   viewBox="0 0 64 64"
   height="64"
   width="64"
   xml:space="preserve"
   id="svg2"
   version="1.1"><metadata
     id="metadata8"><rdf:RDF><cc:Work
         rdf:about=""><dc:format>image/svg+xml</dc:format><dc:type
           rdf:resource="http://purl.org/dc/dcmitype/StillImage" /></cc:Work></rdf:RDF></metadata><defs
     id="defs6" /><g
     transform="matrix(1.3333333,0,0,-1.3333333,0,64)"
     id="g10"><path
       id="path12"
       style="fill:#263238;fill-opacity:1;fill-rule:nonzero;stroke:none"
       d="M 36,30 H 12 v 4 h 24 z m 0,-8 H 12 v 4 h 24 z m 0,-8 H 12 v 4 h 24 z" /><g
       transform="translate(6,4)"
       id="g14"><path
         id="path16"
         style="fill:#f19066;fill-opacity:1;fill-rule:nonzero;stroke:none"
         d="m 0,0 3,3 3,-3 3,3 3,-3 3,3 3,-3 3,3 3,-3 3,3 3,-3 3,3 3,-3 v 40 l -3,-3 -3,3 -3,-3 -3,3 -3,-3 -3,3 -3,-3 -3,3 L 9,37 6,40 3,37 0,40 Z M 30,26 H 6 v 4 h 24 z m 0,-8 H 6 v 4 h 24 z m 0,-8 H 6 v 4 h 24 z" /></g></g></svg>