<?xml version="1.0" encoding="UTF-8" standalone="no"?>
<svg
   xmlns:dc="http://purl.org/dc/elements/1.1/"
   xmlns:cc="http://creativecommons.org/ns#"
   xmlns:rdf="http://www.w3.org/1999/02/22-rdf-syntax-ns#"
   xmlns:svg="http://www.w3.org/2000/svg"
   xmlns="http://www.w3.org/2000/svg"
   viewBox="0 0 64 64"
   height="64"
   width="64"
   xml:space="preserve"
   id="svg2"
   version="1.1"><metadata
     id="metadata8"><rdf:RDF><cc:Work
         rdf:about=""><dc:format>image/svg+xml</dc:format><dc:type
           rdf:resource="http://purl.org/dc/dcmitype/StillImage" /></cc:Work></rdf:RDF></metadata><defs
     id="defs6"><clipPath
       id="clipPath18"
       clipPathUnits="userSpaceOnUse"><path
         id="path16"
         d="M 0,48 H 48 V 0 H 0 Z" /></clipPath></defs><g
     transform="matrix(1.3333333,0,0,-1.3333333,0,64)"
     id="g10"><g
       id="g12"><g
         clip-path="url(#clipPath18)"
         id="g14"><g
           transform="translate(16,22)"
           id="g20"><path
             id="path22"
             style="fill:#f19066;fill-opacity:1;fill-rule:nonzero;stroke:none"
             d="m 0,0 c -4.67,0 -14,-2.34 -14,-7 v -5 h 28 v 5 C 14,-2.34 4.67,0 0,0 m 0,4 c 3.31,0 5.98,2.69 5.98,6 0,3.31 -2.67,6 -5.98,6 -3.31,0 -6,-2.69 -6,-6 0,-3.31 2.69,-6 6,-6" /></g><g
           transform="translate(32,22)"
           id="g24"><path
             id="path26"
             style="fill:#263238;fill-opacity:1;fill-rule:nonzero;stroke:none"
             d="M 0,0 C -0.58,0 -1.23,-0.04 -1.93,-0.11 0.39,-1.78 2,-4.03 2,-7 v -5 h 12 v 5 C 14,-2.34 4.67,0 0,0 m 0,4 c 3.31,0 5.98,2.69 5.98,6 0,3.31 -2.67,6 -5.98,6 -3.31,0 -6,-2.69 -6,-6 0,-3.31 2.69,-6 6,-6" /></g></g></g></g></svg>