<svg id="a417f5c9-8937-4caa-a14d-fadfbcff2adf" data-name="Calque 1" xmlns="http://www.w3.org/2000/svg" viewBox="0 0 193.94 193.93"><g id="fe209338-d7b2-4a99-bd9b-2255c15ed534" data-name="Calque 2"><g id="fdd8b787-ceac-4a65-b7d9-0a488c3a3c96" data-name="Calque 1-2"><circle cx="111.94" cy="111.93" r="82" style="fill:#f8c8b3"/><path d="M91.92,183.85a91.93,91.93,0,1,1,91.93-91.93A91.93,91.93,0,0,1,91.92,183.85Zm0-174a82,82,0,1,0,82,82,82,82,0,0,0-82-82Z" transform="translate(0.01 0.01)" style="fill:#263238"/><path d="M97.11,36.58a55.65,55.65,0,1,0,50.34,50.34A55.66,55.66,0,0,0,97.11,36.58Zm31.51,28a45.51,45.51,0,0,1,9.09,25,.85.85,0,0,1-.82.88.55.55,0,0,1-.18,0,84,84,0,0,0-28.9-1.12.83.83,0,0,1-.9-.51q-1.56-3.69-3.18-7.14a.85.85,0,0,1,.41-1.12h0a77,77,0,0,0,23.22-16,.85.85,0,0,1,1.2,0Zm-8.16-7.18A67.08,67.08,0,0,1,99.6,71.83a.86.86,0,0,1-1.1-.38A174.88,174.88,0,0,0,83.44,48.33a.85.85,0,0,1,.23-1.19A.81.81,0,0,1,84,47a45.67,45.67,0,0,1,36.43,9.15.88.88,0,0,1,0,1.24ZM73,51.11A159.84,159.84,0,0,1,89,74.64a.85.85,0,0,1-.32,1.17.71.71,0,0,1-.18.08c-11.74,3.43-25,4.93-39.8,5.49a.87.87,0,0,1-.9-.82,1,1,0,0,1,0-.25A46,46,0,0,1,72,50.89.86.86,0,0,1,73,51.11ZM47.14,91.33c15.86-.51,31.71-2.06,46.23-6.66a.84.84,0,0,1,1,.43c.88,1.84,1.74,3.75,2.59,5.71A.85.85,0,0,1,96.58,92l-.12,0C82,96.65,69.15,106.19,57.66,120.64a.86.86,0,0,1-1.21.15l-.09-.08c-6.44-7-9.9-17.44-10.06-28.51A.87.87,0,0,1,47.14,91.33Zm17.63,36.26C75.37,114,87,105.24,100.22,101.15a.85.85,0,0,1,1.06.53,174.64,174.64,0,0,1,8.11,31.91.89.89,0,0,1-.53.95,45.66,45.66,0,0,1-43.93-5.72.87.87,0,0,1-.17-1.22Zm53.67.2a186.21,186.21,0,0,0-7.31-27.88.84.84,0,0,1,.49-1.08.87.87,0,0,1,.22,0,76.82,76.82,0,0,1,24.28,1.66.87.87,0,0,1,.67,1,45.84,45.84,0,0,1-17,26.87.85.85,0,0,1-1.2-.19A.82.82,0,0,1,118.44,127.79Z" transform="translate(0.01 0.01)" style="fill:#263238"/></g></g></svg>