<svg id="eec360e2-951c-473d-b8b7-2ea54d90e086" data-name="Calque 1" xmlns="http://www.w3.org/2000/svg" viewBox="0 0 194.08 194.08"><g id="b16cde78-da4e-4c5d-aa43-a70502987dd3" data-name="Calque 2"><g id="f3aba02d-ba3a-4db5-b3e2-de101c687012" data-name="Calque 1-2"><circle cx="112.08" cy="112.08" r="82" style="fill:#f8c8b3"/><path d="M92.08,184.16a92.08,92.08,0,1,1,92.08-92.08A92.09,92.09,0,0,1,92.08,184.16Zm0-174.27a82.19,82.19,0,1,0,82.19,82.19A82.19,82.19,0,0,0,92.08,9.89Z" transform="translate(0 0)" style="fill:#263238"/><path d="M77.64,92.51v53.37A1.39,1.39,0,0,0,79,147.27H98.85a1.39,1.39,0,0,0,1.39-1.39V91.65h14.37A1.39,1.39,0,0,0,116,90.37L117.37,74a1.39,1.39,0,0,0-1.3-1.48H100.24V60.93A4.92,4.92,0,0,1,105.15,56h11.08a1.39,1.39,0,0,0,1.39-1.39V38.28a1.39,1.39,0,0,0-1.39-1.39H97.52A19.88,19.88,0,0,0,77.64,56.77h0V72.52H67.73a1.39,1.39,0,0,0-1.39,1.39V90.26a1.39,1.39,0,0,0,1.39,1.39h9.91Z" transform="translate(0 0)" style="fill:#263238;fill-rule:evenodd"/></g></g></svg>