<svg id="f4f83808-afae-4940-9b4e-a235322866c4" data-name="Calque 1" xmlns="http://www.w3.org/2000/svg" viewBox="0 0 193.44 193.44"><g id="b238cb0d-331d-47d0-a23f-c52c477a8d31" data-name="Calque 2"><g id="be0df6d2-d535-4d09-a5a0-e4b8048b2bd4" data-name="Calque 1-2"><circle cx="111.44" cy="111.44" r="82" style="fill:#f8c8b3"/><path d="M91.48,183A91.48,91.48,0,1,1,183,91.48,91.48,91.48,0,0,1,91.48,183Zm0-174.27a82.79,82.79,0,1,0,82.79,82.79A82.79,82.79,0,0,0,91.48,8.73ZM122.33,54.4a6.77,6.77,0,1,0,6.76,6.78h0a6.77,6.77,0,0,0-6.73-6.81h0ZM92.23,63a28.44,28.44,0,1,0,28.44,28.44A28.44,28.44,0,0,0,92.23,63Zm0,46.66a18.22,18.22,0,1,1,18.22-18.22,18.22,18.22,0,0,1-18.22,18.22h0Zm57.38-41.85a34.68,34.68,0,0,0-34.68-34.68H69.15A34.68,34.68,0,0,0,34.46,67.8v45.83a34.7,34.7,0,0,0,34.69,34.68h45.77a34.7,34.7,0,0,0,34.69-34.68Zm-10.87,45.78a23.81,23.81,0,0,1-23.82,23.82H69.15a23.81,23.81,0,0,1-23.82-23.82V67.85A23.81,23.81,0,0,1,69.1,44h45.82a23.81,23.81,0,0,1,23.82,23.8v45.79Z" transform="translate(-0.04 -0.04)" style="fill:#263238"/></g></g></svg>