<svg id="b07ab785-cea3-4e2d-8aa0-057b018a7e66" data-name="Calque 1" xmlns="http://www.w3.org/2000/svg" viewBox="0 0 193.94 193.93"><g id="bc445f56-aacf-4203-a9b2-a39463ca0883" data-name="Calque 2"><g id="e96e04bb-e71c-48b7-b5d2-35d92e67bf2a" data-name="Calque 1-2"><circle cx="111.94" cy="111.93" r="82" style="fill:#f8c8b3"/><path d="M91.93,183.85a91.93,91.93,0,1,1,91.92-91.94h0A92,92,0,0,1,91.93,183.85Zm0-174a82,82,0,1,0,82,82h0a82.13,82.13,0,0,0-82-82Z" transform="translate(0.01 0.01)" style="fill:#263238"/><path d="M143.89,98.92v34.33a1.52,1.52,0,0,1-1.51,1.53H124.64a1.53,1.53,0,0,1-1.54-1.52h0V101.33c0-8.4-3-14.14-10.53-14.14-5.74,0-9.15,3.86-10.66,7.6a14,14,0,0,0-.69,5.07v33.39a1.55,1.55,0,0,1-1.53,1.53H82a1.52,1.52,0,0,1-1.53-1.51v0c0-8.5.22-49.75,0-59.44A1.54,1.54,0,0,1,82,72.25h17.7a1.53,1.53,0,0,1,1.53,1.53h0v7.32a2.39,2.39,0,0,0-.13.21h.13v-.21C104,76.86,108.91,70.78,120,70.78c13.68,0,23.93,8.94,23.93,28.14Zm-94.2,35.86H67.4a1.52,1.52,0,0,0,1.53-1.51V73.79a1.53,1.53,0,0,0-1.52-1.54H49.69a1.54,1.54,0,0,0-1.54,1.54h0v59.46a1.52,1.52,0,0,0,1.53,1.53Z" transform="translate(0.01 0.01)" style="fill:#263238"/><circle cx="57.93" cy="53.18" r="11.13" style="fill:#263238"/></g></g></svg>