<svg width="428" height="428" viewBox="0 0 428 428" fill="none" xmlns="http://www.w3.org/2000/svg">
<g clip-path="url(#clip0)">
<g opacity="0.4">
<path d="M370.33 335.879C336.23 366.96 286.904 378.837 243.765 374.749C210.293 371.566 180.942 355.614 155.721 331.519C131.81 308.633 112.898 281.461 80.6292 273.459C55.3181 267.164 26.0528 261.612 15.7465 230.594C10.6412 215.068 10.7955 197.618 13.5036 180.96C22.0043 127.986 53.236 83.1298 98.8234 68.3582C137.876 55.6742 181.53 61.9297 216.664 82.1123C223.34 85.9901 229.761 90.3788 235.77 95.4383C251.493 108.676 267.639 125.23 287.208 131.856C310.321 139.686 333.431 130.705 356.915 132.984C381.165 135.325 397.668 155.005 405.155 180.637C420.837 234.166 411.435 298.404 370.33 335.879Z" fill="#FF9064"/>
<path opacity="0.7" d="M370.33 335.879C336.23 366.96 286.904 378.837 243.765 374.749C210.293 371.566 180.942 355.614 155.721 331.519C131.81 308.633 112.898 281.461 80.6292 273.459C55.3181 267.164 26.0528 261.612 15.7465 230.594C10.6412 215.068 10.7955 197.618 13.5036 180.96C22.0043 127.986 53.236 83.1298 98.8234 68.3582C137.876 55.6742 181.53 61.9297 216.664 82.1123C223.34 85.9901 229.761 90.3788 235.77 95.4383C251.493 108.676 267.639 125.23 287.208 131.856C310.321 139.686 333.431 130.705 356.915 132.984C381.165 135.325 397.668 155.005 405.155 180.637C420.837 234.166 411.435 298.404 370.33 335.879Z" fill="white"/>
</g>
</g>
<defs>
<clipPath id="clip0">
<rect width="428" height="428" fill="white"/>
</clipPath>
</defs>
</svg>
