<svg id="f074be9f-26d0-4c46-8e6f-9379e6f6dc3c" data-name="Calque 1" xmlns="http://www.w3.org/2000/svg" viewBox="0 0 641.75 233.58"><g id="aa3a3033-807b-40b3-b16f-1561fff05b84" data-name="Calque 2"><g id="fb43f14a-0ebb-4c90-894b-18a404c50708" data-name="Calque 5"><path d="M184.27,41.1l-58-34.77a44.12,44.12,0,0,0-45.54,0l-58,34.77A47.62,47.62,0,0,0,0,82v69.56a47.58,47.58,0,0,0,22.73,40.91l58,34.78a44.12,44.12,0,0,0,45.54,0l58-34.78c.46-.29.93-.59,1.35-.88a47.57,47.57,0,0,0,21.38-40V82A47.62,47.62,0,0,0,184.27,41.1Z" transform="translate(0 0)" style="fill:#f19066"/><path d="M287.33,89.41a27.4,27.4,0,0,1-23.23,12.78,26.61,26.61,0,0,1-10.64-2.13,27.39,27.39,0,0,1-8.66-5.8,27.67,27.67,0,0,1-5.87-8.56,26.43,26.43,0,0,1,0-20.93,27.67,27.67,0,0,1,5.87-8.56,27.39,27.39,0,0,1,8.66-5.8,26.61,26.61,0,0,1,10.64-2.13,27.89,27.89,0,0,1,7.1.92,27.14,27.14,0,0,1,6.42,2.61,26.43,26.43,0,0,1,5.45,4.07,27.9,27.9,0,0,1,4.26,5.25L279,69.36a16.24,16.24,0,0,0-2.35-4,15.23,15.23,0,0,0-3.4-3.16,16.21,16.21,0,0,0-4.25-2,15.7,15.7,0,0,0-4.86-.74A16.07,16.07,0,0,0,252.75,64a16.72,16.72,0,0,0-3.44,5,15.74,15.74,0,0,0,0,12.34,16.72,16.72,0,0,0,3.44,5,15.89,15.89,0,0,0,5.12,3.41A15.69,15.69,0,0,0,264.1,91a16,16,0,0,0,4.86-.73,16.38,16.38,0,0,0,4.25-2.06,15.64,15.64,0,0,0,5.79-7Z" transform="translate(0 0)" style="fill:#342e2e"/><path d="M316.38,102.19a26.61,26.61,0,0,1-10.64-2.13,27.39,27.39,0,0,1-8.66-5.8,27.67,27.67,0,0,1-5.87-8.56,26.43,26.43,0,0,1,0-20.93,27.67,27.67,0,0,1,5.87-8.56A27.4,27.4,0,0,1,327,50.41a27.48,27.48,0,0,1,14.53,14.36,26.43,26.43,0,0,1,0,20.93A27.48,27.48,0,0,1,327,100.06,26.61,26.61,0,0,1,316.38,102.19Zm0-42.82A15.94,15.94,0,0,0,305,64a16.41,16.41,0,0,0-3.44,5,15.65,15.65,0,0,0,0,12.34,16.54,16.54,0,0,0,3.44,5,16,16,0,0,0,5.08,3.41A15.54,15.54,0,0,0,316.35,91a15.37,15.37,0,0,0,6.2-1.25,16.26,16.26,0,0,0,8.59-8.44,15.65,15.65,0,0,0,0-12.34,16.31,16.31,0,0,0-8.59-8.45A15.55,15.55,0,0,0,316.38,59.37Z" transform="translate(0 0)" style="fill:#342e2e"/><path d="M349.09,102.27V48.35h11.43V91h25.76v11.32Z" transform="translate(0 0)" style="fill:#342e2e"/><path d="M393.9,102.27V48.35h11.43V91h25.76v11.32Z" transform="translate(0 0)" style="fill:#342e2e"/><path d="M450.59,59.52V70.46h24.64V81.7H450.59V91H476.2v11.24h-37V48.35h37V59.52Z" transform="translate(0 0)" style="fill:#342e2e"/><path d="M533.18,89.41a26.37,26.37,0,0,1-4.26,5.22,27.45,27.45,0,0,1-19,7.56,26.69,26.69,0,0,1-10.65-2.13A27.55,27.55,0,0,1,484.79,85.7a26.35,26.35,0,0,1,0-20.93,27.55,27.55,0,0,1,14.52-14.36A26.71,26.71,0,0,1,510,48.28a27.81,27.81,0,0,1,7.09.92,27.14,27.14,0,0,1,6.42,2.61A26.43,26.43,0,0,1,529,55.88a27.59,27.59,0,0,1,4.26,5.25l-8.36,8.23a16.42,16.42,0,0,0-2.35-4,15.7,15.7,0,0,0-3.4-3.16,16.42,16.42,0,0,0-4.26-2A16.13,16.13,0,0,0,498.6,64a16.38,16.38,0,0,0-3.43,5,15.65,15.65,0,0,0,0,12.34,16.51,16.51,0,0,0,3.43,5,15.89,15.89,0,0,0,5.12,3.41A15.65,15.65,0,0,0,510,91.1a16,16,0,0,0,4.85-.73,16.45,16.45,0,0,0,4.26-2.06,16,16,0,0,0,3.4-3.12,15.64,15.64,0,0,0,2.35-4Z" transform="translate(0 0)" style="fill:#342e2e"/><path d="M573.74,59.52H561v42.75H549.61V59.52H536.92V48.35h36.82Z" transform="translate(0 0)" style="fill:#342e2e"/><path d="M594.35,48.43v53.84H583V48.43Z" transform="translate(0 0)" style="fill:#342e2e"/><path d="M616.3,59.52V71.64h24.5V82.73H616.3v19.54H605V48.43h36.75V59.52Z" transform="translate(0 0)" style="fill:#342e2e"/><path d="M246.77,133.75c0-17.13,16.32-22.41,30.8-22.41,14.83,0,30.92,6.09,31,23.44,0,16.44-16.55,23.1-30.8,23.1-11.72.12-25.4,2.87-25.4,16.67v12.29h55.4v6H246.31V174.66c0-17.81,16.43-22.41,31.26-22.41,10.46,0,25.28-3.91,25.28-17.47,0-14.14-14.25-18-25.28-18-10.69,0-24.71,3.67-24.71,17Z" transform="translate(0 0)" style="fill:#596275"/><path d="M321.48,142.94c0-42.18,61.6-42.06,61.6,0v19.19c0,42.07-61.6,42.18-61.6,0Zm6.09,19.19c0,34.48,49.42,34.37,49.42,0V142.94c0-34.25-49.42-34.36-49.42,0Z" transform="translate(0 0)" style="fill:#596275"/><path d="M390.9,187.42h13.56V117.89H390.9v-5.52h19.77v75h13.56v5.4H390.9Z" transform="translate(0 0)" style="fill:#596275"/><path d="M88.21,170.49A45,45,0,0,1,53.5,97a45,45,0,1,0,63.29,63.29A44.75,44.75,0,0,1,88.21,170.49Z" transform="translate(0 0)" style="fill:#342e2e;opacity:0.20000000298023224;isolation:isolate"/><circle cx="118.43" cy="95.15" r="45.17" style="fill:#fff;opacity:0.800000011920929;isolation:isolate"/><path d="M118.34,104.37A46.15,46.15,0,0,0,56.12,92.84a1.35,1.35,0,1,0,1.4,2.31l.06,0a43.49,43.49,0,1,1-4.23,3.1,1.35,1.35,0,0,0-1.73-2.08h0a46.17,46.17,0,1,0,66.72,8.24Z" transform="translate(0 0)" style="fill:#596275;stroke:#596275;stroke-miterlimit:10"/><circle cx="118.43" cy="95.15" r="45.17" style="fill:none;stroke:#342e2e;stroke-miterlimit:10;stroke-width:4px"/><path d="M110.26,49.93,73.07,87.12c-.12,1.61-.17,3.24-.13,4.88l42.21-42.21C113.5,49.76,111.87,49.8,110.26,49.93Z" transform="translate(0 0)" style="fill:#342e2e;stroke:#342e2e;stroke-miterlimit:10"/><path d="M123.84,50.71l-50,50c.25,1.3.54,2.59.87,3.88l53-53C126.43,51.24,125.13,51,123.84,50.71Z" transform="translate(0 0)" style="fill:#342e2e;stroke:#342e2e;stroke-miterlimit:10"/><path d="M135,54,77.1,111.81c.44,1.11.91,2.22,1.42,3.32l59.75-59.75C137.17,54.87,136.06,54.39,135,54Z" transform="translate(0 0)" style="fill:#342e2e;stroke:#342e2e;stroke-miterlimit:10"/><path d="M144.54,58.72,81.86,121.39c.59,1,1.21,2,1.86,2.9l63.72-63.72C146.48,59.93,145.51,59.31,144.54,58.72Z" transform="translate(0 0)" style="fill:#342e2e;stroke:#342e2e;stroke-miterlimit:10"/><path d="M152.93,64.68l-65.1,65.11c.71.86,1.45,1.7,2.21,2.54l65.43-65.44C154.64,66.13,153.79,65.39,152.93,64.68Z" transform="translate(0 0)" style="fill:#342e2e;stroke:#342e2e;stroke-miterlimit:10"/><path d="M101,135.77l58.84-58.84c-.71-.86-1-2.17-1.75-3L98.42,133.55" transform="translate(0 0)" style="fill:#342e2e;stroke:#342e2e;stroke-miterlimit:10"/><polyline points="161.43 84.9 108.6 137.73 111.97 139.11 161.31 89.76" style="fill:#342e2e;stroke:#342e2e;stroke-miterlimit:10"/><polygon points="162.44 98.24 121.68 139 125.96 139.47 161.15 104.28 162.44 98.24" style="fill:#342e2e;stroke:#342e2e;stroke-miterlimit:10"/></g></g></svg>