<svg id="af806ca3-bdff-495f-b3ef-9a091436f48e" data-name="Calque 1" xmlns="http://www.w3.org/2000/svg" xmlns:xlink="http://www.w3.org/1999/xlink" viewBox="0 0 366.17 368.87"><defs><clipPath id="fb96f574-821e-47bd-a542-446dcc3f6d4d" transform="translate(0)"><path d="M144.14,161.52s-26-3.09-43.18,10.28S69.08,241,69.42,267.8s10.29,40.1,35.31,51.07,71.63,6.86,97.68-1.37,34.62-37,34.28-52.44-17.48-33.25-23.31-37-22.28-11.65-30.5-24S162.65,164.94,144.14,161.52Z" style="fill:none"/></clipPath><clipPath id="ffaecc10-bfb8-4530-b082-1c166bf213b5" transform="translate(0)"><path d="M143.22,164.26s-9.33,3-10.67,5.34-.33,18.66-.33,20.66,1.17-1.16,2.17-3.5,4.5-5.83,5.66-5.5,1.84,1.67,1.84,3.84,2.66,5.16,5,6.83,4.5,3.33,4.5,3.33,4.83-7,6-8.83,1-5.67,1.16-7,3.17,3.67,3.84,2.33-1.5-2.5-3.84-6.16-1.66-7.5-5.16-10.17S145.89,163.6,143.22,164.26Z" style="fill:none"/></clipPath><clipPath id="e2ab3d8e-8739-4e21-9065-31f8d498e852" transform="translate(0)"><path d="M121.14,231.85s-5.75-8.25-12.75-9-15.5,5-15.75,7-2,12.75-.75,14.25,6,2.75,15.25-.25S120.14,237.1,121.14,231.85Z" style="fill:none"/></clipPath><clipPath id="a57be866-a081-45f7-b743-b7f5c91aa529" transform="translate(0)"><path d="M101.64,234.1s-9.39,3.72-9.75,11c-.21,4,6.5,5.75,13.5,5.75s17-8.75,23.5-12.5,21.5-12.5,23.25-13.25,7.75,1.25,10.25,2a33.93,33.93,0,0,0,7.25.75s3.5,5.5,5.25,5.5-3.75-8.25-4.5-10-13-5.75-14.5-5.75-36.5,8.75-41.75,10.75S101.64,234.1,101.64,234.1Z" style="fill:none"/></clipPath><clipPath id="bcab8fce-60c9-42d9-84b7-ca548d2cbafd" transform="translate(0)"><polygon points="167.14 221.35 140.35 240.29 201.6 238.54 222.14 221.6 167.14 221.35" style="fill:none"/></clipPath><clipPath id="b586c715-f3e3-4628-8e65-0513ec814efd" transform="translate(0)"><path d="M187.39,240.1s22-19.25,43.75-25.75,26.25-5.5,25.75,4.25-11,60.75-18,73.75-15.75,36.75-15.5,41.25,8.75,17.75,16.25,22.5,6.75,10.5,2,11.5-10.25,2.75-26.5-7.75-23-25.5-22-29.25,11.5-8.75,15.75-16.25,11.25-35.5,11.75-48.25a75.77,75.77,0,0,1,5-23.5s-27.5,5-35.5,10Z" style="fill:none"/></clipPath><clipPath id="b298993f-c0df-4659-998e-061abb9a9694" transform="translate(0)"><path d="M208.89,314.35a17.74,17.74,0,0,1-1.07,1.64,25.76,25.76,0,0,1,14.07,5.86,44.4,44.4,0,0,1,3.42,3.3c4.79-6.43,10.18-26.75,16.26-35.1,15.71-21.59,14.82-61.7,15.32-71.45s-4-10.75-25.75-4.25-43.75,25.75-43.75,25.75l2.75,12.5c8-5,35.5-10,35.5-10a75.77,75.77,0,0,0-5,23.5C220.14,278.85,213.14,306.85,208.89,314.35Z" style="fill:none"/></clipPath><clipPath id="bffd88c4-d706-4c5a-96b4-2d7d02b64bb9" transform="translate(0)"><path d="M121.89,244.1s-8,4.5-10.75,9.5,9.08,13.33,21.58,12.83,35.42-14.08,35.42-14.08.25,22,4.5,30,23.75,27.5,31.5,32.5,33.75,23.75,37.75,26.75,11.5,8.5,13.25,8.75,20-22,24.25-29.5,8-23.25,6.5-26.75-4.5-.5-7.5,2-30.5,20.75-33,22a27.53,27.53,0,0,1-4.25,1.75s-22.5-21.5-34.5-38-13-37.75-17.5-45.75-11-11.5-20.75-10.5S138.39,231.85,121.89,244.1Z" style="fill:none"/></clipPath><clipPath id="e8c3786a-c166-4066-8d5c-8c16ef6f3843" transform="translate(0)"><path d="M239.58,318.34c-5.28-5.15-25.12-31.76-32.94-47.06-11.47-22.42-12.71-30.06-17.21-38.06s-11.29-8.62-21-7.62-27.2,2.81-48.6,15c0,0-9,4.88-11.74,9.88s7.26,17.59,24.67,16c12.46-1.14,35.42-14.08,35.42-14.08s.25,22,4.5,30,23.75,27.5,31.5,32.5c4.91,3.17,17.16,11.87,26.49,18.57C233,325.05,237.1,320.46,239.58,318.34Z" style="fill:none"/></clipPath><clipPath id="a49485c0-8add-46b2-a7a8-d300b79675dc" transform="translate(0)"><path d="M279.39,320.85c4.25-7.5,8-23.25,6.5-26.75-.87-2-2.25-1.87-3.83-.9,1.05,4.68,0,13.69-5.17,23.4-4.61,8.66-18.85,24-26,31.42a17.1,17.1,0,0,0,4.28,2.33C256.89,350.6,275.14,328.35,279.39,320.85Z" style="fill:none"/></clipPath><clipPath id="ea2942d6-eea8-4e2b-bf28-a79ec322b987" transform="translate(0)"><path d="M239.64,356.1a32.53,32.53,0,0,1-6.67-6c-5.16-2.19-12-5-18.08-8.75-6.5-4-5-6.5-8.75-10.25-2.88-2.88-8.54-3.25-11-3.27a6.82,6.82,0,0,0-2,2.77c-1,3.75,5.75,18.75,22,29.25s21.75,8.75,26.5,7.75S247.14,360.85,239.64,356.1Z" style="fill:none"/></clipPath><clipPath id="bd278e6d-c853-4238-832f-78423e96c7d5" transform="translate(0)"><path d="M240.89,357.85c-6.5-3.75-19.75-6.25-28.25-12s-6.25-10.75-12.5-14.75a6.35,6.35,0,0,0-7-.4c-.87,3.89,5.9,18.73,22,29.15s21.75,8.75,26.5,7.75c3.15-.67,4.53-3.43,2.9-6.61A13.73,13.73,0,0,0,240.89,357.85Z" style="fill:none"/></clipPath><clipPath id="f9e30cb4-9ed5-46ce-bdb4-676626a5654f" transform="translate(0)"><path d="M140.54,151.3s1.16,12.63,1.65,16.62,1.61,15.45,2.76,19.24,7.42,10.38,8,8.85,3.71-11.82,2.47-17.94-1.62-11.45-.85-13,3.54-3.31,3.54-3.31a99.78,99.78,0,0,1-9.39-5.46C144.29,153.32,141.15,149.94,140.54,151.3Z" style="fill:none"/></clipPath><clipPath id="b6026a53-be2b-4910-9222-b71245f234f8" transform="translate(0)"><path d="M140.07,153.11s7.21,6,12.73,8.2,14,2.06,15.2-.82-2.09-25.59-4.94-31.58-5.9-6.08-10.92-6.53-15.09,3.64-16.86,8.5.25,11.74,1.71,15.82A30.5,30.5,0,0,0,140.07,153.11Z" style="fill:none"/></clipPath><clipPath id="a66e9e18-6a87-45ff-a822-080eaef916f6" transform="translate(0)"><path d="M142.23,147.14s-3.23-4.66-6.64-2.78-.75,8.52,1.3,10.83,6-2,6.41-3.08" style="fill:none"/></clipPath></defs><g id="b04bbb70-c923-4051-bd1a-e8b68393f670" data-name="Calque 2"><g id="a063da83-556d-4d30-bf90-9afcc3a8e0dd" data-name="Background Simple"><path d="M344.28,262.38c7.48-61-28.74-142.2-66.3-175.71C210.19,26.18,153.87,37.88,110.06,59.55S60,153.55,29.75,186.28-17.7,263,28.19,306.86s82.92,21.55,130.89,18.77,111.6,19.11,146,.08C329.14,312.42,341,289.36,344.28,262.38Z" transform="translate(0)" style="fill:#f19066"/><path d="M344.28,262.38c7.48-61-28.74-142.2-66.3-175.71C210.19,26.18,153.87,37.88,110.06,59.55S60,153.55,29.75,186.28-17.7,263,28.19,306.86s82.92,21.55,130.89,18.77,111.6,19.11,146,.08C329.14,312.42,341,289.36,344.28,262.38Z" transform="translate(0)" style="fill:#fff;opacity:0.699999988079071;isolation:isolate"/></g><g id="b5a9ff54-c0e3-48fd-88ec-58a2d7bafc8c" data-name="Background"><line x1="154.43" y1="260.23" x2="154.43" y2="35.29" style="fill:none;stroke:#263238;stroke-linecap:round;stroke-linejoin:round"/><polyline points="8.21 262.45 150.1 262.45 365.68 332.04" style="fill:none;stroke:#263238;stroke-linecap:round;stroke-linejoin:round"/><path d="M72.85,257.18H63V95.12H83.25L74.52,63.6H48.32L39.59,95.12H59.82V257.18H50a9.6,9.6,0,0,0-9.59,9.42v.07h0v.08h0c.29,2.26,9.57,4.08,21,4.08s20.7-1.82,21-4.08h0A9.61,9.61,0,0,0,72.85,257.18Z" transform="translate(0)" style="fill:#263238"/><path d="M203.41,24.14V215l143.66,23.6V.5ZM343.35,78.78,270.3,82.91V16.62L343.35,5ZM270.3,89.89l73.05-3.35V153.2l-73.05-3.41Zm-5.93,59.62-58.55-2.74V92.85l58.55-2.69Zm0-131.95V83.25l-58.55,3.32V26.88Zm-58.55,135.5,58.55,3.36v65.11l-58.55-9.31Zm64.48,69.42V156.77l73.05,4.2V234.1Z" transform="translate(0)" style="fill:#263238;stroke:#263238;stroke-linecap:round;stroke-linejoin:round"/></g><g id="b2aa92ed-2fdc-477e-80c4-3f588fb86708" data-name="Character"><ellipse cx="153.86" cy="319.42" rx="114.95" ry="35.81" style="fill:#f19066"/><ellipse cx="153.86" cy="319.42" rx="114.95" ry="35.81" style="fill:#fff;opacity:0.5;isolation:isolate"/><path d="M144.14,161.52s-26-3.09-43.18,10.28S69.08,241,69.42,267.8s10.29,40.1,35.31,51.07,71.63,6.86,97.68-1.37,34.62-37,34.28-52.44-17.48-33.25-23.31-37-22.28-11.65-30.5-24S162.65,164.94,144.14,161.52Z" transform="translate(0)" style="fill:#f19066"/><g style="clip-path:url(#fb96f574-821e-47bd-a542-446dcc3f6d4d)"><path d="M207.19,315.65c-9.85-1.33-21.53-4-30.37-9.37-18.67-11.34-23.33-32.67-30-40.67s-18.67-7.33-24-16,3.33-72.67-12-76.67a35.18,35.18,0,0,0-9.57-1.36,3.15,3.15,0,0,0-.29.22c-17.14,13.37-31.88,69.24-31.54,96s10.29,40.1,35.31,51.07,71.63,6.86,97.68-1.37A43.29,43.29,0,0,0,207.19,315.65Z" transform="translate(0)" style="opacity:0.12999999523162842;isolation:isolate"/></g><path d="M144.14,161.52s-26-3.09-43.18,10.28S69.08,241,69.42,267.8s10.29,40.1,35.31,51.07,71.63,6.86,97.68-1.37,34.62-37,34.28-52.44-17.48-33.25-23.31-37-22.28-11.65-30.5-24S162.65,164.94,144.14,161.52Z" transform="translate(0)" style="fill:none;stroke:#263238;stroke-linecap:round;stroke-linejoin:round"/><path d="M133.89,173.6s-17,3.25-20,6.25-15.5,50-15.5,50a18.59,18.59,0,0,1,10.5.5c5,2,5.5,7.25,6,9.75q.6,4.49.75,9s50.53-4.52,61.28-7S204,238.43,204,238.43s-27.64-62.33-31.89-64.58-22-2.5-24.5-2S133.89,173.6,133.89,173.6Z" transform="translate(0)" style="fill:#263238;stroke:#263238;stroke-linecap:round;stroke-linejoin:round"/><line x1="117.14" y1="231.35" x2="121.39" y2="196.6" style="fill:none;stroke:#fff;stroke-linecap:round;stroke-linejoin:round"/><line x1="120.39" y1="205.85" x2="126.14" y2="198.35" style="fill:none;stroke:#fff;stroke-linecap:round;stroke-linejoin:round"/><path d="M137.64,210.35s16.25-5.25,27-5.25" transform="translate(0)" style="fill:none;stroke:#fff;stroke-linecap:round;stroke-linejoin:round"/><path d="M153,196l-1.08,8.34s2.75,0,3,1.25a3.33,3.33,0,0,1-1,2.5s7.75,4.25,8.75,9.25" transform="translate(0)" style="fill:none;stroke:#fff;stroke-linecap:round;stroke-linejoin:round"/><path d="M143.22,164.26s-9.33,3-10.67,5.34-.33,18.66-.33,20.66,1.17-1.16,2.17-3.5,4.5-5.83,5.66-5.5,1.84,1.67,1.84,3.84,2.66,5.16,5,6.83,4.5,3.33,4.5,3.33,4.83-7,6-8.83,1-5.67,1.16-7,3.17,3.67,3.84,2.33-1.5-2.5-3.84-6.16-1.66-7.5-5.16-10.17S145.89,163.6,143.22,164.26Z" transform="translate(0)" style="fill:#fff"/><g style="clip-path:url(#ffaecc10-bfb8-4530-b082-1c166bf213b5)"><path d="M132.55,169.6c-.89,1.55-.74,9.34-.54,15,2.13-2.75,6.51-7.92,9.06-6.94,3.23,1.25,4.48,10.46,4.48,10.46l-2.19-23.84h-.14S133.89,167.26,132.55,169.6Z" transform="translate(0)" style="fill:#f19066"/><path d="M132.55,169.6c-.89,1.55-.74,9.34-.54,15,2.13-2.75,6.51-7.92,9.06-6.94,3.23,1.25,4.48,10.46,4.48,10.46l-2.19-23.84h-.14S133.89,167.26,132.55,169.6Z" transform="translate(0)" style="fill:#fff;opacity:0.5;isolation:isolate"/></g><path d="M143.22,164.26s-9.33,3-10.67,5.34-.33,18.66-.33,20.66,1.17-1.16,2.17-3.5,4.5-5.83,5.66-5.5,1.84,1.67,1.84,3.84,2.66,5.16,5,6.83,4.5,3.33,4.5,3.33,4.83-7,6-8.83,1-5.67,1.16-7,3.17,3.67,3.84,2.33-1.5-2.5-3.84-6.16-1.66-7.5-5.16-10.17S145.89,163.6,143.22,164.26Z" transform="translate(0)" style="fill:none;stroke:#263238;stroke-linecap:round;stroke-linejoin:round"/><path d="M121.14,231.85s-5.75-8.25-12.75-9-15.5,5-15.75,7-2,12.75-.75,14.25,6,2.75,15.25-.25S120.14,237.1,121.14,231.85Z" transform="translate(0)" style="fill:#fff"/><g style="clip-path:url(#e2ab3d8e-8739-4e21-9065-31f8d498e852)"><path d="M97.74,243.84s-2-5.72-1-7.72,5-5,7.47-8-5.83,1.69-6.23,0c-.31-1.36,4.39-4.08,6.24-5.09-5.82,1.12-11.39,5.16-11.59,6.78-.25,2-2,12.75-.75,14.25.64.77,2.23,1.47,4.88,1.57C97.37,244.61,97.74,243.84,97.74,243.84Z" transform="translate(0)" style="fill:#f19066"/><path d="M97.74,243.84s-2-5.72-1-7.72,5-5,7.47-8-5.83,1.69-6.23,0c-.31-1.36,4.39-4.08,6.24-5.09-5.82,1.12-11.39,5.16-11.59,6.78-.25,2-2,12.75-.75,14.25.64.77,2.23,1.47,4.88,1.57C97.37,244.61,97.74,243.84,97.74,243.84Z" transform="translate(0)" style="fill:#fff;opacity:0.5;isolation:isolate"/></g><path d="M121.14,231.85s-5.75-8.25-12.75-9-15.5,5-15.75,7-2,12.75-.75,14.25,6,2.75,15.25-.25S120.14,237.1,121.14,231.85Z" transform="translate(0)" style="fill:none;stroke:#263238;stroke-linecap:round;stroke-linejoin:round"/><path d="M101.64,234.1s-9.39,3.72-9.75,11c-.21,4,6.5,5.75,13.5,5.75s17-8.75,23.5-12.5,21.5-12.5,23.25-13.25,7.75,1.25,10.25,2a33.93,33.93,0,0,0,7.25.75s3.5,5.5,5.25,5.5-3.75-8.25-4.5-10-13-5.75-14.5-5.75-36.5,8.75-41.75,10.75S101.64,234.1,101.64,234.1Z" transform="translate(0)" style="fill:#fff"/><g style="clip-path:url(#a57be866-a081-45f7-b743-b7f5c91aa529)"><path d="M121.24,233.06c14.3-7.15,34.65-15.46,34.65-15.46-1.5,0-36.5,8.75-41.75,10.75s-12.5,5.75-12.5,5.75-9.39,3.72-9.75,11c-.21,4,6.5,5.75,13.5,5.75s17-8.75,23.5-12.5l3.94-2.28C123.27,237.3,110.51,238.42,121.24,233.06Z" transform="translate(0)" style="fill:#f19066"/><path d="M121.24,233.06c14.3-7.15,34.65-15.46,34.65-15.46-1.5,0-36.5,8.75-41.75,10.75s-12.5,5.75-12.5,5.75-9.39,3.72-9.75,11c-.21,4,6.5,5.75,13.5,5.75s17-8.75,23.5-12.5l3.94-2.28C123.27,237.3,110.51,238.42,121.24,233.06Z" transform="translate(0)" style="fill:#fff;opacity:0.5;isolation:isolate"/></g><path d="M101.64,234.1s-9.39,3.72-9.75,11c-.21,4,6.5,5.75,13.5,5.75s17-8.75,23.5-12.5,21.5-12.5,23.25-13.25,7.75,1.25,10.25,2a33.93,33.93,0,0,0,7.25.75s3.5,5.5,5.25,5.5-3.75-8.25-4.5-10-13-5.75-14.5-5.75-36.5,8.75-41.75,10.75S101.64,234.1,101.64,234.1Z" transform="translate(0)" style="fill:none;stroke:#263238;stroke-linecap:round;stroke-linejoin:round"/><path d="M174.75,178.49l-7.61,42.86,55,.25,8.18-40.6a2.53,2.53,0,0,0-2-3,2.58,2.58,0,0,0-.39,0l-50.6-1.53A2.54,2.54,0,0,0,174.75,178.49Z" transform="translate(0)" style="fill:#fff;stroke:#263238;stroke-linecap:round;stroke-linejoin:round"/><polygon points="167.15 221.35 140.35 240.29 201.6 238.54 222.15 221.6 167.15 221.35" style="fill:#fff"/><g style="clip-path:url(#bcab8fce-60c9-42d9-84b7-ca548d2cbafd)"><polygon points="167.15 221.35 140.35 240.29 201.6 238.54 222.15 221.6 167.15 221.35" style="fill:#f19066"/><polygon points="167.15 221.35 140.35 240.29 201.6 238.54 222.15 221.6 167.15 221.35" style="fill:#fff;opacity:0.5;isolation:isolate"/></g><polygon points="167.15 221.35 140.35 240.29 201.6 238.54 222.15 221.6 167.15 221.35" style="fill:none;stroke:#263238;stroke-linecap:round;stroke-linejoin:round"/><path d="M187.39,240.1s22-19.25,43.75-25.75,26.25-5.5,25.75,4.25-11,60.75-18,73.75-15.75,36.75-15.5,41.25,8.75,17.75,16.25,22.5,6.75,10.5,2,11.5-10.25,2.75-26.5-7.75-23-25.5-22-29.25,11.5-8.75,15.75-16.25,11.25-35.5,11.75-48.25a75.77,75.77,0,0,1,5-23.5s-27.5,5-35.5,10Z" transform="translate(0)" style="fill:#fff"/><g style="clip-path:url(#b586c715-f3e3-4628-8e65-0513ec814efd)"><path d="M187.39,240.1s22-19.25,43.75-25.75,26.25-5.5,25.75,4.25-11,60.75-18,73.75-15.75,36.75-15.5,41.25,8.75,17.75,16.25,22.5,6.75,10.5,2,11.5-10.25,2.75-26.5-7.75-23-25.5-22-29.25,11.5-8.75,15.75-16.25,11.25-35.5,11.75-48.25a75.77,75.77,0,0,1,5-23.5s-27.5,5-35.5,10Z" transform="translate(0)" style="fill:#f19066"/><path d="M187.39,240.1s22-19.25,43.75-25.75,26.25-5.5,25.75,4.25-11,60.75-18,73.75-15.75,36.75-15.5,41.25,8.75,17.75,16.25,22.5,6.75,10.5,2,11.5-10.25,2.75-26.5-7.75-23-25.5-22-29.25,11.5-8.75,15.75-16.25,11.25-35.5,11.75-48.25a75.77,75.77,0,0,1,5-23.5s-27.5,5-35.5,10Z" transform="translate(0)" style="fill:#fff;opacity:0.5;isolation:isolate"/></g><path d="M187.39,240.1s22-19.25,43.75-25.75,26.25-5.5,25.75,4.25-11,60.75-18,73.75-15.75,36.75-15.5,41.25,8.75,17.75,16.25,22.5,6.75,10.5,2,11.5-10.25,2.75-26.5-7.75-23-25.5-22-29.25,11.5-8.75,15.75-16.25,11.25-35.5,11.75-48.25a75.77,75.77,0,0,1,5-23.5s-27.5,5-35.5,10Z" transform="translate(0)" style="fill:none;stroke:#263238;stroke-linecap:round;stroke-linejoin:round"/><path d="M208.89,314.35a17.74,17.74,0,0,1-1.07,1.64,25.76,25.76,0,0,1,14.07,5.86,44.4,44.4,0,0,1,3.42,3.3,218.72,218.72,0,0,1,13.58-32.8c7-13,17.5-64,18-73.75s-4-10.75-25.75-4.25-43.75,25.75-43.75,25.75l2.75,12.5c8-5,35.5-10,35.5-10a75.77,75.77,0,0,0-5,23.5C220.14,278.85,213.14,306.85,208.89,314.35Z" transform="translate(0)" style="fill:#fff;stroke:#263238;stroke-linecap:round;stroke-linejoin:round"/><path d="M208.89,314.35a17.74,17.74,0,0,1-1.07,1.64,25.76,25.76,0,0,1,14.07,5.86,44.4,44.4,0,0,1,3.42,3.3c4.79-6.43,10.18-26.75,16.26-35.1,15.71-21.59,14.82-61.7,15.32-71.45s-4-10.75-25.75-4.25-43.75,25.75-43.75,25.75l2.75,12.5c8-5,35.5-10,35.5-10a75.77,75.77,0,0,0-5,23.5C220.14,278.85,213.14,306.85,208.89,314.35Z" transform="translate(0)" style="fill:#263238"/><g style="clip-path:url(#b298993f-c0df-4659-998e-061abb9a9694)"><path d="M208.89,314.35a17.74,17.74,0,0,1-1.07,1.64,25.76,25.76,0,0,1,14.07,5.86,44.4,44.4,0,0,1,3.42,3.3c4.79-6.43,10.18-26.75,16.26-35.1,15.71-21.59,14.82-61.7,15.32-71.45s-4-10.75-25.75-4.25-43.75,25.75-43.75,25.75l2.75,12.5c8-5,35.5-10,35.5-10a75.77,75.77,0,0,0-5,23.5C220.14,278.85,213.14,306.85,208.89,314.35Z" transform="translate(0)" style="fill:#fff;opacity:0.5299999713897705;isolation:isolate"/><path d="M246.32,217.28c-.4-3.55-39.06,12.81-55.37,19.88-2.26,1.8-3.56,2.94-3.56,2.94l2.75,12.5c8-5,35.5-10,35.5-10a75.77,75.77,0,0,0-5,23.5c-.5,12.75-7.5,40.75-11.75,48.25a17.74,17.74,0,0,1-1.07,1.64,28.74,28.74,0,0,1,8,2.06c6.06-12.8,12.47-27.64,15.52-39.27C236.82,257.78,246.82,221.78,246.32,217.28Z" transform="translate(0)" style="opacity:0.14000000059604645;isolation:isolate"/><path d="M225.64,242.6s7.5-15.25,14-21.5" transform="translate(0)" style="fill:none;stroke:#263238;stroke-linecap:round;stroke-linejoin:round"/></g><path d="M208.89,314.35a17.74,17.74,0,0,1-1.07,1.64,25.76,25.76,0,0,1,14.07,5.86,44.4,44.4,0,0,1,3.42,3.3c4.79-6.43,10.18-26.75,16.26-35.1,15.71-21.59,14.82-61.7,15.32-71.45s-4-10.75-25.75-4.25-43.75,25.75-43.75,25.75l2.75,12.5c8-5,35.5-10,35.5-10a75.77,75.77,0,0,0-5,23.5C220.14,278.85,213.14,306.85,208.89,314.35Z" transform="translate(0)" style="fill:none;stroke:#263238;stroke-linecap:round;stroke-linejoin:round"/><path d="M154.43,260.23a85.88,85.88,0,0,0,23.65-4.46c11.31-4.11-9.26-11.65-17.14-7.54A11.72,11.72,0,0,0,154.43,260.23Z" transform="translate(0)" style="fill:#263238;stroke:#263238;stroke-linecap:round;stroke-linejoin:round"/><path d="M121.89,244.1s-8,4.5-10.75,9.5,9.08,13.33,21.58,12.83,35.42-14.08,35.42-14.08.25,22,4.5,30,23.75,27.5,31.5,32.5,33.75,23.75,37.75,26.75,11.5,8.5,13.25,8.75,20-22,24.25-29.5,8-23.25,6.5-26.75-4.5-.5-7.5,2-30.5,20.75-33,22a27.53,27.53,0,0,1-4.25,1.75s-22.5-21.5-34.5-38-13-37.75-17.5-45.75-11-11.5-20.75-10.5S138.39,231.85,121.89,244.1Z" transform="translate(0)" style="fill:#fff"/><g style="clip-path:url(#bffd88c4-d706-4c5a-96b4-2d7d02b64bb9)"><path d="M227.67,331.3c6.68,4.78,12.49,9,14.22,10.3,4,3,11.5,8.5,13.25,8.75.62.09,3.32-2.66,6.73-6.57l-28.63-18.42Z" transform="translate(0)" style="fill:#f19066"/><path d="M227.67,331.3c6.68,4.78,12.49,9,14.22,10.3,4,3,11.5,8.5,13.25,8.75.62.09,3.32-2.66,6.73-6.57l-28.63-18.42Z" transform="translate(0)" style="fill:#fff;opacity:0.5;isolation:isolate"/></g><path d="M121.89,244.1s-8,4.5-10.75,9.5,9.08,13.33,21.58,12.83,35.42-14.08,35.42-14.08.25,22,4.5,30,23.75,27.5,31.5,32.5,33.75,23.75,37.75,26.75,11.5,8.5,13.25,8.75,20-22,24.25-29.5,8-23.25,6.5-26.75-4.5-.5-7.5,2-30.5,20.75-33,22a27.53,27.53,0,0,1-4.25,1.75s-22.5-21.5-34.5-38-13-37.75-17.5-45.75-11-11.5-20.75-10.5S138.39,231.85,121.89,244.1Z" transform="translate(0)" style="fill:none;stroke:#263238;stroke-linecap:round;stroke-linejoin:round"/><path d="M239.58,318.34c-5.28-5.15-25.12-31.76-32.94-47.06-11.47-22.42-12.71-30.06-17.21-38.06s-11.29-8.62-21-7.62-27.2,2.81-48.6,15c0,0-9,4.88-11.74,9.88s7.26,17.59,24.67,16c12.46-1.14,35.42-14.08,35.42-14.08s.25,22,4.5,30,23.75,27.5,31.5,32.5c4.91,3.17,17.16,11.87,26.49,18.57C233,325.05,237.1,320.46,239.58,318.34Z" transform="translate(0)" style="fill:#263238"/><g style="clip-path:url(#e8c3786a-c166-4066-8d5c-8c16ef6f3843)"><path d="M239.58,318.34c-5.28-5.15-25.12-31.76-32.94-47.06-11.47-22.42-12.71-30.06-17.21-38.06s-11.29-8.62-21-7.62-27.2,2.81-48.6,15c0,0-9,4.88-11.74,9.88s7.26,17.59,24.67,16c12.46-1.14,35.42-14.08,35.42-14.08s.25,22,4.5,30,23.75,27.5,31.5,32.5c4.91,3.17,17.16,11.87,26.49,18.57C233,325.05,237.1,320.46,239.58,318.34Z" transform="translate(0)" style="fill:#fff;opacity:0.5299999713897705;isolation:isolate"/><path d="M189.32,282.78c-7.5-19-3-57-24-52-15.3,3.64-43.35,16.58-57.44,23.33,1.66,5.73,10.87,13.6,24.84,12.32,12.46-1.14,35.42-14.08,35.42-14.08s.25,22,4.5,30,23.75,27.5,31.5,32.5c4.91,3.17,17.16,11.87,26.49,18.57a35.71,35.71,0,0,1,3.49-8.37C215.5,311.29,193.5,293.38,189.32,282.78Z" transform="translate(0)" style="opacity:0.14000000059604645;isolation:isolate"/><line x1="168.14" y1="252.35" x2="167.39" y2="239.35" style="fill:none;stroke:#263238;stroke-linecap:round;stroke-linejoin:round"/></g><path d="M239.58,318.34c-5.28-5.15-25.12-31.76-32.94-47.06-11.47-22.42-12.71-30.06-17.21-38.06s-11.29-8.62-21-7.62-27.2,2.81-48.6,15c0,0-9,4.88-11.74,9.88s7.26,17.59,24.67,16c12.46-1.14,35.42-14.08,35.42-14.08s.25,22,4.5,30,23.75,27.5,31.5,32.5c4.91,3.17,17.16,11.87,26.49,18.57C233,325.05,237.1,320.46,239.58,318.34Z" transform="translate(0)" style="fill:none;stroke:#263238;stroke-linecap:round;stroke-linejoin:round"/><path d="M241.89,341.6c4,3,11.5,8.5,13.25,8.75s20-22,24.25-29.5,8-23.25,6.5-26.75-4.5-.5-7.5,2-30.5,20.75-33,22c-.66.32-1.26.6-1.79.83-.73,1.37-1.6,3.49-1,4.92,1,2.25,5.25,5.25,5.25,5.25l-7.57,11.34Z" transform="translate(0)" style="fill:#263238;stroke:#263238;stroke-linecap:round;stroke-linejoin:round"/><path d="M279.39,320.85c4.25-7.5,8-23.25,6.5-26.75-.87-2-2.25-1.87-3.83-.9,1.05,4.68,0,13.69-5.17,23.4-4.61,8.66-18.85,24-26,31.42a17.1,17.1,0,0,0,4.28,2.33C256.89,350.6,275.14,328.35,279.39,320.85Z" transform="translate(0)" style="fill:#fff"/><g style="clip-path:url(#a49485c0-8add-46b2-a7a8-d300b79675dc)"><path d="M255.39,350.28l.22-.12h.06c.1-.06.22-.15.34-.24l.12-.1.29-.25.16-.14L257,349l.24-.23.33-.32.28-.28.28-.29.71-.74L259,347l.44-.49.18-.19c.52-.56,1.08-1.18,1.66-1.84h0c.2-.23.41-.46.61-.7h0L257.5,341c-2.49,2.7-4.79,5.14-6.64,7h0l.68.44.1.06.61.39h0a11.13,11.13,0,0,0,1,.57l.27.16.29.15.31.16.22.1.31.13.15.06a2.42,2.42,0,0,0,.36.1h.19Z" transform="translate(0)" style="fill:#f19066"/><path d="M255.39,350.28l.22-.12h.06c.1-.06.22-.15.34-.24l.12-.1.29-.25.16-.14L257,349l.24-.23.33-.32.28-.28.28-.29.71-.74L259,347l.44-.49.18-.19c.52-.56,1.08-1.18,1.66-1.84h0c.2-.23.41-.46.61-.7h0L257.5,341c-2.49,2.7-4.79,5.14-6.64,7h0l.68.44.1.06.61.39h0a11.13,11.13,0,0,0,1,.57l.27.16.29.15.31.16.22.1.31.13.15.06a2.42,2.42,0,0,0,.36.1h.19Z" transform="translate(0)" style="fill:#fff;opacity:0.5;isolation:isolate"/></g><path d="M279.39,320.85c4.25-7.5,8-23.25,6.5-26.75-.87-2-2.25-1.87-3.83-.9,1.05,4.68,0,13.69-5.17,23.4-4.61,8.66-18.85,24-26,31.42a17.1,17.1,0,0,0,4.28,2.33C256.89,350.6,275.14,328.35,279.39,320.85Z" transform="translate(0)" style="fill:none;stroke:#263238;stroke-linecap:round;stroke-linejoin:round"/><path d="M239.64,356.1c-7.5-4.75-16-18-16.25-22.5a8.13,8.13,0,0,1,.11-1.48,7.2,7.2,0,0,0-4.11,1.48,95.8,95.8,0,0,0-9.75-7.75,20.53,20.53,0,0,0-9-2.69c-3.63,3-7,5.4-7.53,7.44-1,3.75,5.75,18.75,22,29.25s21.75,8.75,26.5,7.75S247.14,360.85,239.64,356.1Z" transform="translate(0)" style="fill:#263238;stroke:#263238;stroke-linecap:round;stroke-linejoin:round"/><path d="M239.64,356.1a32.53,32.53,0,0,1-6.67-6c-5.16-2.19-12-5-18.08-8.75-6.5-4-5-6.5-8.75-10.25-2.88-2.88-8.54-3.25-11-3.27a6.82,6.82,0,0,0-2,2.77c-1,3.75,5.75,18.75,22,29.25s21.75,8.75,26.5,7.75S247.14,360.85,239.64,356.1Z" transform="translate(0)" style="fill:#fff"/><g style="clip-path:url(#ea2942d6-eea8-4e2b-bf28-a79ec322b987)"><path d="M239.64,356.1a32.53,32.53,0,0,1-6.67-6c-5.16-2.19-12-5-18.08-8.75-6.5-4-5-6.5-8.75-10.25-2.88-2.88-8.54-3.25-11-3.27a6.82,6.82,0,0,0-2,2.77c-1,3.75,5.75,18.75,22,29.25s21.75,8.75,26.5,7.75S247.14,360.85,239.64,356.1Z" transform="translate(0)" style="fill:#f19066"/><path d="M239.64,356.1a32.53,32.53,0,0,1-6.67-6c-5.16-2.19-12-5-18.08-8.75-6.5-4-5-6.5-8.75-10.25-2.88-2.88-8.54-3.25-11-3.27a6.82,6.82,0,0,0-2,2.77c-1,3.75,5.75,18.75,22,29.25s21.75,8.75,26.5,7.75S247.14,360.85,239.64,356.1Z" transform="translate(0)" style="fill:#fff;opacity:0.5;isolation:isolate"/></g><path d="M239.64,356.1a32.53,32.53,0,0,1-6.67-6c-5.16-2.19-12-5-18.08-8.75-6.5-4-5-6.5-8.75-10.25-2.88-2.88-8.54-3.25-11-3.27a6.82,6.82,0,0,0-2,2.77c-1,3.75,5.75,18.75,22,29.25s21.75,8.75,26.5,7.75S247.14,360.85,239.64,356.1Z" transform="translate(0)" style="fill:none;stroke:#263238;stroke-linecap:round;stroke-linejoin:round"/><path d="M240.89,357.85c-6.5-3.75-19.75-6.25-28.25-12s-6.25-10.75-12.5-14.75a6.35,6.35,0,0,0-7-.4c-.87,3.89,5.9,18.73,22,29.15s21.75,8.75,26.5,7.75c3.15-.67,4.53-3.43,2.9-6.61A13.73,13.73,0,0,0,240.89,357.85Z" transform="translate(0)" style="fill:#263238"/><g style="clip-path:url(#bd278e6d-c853-4238-832f-78423e96c7d5)"><path d="M240.89,357.85c-6.5-3.75-19.75-6.25-28.25-12s-6.25-10.75-12.5-14.75a6.35,6.35,0,0,0-7-.4c-.87,3.89,5.9,18.73,22,29.15s21.75,8.75,26.5,7.75c3.15-.67,4.53-3.43,2.9-6.61A13.73,13.73,0,0,0,240.89,357.85Z" transform="translate(0)" style="fill:#fff;opacity:0.5299999713897705;isolation:isolate"/></g><path d="M240.89,357.85c-6.5-3.75-19.75-6.25-28.25-12s-6.25-10.75-12.5-14.75a6.35,6.35,0,0,0-7-.4c-.87,3.89,5.9,18.73,22,29.15s21.75,8.75,26.5,7.75c3.15-.67,4.53-3.43,2.9-6.61A13.73,13.73,0,0,0,240.89,357.85Z" transform="translate(0)" style="fill:none;stroke:#263238;stroke-linecap:round;stroke-linejoin:round"/><path d="M116.31,310s4.8-5.83,5.48-1.37-.34,12.68-3.77,15.76-5.14-1.71-5.14-1.71l2.06-2.74s1.71,3.42,3.08-2.06-2.74-4.8-2.74-4.8Z" transform="translate(0)" style="fill:#fff;stroke:#263238;stroke-linecap:round;stroke-linejoin:round"/><path d="M112.64,332c-2.84,2.11-12.1,2.11-14.94,0-6-4.45-5-25.94-5-25.94h24.86S118.65,327.51,112.64,332Z" transform="translate(0)" style="fill:#fff;stroke:#263238;stroke-linecap:round;stroke-linejoin:round"/><path d="M95.43,301.8c0-2.71,2.5-2.71,2.5-5.41s-2.5-2.71-2.5-5.41,2.5-2.71,2.5-5.42-2.5-2.71-2.5-5.42,2.5-2.71,2.5-5.42" transform="translate(0)" style="fill:none;stroke:#263238;stroke-linecap:round;stroke-linejoin:round"/><path d="M104,301.8c0-2.05,2.5-2.05,2.5-4.11s-2.5-2.05-2.5-4.11,2.5-2.06,2.5-4.11-2.5-2.06-2.5-4.12,2.5-2.06,2.5-4.11" transform="translate(0)" style="fill:none;stroke:#263238;stroke-linecap:round;stroke-linejoin:round"/><path d="M113.47,301.8c0-2.71,2.5-2.71,2.5-5.41s-2.5-2.71-2.5-5.41,2.5-2.71,2.5-5.42-2.5-2.71-2.5-5.42,2.5-2.71,2.5-5.42" transform="translate(0)" style="fill:none;stroke:#263238;stroke-linecap:round;stroke-linejoin:round"/><path d="M117.59,306c0,.62-5.57,1.13-12.43,1.13s-12.43-.51-12.43-1.13,5.56-1.13,12.43-1.13S117.59,305.39,117.59,306Z" transform="translate(0)" style="fill:#fff;stroke:#263238;stroke-linecap:round;stroke-linejoin:round"/><path d="M140.54,151.3s1.16,12.63,1.65,16.62,1.61,15.45,2.76,19.24,7.42,10.38,8,8.85,3.71-11.82,2.47-17.94-1.62-11.45-.85-13,3.54-3.31,3.54-3.31a99.78,99.78,0,0,1-9.39-5.46C144.29,153.32,141.15,149.94,140.54,151.3Z" transform="translate(0)" style="fill:#fff"/><g style="clip-path:url(#f9e30cb4-9ed5-46ce-bdb4-676626a5654f)"><path d="M156.59,162.37l-1-2c-1.83-1-4.39-2.47-6.82-4.1-4.45-3-7.59-6.38-8.2-5,0,0,1.16,12.63,1.65,16.62s1.61,15.45,2.76,19.24a12.58,12.58,0,0,0,1.61,3.11c-1.21-7.54.1-21.15.1-21.15Z" transform="translate(0)" style="fill:#f19066"/><path d="M156.59,162.37l-1-2c-1.83-1-4.39-2.47-6.82-4.1-4.45-3-7.59-6.38-8.2-5,0,0,1.16,12.63,1.65,16.62s1.61,15.45,2.76,19.24a12.58,12.58,0,0,0,1.61,3.11c-1.21-7.54.1-21.15.1-21.15Z" transform="translate(0)" style="fill:#fff;opacity:0.5;isolation:isolate"/></g><path d="M140.54,151.3s1.16,12.63,1.65,16.62,1.61,15.45,2.76,19.24,7.42,10.38,8,8.85,3.71-11.82,2.47-17.94-1.62-11.45-.85-13,3.54-3.31,3.54-3.31a99.78,99.78,0,0,1-9.39-5.46C144.29,153.32,141.15,149.94,140.54,151.3Z" transform="translate(0)" style="fill:none;stroke:#263238;stroke-linecap:round;stroke-linejoin:round"/><path d="M140.07,153.11s7.21,6,12.73,8.2,14,2.06,15.2-.82-2.09-25.59-4.94-31.58-5.9-6.08-10.92-6.53-15.09,3.64-16.86,8.5.25,11.74,1.71,15.82A30.5,30.5,0,0,0,140.07,153.11Z" transform="translate(0)" style="fill:#fff"/><g style="clip-path:url(#b6026a53-be2b-4910-9222-b71245f234f8)"><path d="M153,152.84c-2.55-7.58-3.17-19.46-3.17-22.64,0-2.45,6.38-5.13,9.29-6.23-1.91-1.18-4.13-1.33-7-1.59-5-.46-15.09,3.64-16.86,8.5s.25,11.74,1.71,15.82a30.5,30.5,0,0,0,3.08,6.41s7.21,6,12.73,8.2a23,23,0,0,0,11.94,1.15C160.84,161,154.71,157.89,153,152.84Z" transform="translate(0)" style="fill:#f19066"/><path d="M153,152.84c-2.55-7.58-3.17-19.46-3.17-22.64,0-2.45,6.38-5.13,9.29-6.23-1.91-1.18-4.13-1.33-7-1.59-5-.46-15.09,3.64-16.86,8.5s.25,11.74,1.71,15.82a30.5,30.5,0,0,0,3.08,6.41s7.21,6,12.73,8.2a23,23,0,0,0,11.94,1.15C160.84,161,154.71,157.89,153,152.84Z" transform="translate(0)" style="fill:#fff;opacity:0.5;isolation:isolate"/></g><path d="M140.07,153.11s7.21,6,12.73,8.2,14,2.06,15.2-.82-2.09-25.59-4.94-31.58-5.9-6.08-10.92-6.53-15.09,3.64-16.86,8.5.25,11.74,1.71,15.82A30.5,30.5,0,0,0,140.07,153.11Z" transform="translate(0)" style="fill:none;stroke:#263238;stroke-linecap:round;stroke-linejoin:round"/><path d="M163.6,138.25c.12,2.88-1.69,5.29-4,5.38s-4.33-2.17-4.44-5,1.69-5.29,4-5.38S163.49,135.37,163.6,138.25Z" transform="translate(0)" style="fill:none;stroke:#263238;stroke-linecap:round;stroke-linejoin:round"/><path d="M169.26,137.16c.11,2.88-.81,5.25-2.07,5.3s-2.38-2.24-2.49-5.12.81-5.26,2.07-5.31S169.15,134.28,169.26,137.16Z" transform="translate(0)" style="fill:none;stroke:#263238;stroke-linecap:round;stroke-linejoin:round"/><path d="M163.89,137.21s8.26,1.57,7.47,3.56-6.38,4.14-6.38,4.14" transform="translate(0)" style="fill:#fff;stroke:#263238;stroke-linecap:round;stroke-linejoin:round"/><path d="M163.39,136.3s.12-1,1.39-.37" transform="translate(0)" style="fill:none;stroke:#263238;stroke-linecap:round;stroke-linejoin:round"/><line x1="154.89" y1="139.05" x2="139.87" y2="144.96" style="fill:none;stroke:#263238;stroke-linecap:round;stroke-linejoin:round"/><path d="M155.09,134.2a3.81,3.81,0,0,1,3.75-2.26" transform="translate(0)" style="fill:none;stroke:#263238;stroke-linecap:round;stroke-linejoin:round;stroke-width:2px"/><line x1="165.1" y1="132" x2="162.79" y2="132.88" style="fill:none;stroke:#263238;stroke-linecap:round;stroke-linejoin:round;stroke-width:2px"/><path d="M162.66,149.65s-3,.78-4.71-1" transform="translate(0)" style="fill:none;stroke:#263238;stroke-linecap:round;stroke-linejoin:round"/><path d="M159.89,138.8c.14,1,0,1.86-.41,1.91s-.77-.73-.91-1.73.05-1.86.41-1.91S159.76,137.8,159.89,138.8Z" transform="translate(0)" style="fill:#263238"/><path d="M141.28,145s-1,2,1.82,2.1,4.74-1.27,3.37-3-3.4-3.35-1.31-5.61,6.15-4.16,3.87-6.68-10.67-.23-8.58-2.27,11.81-4.17,16.17-3.9,12.5-3.11,14.29-7.53-.72-12.6-6.57-12.15-10.23,5.63-12.83,6-7.93-2.52-12.4,0-4.62,9.76-5,10.64-6.44,2.22-7.51,8.35a16.3,16.3,0,0,0,4.24,13.76c2.5,2.73,3.63,3.78,3.63,3.78Z" transform="translate(0)" style="fill:#263238;stroke:#263238;stroke-linecap:round;stroke-linejoin:round"/><path d="M128.55,133.93a4.68,4.68,0,0,0,.65,2.66" transform="translate(0)" style="fill:none;stroke:#fff;stroke-linecap:round;stroke-linejoin:round;stroke-width:0.75px"/><path d="M154.05,118.1s-2.19-4.77,3.38-4.77,6.36,7,.6,9.54-18.29,3.18-25,6.13a8.74,8.74,0,0,0-3.44,2.44" transform="translate(0)" style="fill:none;stroke:#fff;stroke-linecap:round;stroke-linejoin:round;stroke-width:0.75px"/><path d="M144,135c-2,.71-4.59,1.72-7.23,2.94-5.56,2.58-4.37,5.17-4.37,5.17" transform="translate(0)" style="fill:none;stroke:#fff;stroke-linecap:round;stroke-linejoin:round;stroke-width:0.75px"/><path d="M147.69,133.8l-1.32.42" transform="translate(0)" style="fill:none;stroke:#fff;stroke-linecap:round;stroke-linejoin:round;stroke-width:0.75px"/><path d="M142.23,147.14s-3.23-4.66-6.64-2.78-.75,8.52,1.3,10.83,6-2,6.41-3.08" transform="translate(0)" style="fill:#fff"/><g style="clip-path:url(#a66e9e18-6a87-45ff-a822-080eaef916f6)"><path d="M142.23,147.14s-3.23-4.66-6.64-2.78-.75,8.52,1.3,10.83,6-2,6.41-3.08" transform="translate(0)" style="fill:#f19066"/><path d="M142.23,147.14s-3.23-4.66-6.64-2.78-.75,8.52,1.3,10.83,6-2,6.41-3.08" transform="translate(0)" style="fill:#fff;opacity:0.5;isolation:isolate"/></g><path d="M142.23,147.14s-3.23-4.66-6.64-2.78-.75,8.52,1.3,10.83,6-2,6.41-3.08" transform="translate(0)" style="fill:none;stroke:#263238;stroke-linecap:round;stroke-linejoin:round"/></g><g id="ef28d45b-05bd-45da-a0bf-6ab607c1f246" data-name="Plants"><ellipse cx="321.68" cy="332.04" rx="16.73" ry="7.5" style="fill:#f19066"/><ellipse cx="321.68" cy="332.04" rx="16.73" ry="7.5" style="fill:#fff;opacity:0.5;isolation:isolate"/><path d="M302.11,221.06c1.79.78,6.17.68,6.18.68s-.94-2.87-1-3c-1-2-4-5.33-6.47-5a3,3,0,0,0-2.42,3.49c0,.07,0,.14.05.21C298.83,219.12,300.59,220.39,302.11,221.06Z" transform="translate(0)" style="fill:#263238"/><path d="M359.47,206.15c-2.48-.27-5.42,3.13-6.33,5.17-.08.17-1,3.06-.94,3.06h.05c-.47.54-1,1.11-1.49,1.75-1,1.2-2.06,2.55-3.14,4.11a50.52,50.52,0,0,0-3.25,5.18,36.84,36.84,0,0,0-2.78,6.26v-2.86c-.28-2.21-2.13-6.31-4.59-6.76a3,3,0,0,0-3.38,2.57,1.49,1.49,0,0,0,0,.21c-.15,1.75,1.13,3.51,2.37,4.62,1.4,1.25,5.28,2.46,5.59,2.55a51.1,51.1,0,0,0-1.64,6.78c-.24,1.33-.44,2.69-.62,4v-1.27c-.29-2.21-2.14-6.31-4.59-6.77a3,3,0,0,0-3.39,2.55,1.79,1.79,0,0,0,0,.23c-.14,1.76,1.13,3.51,2.37,4.62s4.55,2.22,5.43,2.5c-.07.53-.14,1-.2,1.57-.3,2.5-.59,5-.94,7.44-.13.86-.28,1.71-.44,2.55v-1.1c-.28-2.21-2.13-6.31-4.59-6.77a3,3,0,0,0-3.38,2.57,1.49,1.49,0,0,0,0,.21c-.15,1.75,1.13,3.51,2.37,4.62s4.23,2.11,5.27,2.45c-.19.86-.37,1.72-.58,2.55-.16.56-.28,1.11-.47,1.66s-.35,1.1-.53,1.64c-.37,1-.75,2.1-1.14,3.09-.27.7-.54,1.35-.8,2,.13-.86.36-2.54.36-2.68a11.41,11.41,0,0,0-1.53-5.58c0-.22,0-.43,0-.65a3,3,0,0,0-3.39-2.55l-.22,0c-2.42.65-3.94,4.88-4.06,7.1,0,.13.08,1.57.15,2.47l-.36-1.57c-.26-1.07-.54-2.13-.84-3.27-.17-.54-.33-1.09-.5-1.65s-.39-1.12-.58-1.68c-.48-1.31-1-2.6-1.61-3.9.94-.22,4.24-1.06,5.56-2.08s2.72-2.67,2.71-4.43a3,3,0,0,0-2.87-3h-.32c-2.48.26-4.63,4.22-5.08,6.4,0,.13-.17,1.74-.24,2.62-.35-.78-.7-1.56-1.09-2.33-1.1-2.23-2.3-4.46-3.48-6.68-.36-.68-.71-1.37-1.06-2.05.33-.07,4.28-1,5.76-2.13,1.32-1,2.72-2.67,2.71-4.43a3,3,0,0,0-2.87-3h-.32c-2.48.27-4.63,4.22-5.08,6.4,0,.16-.24,2.47-.27,3.06-.78-1.51-1.54-3-2.24-4.53a50.44,50.44,0,0,1-2.43-6.29c.15,0,4.28-1,5.8-2.14,1.32-1,2.72-2.67,2.7-4.43a3,3,0,0,0-3-3h-.19c-2.48.27-4.64,4.22-5.09,6.4,0,.17-.25,2.65-.26,3.11a1.43,1.43,0,0,0-.13-.38,37.4,37.4,0,0,1-1.26-6.64c-.14-1.24-.21-2.43-.24-3.59.78-.09,4.37-.57,5.86-1.47s3-2.36,3.17-4.11a3,3,0,0,0-2.63-3.33l-.2,0c-2.5,0-5.07,3.68-5.76,5.8,0,.12-.29,1.33-.46,2.22v-1.57c0-1.89.12-3.61.24-5.14.07-.87.16-1.66.25-2.39.72-.5,3.6-2.53,4.49-4s1.57-3.47.93-5.11a3,3,0,0,0-3.86-1.76l-.21.09c-2.21,1.15-2.79,5.61-2.43,7.81,0,.19.87,3.1.91,3.07h0c-.1.71-.19,1.46-.28,2.29-.15,1.53-.31,3.26-.35,5.15a54.37,54.37,0,0,0,.14,6.12,38.54,38.54,0,0,0,1.14,6.75v.08c-.39-.62-1.55-2.3-1.65-2.42-1.46-1.69-5.26-4.09-7.56-3.11a2.94,2.94,0,0,0-1.47,3.89c.05.1.1.2.16.3.85,1.55,2.88,2.31,4.53,2.55,1.85.27,5.76-.86,6.07-1a52.35,52.35,0,0,0,2.37,6.56c.54,1.25,1.12,2.48,1.72,3.72-.36-.53-.68-1-.73-1-1.46-1.68-5.27-4.08-7.56-3.11a3,3,0,0,0-1.41,4,1.86,1.86,0,0,0,.1.2c.85,1.54,2.88,2.3,4.52,2.54s5-.65,5.91-.9c.23.47.46.94.7,1.41,1.13,2.25,2.27,4.5,3.32,6.73.37.79.7,1.58,1,2.37l-.63-.91c-1.46-1.68-5.27-4.08-7.56-3.11a3,3,0,0,0-1.41,4,1.86,1.86,0,0,0,.1.2c.85,1.54,2.88,2.3,4.52,2.54s4.7-.57,5.75-.86c.32.82.65,1.64.92,2.44.18.56.39,1.08.53,1.65s.31,1.11.46,1.66c.26,1.06.53,2.16.75,3.21.17.73.3,1.42.45,2.12-.36-.79-1.1-2.32-1.17-2.44-1.19-1.88-4.59-4.83-7-4.21a2.92,2.92,0,0,0-2,3.61c0,.11.07.22.11.33.6,1.66,2.49,2.72,4.08,3.21,1.75.53,5.63,0,6.12,0,.23,1.16.45,2.29.63,3.36.65,3.7,1.06,6.81,1.31,9a8.36,8.36,0,0,0,.12,1.06h-7.51l2.41,47.1a6.74,6.74,0,0,0,6.73,6.39h0a6.73,6.73,0,0,0,6.72-6.39l2.41-47.1h-7l.16-.33c1-2,2.29-4.87,3.72-8.38.46-1.11.93-2.31,1.39-3.54.47.1,4.31.88,6.1.47,1.62-.36,3.59-1.28,4.32-2.89a3,3,0,0,0-1.43-4l-.2-.09c-2.37-.79-6,1.89-7.3,3.69-.08.1-.8,1.34-1.24,2.14.19-.51.38-1,.57-1.52.37-1,.72-2.06,1.1-3.18.16-.54.33-1.09.49-1.65s.3-1.15.45-1.73c.32-1.35.58-2.73.81-4.13.9.33,4.12,1.45,5.79,1.33s3.74-.73,4.7-2.2a3,3,0,0,0-.81-4.16l-.19-.12c-2.22-1.15-6.2,1-7.77,2.53-.1.1-1.11,1.35-1.65,2,.13-.84.27-1.68.38-2.54.3-2.47.54-5,.78-7.49L340,244c.32.12,4.12,1.54,6,1.41,1.66-.12,3.75-.73,4.71-2.21a3,3,0,0,0-.72-4.1,2.61,2.61,0,0,0-.28-.17c-2.21-1.15-6.19,1-7.77,2.53-.11.12-1.56,1.93-1.91,2.4.18-1.68.38-3.36.63-5a53,53,0,0,1,1.44-6.59c.15.05,4.11,1.55,6,1.41,1.66-.11,3.74-.72,4.7-2.2a3,3,0,0,0-.81-4.16l-.19-.12c-2.22-1.14-6.19,1-7.77,2.54-.13.12-1.68,2.07-1.94,2.44a1.64,1.64,0,0,1,.1-.38,38.27,38.27,0,0,1,2.61-6.24c.57-1.11,1.18-2.14,1.79-3.13.7.36,4,1.94,5.69,2s3.8-.31,4.92-1.68a3,3,0,0,0-.35-4.23l-.17-.13c-2.07-1.38-6.26.28-8,1.67-.09.07-1,1-1.6,1.59.28-.44.56-.9.84-1.32,1-1.57,2.1-2.94,3-4.15.54-.69,1-1.29,1.52-1.86.88,0,4.41-.12,6-.85s3.23-2,3.59-3.74a3,3,0,0,0-2.32-3.55ZM332,272.79c-1.5,3.45-2.88,6.27-3.87,8.22-.2.4-.38.74-.54,1.07h-.17c-.05-.39-.1-.8-.17-1.27-.3-2.2-.78-5.33-1.52-9.06-.23-1.17-.5-2.43-.79-3.71a33.13,33.13,0,0,0,3.41-1.61,21.21,21.21,0,0,0,5,3.21C332.89,270.74,332.45,271.8,332,272.79Z" transform="translate(0)" style="fill:#263238"/><path d="M346.41,222s.79-2.91.82-3.1c.31-2.21-.4-6.65-2.64-7.74a3,3,0,0,0-3.93,1.6,1.34,1.34,0,0,0-.07.18c-.6,1.66.16,3.69,1.06,5.08C342.7,219.68,346.4,222,346.41,222Z" transform="translate(0)" style="fill:#263238"/></g></g></svg>