<svg id="a0bc2823-f430-4058-837c-1394494dc067" data-name="Calque 1" xmlns="http://www.w3.org/2000/svg" xmlns:xlink="http://www.w3.org/1999/xlink" viewBox="0 0 359.14 311.06"><defs><clipPath id="a71cf451-4c6a-4dd2-84bb-3c46b80fcbec" transform="translate(0.03 -0.01)"><path d="M116.72,184.09h62a1.28,1.28,0,0,0,1.19-.78l18.16-40.42a1.29,1.29,0,0,0-.67-1.71,1.35,1.35,0,0,0-.52-.11h-62a1.31,1.31,0,0,0-1.19.77l-18.16,40.43a1.29,1.29,0,0,0,.67,1.71A1.35,1.35,0,0,0,116.72,184.09Z" style="fill:none"/></clipPath><clipPath id="e27a9791-493a-4ada-9d99-fb2a85031ffb" transform="translate(0.03 -0.01)"><path d="M232.6,183.63h39a.76.76,0,0,0,.7-.45l10.81-24.65a.76.76,0,0,0-.4-1,.72.72,0,0,0-.29-.06h-39a.78.78,0,0,0-.7.45L231.9,182.57a.76.76,0,0,0,.4,1A.77.77,0,0,0,232.6,183.63Z" style="fill:none"/></clipPath><clipPath id="f5a2ccef-bc4e-4239-a63f-ab2466440701" transform="translate(0.03 -0.01)"><path d="M48.79,187.29s-3-12.67-2.66-19.67,6.66-16,24.33-15,27,18,25.67,31.67,0,40.33,9.33,46S135.79,232,135.79,232s3,.67.67,3-21.67,5.67-31.33,7c-7.38,1-26,.49-34.42.18A16.62,16.62,0,0,1,59.15,237a17,17,0,0,1-3-4.41C51.23,222.34,48.79,187.29,48.79,187.29Z" style="fill:none"/></clipPath></defs><g id="ec13d48a-c3ac-44a0-b706-e4820f4961eb" data-name="Calque 2"><g id="b3dccd36-a2e8-4319-9901-1b7c8a8de4f1" data-name="Background Simple"><path d="M346.67,156.37c-14.57,37.6-48.61,66.13-84,79.71-27.46,10.54-56.67,9.5-85.79.45-27.63-8.59-53-22.52-81.38-16.24-22.27,4.93-47.37,12-67.49-8.32C18,201.82,11.3,188.07,6.9,174c-14-44.7-7-92,23-121.35,25.64-25.14,62.29-37.26,97.64-35.11a115.06,115.06,0,0,1,20.14,3c17.47,4.25,36.53,10.9,54.45,8.49,21.12-2.84,35.78-18.9,55-26.26,19.87-7.62,40.47,1.37,56.3,18.5C346.57,57.09,364.22,111.05,346.67,156.37Z" transform="translate(0.03 -0.01)" style="fill:#f19066"/><path d="M346.67,156.37c-14.57,37.6-48.61,66.13-84,79.71-27.46,10.54-56.67,9.5-85.79.45-27.63-8.59-53-22.52-81.38-16.24-22.27,4.93-47.37,12-67.49-8.32C18,201.82,11.3,188.07,6.9,174c-14-44.7-7-92,23-121.35,25.64-25.14,62.29-37.26,97.64-35.11a115.06,115.06,0,0,1,20.14,3c17.47,4.25,36.53,10.9,54.45,8.49,21.12-2.84,35.78-18.9,55-26.26,19.87-7.62,40.47,1.37,56.3,18.5C346.57,57.09,364.22,111.05,346.67,156.37Z" transform="translate(0.03 -0.01)" style="fill:#fff;opacity:0.699999988079071;isolation:isolate"/></g><g id="ee249627-9289-48f9-83d1-2e097f8f1db5" data-name="Window"><polygon points="223.96 41.74 139.31 41.74 140.17 33.87 224.82 33.87 223.96 41.74" style="fill:#fff"/><polygon points="223.96 52.75 139.31 52.75 140.17 44.89 224.82 44.89 223.96 52.75" style="fill:#fff"/><polygon points="223.96 63.77 139.31 63.77 140.17 55.9 224.82 55.9 223.96 63.77" style="fill:#fff"/><polygon points="223.96 74.78 139.31 74.78 140.17 66.91 224.82 66.91 223.96 74.78" style="fill:#fff"/><polygon points="223.96 85.79 139.31 85.79 140.17 77.93 224.82 77.93 223.96 85.79" style="fill:#fff"/><polygon points="223.96 96.81 139.31 96.81 140.17 88.94 224.82 88.94 223.96 96.81" style="fill:#fff"/><polygon points="223.96 107.82 139.31 107.82 140.17 99.95 224.82 99.95 223.96 107.82" style="fill:#fff"/><polygon points="223.96 118.83 139.31 118.83 140.17 110.97 224.82 110.97 223.96 118.83" style="fill:#fff"/><polygon points="223.96 129.85 139.31 129.85 140.17 121.98 224.82 121.98 223.96 129.85" style="fill:#fff"/><polygon points="223.96 140.86 139.31 140.86 140.17 132.99 224.82 132.99 223.96 140.86" style="fill:#fff"/><polygon points="223.96 151.87 139.31 151.87 140.17 144.01 224.82 144.01 223.96 151.87" style="fill:#fff"/><polygon points="313.47 41.74 228.82 41.74 229.67 33.87 314.32 33.87 313.47 41.74" style="fill:#fff"/><polygon points="313.47 52.75 228.82 52.75 229.67 44.89 314.32 44.89 313.47 52.75" style="fill:#fff"/><polygon points="313.47 63.77 228.82 63.77 229.67 55.9 314.32 55.9 313.47 63.77" style="fill:#fff"/><polygon points="313.47 74.78 228.82 74.78 229.67 66.91 314.32 66.91 313.47 74.78" style="fill:#fff"/><polygon points="313.47 85.79 228.82 85.79 229.67 77.93 314.32 77.93 313.47 85.79" style="fill:#fff"/><polygon points="313.47 96.81 228.82 96.81 229.67 88.94 314.32 88.94 313.47 96.81" style="fill:#fff"/><polygon points="313.47 107.82 228.82 107.82 229.67 99.95 314.32 99.95 313.47 107.82" style="fill:#fff"/><polygon points="313.47 118.83 228.82 118.83 229.67 110.97 314.32 110.97 313.47 118.83" style="fill:#fff"/><polygon points="313.47 129.85 228.82 129.85 229.67 121.98 314.32 121.98 313.47 129.85" style="fill:#fff"/><polygon points="313.47 140.86 228.82 140.86 229.67 132.99 314.32 132.99 313.47 140.86" style="fill:#fff"/><polygon points="313.47 151.87 228.82 151.87 229.67 144.01 314.32 144.01 313.47 151.87" style="fill:#fff"/><path d="M41,58H74.84V68.23H41a5.13,5.13,0,0,1-5.13-5.13h0A5.13,5.13,0,0,1,41,58Z" transform="translate(0.03 -0.01)" style="fill:#fff"/><path d="M74.84,45.16H41a5.12,5.12,0,0,0-5.13,5.11h0A5.12,5.12,0,0,0,41,55.41H74.84Z" transform="translate(0.03 -0.01)" style="fill:#fff"/><rect x="77.94" y="33.36" width="12.31" height="34.35" style="fill:#fff"/><rect x="93.32" y="33.36" width="12.31" height="34.35" style="fill:#fff"/><rect x="108.71" y="33.36" width="12.31" height="34.35" style="fill:#fff"/><polygon points="128.44 68.62 31.82 68.62 31.82 74.35 39.66 74.35 39.66 88.54 44.32 88.54 44.32 74.35 113.66 74.35 113.66 88.54 118.32 88.54 118.32 74.35 128.44 74.35 128.44 68.62" style="opacity:0.15000000596046448;isolation:isolate"/></g><g id="b3bbaac6-9c3a-4bfa-8233-186c297db088" data-name="Plants"><path d="M322.46,167.57s-3.5,4-5.5,12,7,14,4,22.5-8.5,12.5-7,21,8,9,3,18.5-9.5,13-8,22,20.5,20.5,20.5,20.5,13-14.5,13.5-24-11.5-15.5-9.5-24,7-15.5,6.5-23.5-10-14-10-20,4-9.5,4-16.5-9-13-9-17a29.6,29.6,0,0,1,2-9S317.46,156.07,322.46,167.57Z" transform="translate(0.03 -0.01)" style="fill:#f19066"/><path d="M322.46,167.57s-3.5,4-5.5,12,7,14,4,22.5-8.5,12.5-7,21,8,9,3,18.5-9.5,13-8,22,20.5,20.5,20.5,20.5,13-14.5,13.5-24-11.5-15.5-9.5-24,7-15.5,6.5-23.5-10-14-10-20,4-9.5,4-16.5-9-13-9-17a29.6,29.6,0,0,1,2-9S317.46,156.07,322.46,167.57Z" transform="translate(0.03 -0.01)" style="fill:#fff;opacity:0.5;isolation:isolate"/><line x1="327.49" y1="281.06" x2="326.49" y2="173.06" style="fill:none;stroke:#263238;stroke-linecap:round;stroke-linejoin:round"/><polyline points="337.58 256.33 327.78 266.13 316.67 256.33" style="fill:none;stroke:#263238;stroke-linecap:round;stroke-linejoin:round"/><polyline points="334.31 213.23 327.13 224.33 320.92 214.2" style="fill:none;stroke:#263238;stroke-linecap:round;stroke-linejoin:round"/><polyline points="322.55 180.57 326.8 185.79 330.39 179.59" style="fill:none;stroke:#263238;stroke-linecap:round;stroke-linejoin:round"/><rect x="314.99" y="281.06" width="25" height="28" style="fill:#263238"/></g><g id="e1d38593-ba2c-4a6a-946e-ab9b67d9376b" data-name="Table"><path d="M218.43,195.62l9.41,112a1.22,1.22,0,0,0,1.41,1h.07a1.2,1.2,0,0,0,.91-1.29l-6.41-111.75Z" transform="translate(0.03 -0.01)" style="fill:#263238;stroke:#263238;stroke-linecap:round;stroke-linejoin:round"/><path d="M281.66,195.62,291.1,308a1.22,1.22,0,0,0,1.41,1h.07a1.2,1.2,0,0,0,.91-1.29l-6.43-112.12Z" transform="translate(0.03 -0.01)" style="fill:#263238;stroke:#263238;stroke-linecap:round;stroke-linejoin:round"/><path d="M117.4,195.62l-5,111a1.24,1.24,0,0,0,.93,1.3h0a1.17,1.17,0,0,0,1.43-.86l0-.14,8-111.34Z" transform="translate(0.03 -0.01)" style="fill:#263238;stroke:#263238;stroke-linecap:round;stroke-linejoin:round"/><path d="M59.12,195.62,54.17,306.28a1.25,1.25,0,0,0,.93,1.31,1.2,1.2,0,0,0,1.44-.88s0-.08,0-.12l7.93-111Z" transform="translate(0.03 -0.01)" style="fill:#263238;stroke:#263238;stroke-linecap:round;stroke-linejoin:round"/><rect x="55.64" y="189.41" width="238.35" height="9.62" style="fill:#fff;stroke:#263238;stroke-linecap:round;stroke-linejoin:round"/><rect x="55.64" y="189.41" width="238.35" height="3.3" style="fill:#263238;stroke:#263238;stroke-linecap:round;stroke-linejoin:round"/><rect x="210.16" y="189.41" width="83.83" height="9.62" style="fill:#263238;stroke:#263238;stroke-linecap:round;stroke-linejoin:round"/><rect x="52.66" y="186.21" width="244.32" height="3.67" style="fill:#fff;stroke:#263238;stroke-linecap:round;stroke-linejoin:round"/><rect x="213.66" y="186.21" width="83.32" height="3.67" style="fill:#263238;stroke:#263238;stroke-linecap:round;stroke-linejoin:round"/><polygon points="188.48 173.43 195.75 185.95 183.22 185.95 188.48 173.43" style="fill:#263238;stroke:#263238;stroke-linecap:round;stroke-linejoin:round"/><path d="M111.56,185.88h71.63a1.38,1.38,0,0,0,1.27-.83l19.84-45.22a1.39,1.39,0,0,0-.64-1.86,1.42,1.42,0,0,0-.64-.14H131.39a1.39,1.39,0,0,0-1.27.84l-19.83,45.21a1.39,1.39,0,0,0,1.27,2Z" transform="translate(0.03 -0.01)" style="fill:#263238;stroke:#263238;stroke-linecap:round;stroke-linejoin:round"/><path d="M116.72,184.09h62a1.28,1.28,0,0,0,1.19-.78l18.16-40.42a1.29,1.29,0,0,0-.67-1.71,1.35,1.35,0,0,0-.52-.11h-62a1.31,1.31,0,0,0-1.19.77l-18.16,40.43a1.29,1.29,0,0,0,.67,1.71A1.35,1.35,0,0,0,116.72,184.09Z" transform="translate(0.03 -0.01)" style="fill:#fff"/><g style="clip-path:url(#a71cf451-4c6a-4dd2-84bb-3c46b80fcbec)"><path d="M187,167.42c-9.45-1.64-12.73-10.21-21.7-22.18a18.7,18.7,0,0,0-4.39-4.17h-26a1.31,1.31,0,0,0-1.19.77l-6.75,15c18.77,7.84,21.63-2.88,39.77,4.38A51.91,51.91,0,0,1,184.52,173Z" transform="translate(0.03 -0.01)" style="fill:#f19066;stroke:#263238;stroke-linecap:round;stroke-linejoin:round"/><path d="M164.88,169c-14.64-1.38-43.46,10.06-43.46,10.06l-2.68,5h13.7c10.32-4,22.66-8,30.15-7.73,7.89.25,9.55,4.32,9.79,7.73h2.22C175.72,178.57,175,170,164.88,169Z" transform="translate(0.03 -0.01)" style="fill:#f19066;stroke:#263238;stroke-linecap:round;stroke-linejoin:round"/><path d="M199.2,153.48c0-2.46-3.44-8.2-6.21-12.41h-8.27C189.1,145.91,199.2,156.7,199.2,153.48Z" transform="translate(0.03 -0.01)" style="fill:#f19066;stroke:#263238;stroke-linecap:round;stroke-linejoin:round"/></g><path d="M116.72,184.09h62a1.28,1.28,0,0,0,1.19-.78l18.16-40.42a1.29,1.29,0,0,0-.67-1.71,1.35,1.35,0,0,0-.52-.11h-62a1.31,1.31,0,0,0-1.19.77l-18.16,40.43a1.29,1.29,0,0,0,.67,1.71A1.35,1.35,0,0,0,116.72,184.09Z" transform="translate(0.03 -0.01)" style="fill:none;stroke:#263238;stroke-linecap:round;stroke-linejoin:round"/><rect x="268.73" y="181.37" width="19.96" height="5.12" style="fill:#263238"/><path d="M279.19,183.13a2,2,0,0,0,2-1.86l3.33-48.62a2,2,0,1,0-4-.27L277.19,181a2,2,0,0,0,1.86,2.13Z" transform="translate(0.03 -0.01)" style="fill:#263238"/><path d="M282.77,135a2,2,0,0,0,1.19-3.6h0l-32.8-23.08a1,1,0,0,0-1.17,1.57l31.58,24.72A2,2,0,0,0,282.77,135Z" transform="translate(0.03 -0.01)" style="fill:#263238"/><circle cx="282.8" cy="132.76" r="3.07" style="fill:#263238"/><circle cx="250.04" cy="110.24" r="3.07" style="fill:#263238"/><path d="M237,114.46l11.58,9.29,3.88-10a4.39,4.39,0,0,0-1.35-5h0a4.37,4.37,0,0,0-5.16-.22Z" transform="translate(0.03 -0.01)" style="fill:#263238"/><path d="M228.31,185.88h45.76a.91.91,0,0,0,.82-.53l12.67-28.89a.9.9,0,0,0-.47-1.17.84.84,0,0,0-.35-.07H241a.89.89,0,0,0-.81.53l-12.68,28.89a.9.9,0,0,0,.47,1.17A.93.93,0,0,0,228.31,185.88Z" transform="translate(0.03 -0.01)" style="fill:#fff;stroke:#263238;stroke-linecap:round;stroke-linejoin:round"/><path d="M232.6,183.63h39a.76.76,0,0,0,.7-.45l10.81-24.65a.76.76,0,0,0-.4-1,.72.72,0,0,0-.29-.06h-39a.78.78,0,0,0-.7.45L231.9,182.57a.76.76,0,0,0,.4,1A.77.77,0,0,0,232.6,183.63Z" transform="translate(0.03 -0.01)" style="fill:#fff"/><g style="clip-path:url(#e27a9791-493a-4ada-9d99-fb2a85031ffb)"><path d="M262.11,159.34a12.12,12.12,0,0,0-2.92-2.66H241.83a.84.84,0,0,0-.79.5l-4.5,9.58c12.5,5,14.4-1.84,26.48,2.78a34.93,34.93,0,0,1,11.87,7.5l1.67-3.57C270.27,172.43,268.09,167,262.11,159.34Z" transform="translate(0.03 -0.01)" style="fill:#f19066;stroke:#263238;stroke-linecap:round;stroke-linejoin:round"/><path d="M261.81,174.5c-9.75-.87-28.95,6.41-28.95,6.41l-1.78,3.18h9.12c6.87-2.55,15.09-5.08,20.08-4.93,5.25.17,6.36,2.76,6.52,4.93h1.48C269,180.57,268.54,175.1,261.81,174.5Z" transform="translate(0.03 -0.01)" style="fill:#f19066;stroke:#263238;stroke-linecap:round;stroke-linejoin:round"/><path d="M280.53,156.68H275c2.91,3.09,9.64,10,9.64,7.91C284.66,163,282.37,159.37,280.53,156.68Z" transform="translate(0.03 -0.01)" style="fill:#f19066;stroke:#263238;stroke-linecap:round;stroke-linejoin:round"/></g><path d="M232.6,183.63h39a.76.76,0,0,0,.7-.45l10.81-24.65a.76.76,0,0,0-.4-1,.72.72,0,0,0-.29-.06h-39a.78.78,0,0,0-.7.45L231.9,182.57a.76.76,0,0,0,.4,1A.77.77,0,0,0,232.6,183.63Z" transform="translate(0.03 -0.01)" style="fill:none;stroke:#263238;stroke-linecap:round;stroke-linejoin:round"/><rect x="205.99" y="183.96" width="68.75" height="2.25" style="fill:#fff;stroke:#263238;stroke-linecap:round;stroke-linejoin:round"/><rect x="241.41" y="183.96" width="33.33" height="2.25" style="fill:#fff;stroke:#263238;stroke-linecap:round;stroke-linejoin:round"/><rect x="200.27" y="168.33" width="12.13" height="17.92" style="fill:#fff;stroke:#263238;stroke-linecap:round;stroke-linejoin:round"/><path d="M211.82,183.82h-1.26a1,1,0,0,1,0-2h1.26a1.9,1.9,0,0,0,1.9-1.89v-4.35a1.9,1.9,0,0,0-1.9-1.89h-1.63a1,1,0,0,1,0-2h1.63a3.9,3.9,0,0,1,3.9,3.89v4.35A3.9,3.9,0,0,1,211.82,183.82Z" transform="translate(0.03 -0.01)" style="fill:#fff;stroke:#263238;stroke-linecap:round;stroke-linejoin:round"/></g><g id="e7a40a76-da50-47d8-9a11-fff46c5c4338" data-name="Character"><path d="M129.68,92.5s2.75,8.52,2.75,10.17a30.47,30.47,0,0,1-.27,3.57l2.43,3.76a1,1,0,0,1-.24,1.39l-.11.07-3.73,2.2s-.55,8.79-1.1,9.89-9.89.83-9.89.83l-3,5.77-15.66-6.05L105,112.84l-.83-17S113.75,87.28,129.68,92.5Z" transform="translate(0.03 -0.01)" style="fill:#fff;stroke:#263238;stroke-linecap:round;stroke-linejoin:round"/><path d="M118.69,113.66l2.2.55a7.56,7.56,0,0,0,1.65,5.77" transform="translate(0.03 -0.01)" style="fill:#fff;stroke:#263238;stroke-linecap:round;stroke-linejoin:round"/><line x1="121.26" y1="107.77" x2="136.73" y2="103.94" style="fill:none;stroke:#263238;stroke-linecap:round;stroke-linejoin:round"/><path d="M132.72,103.64l3.52.15s1.23,4-2.45,4.44" transform="translate(0.03 -0.01)" style="fill:none;stroke:#263238;stroke-linecap:round;stroke-linejoin:round"/><path d="M111.55,86.18s-6-1.92-9.07,6.32,2.48,19,2.48,20.34,4.67,2.47,8.24,2.47a8.77,8.77,0,0,0,5.49-1.65s-1.37-5.5-.27-6.59,3.85,1.37,3.85,1.37a8.35,8.35,0,0,0,2.47-.82c.82-.55,4.94-2.75,3.57-5.23s-4.12-4.67-1.92-6.31,8-1.93,8.24-7.15-3-6.32-6.32-5.77-2.2-4.67-8.52-3.84S110.45,83.71,111.55,86.18Z" transform="translate(0.03 -0.01)" style="fill:#263238;stroke:#263238;stroke-linecap:round;stroke-linejoin:round"/><path d="M112.51,104.89a11.24,11.24,0,0,0-1,2.62" transform="translate(0.03 -0.01)" style="fill:none;stroke:#fff;stroke-linecap:round;stroke-linejoin:round;stroke-width:0.5px"/><path d="M126.59,95.08s-1.91,1.67-7.89,4.06a11.67,11.67,0,0,0-5.23,4.16" transform="translate(0.03 -0.01)" style="fill:none;stroke:#fff;stroke-linecap:round;stroke-linejoin:round;stroke-width:0.5px"/><path d="M126.11,99.62s-6.93,4.54-10,5.5" transform="translate(0.03 -0.01)" style="fill:none;stroke:#fff;stroke-linecap:round;stroke-linejoin:round;stroke-width:0.5px"/><path d="M176,143a66.27,66.27,0,0,0,10.55,12.71s-3.83-8.53-9.51-13.57C176.49,141.65,175.6,142.38,176,143Z" transform="translate(0.03 -0.01)" style="fill:#263238;stroke:#263238;stroke-linecap:round;stroke-linejoin:round"/><path d="M153.88,176l20.25-15.25s0-7,1-8.5,9.25-4,9.25-4,2.25-2.75,3.5,0a5.06,5.06,0,0,1-.5,5,46.2,46.2,0,0,1,0,6c-.25,1.5-9,5.25-9,5.25s-12,17.75-18,22.75-7.25,6-9.75,7-7-6.25-7-6.25Z" transform="translate(0.03 -0.01)" style="fill:#fff;stroke:#263238;stroke-linecap:round;stroke-linejoin:round"/><path d="M117.13,293s14.25,9,16.75,9,3.75,2.25,2.5,2.5-9,.5-14.25.75-8.75-.25-11.75-.25-6.5.25-8-.5,1-9.25,1-10.75S115.38,292,117.13,293Z" transform="translate(0.03 -0.01)" style="fill:#263238;stroke:#263238;stroke-linecap:round;stroke-linejoin:round"/><path d="M135.51,302.35c-5.53,1.82-14.5.62-19.88.13-4.26-.38-10.9-.47-13.69-.49-.11,1.28,0,2.26.44,2.49,1.5.75,5,.5,8,.5s6.5.5,11.75.25,13-.5,14.25-.75C137.31,304.3,136.85,303,135.51,302.35Z" transform="translate(0.03 -0.01)" style="fill:#fff;stroke:#263238;stroke-linecap:round;stroke-linejoin:round"/><path d="M128.38,231.22l-11.24,56.34,2.34,5.86a11.74,11.74,0,0,1-7.1,4.8,54.11,54.11,0,0,1-9.75,1s-1.25-6.25-.5-7,1-3.75,1-3.75l6.5-56.75Z" transform="translate(0.03 -0.01)" style="fill:#f19066;stroke:#263238;stroke-linecap:round;stroke-linejoin:round"/><path d="M162.63,291.08s8.75,7.25,12.75,8.5,8.25,2.5,8.25,3.75-9.5,2.5-16.75,1.75-18.25-4-20.75-4-2-6.5-2-7.5S156.38,284.58,162.63,291.08Z" transform="translate(0.03 -0.01)" style="fill:#263238;stroke:#263238;stroke-linecap:round;stroke-linejoin:round"/><path d="M183.63,303.33c0-.45-.56-.9-1.45-1.35a77,77,0,0,1-21.55-.15,161.25,161.25,0,0,1-16.3-3.17c.26,1.34.78,2.42,1.8,2.42,2.5,0,13.5,3.25,20.75,4S183.63,304.58,183.63,303.33Z" transform="translate(0.03 -0.01)" style="fill:#fff;stroke:#263238;stroke-linecap:round;stroke-linejoin:round"/><path d="M119.13,206a113.57,113.57,0,0,1,22.5.5c12.75,1.5,31.5,3.25,32,6.5s-12.38,70.89-12.38,72.64,2,3.5,2.5,4.5a5.63,5.63,0,0,1,.5,2.25s-6.12,6.61-10.87,8.36-8.75.12-9.75.12-1-6.75-.25-10,2-11.5,2.25-12.25,4.25-48.87,4.25-48.87-27.5,6-49.75,3.5-24.5-6-25.75-11.25,1.25-15.75,1.25-15.75Z" transform="translate(0.03 -0.01)" style="fill:#f19066;stroke:#263238;stroke-linecap:round;stroke-linejoin:round"/><path d="M116.31,222.16a15.74,15.74,0,0,1-1.68,2.06" transform="translate(0.03 -0.01)" style="fill:none;stroke:#263238;stroke-linecap:round;stroke-linejoin:round"/><path d="M123.13,208.72a94.3,94.3,0,0,1-5,10.5" transform="translate(0.03 -0.01)" style="fill:none;stroke:#263238;stroke-linecap:round;stroke-linejoin:round"/><path d="M120.13,211.22a26.6,26.6,0,0,1-13,11" transform="translate(0.03 -0.01)" style="fill:none;stroke:#263238;stroke-linecap:round;stroke-linejoin:round"/><path d="M167.17,225c.85-.32,1.68-.66,2.46-1" transform="translate(0.03 -0.01)" style="fill:#fff;stroke:#263238;stroke-linecap:round;stroke-linejoin:round"/><path d="M149.88,229.72a128,128,0,0,0,14.17-3.63" transform="translate(0.03 -0.01)" style="fill:#fff;stroke:#263238;stroke-linecap:round;stroke-linejoin:round"/><path d="M98.13,122.72s-19.5,9.25-22.25,11-4.5,23.5-4.5,27.25,2.75,40.5,3.5,46.75,24.75,10.5,32.75,8.25,15.75-8,15.75-10-.75-19-.25-22.25,5-17,5-17l8.5,24.25a90.38,90.38,0,0,0,10.5-3.5c7.25-3,9-13,9-13s-8-14-10.25-21-3.25-12.25-4.25-13.5-23.5-11.75-27.5-14.5A17.77,17.77,0,0,0,98.13,122.72Z" transform="translate(0.03 -0.01)" style="fill:#263238;stroke:#263238;stroke-linecap:round;stroke-linejoin:round"/><line x1="128.16" y1="166.71" x2="121.66" y2="157.21" style="fill:none;stroke:#fff;stroke-linecap:round;stroke-linejoin:round;stroke-width:0.75px"/><line x1="127.1" y1="165.35" x2="115.66" y2="159.71" style="fill:none;stroke:#fff;stroke-linecap:round;stroke-linejoin:round;stroke-width:0.75px"/></g><g id="b9a22765-6016-458a-a495-4b6f10bfb255" data-name="Chair"><path d="M93.15,237l10,71a1.2,1.2,0,0,0,1.35,1l.12,0h0a1.2,1.2,0,0,0,.91-1.28l-7-71.88Z" transform="translate(0.03 -0.01)" style="fill:#263238;stroke:#263238;stroke-linecap:round;stroke-linejoin:round"/><path d="M64.46,237.62l-16.7,69.72a1.2,1.2,0,0,0,.91,1.45l.09,0h0a1.2,1.2,0,0,0,1.32-.86l19.38-67.66Z" transform="translate(0.03 -0.01)" style="fill:#263238;stroke:#263238;stroke-linecap:round;stroke-linejoin:round"/><path d="M94.77,236.76l-10.62,70.9a1.19,1.19,0,0,0,1,1.33h.08a1.2,1.2,0,0,0,1.24-1L100,239Z" transform="translate(0.03 -0.01)" style="fill:#263238;stroke:#263238;stroke-linecap:round;stroke-linejoin:round"/><path d="M123.48,237l10,71a1.19,1.19,0,0,0,1.34,1l.12,0h0a1.2,1.2,0,0,0,.91-1.28l-7-71.88Z" transform="translate(0.03 -0.01)" style="fill:#263238;stroke:#263238;stroke-linecap:round;stroke-linejoin:round"/><path d="M48.79,187.29s-3-12.67-2.66-19.67,6.66-16,24.33-15,27,18,25.67,31.67,0,40.33,9.33,46S135.79,232,135.79,232s3,.67.67,3-21.67,5.67-31.33,7c-7.38,1-26,.49-34.42.18A16.62,16.62,0,0,1,59.15,237a17,17,0,0,1-3-4.41C51.23,222.34,48.79,187.29,48.79,187.29Z" transform="translate(0.03 -0.01)" style="fill:#fff"/><g style="clip-path:url(#f5a2ccef-bc4e-4239-a63f-ab2466440701)"><path d="M105.13,242c2.36-.32,5.31-.77,8.45-1.29A30.21,30.21,0,0,1,102.65,238c-10.44-5.46-11.93-31.15-10.44-44.32s-8.94-29.55-28.7-30.51c-7.35-.36-12.95.62-17.1,2.34a11.73,11.73,0,0,0-.28,2.12c-.34,7,2.66,19.67,2.66,19.67s2.44,35,7.34,45.33a17,17,0,0,0,3,4.41,16.64,16.64,0,0,0,11.56,5.1C79.12,242.44,97.75,243,105.13,242Z" transform="translate(0.03 -0.01)" style="fill:#f19066"/><path d="M105.13,242c2.36-.32,5.31-.77,8.45-1.29A30.21,30.21,0,0,1,102.65,238c-10.44-5.46-11.93-31.15-10.44-44.32s-8.94-29.55-28.7-30.51c-7.35-.36-12.95.62-17.1,2.34a11.73,11.73,0,0,0-.28,2.12c-.34,7,2.66,19.67,2.66,19.67s2.44,35,7.34,45.33a17,17,0,0,0,3,4.41,16.64,16.64,0,0,0,11.56,5.1C79.12,242.44,97.75,243,105.13,242Z" transform="translate(0.03 -0.01)" style="fill:#fff;opacity:0.5;isolation:isolate"/></g><path d="M48.79,187.29s-3-12.67-2.66-19.67,6.66-16,24.33-15,27,18,25.67,31.67,0,40.33,9.33,46S135.79,232,135.79,232s3,.67.67,3-21.67,5.67-31.33,7c-7.38,1-26,.49-34.42.18A16.62,16.62,0,0,1,59.15,237a17,17,0,0,1-3-4.41C51.23,222.34,48.79,187.29,48.79,187.29Z" transform="translate(0.03 -0.01)" style="fill:none;stroke:#263238;stroke-linecap:round;stroke-linejoin:round"/></g><g id="f3e66a63-c50a-4b5f-8f4b-656f6b529926" data-name="Ground"><rect x="14.57" y="305.6" width="344.57" height="5.46" style="fill:#263238"/></g></g></svg>