<svg id="b3e5e3d0-3d4e-480e-98d6-487daddc4046" data-name="Calque 1" xmlns="http://www.w3.org/2000/svg" viewBox="0 0 565.98 343.34"><g id="eb4c2bd8-4039-4928-8679-eaccf078b589" data-name="Calque 2"><g id="a4a5c958-0ce4-49c9-95ec-c88743c7974c" data-name="Background Simple"><path d="M433.54,99.58c40.9,48,23.08,118-11.79,164.68C369.18,334.72,240.17,372.45,156.54,316,93.13,273.15,49.78,196,72.12,128,89.7,74.47,144,17.33,210.63,2.43c52.3-11.68,54.86,21.24,79.09,44.6,10,9.61,26.9,9.79,40.9,10.78,21.91,1.57,43.27,3.38,62.91,12.42C410.57,78.07,423.74,88.08,433.54,99.58Z" transform="translate(-0.01 0)" style="fill:#f19066"/><path d="M433.54,99.58c40.9,48,23.08,118-11.79,164.68C369.18,334.72,240.17,372.45,156.54,316,93.13,273.15,49.78,196,72.12,128,89.7,74.47,144,17.33,210.63,2.43c52.3-11.68,54.86,21.24,79.09,44.6,10,9.61,26.9,9.79,40.9,10.78,21.91,1.57,43.27,3.38,62.91,12.42C410.57,78.07,423.74,88.08,433.54,99.58Z" transform="translate(-0.01 0)" style="fill:#fff;opacity:0.8999999761581421;isolation:isolate"/></g><g id="e181c6d3-6bc5-4e39-859b-e7e2d055c390" data-name="File Cabinet"><line x1="13.32" y1="312.52" x2="565.98" y2="312.52" style="fill:none;stroke:#263238;stroke-miterlimit:10"/></g><g id="a82b3861-8735-4ae2-b910-dc9f45b36aa7" data-name="Plants"><path d="M62.7,245.93s-13.5,10.72-20,21.89-6.26,18.75-6.26,18.75,19-13.63,23.36-22.83A33,33,0,0,0,62.7,245.93Z" transform="translate(-0.01 0)" style="fill:#f19066"/><path d="M5.64,231s-3,19.25,4.13,31.11,26.58,24.17,26.58,24.17,2.8-8.65-7.42-21.79S5.64,231,5.64,231Z" transform="translate(-0.01 0)" style="fill:#f19066"/><path d="M37.37,264.92A66.05,66.05,0,0,0,28,234.84C18.8,219.57,7.79,204.1,5.2,197.53a103.27,103.27,0,0,1-4.17-14s-3.83,12.7,3.34,29.59S37.37,264.92,37.37,264.92Z" transform="translate(-0.01 0)" style="fill:#f19066"/><path d="M36.67,258.83A178.13,178.13,0,0,0,55,229.24c7.49-15.79,6.3-32.18,6.3-32.18s-14.08,18.25-18.55,32.5A174.91,174.91,0,0,0,36.67,258.83Z" transform="translate(-0.01 0)" style="fill:#f19066"/><path d="M34.53,227.62S32,204.94,25.86,192.35s-18.63-32-18.63-32-1.54,21.78,8.3,39.15A199.24,199.24,0,0,0,34.53,227.62Z" transform="translate(-0.01 0)" style="fill:#f19066"/><path d="M34,214.59s12.72-19,16.2-32.5,6.51-36.48,6.51-36.48-15.26,15.61-19,35.22A199.44,199.44,0,0,0,34,214.59Z" transform="translate(-0.01 0)" style="fill:#f19066"/><path d="M40.34,132.79s-12,8.82-10.06,27.31S34,184.84,34,184.84C32.1,172.18,40.34,132.79,40.34,132.79Z" transform="translate(-0.01 0)" style="fill:#f19066"/><g style="opacity:0.5"><path d="M62.7,245.93s-13.5,10.72-20,21.89-6.26,18.75-6.26,18.75,19-13.63,23.36-22.83A33,33,0,0,0,62.7,245.93Z" transform="translate(-0.01 0)" style="fill:#fff"/><path d="M5.64,231s-3,19.25,4.13,31.11,26.58,24.17,26.58,24.17,2.8-8.65-7.42-21.79S5.64,231,5.64,231Z" transform="translate(-0.01 0)" style="fill:#fff"/><path d="M37.37,264.92A66.05,66.05,0,0,0,28,234.84C18.8,219.57,7.79,204.1,5.2,197.53a103.27,103.27,0,0,1-4.17-14s-3.83,12.7,3.34,29.59S37.37,264.92,37.37,264.92Z" transform="translate(-0.01 0)" style="fill:#fff"/><path d="M36.67,258.83A178.13,178.13,0,0,0,55,229.24c7.49-15.79,6.3-32.18,6.3-32.18s-14.08,18.25-18.55,32.5A174.91,174.91,0,0,0,36.67,258.83Z" transform="translate(-0.01 0)" style="fill:#fff"/><path d="M34.53,227.62S32,204.94,25.86,192.35s-18.63-32-18.63-32-1.54,21.78,8.3,39.15A199.24,199.24,0,0,0,34.53,227.62Z" transform="translate(-0.01 0)" style="fill:#fff"/><path d="M34,214.59s12.72-19,16.2-32.5,6.51-36.48,6.51-36.48-15.26,15.61-19,35.22A199.44,199.44,0,0,0,34,214.59Z" transform="translate(-0.01 0)" style="fill:#fff"/><path d="M40.34,132.79s-12,8.82-10.06,27.31S34,184.84,34,184.84C32.1,172.18,40.34,132.79,40.34,132.79Z" transform="translate(-0.01 0)" style="fill:#fff"/></g><path d="M36.12,292.45s1.1-2.93,1.1-25.24-2.92-31.09-2.92-53-1.47-42.42-1.47-42.42" transform="translate(-0.01 0)" style="fill:none;stroke:#263238;stroke-miterlimit:10;stroke-width:0.75px"/><path d="M34.45,225.46s-8-17.13-11.32-23.55c-3.11-5.95-6.72-15.6-6.72-15.6" transform="translate(-0.01 0)" style="fill:none;stroke:#263238;stroke-miterlimit:10;stroke-width:0.75px"/><path d="M17,228.21s17.76,33,20.35,36.71" transform="translate(-0.01 0)" style="fill:none;stroke:#263238;stroke-miterlimit:10;stroke-width:0.75px"/><line x1="37.2" y1="256.05" x2="51.57" y2="221.79" style="fill:none;stroke:#263238;stroke-miterlimit:10;stroke-width:0.75px"/><path d="M20.08,264.92c3.36,5.51,17.13,19.88,17.13,19.88a168.12,168.12,0,0,0,15-18.66" transform="translate(-0.01 0)" style="fill:none;stroke:#263238;stroke-miterlimit:10;stroke-width:0.75px"/><line x1="34.44" y1="211.39" x2="43.31" y2="181.41" style="fill:none;stroke:#263238;stroke-miterlimit:10;stroke-width:0.75px"/><polygon points="45.9 288.58 25.88 288.58 25.88 295.73 27.77 295.73 30.2 311.46 41.57 311.46 44.01 295.73 45.9 295.73 45.9 288.58" style="fill:#f19066"/><polygon points="45.9 288.58 25.88 288.58 25.88 295.73 27.77 295.73 30.2 311.46 41.57 311.46 44.01 295.73 45.9 295.73 45.9 288.58" style="fill:#f19066"/></g><g id="e858c1d4-6f8e-4c7d-af10-01cbcf8c55c5" data-name="Character 2"><path d="M476.21,300.2s-12.3,6.58-12.44,8,7.58,1.44,13.3.72,10.73-1.57,9.87-4-10-5-10-5Z" transform="translate(-0.01 0)" style="fill:#f19066;stroke:#263238;stroke-linecap:round;stroke-linejoin:round"/><path d="M522.7,306.21s5.15,6.44,5.72,9.73-2.28,3-8.29.14a23.31,23.31,0,0,1-8.87-7.15Z" transform="translate(-0.01 0)" style="fill:#f19066;stroke:#263238;stroke-linecap:round;stroke-linejoin:round"/><path d="M473.78,167.31s-1.57,12.45.29,30.76,4.43,41.63,4.43,57.79-2.14,32.76-2.72,38.05a38.2,38.2,0,0,1-1.43,7.72,98.51,98.51,0,0,0,9.44,3.29c4.58,1.29,13.45,2,13.45,2s1-11.3,1-31.19-1.43-36.62-1.43-36.62,4.72,28.47,6.15,42.77a151.22,151.22,0,0,1,.29,26.32s.43,1.58,9.3,1.15a47,47,0,0,0,14.87-3s-4.15-29.18-4.43-41.48-5.44-24.75-9-33-4.15-11.16-3-15.74,7.87-26.75,7.87-37-.57-13-.57-13-1.43-2.15-18.88-2.72S473.78,167.31,473.78,167.31Z" transform="translate(-0.01 0)" style="fill:#263238;stroke:#263238;stroke-linecap:round;stroke-linejoin:round"/><path d="M495.59,235.35c.72,2.5,1.22,3.77,1.22,3.77" transform="translate(-0.01 0)" style="fill:none;stroke:#fff;stroke-linecap:round;stroke-linejoin:round"/><path d="M491,174.9s-.58,27.46,1.14,42a126.06,126.06,0,0,0,2.69,15.31" transform="translate(-0.01 0)" style="fill:none;stroke:#fff;stroke-linecap:round;stroke-linejoin:round"/><path d="M517.16,243.56a25,25,0,0,1,1.33,3.88" transform="translate(-0.01 0)" style="fill:none;stroke:#fff;stroke-linecap:round;stroke-linejoin:round"/><path d="M516.38,178.17a146.71,146.71,0,0,1-3.08,19.44c-3.46,15.23-6.58,24.57-6.23,28,.26,2.68,5.71,9.09,9.13,15.86" transform="translate(-0.01 0)" style="fill:none;stroke:#fff;stroke-linecap:round;stroke-linejoin:round"/><path d="M503,42.26s-2.95-5.91,3.76-11,17.85.54,18.79,5.91-2.68,9.39-1.21,12.21,8.19,3.9,11.68,8.06,4.84,11,2.82,15.17-5.9,7.52-3.49,10.07,8.59,7.78,8.59,13.56-5.23,11.81-9.66,14.09-12.49-.8-16.65-3.09-7.65-9-6.44-15.3,5.77-6.85,3.62-10.34-6.17-6-4.29-9.39,4.56-5.91,4.16-8.86-4.57-5.51-4.57-5.51-4.56-10.2-5.5-12.22S503,42.26,503,42.26Z" transform="translate(-0.01 0)" style="fill:#263238;stroke:#263238;stroke-linecap:round;stroke-linejoin:round"/><path d="M509.55,42.71s1.95-7.15,8.45-6.17,1,8.44,2.27,14,14.29,5.2,14.94,14.62-10.72,14-8.77,21.11,13.64,6.82,11,14.61-5.52,8.44-8.12,5.52" transform="translate(-0.01 0)" style="fill:none;stroke:#fff;stroke-linecap:round;stroke-linejoin:round;stroke-width:0.75px"/><path d="M517.35,60.89s9.42,3.58,9.09,8.77-9.74,6.82-6.17,14.62" transform="translate(-0.01 0)" style="fill:none;stroke:#fff;stroke-linecap:round;stroke-linejoin:round;stroke-width:0.75px"/><path d="M497.1,81.92s-20.32,4.43-21.6,6-20.6,29.47-20.6,29.47l-25-14.16-3,5.72L453,131.84l21.88-12.45L477.5,131s-4,24.32-4.58,29.9-.71,8.29-.71,8.29a68.37,68.37,0,0,0,22.6,2.29A70.3,70.3,0,0,0,518.27,166s-5.58-16.74-7.87-22.6-4.72-12.74-4.72-12.74l7.3-16.3,9,21.1,12.73-4.58S525,90.93,524,89.35s-15.88-6.72-15.88-6.72Z" transform="translate(-0.01 0)" style="fill:#f19066;stroke:#263238;stroke-linecap:round;stroke-linejoin:round"/><line x1="477.92" y1="103.37" x2="475.57" y2="95.53" style="fill:none;stroke:#263238;stroke-linecap:round;stroke-linejoin:round"/><path d="M493.92,95.18a162.59,162.59,0,0,0-5.54,17.65c-2.42,9.69-.69,13.49-.69,19.72s1.38,37.38,1.38,37.38" transform="translate(-0.01 0)" style="fill:none;stroke:#263238;stroke-linecap:round;stroke-linejoin:round"/><path d="M474.92,119.39s-2.86-8.44-2.14-10.73,4.86-4.86,5.15-5.29,2.14-5,2.14-5" transform="translate(-0.01 0)" style="fill:none;stroke:#263238;stroke-linecap:round;stroke-linejoin:round"/><polyline points="508.1 103.14 512.97 114.39 507.4 108.33" style="fill:none;stroke:#263238;stroke-linecap:round;stroke-linejoin:round"/><path d="M498.1,79.2s-4.15.71-5.15,2.29-6.15,12.87-6.15,12.87l9.58-4.15,6,8.16s7.87-14.45,8-15.6-4.86-4.29-5.29-4.29S498.1,79.2,498.1,79.2Z" transform="translate(-0.01 0)" style="fill:#fff;stroke:#263238;stroke-linecap:round;stroke-linejoin:round"/><path d="M495.52,78.34a53.43,53.43,0,0,1,0,8.58c-.43,3-1.86,7.3-1.14,7.15S503.82,84.2,505,82.2s1.29-7.29,1.29-7.29S499.24,79.05,495.52,78.34Z" transform="translate(-0.01 0)" style="fill:#fff;stroke:#263238;stroke-linecap:round;stroke-linejoin:round"/><path d="M512.79,60.92s.94-12.35-2.82-16-12.89-4.7-18.26.14-3.22,20.67-2.41,25.1,5.1,10.07,8.45,9.94,7.79-4.3,9-5.64,2-5.1,2-5.1,3.89-1.48,4.57-3.76A7.33,7.33,0,0,0,512.79,60.92Z" transform="translate(-0.01 0)" style="fill:#fff;stroke:#263238;stroke-linecap:round;stroke-linejoin:round"/><path d="M494.69,58.6a6.35,6.35,0,0,1-.76,3.6c-.94,1.33-2.08,1.52-1.89,2.28s2.08,1.32,2.08,1.32" transform="translate(-0.01 0)" style="fill:none;stroke:#263238;stroke-linecap:round;stroke-linejoin:round"/><path d="M494.89,70.79s.66,2.11,2.11,2.11.66-2.64.66-2.64A7.5,7.5,0,0,1,494.89,70.79Z" transform="translate(-0.01 0)" style="fill:#263238"/><path d="M493.67,70.17s2.85,1.33,4.74-.57" transform="translate(-0.01 0)" style="fill:none;stroke:#263238;stroke-linecap:round;stroke-linejoin:round"/><ellipse cx="491.39" cy="59.94" rx="0.57" ry="1.42" style="fill:#263238"/><path d="M498.79,60.51c0,.78-.25,1.42-.57,1.42s-.57-.64-.57-1.42.26-1.42.57-1.42S498.79,59.72,498.79,60.51Z" transform="translate(-0.01 0)" style="fill:#263238"/><path d="M489.32,57.1a2.29,2.29,0,0,1,3-1.34h0" transform="translate(-0.01 0)" style="fill:none;stroke:#263238;stroke-linecap:round;stroke-linejoin:round"/><path d="M496.33,55.58a3.36,3.36,0,0,1,4.38,1.85,4.11,4.11,0,0,1,.17.57" transform="translate(-0.01 0)" style="fill:none;stroke:#263238;stroke-linecap:round;stroke-linejoin:round"/><path d="M510,44.94c-3.76-3.62-12.89-4.7-18.26.14a8.79,8.79,0,0,0-2.25,3.64,16.56,16.56,0,0,1,6.55-1.9c4.7-.4,9.4,2.82,10.74,6s1.61,10.48,1.61,10.48,1.74-2.82,2.82-3.09a1.47,1.47,0,0,1,1.61.67S513.73,48.57,510,44.94Z" transform="translate(-0.01 0)" style="fill:#263238;stroke:#263238;stroke-linecap:round;stroke-linejoin:round"/><path d="M525.44,128.05l-32.18,14.7,1.15,4.15s42.42-9.05,42.42-10.19-3.52-10.52-3.52-10.52" transform="translate(-0.01 0)" style="fill:#f19066;stroke:#263238;stroke-linecap:round;stroke-linejoin:round"/><path d="M484.8,123.86a10.53,10.53,0,0,1,1.51,3.63c.76,2.73,1.67,11,2,13.17s3.94,12.42,3.94,12.42l-2.58.61-8.93-26.5S481.92,123,484.8,123.86Z" transform="translate(-0.01 0)" style="fill:#fff;stroke:#263238;stroke-linecap:round;stroke-linejoin:round"/><polygon points="463.93 131.16 472.23 159.63 490.82 155.05 483.53 127.16 463.93 131.16" style="fill:#fff;stroke:#263238;stroke-linecap:round;stroke-linejoin:round"/><path d="M463.94,131.16s-1.7.87-1.7-.79.76-2.27,2.57-2.42,14.08-2.58,17-3.79,3-.3,3-.3a3.11,3.11,0,0,0-1.26,3.29Z" transform="translate(-0.01 0)" style="fill:#fff;stroke:#263238;stroke-linecap:round;stroke-linejoin:round"/><path d="M493.26,142.75s-6.72-1.43-7.15-1.43-8.73,5.86-8.73,5.86l.72,2.43a5.17,5.17,0,0,0,1.57.15c1.15,0,5.3-.29,5.3-.29l-5.58,1.43.43,1s7.72-1.43,8.72-1.57,5.87-3.43,5.87-3.43Z" transform="translate(-0.01 0)" style="fill:#fff;stroke:#263238;stroke-linecap:round;stroke-linejoin:round"/><polygon points="428.14 97.79 421.99 95.61 415.12 90.78 414.55 92.07 420.04 98.16 417.7 103.52 422.42 107.09 426.71 109.38 429.86 103.23 428.14 97.79" style="fill:#fff;stroke:#263238;stroke-linecap:round;stroke-linejoin:round"/><path d="M429.58,102.66s-.72-5-1.72-6.15A30.67,30.67,0,0,0,424,93.36l-1.57-2.58s-.86.15-.86.86A25.54,25.54,0,0,0,423,96.08a9.55,9.55,0,0,0,1.57,2.71s-1,2.29-.43,3.72a9,9,0,0,0,2,2.72" transform="translate(-0.01 0)" style="fill:#fff;stroke:#263238;stroke-linecap:round;stroke-linejoin:round"/><path d="M418.28,95.5s-2.86,7.73-2.43,8.3,4.29,1.72,4.72,1.29,2.72-6,2.72-6Z" transform="translate(-0.01 0)" style="fill:#fff;stroke:#263238;stroke-linecap:round;stroke-linejoin:round"/><path d="M516.76,171.31s0,1.1-.11,3.09" transform="translate(-0.01 0)" style="fill:none;stroke:#fff;stroke-linecap:round;stroke-linejoin:round"/></g></g></svg>