<svg xmlns="http://www.w3.org/2000/svg" viewBox="0 0 184.16 184.16"><defs><style>.cls-1,.cls-2{fill:#fff;}.cls-2{fill-rule:evenodd;}</style></defs><title>Fichier 1</title><g id="Calque_2" data-name="Calque 2"><g id="Calque_1-2" data-name="Calque 1"><path class="cls-1" d="M92.08,184.16a92.08,92.08,0,1,1,92.08-92.08A92.19,92.19,0,0,1,92.08,184.16Zm0-174.27a82.19,82.19,0,1,0,82.19,82.19A82.28,82.28,0,0,0,92.08,9.89Z"/><path class="cls-2" d="M77.64,92.51v53.37A1.39,1.39,0,0,0,79,147.27H98.85a1.39,1.39,0,0,0,1.39-1.39V91.65h14.37A1.39,1.39,0,0,0,116,90.37L117.37,74A1.39,1.39,0,0,0,116,72.52H100.24V60.93A4.92,4.92,0,0,1,105.16,56h11.07a1.39,1.39,0,0,0,1.39-1.39V38.28a1.39,1.39,0,0,0-1.39-1.39H97.52A19.88,19.88,0,0,0,77.64,56.77V72.52H67.73a1.39,1.39,0,0,0-1.39,1.39V90.26a1.39,1.39,0,0,0,1.39,1.39h9.91Z"/></g></g></svg>