<svg xmlns="http://www.w3.org/2000/svg" viewBox="0 0 182.96 182.96"><defs><style>.cls-1{fill:#fff;}</style></defs><title>Fichier 1</title><g id="Calque_2" data-name="Calque 2"><g id="Calque_1-2" data-name="Calque 1"><path class="cls-1" d="M91.48,183A91.48,91.48,0,1,1,183,91.48,91.59,91.59,0,0,1,91.48,183Zm0-174.27a82.79,82.79,0,1,0,82.79,82.79A82.88,82.88,0,0,0,91.48,8.69Zm30.85,45.67a6.77,6.77,0,1,0,6.76,6.77A6.77,6.77,0,0,0,122.33,54.36ZM92.23,63a28.44,28.44,0,1,0,28.44,28.44A28.47,28.47,0,0,0,92.23,63Zm0,46.66a18.22,18.22,0,1,1,18.22-18.22A18.24,18.24,0,0,1,92.23,109.7Zm57.38-41.85a34.68,34.68,0,0,0-34.69-34.68H69.15A34.68,34.68,0,0,0,34.46,67.85v45.78a34.69,34.69,0,0,0,34.69,34.68h45.77a34.69,34.69,0,0,0,34.69-34.68Zm-10.87,45.78a23.82,23.82,0,0,1-23.82,23.82H69.15a23.82,23.82,0,0,1-23.82-23.82V67.85A23.81,23.81,0,0,1,69.15,44h45.77a23.81,23.81,0,0,1,23.82,23.82Z"/></g></g></svg>