<svg xmlns="http://www.w3.org/2000/svg" viewBox="0 0 183.85 183.85"><defs><style>.cls-1{fill:#fff;}</style></defs><title>Fichier 1</title><g id="Calque_2" data-name="Calque 2"><g id="Calque_1-2" data-name="Calque 1"><path class="cls-1" d="M91.93,183.85a91.93,91.93,0,1,1,91.92-91.93A92,92,0,0,1,91.93,183.85Zm0-174a82,82,0,1,0,82,82A82.13,82.13,0,0,0,91.93,9.89Z"/><path class="cls-1" d="M143.89,98.92v34.33a1.52,1.52,0,0,1-1.53,1.53H124.64a1.53,1.53,0,0,1-1.54-1.53V101.33c0-8.4-3-14.14-10.53-14.14-5.74,0-9.15,3.86-10.66,7.6a14.18,14.18,0,0,0-.69,5.07v33.39a1.54,1.54,0,0,1-1.53,1.53H82a1.52,1.52,0,0,1-1.53-1.53c0-8.5.22-49.75,0-59.44A1.54,1.54,0,0,1,82,72.25H99.69a1.53,1.53,0,0,1,1.53,1.54v7.32a2.39,2.39,0,0,0-.13.21h.13v-.21C104,76.86,108.91,70.78,120,70.78c13.68,0,23.93,8.94,23.93,28.14Zm-94.2,35.86H67.4a1.52,1.52,0,0,0,1.53-1.53V73.79a1.53,1.53,0,0,0-1.53-1.54H49.69a1.54,1.54,0,0,0-1.54,1.54v59.46A1.53,1.53,0,0,0,49.69,134.78Z"/><circle class="cls-1" cx="57.92" cy="53.17" r="11.13"/></g></g></svg>