<svg id="e2d4da70-a361-4a11-ba53-fa64e9fe4583" class="abstract" data-name="Calque 1" xmlns="http://www.w3.org/2000/svg" viewBox="0 0 118.35 164.95"><g id="beb7dc3c-fa23-4b5a-b922-38bfba2d4af8" data-name="Calque 2"><g id="e67c482f-70fd-45fb-ae34-87c672cca26a" data-name="Calque 1-2"><polygon points="21.6 112.78 118.35 26.82 108.93 164.94 21.6 112.78" style="fill:#f19066"/><path d="M107.81,2.77c-.32,2.26-.68,4.71-1,7.17l-2.19,15.18c-.64,4.45-1.3,8.91-1.92,13.37-.5,3.57-.93,7.15-1.43,10.73-.56,4-1.17,8-1.75,12s-1.13,7.91-1.7,11.86-1.16,8-1.74,12S94.92,93,94.35,96.91s-1.13,7.91-1.7,11.87-1.17,7.91-1.74,11.86q-1,6.89-2,13.78c-.25,1.7-.49,3.4-.76,5.09-.37,2.33-2.39,3.2-4.31,1.84l-51.13-36L1.2,83c-1.61-1.14-1.61-3,.06-4.3q13-9.89,25.92-19.74L86.32,13.87,103.74.58a2.5,2.5,0,0,1,4.07,2.19ZM84,131.37C89.77,92.1,95.46,53.12,101.15,14.14a.69.69,0,0,0-.45.31Q79.31,48.62,57.9,82.76a1.74,1.74,0,0,0,0,2.06q8.48,15,16.9,30.13ZM95.4,13.48l-.19-.16L9.56,78.55c6.12.55,12.11.88,18.1,1.2,8.06.44,16.12.85,24.18,1.32a1.66,1.66,0,0,0,1.74-.91q19.9-31.77,39.85-63.53C94.09,15.59,94.74,14.53,95.4,13.48ZM11.18,83.75V84l66.5,46.61c-.21-.39-.3-.59-.41-.79q-4-7.2-8.08-14.4L53.2,87c-.2-.35-.57-.79-.93-.85a27.44,27.44,0,0,0-3.39-.36L24.81,84.46Z" transform="translate(0 -0.01)" style="fill:#2f2f2f"/></g></g></svg>