<svg id="a7d9c591-d659-4b2d-8bc0-26bec932470b" data-name="Calque 1" xmlns="http://www.w3.org/2000/svg" viewBox="0 0 1227 405.5"><g id="a141a26a-e242-4fa7-b514-7716532f4a9c" data-name="Calque 2"><g id="b4bfc5c5-a65b-4607-9a67-6575b03014cf" data-name="Calque 3"><circle cx="982.99" cy="126.35" r="117.99" style="fill:#fff"/><path d="M983.09,198.13,1007,180.47a61.64,61.64,0,0,0-.33-99.31L986.3,66.32a2.79,2.79,0,0,0-3.88.66,2.84,2.84,0,0,0-.42.92c-2.19,9-1.72,18.38,1.13,28.11l-11.53,21.3Z" transform="translate(0 0)" style="fill:#fff"/><path d="M950.44,49.54l13.44,24.64A28.68,28.68,0,0,0,968.09,80l21.58,23a43.73,43.73,0,0,1,9.81,43.06l-16.39,52-37.39-38.6a84.76,84.76,0,0,1-6.12-110.78,6.5,6.5,0,0,1,10.86.86Z" transform="translate(0 0)" style="fill:#fff"/><path d="M1050.54,261.21l-54.06-29.64a92.64,92.64,0,0,0-105.83,11.76l-22,19.45v22.39L1032,335.58l18.62-49.3Z" transform="translate(0 0)" style="fill:#fff"/><path d="M824.67,264.86a18.07,18.07,0,0,1,22.39-9.46l121.75,42.81-.09-.08a21.53,21.53,0,0,1,15.22-36.75h74.11A39,39,0,0,1,1085.64,250h99.67v96l-40.39-1-3.53,3a59.85,59.85,0,0,1-39,14.49h-112a59.86,59.86,0,0,1-27.51-6.7l-130.1-67.38a18,18,0,0,1-8.09-23.61Z" transform="translate(0 0)" style="fill:#fff"/><path d="M1045.94,304.27H984a21.53,21.53,0,1,1,0-43h78.49l-4.38,43Z" transform="translate(0 0)" style="fill:#fff"/><path d="M984,287.4h61.92a12.19,12.19,0,0,1,12.19,12.19v3.23a1.45,1.45,0,0,1-1.45,1.45H984a21.54,21.54,0,0,1-19.81-30A21.54,21.54,0,0,0,984,287.4Z" transform="translate(0 0)" style="fill:#263238;opacity:0.10999999940395355;isolation:isolate"/><path d="M826.79,266.29l130.1,67.38a59.9,59.9,0,0,0,27.52,6.7h112a59.83,59.83,0,0,0,39-14.49,12,12,0,0,1,8.19-2.92l35.73.9V250h6v96l-40.39-1-3.53,3a59.85,59.85,0,0,1-39,14.49h-112a59.86,59.86,0,0,1-27.51-6.7L832.8,288.41a18.07,18.07,0,0,1-9.8-16,17.82,17.82,0,0,1,1.62-7.43A18.31,18.31,0,0,0,826.79,266.29Z" transform="translate(0 0)" style="fill:#263238;opacity:0.10999999940395355;isolation:isolate"/><path d="M1164.46,252.24V343.5a9.64,9.64,0,0,0,.12,1.52,10.75,10.75,0,0,0,10.66,9.25h40.06a5.61,5.61,0,0,0,5.61-5.61h0V247.09a5.61,5.61,0,0,0-5.6-5.62h-40.07A10.79,10.79,0,0,0,1164.46,252.24Z" transform="translate(0 0)" style="fill:#fff"/><path d="M819.3,262.17a24,24,0,0,1,29.83-12.6L867.27,256l19.41-17.13a99,99,0,0,1,90.41-21.37V200.56l-35.7-36.92a86.63,86.63,0,0,1-5.82-6.64,6,6,0,0,1,9.4-7.48c1.61,2,3.31,4,5,5.77L980.4,186.7l13.35-42.42a37.81,37.81,0,0,0-8.46-37.16l-21.58-23a34.39,34.39,0,0,1-5.1-7.06L945.17,52.42a.51.51,0,0,0-.84-.07,78.32,78.32,0,0,0-11.42,75.92,6,6,0,1,1-11.24,4.22h0A90.25,90.25,0,0,1,934.83,45a12.5,12.5,0,0,1,20.88,1.66L969.15,71.3a22.43,22.43,0,0,0,3.32,4.6l2.14,2.28a54.3,54.3,0,0,1,1.52-11.7,8.79,8.79,0,0,1,13.71-5l20.33,14.84a67.62,67.62,0,0,1,.36,109L989.1,201.16v20.27a100.42,100.42,0,0,1,10.27,4.88l52.71,28.9h3.67a44.7,44.7,0,0,1,30-11.43h75a16.8,16.8,0,0,1,14.56-8.48H1221a6,6,0,0,1,0,12h-45.68a4.79,4.79,0,0,0-4.77,4.77v17.66a6,6,0,0,1-12,0v-14h-72.81a32.84,32.84,0,0,0-23.36,9.67,6,6,0,0,1-4.24,1.76H984a15.53,15.53,0,0,0,0,31h60.1a10.29,10.29,0,0,1,7.35,3l10.33,10.33a6,6,0,0,1-8.49,8.49l-9.86-9.86H984a27.44,27.44,0,0,1-18.27-7L845.15,260.9A12.06,12.06,0,0,0,835.6,283l130.1,67.37a54.1,54.1,0,0,0,24.75,6h10.49a6,6,0,0,1,0,12H990.45A66,66,0,0,1,960.18,361l-130.1-67.37a24,24,0,0,1-10.78-31.48Zm206.62-131.42A55.11,55.11,0,0,0,1003.09,86L986.91,74.2A49.52,49.52,0,0,0,988.5,93l5.55,5.92a49.83,49.83,0,0,1,11.16,49l-10.85,34.44,9-6.68a55.15,55.15,0,0,0,22.56-44.93ZM984,255.21h43.09l-33.52-18.38a86.87,86.87,0,0,0-99,11l-14.38,12.68,76.66,27a26.75,26.75,0,0,1-.42-4.73A27.56,27.56,0,0,1,984,255.21Z" transform="translate(0 0)" style="fill:#263238"/><path d="M1026.53,356.38h75.9a53.89,53.89,0,0,0,35.12-13l3.53-3.05a6,6,0,0,1,3.92-1.45h13.54V295.34a6,6,0,1,1,12,0v48a4.79,4.79,0,0,0,4.77,4.77H1221a6,6,0,0,1,0,12h-45.68a16.79,16.79,0,0,1-15-9.25h-13.11l-1.84,1.58a65.83,65.83,0,0,1-43,15.95h-75.9a6,6,0,0,1,0-12Z" transform="translate(0 0)" style="fill:#263238"/><path d="M1066.3,220.54a6,6,0,0,1-7.94-9,113.94,113.94,0,0,0,0-171.13,6,6,0,0,1,7.94-9,126,126,0,0,1,0,189.15Z" transform="translate(0 0)" style="fill:#263238"/><path d="M907.23,211a6,6,0,0,1-8,9,126,126,0,0,1,0-188,6,6,0,1,1,8,9,114,114,0,0,0-9.13,161,115.66,115.66,0,0,0,9.13,9.13Z" transform="translate(0 0)" style="fill:#263238"/><path d="M1000.69,13.35a115.59,115.59,0,0,0-40,.84,5.81,5.81,0,0,1-1.17.12A6,6,0,0,1,958.4,2.42a127.72,127.72,0,0,1,44.12-.94,6,6,0,0,1-1.83,11.87Z" transform="translate(0 0)" style="fill:#263238"/><path d="M123.07,81.14a45.41,45.41,0,0,1,.43,64.22l-.43.43L57.8,81.13A46.47,46.47,0,0,1,123.07,81.14Z" transform="translate(0 0)" style="fill:#fff"/><path d="M84.74,176.82a45.41,45.41,0,0,1-.43-64.22l.43-.43L150,176.83A46.46,46.46,0,0,1,84.74,176.82Z" transform="translate(0 0)" style="fill:none;stroke:#263238;stroke-miterlimit:10;stroke-width:4px"/><path d="M0,377c26.58,0,26.58,26,53.16,26s26.58-26,53.16-26,26.58,26,53.15,26,26.59-26,53.17-26,26.57,26,53.15,26,26.59-26,53.21-26,26.54,26,53.13,26" transform="translate(0 0)" style="fill:none;stroke:#263238;stroke-miterlimit:10;stroke-width:5px"/><path d="M109.06,342.88c26.58,0,26.58,26.06,53.16,26.06s26.58-26.06,53.16-26.06,26.58,26.06,53.16,26.06,26.58-26.06,53.16-26.06,26.58,26.06,53.16,26.06,26.58-26.06,53.16-26.06,26.59,26.06,53.17,26.06" transform="translate(0 0)" style="fill:none;stroke:#fff;stroke-miterlimit:10;stroke-width:5px"/></g></g></svg>