<svg id="b2c71355-9472-411b-844e-2e8f69bc90e7" data-name="Calque 1" xmlns="http://www.w3.org/2000/svg" viewBox="0 0 1131.04 417.41"><g id="b8064345-fdcf-4cfb-99d0-b1db26951421" data-name="Calque 2"><g id="b1821537-b105-46e5-89d5-10b126d8cf08" data-name="Calque 6"><rect x="959.82" y="4.9" width="56" height="56" style="fill:#fff"/><rect x="959.82" y="120.9" width="56" height="56" style="fill:#fff"/><rect x="959.82" y="240.9" width="56" height="56" style="fill:#fff"/><polygon points="308.91 403.61 304.93 407.58 300.96 403.61 298.03 406.54 302.01 410.51 298.03 414.48 300.96 417.41 304.93 413.44 308.91 417.41 311.83 414.48 307.86 410.51 311.83 406.54 308.91 403.61" style="fill:#fff"/><polygon points="308.91 372.35 304.93 376.32 300.96 372.35 298.03 375.28 302.01 379.25 298.03 383.23 300.96 386.15 304.93 382.18 308.91 386.15 311.83 383.23 307.86 379.25 311.83 375.28 308.91 372.35" style="fill:#fff"/><polygon points="308.91 341.1 304.93 345.07 300.96 341.1 298.03 344.02 302.01 348 298.03 351.97 300.96 354.89 304.93 350.92 308.91 354.89 311.83 351.97 307.86 348 311.83 344.02 308.91 341.1" style="fill:#fff"/><polygon points="308.91 309.84 304.93 313.81 300.96 309.84 298.03 312.76 302.01 316.74 298.03 320.71 300.96 323.64 304.93 319.66 308.91 323.64 311.83 320.71 307.86 316.74 311.83 312.76 308.91 309.84" style="fill:#242c36"/><polygon points="342.96 403.61 338.99 407.58 335.02 403.61 332.09 406.54 336.06 410.51 332.09 414.48 335.02 417.41 338.99 413.44 342.96 417.41 345.89 414.48 341.92 410.51 345.89 406.54 342.96 403.61" style="fill:#fff"/><polygon points="342.96 372.35 338.99 376.32 335.02 372.35 332.09 375.28 336.06 379.25 332.09 383.23 335.02 386.15 338.99 382.18 342.96 386.15 345.89 383.23 341.92 379.25 345.89 375.28 342.96 372.35" style="fill:#fff"/><polygon points="342.96 341.1 338.99 345.07 335.02 341.1 332.09 344.02 336.06 348 332.09 351.97 335.02 354.89 338.99 350.92 342.96 354.89 345.89 351.97 341.92 348 345.89 344.02 342.96 341.1" style="fill:#fff"/><polygon points="342.96 309.84 338.99 313.81 335.02 309.84 332.09 312.76 336.06 316.74 332.09 320.71 335.02 323.64 338.99 319.66 342.96 323.64 345.89 320.71 341.92 316.74 345.89 312.76 342.96 309.84" style="fill:#242c36"/><polygon points="374.51 403.61 370.54 407.58 366.56 403.61 363.64 406.54 367.61 410.51 363.64 414.48 366.56 417.41 370.54 413.44 374.51 417.41 377.44 414.48 373.46 410.51 377.44 406.54 374.51 403.61" style="fill:#fff"/><polygon points="374.51 372.35 370.54 376.32 366.56 372.35 363.64 375.28 367.61 379.25 363.64 383.23 366.56 386.15 370.54 382.18 374.51 386.15 377.44 383.23 373.46 379.25 377.44 375.28 374.51 372.35" style="fill:#fff"/><polygon points="374.51 341.1 370.54 345.07 366.56 341.1 363.64 344.02 367.61 348 363.64 351.97 366.56 354.89 370.54 350.92 374.51 354.89 377.44 351.97 373.46 348 377.44 344.02 374.51 341.1" style="fill:#fff"/><polygon points="374.51 309.84 370.54 313.81 366.56 309.84 363.64 312.76 367.61 316.74 363.64 320.71 366.56 323.64 370.54 319.66 374.51 323.64 377.44 320.71 373.46 316.74 377.44 312.76 374.51 309.84" style="fill:#242c36"/><polygon points="408.57 403.61 404.59 407.58 400.62 403.61 397.69 406.54 401.67 410.51 397.69 414.48 400.62 417.41 404.59 413.44 408.57 417.41 411.49 414.48 407.52 410.51 411.49 406.54 408.57 403.61" style="fill:#fff"/><polygon points="408.57 372.35 404.59 376.32 400.62 372.35 397.69 375.28 401.67 379.25 397.69 383.23 400.62 386.15 404.59 382.18 408.57 386.15 411.49 383.23 407.52 379.25 411.49 375.28 408.57 372.35" style="fill:#fff"/><polygon points="408.57 341.1 404.59 345.07 400.62 341.1 397.69 344.02 401.67 348 397.69 351.97 400.62 354.89 404.59 350.92 408.57 354.89 411.49 351.97 407.52 348 411.49 344.02 408.57 341.1" style="fill:#fff"/><polygon points="408.57 309.84 404.59 313.81 400.62 309.84 397.69 312.76 401.67 316.74 397.69 320.71 400.62 323.64 404.59 319.66 408.57 323.64 411.49 320.71 407.52 316.74 411.49 312.76 408.57 309.84" style="fill:#242c36"/><polygon points="436.75 403.61 432.78 407.58 428.81 403.61 425.88 406.54 429.85 410.51 425.88 414.48 428.81 417.41 432.78 413.44 436.75 417.41 439.68 414.48 435.71 410.51 439.68 406.54 436.75 403.61" style="fill:#242c36"/><polygon points="436.75 372.35 432.78 376.32 428.81 372.35 425.88 375.28 429.85 379.25 425.88 383.23 428.81 386.15 432.78 382.18 436.75 386.15 439.68 383.23 435.71 379.25 439.68 375.28 436.75 372.35" style="fill:#242c36"/><polygon points="436.75 341.1 432.78 345.07 428.81 341.1 425.88 344.02 429.85 348 425.88 351.97 428.81 354.89 432.78 350.92 436.75 354.89 439.68 351.97 435.71 348 439.68 344.02 436.75 341.1" style="fill:#242c36"/><polygon points="436.75 309.84 432.78 313.81 428.81 309.84 425.88 312.76 429.85 316.74 425.88 320.71 428.81 323.64 432.78 319.66 436.75 323.64 439.68 320.71 435.71 316.74 439.68 312.76 436.75 309.84" style="fill:#242c36"/><polygon points="81.36 48.9 27.12 48.9 0 95.87 27.12 142.84 81.36 142.84 108.48 95.87 81.36 48.9" style="fill:#fff"/><path d="M185.16,160.77H129.3L101.38,112.4,129.3,64h55.86l27.93,48.37ZM130.92,158h52.62l26.32-45.57L183.54,66.83H130.92L104.61,112.4Z" transform="translate(-72.18 0)" style="fill:#263238"/></g><g id="a30e027b-9e05-421a-9164-e7d1832bd65a" data-name="Calque 5"><path d="M1087.47,116.77h-55.76a4.7,4.7,0,0,0-4.68,4.68v55.8a4.68,4.68,0,0,0,4.68,4.67h55.79a4.67,4.67,0,0,0,4.68-4.66h0v-55.8a4.69,4.69,0,0,0-4.68-4.68Zm-4.67,55.8h-46.44V126.13h46.44Z" transform="translate(-72.18 0)" style="fill:#263238"/><path d="M1087.47,236.69h-55.76a4.7,4.7,0,0,0-4.68,4.68v21a4.68,4.68,0,1,0,9.36,0V246.05h46.44v46.44h-46.44v-11.2a4.68,4.68,0,1,0-9.36,0v15.9a4.7,4.7,0,0,0,4.68,4.68h55.79a4.69,4.69,0,0,0,4.68-4.68h0v-55.8a4.69,4.69,0,0,0-4.68-4.68Z" transform="translate(-72.18 0)" style="fill:#263238"/><path d="M1099.25,6.48a4.7,4.7,0,0,0-6.62,0l-.48.48V4.68A4.67,4.67,0,0,0,1087.49,0h-55.78A4.69,4.69,0,0,0,1027,4.68h0V60.47a4.69,4.69,0,0,0,4.68,4.68h11.77a4.68,4.68,0,1,0,0-9.36h-7.09V9.36h46.44v7l-18.37,18.25L1057,27.15a4.68,4.68,0,0,0-6.61,6.62l10.76,10.84a4.68,4.68,0,0,0,6.62,0h0l15-15V55.85h-20.43a4.68,4.68,0,0,0,0,9.36h25.1a4.67,4.67,0,0,0,4.68-4.66V20.2l7.1-7.1a4.68,4.68,0,0,0,0-6.62Z" transform="translate(-72.18 0)" style="fill:#263238"/><path d="M1148.18,3.55h-17a4.68,4.68,0,0,0,0,9.36h17a4.68,4.68,0,0,0,0-9.36Z" transform="translate(-72.18 0)" style="fill:#263238"/><path d="M1198.32,24.08h-67.1a4.68,4.68,0,1,0-.43,9.35h67.53a4.68,4.68,0,0,0,.43-9.35Z" transform="translate(-72.18 0)" style="fill:#263238"/><path d="M1198.32,38.16h-67.1a4.68,4.68,0,0,0,0,9.36h67.1a4.68,4.68,0,1,0,0-9.36Z" transform="translate(-72.18 0)" style="fill:#263238"/><path d="M1198.32,52.24h-67.1a4.68,4.68,0,0,0,0,9.36h67.1a4.68,4.68,0,1,0,0-9.36Z" transform="translate(-72.18 0)" style="fill:#263238"/><path d="M1148.18,120.32h-17a4.68,4.68,0,0,0,0,9.36h17a4.68,4.68,0,0,0,0-9.36Z" transform="translate(-72.18 0)" style="fill:#263238"/><path d="M1198.32,140.85h-67.1a4.68,4.68,0,0,0,0,9.36h67.1a4.68,4.68,0,1,0,0-9.36Z" transform="translate(-72.18 0)" style="fill:#263238"/><path d="M1198.32,154.93h-67.1a4.68,4.68,0,0,0,0,9.36h67.1a4.68,4.68,0,1,0,0-9.36Z" transform="translate(-72.18 0)" style="fill:#263238"/><path d="M1198.32,169h-67.1a4.68,4.68,0,1,0-.43,9.35h67.53a4.68,4.68,0,0,0,.43-9.35A3.09,3.09,0,0,0,1198.32,169Z" transform="translate(-72.18 0)" style="fill:#263238"/><path d="M1148.18,240.24h-17a4.68,4.68,0,0,0,0,9.36h17a4.68,4.68,0,0,0,0-9.36Z" transform="translate(-72.18 0)" style="fill:#263238"/><path d="M1198.32,260.77h-67.1a4.68,4.68,0,0,0,0,9.36h67.1a4.68,4.68,0,1,0,0-9.36Z" transform="translate(-72.18 0)" style="fill:#263238"/><path d="M1198.32,274.86h-67.1a4.68,4.68,0,1,0-.43,9.35,3.09,3.09,0,0,0,.43,0h67.1a4.68,4.68,0,0,0,.43-9.35Z" transform="translate(-72.18 0)" style="fill:#263238"/><path d="M1198.32,288.94h-67.1a4.68,4.68,0,0,0,0,9.36h67.1a4.68,4.68,0,1,0,0-9.36Z" transform="translate(-72.18 0)" style="fill:#263238"/></g></g></svg>