<svg id="e70baff3-29c2-47c9-a4be-d78f5e8462e3" data-name="Calque 1" xmlns="http://www.w3.org/2000/svg" viewBox="0 0 1209.46 429.26"><g id="a5de86bf-67e8-4408-a294-369559c36b5b" data-name="Calque 2"><g id="b8e9b415-dbf8-49dd-9ca8-7f45e29aeb56" data-name="Calque 4"><path d="M20,368.22H50.83a16.57,16.57,0,0,1,16.54,16.54V421.2a5.73,5.73,0,0,1-4.63,4.65H8.06a5.73,5.73,0,0,1-4.64-4.65V384.76A16.58,16.58,0,0,1,20,368.22Z" style="fill:#fff;fill-rule:evenodd"/><path d="M39.78,368.22h11a16.57,16.57,0,0,1,16.54,16.54V421.2a5.73,5.73,0,0,1-4.63,4.65h-11a5.77,5.77,0,0,0,4.64-4.65V384.76A16.57,16.57,0,0,0,39.78,368.22Z" style="fill-rule:evenodd;opacity:0.10999999940395355;isolation:isolate"/><path d="M97.32,368.22H128.2a16.58,16.58,0,0,1,16.53,16.54V421.2a5.71,5.71,0,0,1-4.63,4.65H85.42a5.77,5.77,0,0,1-4.64-4.65V384.76A16.57,16.57,0,0,1,97.32,368.22Z" style="fill:#fff;fill-rule:evenodd"/><path d="M117.13,368.22h11.06a16.57,16.57,0,0,1,16.54,16.54V421.2a5.71,5.71,0,0,1-4.63,4.65H129a5.75,5.75,0,0,0,4.64-4.65V384.76A16.58,16.58,0,0,0,117.13,368.22Z" style="fill-rule:evenodd;opacity:0.10999999940395355;isolation:isolate"/><path d="M174.69,368.22h30.87a16.57,16.57,0,0,1,16.54,16.54V421.2a5.73,5.73,0,0,1-4.63,4.65H162.79a5.72,5.72,0,0,1-4.64-4.63V384.76A16.57,16.57,0,0,1,174.69,368.22Z" style="fill:#fff;fill-rule:evenodd"/><path d="M194.5,368.22h11.06a16.57,16.57,0,0,1,16.54,16.54V421.2a5.73,5.73,0,0,1-4.63,4.65H206.4a5.77,5.77,0,0,0,4.65-4.65V384.76A16.59,16.59,0,0,0,194.5,368.22Z" style="fill-rule:evenodd;opacity:0.10999999940395355;isolation:isolate"/><path d="M60.12,289.82h40.42l9.59,16.63a2.9,2.9,0,0,0,5.26,0L125,289.82h40.44l18.18,17.53c2,1.92,4.13.71,4.39-1.58l2.09-17.91a45.2,45.2,0,0,0-13.18-88.44H48.62a45.2,45.2,0,0,0-13.17,88.44l2.08,17.91c.3,2.55,2.66,3.25,4.39,1.58Z" style="fill:#fff;fill-rule:evenodd"/><path d="M112.76,262.07h-9.82c0-10.52-10.28-14.64-10.28-27.22a20.1,20.1,0,0,1,40.19-.9q0,.45,0,.9c0,12.58-10.28,16.7-10.28,27.22Z" style="fill:#fff;fill-rule:evenodd"/><path d="M122.57,262.07v7.09a6,6,0,0,1-6,6h-7.68a6,6,0,0,1-6-6v-7.09Z" style="fill:#fff;fill-rule:evenodd"/><path d="M207.6,353.27a17.5,17.5,0,0,1-35,0V334.53a9.81,9.81,0,0,1,9.79-9.77h15.39a9.81,9.81,0,0,1,9.78,9.77v18.74Z" style="fill:#fff;fill-rule:evenodd"/><path d="M52.94,353.21a17.54,17.54,0,0,1-35.08,0h0V334.42a9.86,9.86,0,0,1,9.82-9.83H50.33a2.35,2.35,0,0,1,2.61,2.08,2.44,2.44,0,0,1,0,.54v26Z" style="fill:#fff;fill-rule:evenodd"/><path d="M172.64,334.53V346l12-5.85a6,6,0,0,1,4.8-.31L207.6,346V334.54a9.82,9.82,0,0,0-9.78-9.78H182.43A9.81,9.81,0,0,0,172.64,334.53Z" style="fill:#fff;fill-rule:evenodd"/><path d="M17.86,334.42v5.66H52.94V327.21a2.36,2.36,0,0,0-2.07-2.62,2.44,2.44,0,0,0-.54,0H27.68a9.86,9.86,0,0,0-9.82,9.83Z" style="fill:#fff;fill-rule:evenodd"/><path d="M130.29,353.21a17.54,17.54,0,0,1-35.07.84q0-.42,0-.84V334.42a9.84,9.84,0,0,1,9.81-9.83h15.45a9.84,9.84,0,0,1,9.81,9.83Z" style="fill:#fff;fill-rule:evenodd"/><path d="M95.22,334.42v6.82a13.3,13.3,0,0,0,11.45-1.06c1.85-1.05,2.15-1.25,4,.35,8.42,7.37,19.64,3.28,19.64,3.28v-9.39a9.84,9.84,0,0,0-9.81-9.83H105a9.84,9.84,0,0,0-9.81,9.83Z" style="fill:#fff;fill-rule:evenodd"/><path d="M41.88,340.08v13.13a17.6,17.6,0,0,1-12,16.63,17.33,17.33,0,0,0,5.53.91A17.59,17.59,0,0,0,53,353.21V340.08Z" style="fill-rule:evenodd;opacity:0.10999999940395355;isolation:isolate"/><path d="M50.33,324.59H39.26a2.36,2.36,0,0,1,2.62,2.07,2.53,2.53,0,0,1,0,.55v12.87H52.94V327.21a2.36,2.36,0,0,0-2.07-2.62A2.44,2.44,0,0,0,50.33,324.59Z" style="fill-rule:evenodd;opacity:0.10999999940395355;isolation:isolate"/><path d="M119.24,353.21a17.56,17.56,0,0,1-8.5,15,16.68,16.68,0,0,1-3.51,1.62,17.54,17.54,0,0,0,23.06-16.63v-9.4a23.57,23.57,0,0,1-11,.81Z" style="fill-rule:evenodd;opacity:0.10999999940395355;isolation:isolate"/><path d="M109.42,324.59a9.86,9.86,0,0,1,9.82,9.83v10.2a23.57,23.57,0,0,0,11-.81v-9.39a9.84,9.84,0,0,0-9.81-9.83Z" style="fill-rule:evenodd;opacity:0.10999999940395355;isolation:isolate"/><path d="M196.54,353.27a17.49,17.49,0,0,1-11.94,16.62,17.47,17.47,0,0,0,23-16.57V346l-11.06-3.75Z" style="fill-rule:evenodd;opacity:0.10999999940395355;isolation:isolate"/><path d="M197.82,324.76h-11a9.8,9.8,0,0,1,9.77,9.77v7.75l11,3.72V334.5A9.81,9.81,0,0,0,197.82,324.76Z" style="fill-rule:evenodd;opacity:0.10999999940395355;isolation:isolate"/><path d="M165.83,278.77H37.57a44.9,44.9,0,0,1-25.92-8.23,45.55,45.55,0,0,0,23.8,17.32l2.08,17.91c.3,2.55,2.66,3.25,4.39,1.58l18.2-17.53h40.42l9.59,16.63a2.9,2.9,0,0,0,5.26,0L125,289.82h40.44l18.18,17.53c2,1.92,4.13.71,4.39-1.58l2.09-17.91a45.15,45.15,0,0,0,12.75-80.21,45.14,45.14,0,0,1-37,71.12Z" style="fill-rule:evenodd;opacity:0.10999999940395355;isolation:isolate"/><path d="M121.8,234.85c0,12.58-10.3,16.7-10.28,27.22h11c0-10.52,10.28-14.64,10.28-27.22a20.08,20.08,0,0,0-20.08-20.1h0a20.67,20.67,0,0,0-5.53.76,20.11,20.11,0,0,1,14.57,19.34Z" style="fill-rule:evenodd;opacity:0.10999999940395355;isolation:isolate"/><path d="M112.76,265.49h-6.4v3.67a2.53,2.53,0,0,0,.75,1.8,2.61,2.61,0,0,0,1.81.76h7.68a2.6,2.6,0,0,0,2.56-2.56v-3.67Zm91.48,82.9-17.1-5.8L176,348.06v5.15a14.12,14.12,0,0,0,28.24,0ZM176,340.48l9.22-4.51a3.32,3.32,0,0,1,2.8-.27l16.22,5.49v-6.77a6.44,6.44,0,0,0-6.39-6.41H182.4a6.44,6.44,0,0,0-6.4,6.41ZM21.27,336.65H49.51V328H27.68a6.45,6.45,0,0,0-6.41,6.41Zm28.24,6.85H21.27v9.71a14.12,14.12,0,0,0,28.24,0Zm77.37,4.56c-4.7.64-12.2.5-18.48-5a17.3,17.3,0,0,1-9.76,2.35v7.76a14.12,14.12,0,1,0,28.24,0v-5.11ZM98.64,338.6a10.23,10.23,0,0,0,7.94-2.49,3.42,3.42,0,0,1,4.81.34c5,5.76,11.94,5.41,15.49,4.74v-6.77a6.44,6.44,0,0,0-6.4-6.41H105a6.45,6.45,0,0,0-6.39,6.41ZM56.35,353.21a20.89,20.89,0,0,1-3.58,11.69,20,20,0,0,1,18,19.86v41.09a3.4,3.4,0,0,1-3.39,3.41h-64A3.43,3.43,0,0,1,0,425.85V413a3.42,3.42,0,0,1,6.83,0v9.39h6.58V391.14a3.42,3.42,0,0,1,6.84,0v31.29h30.3V391.14a3.42,3.42,0,0,1,6.83-.37,2.29,2.29,0,0,1,0,.37v31.29H64V384.76a13.14,13.14,0,0,0-13.12-13.12H45.36a20.94,20.94,0,0,1-19.92,0H20A13.15,13.15,0,0,0,6.83,384.76v12.81a3.42,3.42,0,0,1-6.83,0V384.76A20,20,0,0,1,18,364.9a20.82,20.82,0,0,1-3.59-11.69V334.42a13.28,13.28,0,0,1,13.24-13.24H52.94a3.4,3.4,0,0,1,3.4,3.4h0v28.62Zm154.72,0a20.88,20.88,0,0,1-3.57,11.69,20,20,0,0,1,18,19.86v41.09a3.4,3.4,0,0,1-3.39,3.41h-64a3.41,3.41,0,0,1-3.42-3.4h0V413a3.42,3.42,0,0,1,6.83,0v9.39h6.57V391.14a3.43,3.43,0,0,1,6.85,0v31.29h30.3V391.14a3.42,3.42,0,0,1,6.83-.37,2.29,2.29,0,0,1,0,.37v31.29h6.57V384.76a13.14,13.14,0,0,0-13.12-13.12h-5.48a20.92,20.92,0,0,1-19.91,0h-5.48a13.16,13.16,0,0,0-13.13,13.12v12.81a3.42,3.42,0,0,1-6.83,0V384.76a20,20,0,0,1,18-19.86,20.82,20.82,0,0,1-3.59-11.69V334.42a13.27,13.27,0,0,1,13.23-13.24h15.45A13.26,13.26,0,0,1,211,334.42v18.79Zm-77.35,0a20.89,20.89,0,0,1-3.58,11.69,20,20,0,0,1,18,19.86v41.09a3.4,3.4,0,0,1-3.39,3.41h-64a3.4,3.4,0,0,1-3.41-3.39V413a3.42,3.42,0,0,1,6.83,0v9.39h6.58V391.14a3.42,3.42,0,0,1,6.83-.37,2.29,2.29,0,0,1,0,.37v31.29h30.31V391.14a3.42,3.42,0,0,1,6.83-.37,2.29,2.29,0,0,1,0,.37v31.29h6.57V384.76a13.15,13.15,0,0,0-13.12-13.12h-5.49a20.9,20.9,0,0,1-19.9,0H97.32A13.15,13.15,0,0,0,84.2,384.76v12.81a3.42,3.42,0,0,1-6.83,0V384.76a20,20,0,0,1,18-19.86,20.89,20.89,0,0,1-3.58-11.69V334.42A13.25,13.25,0,0,1,105,321.18h15.45a13.28,13.28,0,0,1,13.24,13.24Zm-73.51-66.8h40.33a3.41,3.41,0,0,1,3.07,1.93l9.15,15.85L122,288.13a3.37,3.37,0,0,1,2.94-1.71h40.44a3.42,3.42,0,0,1,2.54,1.13l16.83,16.21,1.9-16.29a3.42,3.42,0,0,1,2.57-2.93,41.8,41.8,0,0,0-12.36-81.71H48.62a41.81,41.81,0,0,0-12.2,81.78,3.41,3.41,0,0,1,2.42,3l1.87,16.11,17-16.39a3.58,3.58,0,0,1,2.46-1Zm38.37,6.84H61.47L40.63,313.33a3.41,3.41,0,0,1-4.83.13,3.34,3.34,0,0,1-1-2.08l-2.44-21a49.16,49.16,0,0,1-22.77-17A48.63,48.63,0,0,1,48.62,196H176.89A48.56,48.56,0,0,1,216,273.46a49.07,49.07,0,0,1-22.76,17l-2.44,20.92a3.52,3.52,0,0,1-.94,2,3.4,3.4,0,0,1-4.81.1h0l-21-20.19h-37.1q-5.62,9.72-11.23,19.45a3.46,3.46,0,0,1-1.25,1.24,3.39,3.39,0,0,1-4.64-1.25h0Zm1-31.44c-.09-3.88-2.11-7-4.23-10.19-3-4.5-6.07-9.2-6.07-16.77a23.52,23.52,0,0,1,47,0c0,7.57-3.1,12.27-6.05,16.77-2.12,3.22-4.15,6.31-4.24,10.19v7.35a9.42,9.42,0,0,1-9.39,9.39h-7.68a9.41,9.41,0,0,1-9.39-9.39Zm6.51-3.16h13.42c.75-4.24,2.87-7.44,5.06-10.77,2.39-3.64,4.91-7.47,4.91-13a16.68,16.68,0,1,0-33.36,0h0c0,5.56,2.51,9.39,4.91,13C103.21,251.21,105.33,254.41,106.09,258.65Z" style="fill:#263238"/><line x1="524.14" y1="417.18" x2="679.1" y2="317" style="fill:none;stroke:#fff;stroke-linecap:round;stroke-linejoin:round;stroke-width:7px"/><line x1="608.66" y1="417.18" x2="763.62" y2="317" style="fill:none;stroke:#263238;stroke-linecap:round;stroke-linejoin:round;stroke-width:4px"/><line x1="693.19" y1="417.18" x2="848.15" y2="317" style="fill:none;stroke:#fff;stroke-linecap:round;stroke-linejoin:round;stroke-width:7px"/><line x1="777.71" y1="417.18" x2="932.67" y2="317" style="fill:none;stroke:#fff;stroke-linecap:round;stroke-linejoin:round;stroke-width:7px"/><line x1="862.24" y1="417.18" x2="1017.2" y2="317" style="fill:none;stroke:#fff;stroke-linecap:round;stroke-linejoin:round;stroke-width:7px"/><line x1="946.76" y1="417.18" x2="1101.72" y2="317" style="fill:none;stroke:#263238;stroke-linecap:round;stroke-linejoin:round;stroke-width:4px"/><polygon points="1167.79 173.92 1187.88 139.14 1207.96 173.92 1167.79 173.92" style="fill:#fff"/><polygon points="1167.79 139.14 1187.88 104.35 1207.96 139.14 1167.79 139.14" style="fill:none;stroke:#263238;stroke-linecap:round;stroke-linejoin:round;stroke-width:3px"/><polygon points="1167.79 104.35 1187.88 69.57 1207.96 104.35 1167.79 104.35" style="fill:#fff"/><polygon points="1167.79 69.57 1187.88 34.78 1207.96 69.57 1167.79 69.57" style="fill:none;stroke:#263238;stroke-linecap:round;stroke-linejoin:round;stroke-width:3px"/><polygon points="1167.79 34.78 1187.88 0 1207.96 34.78 1167.79 34.78" style="fill:#fff"/></g></g></svg>