<svg id="beaa0c55-2e9e-41a7-a2f8-1c91abd56d9f" data-name="Calque 1" xmlns="http://www.w3.org/2000/svg" viewBox="0 0 1237.97 389.66"><g id="aa2091b3-3d53-4a30-b39e-471ec09a6f12" data-name="Calque 2"><g id="b9f102ba-b7ea-4eb8-a3a2-1595493b6797" data-name="Calque 2-2"><path d="M134.36,179.09,84.62,129.35A8,8,0,0,1,94.84,117a8.68,8.68,0,0,1,1,1L83.08,105.28a8,8,0,0,1,10.5-11.92l-4.87-4.87a8,8,0,0,1-2.34-5.65,7,7,0,0,1,.11-1.29,7.83,7.83,0,0,1,2.22-4.34,8,8,0,0,1,11.28,0l5.58,5.58a8,8,0,0,1-2.24-6.91,7.87,7.87,0,0,1,2.23-4.36,8,8,0,0,1,11.27,0l32.33,32.32.09-.13a14.59,14.59,0,0,1,20.62,0l15.07,15.07a15.52,15.52,0,0,1,4.53,10.92v9.43a16.61,16.61,0,0,0,4.87,11.75l3.37,3.36-38.45,38.45-4.29-4.3a16.73,16.73,0,0,0-10.69-4.84A15.38,15.38,0,0,1,134.36,179.09Z" transform="translate(0.04)" style="fill:#fff"/><path d="M156.76,195.22l43.64-43.63a3.67,3.67,0,0,1,5.19,0h0l15.55,15.54a3.7,3.7,0,0,1,0,5.21L177.51,216a3.68,3.68,0,0,1-5.2,0h0l-15.54-15.54a3.68,3.68,0,0,1,0-5.2Z" transform="translate(0.04)" style="fill:#fff"/><path d="M91.16,179.1l49.74-49.74a8,8,0,0,0,0-11.27,8,8,0,0,0-11.27,0l12.81-12.8a8,8,0,0,0,2.34-5.64,7.69,7.69,0,0,0-.11-1.27,8,8,0,0,0-9.24-6.53,8.1,8.1,0,0,0-3.5,1.53l4.88-4.87a8,8,0,0,0,2.34-5.64,8.06,8.06,0,0,0-2.33-5.64A7.87,7.87,0,0,0,132.46,75a8,8,0,0,0-6.91,2.23L120,82.8a8,8,0,1,0-11.3-11.26L76.38,103.87l-.09-.13a14.56,14.56,0,0,0-20.59,0l0,0L40.6,118.83a15.41,15.41,0,0,0-4.53,10.91v9.43a16.64,16.64,0,0,1-4.88,11.76l-3.36,3.36,38.44,38.44,4.3-4.29a16.59,16.59,0,0,1,10.68-4.84A15.47,15.47,0,0,0,91.16,179.1Z" transform="translate(0.04)" style="fill:#fff"/><path d="M68.76,195.23,25.13,151.59a3.68,3.68,0,0,0-5.2,0h0L4.38,167.13a3.68,3.68,0,0,0,0,5.2h0L48,216a3.69,3.69,0,0,0,5.2,0l15.54-15.54a3.68,3.68,0,0,0,.05-5.2Z" transform="translate(0.04)" style="fill:#fff"/><path d="M144.58,59.89v70.34a8,8,0,0,1-15.93,1.49,7.42,7.42,0,0,1,0-1.49v18.12a8,8,0,0,1-2.33,5.64,7.15,7.15,0,0,1-1,.82,8,8,0,0,1-12.55-5.46v6.89a8,8,0,0,1-2.34,5.64,7.37,7.37,0,0,1-1,.85,8,8,0,0,1-12.6-6.47v-7.89a8,8,0,0,1-15.93,1.5,7.52,7.52,0,0,1,0-1.5V102.63h-.16A14.57,14.57,0,0,1,66.21,88.07V66.75a15.47,15.47,0,0,1,4.51-10.92l6.66-6.67A16.62,16.62,0,0,0,82.24,37.4V32.64h54.37v6.08a16.66,16.66,0,0,0,4.13,11A15.42,15.42,0,0,1,144.58,59.89Z" transform="translate(0.04)" style="fill:#fedfc5"/><path d="M140.91,118.09a8,8,0,0,0-11.27,0l12.81-12.8a8,8,0,0,0,2.34-5.64A8.14,8.14,0,0,0,142.46,94a8,8,0,0,0-10.52-.65l4.88-4.87a8,8,0,0,0,2.34-5.64,8.06,8.06,0,0,0-2.33-5.64,7.88,7.88,0,0,0-4.37-2.2,8,8,0,0,0-6.91,2.23L120,82.8a8,8,0,1,0-11.3-11.26L76.38,103.87l-.09-.13a14.49,14.49,0,0,0-13.19-4,21.39,21.39,0,0,0,11.22,8.48v40.09a14.59,14.59,0,0,0,14.57,14.58,14.34,14.34,0,0,0,2.85-.28,14.53,14.53,0,0,0,8.45,7.42l40.71-40.71A8,8,0,0,0,140.91,118.09Z" transform="translate(0.04)" style="fill:#ffae85"/><path d="M151.18,130.23V102.1a15.72,15.72,0,0,0-2,1.64l-.09.12L116.82,71.54a8,8,0,0,0-11.27,0,8,8,0,0,0,0,11.27L100,77.22a8,8,0,0,0-13.5,4.33,7.05,7.05,0,0,0-.1,1.3,8,8,0,0,0,2.34,5.64l4.87,4.87A8,8,0,0,0,83.1,105.28l12.81,12.81a8,8,0,1,0-12.36,10.16,8.17,8.17,0,0,0,1.1,1.1L118,162.68a14.78,14.78,0,0,0,2.74.25,14.56,14.56,0,0,0,14.57-14.55v-3.62c.45,0,.9.06,1.36.06A14.6,14.6,0,0,0,151.18,130.23Z" transform="translate(0.04)" style="fill:#ffae85"/><path d="M144.58,59.89v70.34a8,8,0,0,1-8,8h-.37a7.8,7.8,0,0,1-4.28-1.5h0a8,8,0,0,1-3.3-6.47v18.12A8,8,0,0,1,126.3,154a7.15,7.15,0,0,1-1,.82,8,8,0,0,1-12.55-5.46v6.89a8,8,0,0,1-2.34,5.64,7.37,7.37,0,0,1-1,.85,8,8,0,0,1-12.6-6.47V148.4a8,8,0,0,1-15.93,1.5,7.52,7.52,0,0,1,0-1.5V102.63h-.16A14.57,14.57,0,0,1,66.21,88.07V66.75a15.47,15.47,0,0,1,4.51-10.92l6.66-6.67A16.66,16.66,0,0,0,82.24,37.4V32.64h54.37v6.08a15,15,0,0,0,.53,4.11,16.53,16.53,0,0,0,3.6,6.87A15.52,15.52,0,0,1,144.58,59.89Z" transform="translate(0.04)" style="fill:#fff"/><path d="M144.58,59.89v70.34a8,8,0,0,1-8,8h-.37a7.8,7.8,0,0,1-4.28-1.5L132.07,69a10,10,0,0,0-.27-1.88c-3-14.81-15.53-24.73-30.65-24.73H81.5a16.7,16.7,0,0,0,.74-4.91V32.64h54.37v6.08a15,15,0,0,0,.53,4.11,16.53,16.53,0,0,0,3.6,6.87A15.52,15.52,0,0,1,144.58,59.89Z" transform="translate(0.04)" style="fill:#fecbaa"/><path d="M140.14,32.64H78.43A3.67,3.67,0,0,1,74.75,29V7a3.69,3.69,0,0,1,3.68-3.7h61.71A3.69,3.69,0,0,1,143.83,7h0V29A3.68,3.68,0,0,1,140.14,32.64Z" transform="translate(0.04)" style="fill:#fff"/><path d="M92.66,197.29,92,200.53l.64-3.24a3.3,3.3,0,1,0-1.28,6.48h.06a3.36,3.36,0,0,0,.63.06,3.3,3.3,0,0,0,.61-6.55Z" transform="translate(0.04)" style="fill:#263238"/><path d="M117.92,198.35l.33,3.29-.34-3.28a3.3,3.3,0,0,0,.34,6.59h.43a3.29,3.29,0,0,0,2.89-3.65h0A3.33,3.33,0,0,0,117.92,198.35Z" transform="translate(0.04)" style="fill:#263238"/><path d="M105.27,198.77h0a3.3,3.3,0,1,0-.25,6.6h.15a3.3,3.3,0,0,0,.14-6.6h0Z" transform="translate(0.04)" style="fill:#263238"/><path d="M80.46,193.93h0A3.31,3.31,0,1,0,82.68,197a3.29,3.29,0,0,0-2.22-3.11Z" transform="translate(0.04)" style="fill:#263238"/><path d="M130.39,196l.81,3.2-.82-3.2a3.3,3.3,0,1,0,1.65,6.4h.09a3.31,3.31,0,0,0-1.73-6.38Z" transform="translate(0.04)" style="fill:#263238"/><path d="M142.33,191.88l1.31,3-1.32-3a3.3,3.3,0,0,0,1.32,6.33,3.35,3.35,0,0,0,1.32-.27H145a3.3,3.3,0,0,0-2.71-6Z" transform="translate(0.04)" style="fill:#263238"/><path d="M67.84,41.27a3.3,3.3,0,1,0-1.54-6.22h0a3.3,3.3,0,0,0,1.58,6.2Z" transform="translate(0.04)" style="fill:#263238"/><path d="M29.63,78.17a3.27,3.27,0,0,0,1.53.38,3.3,3.3,0,0,0,2.93-1.77l.06-.11a3.31,3.31,0,1,0-4.52,1.5Z" transform="translate(0.04)" style="fill:#263238"/><path d="M25,90.6a3.28,3.28,0,0,0,4.17-2l0,0,0-.13A3.31,3.31,0,1,0,25,90.6Z" transform="translate(0.04)" style="fill:#263238"/><path d="M36.14,66.62a3.31,3.31,0,0,0,4.62-.73v-.06A3.3,3.3,0,0,0,35.43,62l2.66,2-2.67-2A3.32,3.32,0,0,0,36.14,66.62Z" transform="translate(0.04)" style="fill:#263238"/><path d="M56.62,48.41a3.31,3.31,0,1,0-1.9-6h0l-.08.06a3.31,3.31,0,0,0,2,5.94Z" transform="translate(0.04)" style="fill:#263238"/><path d="M22,140.71A3.31,3.31,0,0,0,25.18,143a3.37,3.37,0,0,0,1-.15A3.33,3.33,0,1,0,22,140.56Z" transform="translate(0.04)" style="fill:#263238"/><path d="M46.64,57.12a3.32,3.32,0,1,0-2.3-5.67l-.06.06a3.3,3.3,0,0,0,0,4.67A3.34,3.34,0,0,0,46.64,57.12Z" transform="translate(0.04)" style="fill:#263238"/><path d="M25.68,126.3a3.31,3.31,0,0,0-6.56.82v.13a3.29,3.29,0,0,0,3.26,2.82,3.84,3.84,0,0,0,.48,0,3.31,3.31,0,0,0,2.83-3.73Z" transform="translate(0.04)" style="fill:#263238"/><path d="M21.53,116.84h.1a3.3,3.3,0,0,0,3.3-3.21v-.14a3.31,3.31,0,1,0-3.4,3.35Z" transform="translate(0.04)" style="fill:#263238"/><path d="M22.25,103.59h.59a3.3,3.3,0,0,0,3.25-2.72.33.33,0,0,1,0-.14,3.3,3.3,0,1,0-3.86,2.81Z" transform="translate(0.04)" style="fill:#263238"/><path d="M178.09,67.66a3.28,3.28,0,0,0,2.72,1.43,3.22,3.22,0,0,0,1.87-.59,3.31,3.31,0,0,0,.85-4.59l-2.74,1.84,2.73-1.86a3.3,3.3,0,1,0-5.47,3.71Z" transform="translate(0.04)" style="fill:#263238"/><path d="M195,100.9a3.31,3.31,0,0,0-2.91,3.66v.14a3.3,3.3,0,0,0,3.27,2.84h.47a3.33,3.33,0,0,0-.85-6.6Z" transform="translate(0.04)" style="fill:#263238"/><path d="M189.39,91.58h0a3.3,3.3,0,0,0,6.34-1.86h0a3.3,3.3,0,1,0-6.34,1.86Z" transform="translate(0.04)" style="fill:#263238"/><path d="M184.72,79.23a3.32,3.32,0,0,0,3,1.85,3.06,3.06,0,0,0,1.45-.34,3.28,3.28,0,0,0,1.52-4.38v0l-3,1.4,3-1.4a3.31,3.31,0,0,0-6,2.8Z" transform="translate(0.04)" style="fill:#263238"/><path d="M169.77,57.34a3.24,3.24,0,1,0-.1-.1Z" transform="translate(0.04)" style="fill:#263238"/><path d="M196,114.7a3.32,3.32,0,1,0-.28,6.64h.18a3.31,3.31,0,0,0,3.3-3.13v-.13A3.3,3.3,0,0,0,196,114.7Z" transform="translate(0.04)" style="fill:#263238"/><path d="M148.64,41.12h.08a3.3,3.3,0,0,0,3.11-5.83l-1.6,2.89,1.59-2.89a3.3,3.3,0,1,0-3.18,5.79Z" transform="translate(0.04)" style="fill:#263238"/><path d="M159.82,48.37h.05a3.3,3.3,0,0,0,4-5.26h0a3.31,3.31,0,0,0-4,5.25Z" transform="translate(0.04)" style="fill:#263238"/><path d="M223.49,164.71,208,149.18a7,7,0,0,0-9.88,0l-.36.36-1-1a13.32,13.32,0,0,1-2.89-4.33,3.22,3.22,0,0,0-.24-.61,13.45,13.45,0,0,1-.77-4.49V134.7a3.18,3.18,0,0,0,1,.33,3.66,3.66,0,0,0,.57.05,3.33,3.33,0,1,0,0-6.66,3.41,3.41,0,0,0-1.59.4,18.6,18.6,0,0,0-5.46-12.42l-15-15.07a17.87,17.87,0,0,0-22.83-2L148,97.72V59.89a18.76,18.76,0,0,0-4.65-12.37,13.31,13.31,0,0,1-3.31-8.8V36h.22a7,7,0,0,0,7-7V7a7,7,0,0,0-7-7H78.43a7,7,0,0,0-7,7V29a7,7,0,0,0,7,7h.51v1.4A13.22,13.22,0,0,1,75,46.82L68.38,53.5A18.66,18.66,0,0,0,62.9,66.75V88.07a17.87,17.87,0,0,0,1.92,8.05,17.77,17.77,0,0,0-11.59,5.21l-15,15.07a18.68,18.68,0,0,0-5.48,13.26v9.43a13.24,13.24,0,0,1-3.9,9.43l-1,1h0l-.36-.36a7,7,0,0,0-9.88,0L2,164.71a7,7,0,0,0,0,9.88l5.31,5.32a3.31,3.31,0,0,0,4.79-4.57l-.1-.1-5.31-5.32a.38.38,0,0,1,0-.54h0L22.2,153.85a.36.36,0,0,1,.51,0h0l2.7,2.7h0l36.82,36.88,4.12,4.13a.38.38,0,0,1,0,.54h0L50.88,213.64a.36.36,0,0,1-.51,0h0l-29-29a3.31,3.31,0,0,0-4.68,4.67l29,29a7,7,0,0,0,9.88,0l15.51-15.54a7,7,0,0,0,0-9.88l-.17-.16,2-2a13.28,13.28,0,0,1,8.54-3.88,18.65,18.65,0,0,0,12-5.45l14.25-14.28a11.32,11.32,0,0,0,8.18-8.62,11.14,11.14,0,0,0,4.82,1.09A11.27,11.27,0,0,0,132,148.35V140.5a11.25,11.25,0,0,0,15.93-10.27V107L158,117.25a3.34,3.34,0,0,0,2.35,1,3.31,3.31,0,0,0,2.34-5.64l-8.48-8.51a11.24,11.24,0,0,1,13.42,1.9l15,15.07a12.08,12.08,0,0,1,3.55,8.59v9.43a19.83,19.83,0,0,0,5.83,14.1l1,1L188.29,159l-29,29-1.61-1.62-.05,0-.29-.28a19.82,19.82,0,0,0-12.79-5.8,12.09,12.09,0,0,1-7.79-3.54L125.91,166a3.31,3.31,0,0,0-4.66,4.69l10.85,10.79a18.72,18.72,0,0,0,12,5.45,13.36,13.36,0,0,1,8.55,3.87l.16.16a3.57,3.57,0,0,0,.27.28l1.52,1.52-.16.17a7,7,0,0,0,0,9.88L170,218.31a7,7,0,0,0,9.88,0l43.64-43.72A7,7,0,0,0,223.49,164.71Zm-28.44-32.85H195l-.6-.12ZM88.75,176.77A12.08,12.08,0,0,1,81,180.3a19.87,19.87,0,0,0-12.8,5.8l-2,2-1.75-1.76-.07-.07-31.95-32,1-1a19.83,19.83,0,0,0,5.83-14.1v-9.43a12.08,12.08,0,0,1,3.55-8.59L57.9,106a11.23,11.23,0,0,1,13.4-1.91l-8.49,8.5a3.31,3.31,0,0,0,4.68,4.67L77.62,107.1v41.25a11.26,11.26,0,0,0,16.16,10.16,11.32,11.32,0,0,0,5.6,7.61Zm52.53-46.53a4.67,4.67,0,1,1-9.33.43,3.09,3.09,0,0,1,0-.43V93.38a3.3,3.3,0,1,0-6.6,0h0v55a4.66,4.66,0,0,1-9.26.77V93.35a3.34,3.34,0,0,0-6.68,0v55a7.31,7.31,0,0,0,.07,1.24v6.65a4.66,4.66,0,0,1-9.32,0h0V93.31A3.31,3.31,0,1,0,93.55,93a2.16,2.16,0,0,0,0,.36v55a4.66,4.66,0,0,1-9.32,0h0V86.89a3.3,3.3,0,0,0-6.6,0V98.26a3.45,3.45,0,0,0-.8.38,11.32,11.32,0,0,1-7.32-10.57V66.75a12.06,12.06,0,0,1,3.55-8.58l6.66-6.68A19.76,19.76,0,0,0,85.55,37.4V36h6.64a3.31,3.31,0,0,0,0-6.61H78.43a.38.38,0,0,1-.37-.37h0V7a.38.38,0,0,1,.36-.38h61.72a.38.38,0,0,1,.38.38h0V29a.38.38,0,0,1-.38.38H107.7a3.31,3.31,0,0,0,0,6.61h25.61v2.77a20,20,0,0,0,4.95,13.16,12.15,12.15,0,0,1,3,8Zm77.54,39.68-43.64,43.72a.39.39,0,0,1-.27.11.36.36,0,0,1-.26-.11L159.14,198.1a.38.38,0,0,1,0-.54h0l2.5-2.5h0L187,169.68l15.81-15.83a.37.37,0,0,1,.52,0h0l15.51,15.53a.38.38,0,0,1,0,.54Z" transform="translate(0.04)" style="fill:#263238"/><path d="M88.89,14.45A3.53,3.53,0,1,0,92.41,18a3.53,3.53,0,0,0-3.52-3.55Z" transform="translate(0.04)" style="fill:#263238"/><path d="M204.13,165.05a3.53,3.53,0,1,0,3.51,3.55v0A3.53,3.53,0,0,0,204.13,165.05Z" transform="translate(0.04)" style="fill:#263238"/><path d="M55.06,198.75a3.52,3.52,0,1,0-3.52,3.53A3.53,3.53,0,0,0,55.06,198.75Z" transform="translate(0.04)" style="fill:#263238"/><path d="M1105.58,358.08a73.49,73.49,0,1,0-73.48-73.5v0A73.48,73.48,0,0,0,1105.58,358.08Zm0-126.41a52.93,52.93,0,1,1-52.92,52.94h0a52.93,52.93,0,0,1,52.92-52.93Z" transform="translate(0.04)" style="fill:#fff"/><path d="M1225.92,354.91a2.1,2.1,0,0,0-2.1,2.1,1.82,1.82,0,0,0,0,.33c1.39-.15,2.77-.35,4.14-.58A2.09,2.09,0,0,0,1225.92,354.91Z" transform="translate(0.04)" style="fill:#263238"/><path d="M1211.69,354.91a2.1,2.1,0,0,0-2.1,2.1,2,2,0,0,0,.1.59c1.3.1,2.62.16,4,.19a2.1,2.1,0,0,0-2-2.88Z" transform="translate(0.04)" style="fill:#263238"/><path d="M1225.92,346.15a2.1,2.1,0,1,0-2.1-2.1h0A2.1,2.1,0,0,0,1225.92,346.15Z" transform="translate(0.04)" style="fill:#263238"/><circle cx="1211.73" cy="344.05" r="2.1" style="fill:#263238"/><circle cx="1197.5" cy="344.05" r="2.1" style="fill:#263238"/><path d="M1183.22,342a2.1,2.1,0,1,0,2.1,2.1h0A2.1,2.1,0,0,0,1183.22,342Z" transform="translate(0.04)" style="fill:#263238"/><path d="M1225.92,333.19a2.1,2.1,0,1,0-2.1-2.1h0A2.1,2.1,0,0,0,1225.92,333.19Z" transform="translate(0.04)" style="fill:#263238"/><path d="M1211.69,333.19a2.1,2.1,0,1,0-2.1-2.1h0A2.1,2.1,0,0,0,1211.69,333.19Z" transform="translate(0.04)" style="fill:#263238"/><path d="M1197.46,329a2.1,2.1,0,1,0,2.1,2.1h0A2.1,2.1,0,0,0,1197.46,329Z" transform="translate(0.04)" style="fill:#263238"/><path d="M1183.22,329a2.1,2.1,0,1,0,2.1,2.1h0A2.1,2.1,0,0,0,1183.22,329Z" transform="translate(0.04)" style="fill:#263238"/><path d="M1169,329a2.1,2.1,0,1,0,2.1,2.1h0A2.1,2.1,0,0,0,1169,329Z" transform="translate(0.04)" style="fill:#263238"/><path d="M1225.92,320.23a2.1,2.1,0,1,0-2.1-2.1h0A2.1,2.1,0,0,0,1225.92,320.23Z" transform="translate(0.04)" style="fill:#263238"/><path d="M1211.69,320.23a2.1,2.1,0,1,0-2.1-2.1h0A2.1,2.1,0,0,0,1211.69,320.23Z" transform="translate(0.04)" style="fill:#263238"/><path d="M1197.46,316a2.1,2.1,0,1,0,2.1,2.1h0A2.1,2.1,0,0,0,1197.46,316Z" transform="translate(0.04)" style="fill:#263238"/><path d="M1183.22,316a2.1,2.1,0,1,0,2.1,2.1h0A2.1,2.1,0,0,0,1183.22,316Z" transform="translate(0.04)" style="fill:#263238"/><path d="M1169,316a2.1,2.1,0,1,0,2.1,2.1h0A2.1,2.1,0,0,0,1169,316Z" transform="translate(0.04)" style="fill:#263238"/><path d="M1154.76,316a2.1,2.1,0,1,0,2.1,2.1h0A2.1,2.1,0,0,0,1154.76,316Z" transform="translate(0.04)" style="fill:#263238"/><path d="M1225.92,307.27a2.1,2.1,0,1,0-2.1-2.1h0A2.1,2.1,0,0,0,1225.92,307.27Z" transform="translate(0.04)" style="fill:#263238"/><circle cx="1211.73" cy="305.17" r="2.1" style="fill:#263238"/><circle cx="1197.5" cy="305.17" r="2.1" style="fill:#263238"/><path d="M1183.22,303.07a2.1,2.1,0,1,0,2.1,2.1h0A2.1,2.1,0,0,0,1183.22,303.07Z" transform="translate(0.04)" style="fill:#263238"/><path d="M1169,303.07a2.1,2.1,0,1,0,2.1,2.1h0A2.1,2.1,0,0,0,1169,303.07Z" transform="translate(0.04)" style="fill:#263238"/><circle cx="1154.8" cy="305.17" r="2.1" style="fill:#263238"/><path d="M1225.92,294.31a2.1,2.1,0,1,0-2.1-2.1h0A2.1,2.1,0,0,0,1225.92,294.31Z" transform="translate(0.04)" style="fill:#263238"/><path d="M1211.69,294.31a2.1,2.1,0,1,0-2.1-2.1h0A2.1,2.1,0,0,0,1211.69,294.31Z" transform="translate(0.04)" style="fill:#263238"/><path d="M1197.46,290.11a2.1,2.1,0,1,0,2.1,2.1h0A2.1,2.1,0,0,0,1197.46,290.11Z" transform="translate(0.04)" style="fill:#263238"/><path d="M1183.22,290.11a2.1,2.1,0,1,0,2.1,2.1h0A2.1,2.1,0,0,0,1183.22,290.11Z" transform="translate(0.04)" style="fill:#263238"/><path d="M1169,290.11a2.1,2.1,0,1,0,2.1,2.1h0A2.1,2.1,0,0,0,1169,290.11Z" transform="translate(0.04)" style="fill:#263238"/><path d="M1154.76,290.11a2.1,2.1,0,1,0,2.1,2.1h0A2.1,2.1,0,0,0,1154.76,290.11Z" transform="translate(0.04)" style="fill:#263238"/><path d="M1142.62,292.21a2.1,2.1,0,0,0-2.1-2.1h-.11q.21,2.08.54,4.14A2.09,2.09,0,0,0,1142.62,292.21Z" transform="translate(0.04)" style="fill:#263238"/><path d="M1225.92,281.35a2.1,2.1,0,1,0-2.1-2.1h0A2.1,2.1,0,0,0,1225.92,281.35Z" transform="translate(0.04)" style="fill:#263238"/><path d="M1211.69,281.35a2.1,2.1,0,1,0-2.1-2.1h0A2.1,2.1,0,0,0,1211.69,281.35Z" transform="translate(0.04)" style="fill:#263238"/><path d="M1197.46,277.15a2.1,2.1,0,1,0,2.1,2.1h0A2.1,2.1,0,0,0,1197.46,277.15Z" transform="translate(0.04)" style="fill:#263238"/><path d="M1183.22,277.15a2.1,2.1,0,1,0,2.1,2.1h0A2.1,2.1,0,0,0,1183.22,277.15Z" transform="translate(0.04)" style="fill:#263238"/><path d="M1169,277.15a2.1,2.1,0,1,0,2.1,2.1h0A2.1,2.1,0,0,0,1169,277.15Z" transform="translate(0.04)" style="fill:#263238"/><path d="M1154.76,277.15a2.1,2.1,0,1,0,2.1,2.1h0A2.1,2.1,0,0,0,1154.76,277.15Z" transform="translate(0.04)" style="fill:#263238"/><path d="M1142.62,279.25a2.1,2.1,0,0,0-2.1-2.1h-.32c-.09,1.36-.15,2.72-.17,4.1a2,2,0,0,0,.49.07A2.1,2.1,0,0,0,1142.62,279.25Z" transform="translate(0.04)" style="fill:#263238"/><path d="M1225.92,268.39a2.1,2.1,0,1,0-2.1-2.1h0A2.1,2.1,0,0,0,1225.92,268.39Z" transform="translate(0.04)" style="fill:#263238"/><path d="M1211.69,268.39a2.1,2.1,0,1,0-2.1-2.1h0A2.1,2.1,0,0,0,1211.69,268.39Z" transform="translate(0.04)" style="fill:#263238"/><path d="M1197.46,264.19a2.1,2.1,0,1,0,2.1,2.1h0A2.1,2.1,0,0,0,1197.46,264.19Z" transform="translate(0.04)" style="fill:#263238"/><path d="M1183.22,264.19a2.1,2.1,0,1,0,2.1,2.1h0A2.1,2.1,0,0,0,1183.22,264.19Z" transform="translate(0.04)" style="fill:#263238"/><path d="M1169,264.19a2.1,2.1,0,1,0,2.1,2.1h0A2.1,2.1,0,0,0,1169,264.19Z" transform="translate(0.04)" style="fill:#263238"/><path d="M1154.76,264.19a2.1,2.1,0,1,0,2.1,2.1h0A2.1,2.1,0,0,0,1154.76,264.19Z" transform="translate(0.04)" style="fill:#263238"/><path d="M1142.62,266.29a2.1,2.1,0,0,0-.55-1.41c-.26,1.1-.5,2.21-.71,3.33A2.09,2.09,0,0,0,1142.62,266.29Z" transform="translate(0.04)" style="fill:#263238"/><path d="M1225.92,255.43a2.1,2.1,0,1,0-2.1-2.1h0A2.1,2.1,0,0,0,1225.92,255.43Z" transform="translate(0.04)" style="fill:#263238"/><circle cx="1211.73" cy="253.33" r="2.1" style="fill:#263238"/><circle cx="1197.5" cy="253.33" r="2.1" style="fill:#263238"/><path d="M1183.22,251.23a2.1,2.1,0,1,0,2.1,2.1h0A2.1,2.1,0,0,0,1183.22,251.23Z" transform="translate(0.04)" style="fill:#263238"/><path d="M1169,251.23a2.1,2.1,0,1,0,2.1,2.1h0A2.1,2.1,0,0,0,1169,251.23Z" transform="translate(0.04)" style="fill:#263238"/><circle cx="1154.8" cy="253.33" r="2.1" style="fill:#263238"/><path d="M1225.92,242.47a2.1,2.1,0,1,0-2.1-2.1h0A2.1,2.1,0,0,0,1225.92,242.47Z" transform="translate(0.04)" style="fill:#263238"/><circle cx="1211.73" cy="240.37" r="2.1" style="fill:#263238"/><circle cx="1197.5" cy="240.37" r="2.1" style="fill:#263238"/><path d="M1183.22,238.27a2.1,2.1,0,1,0,2.1,2.1h0A2.1,2.1,0,0,0,1183.22,238.27Z" transform="translate(0.04)" style="fill:#263238"/><path d="M1169,238.27a2.1,2.1,0,1,0,2.1,2.1h0A2.1,2.1,0,0,0,1169,238.27Z" transform="translate(0.04)" style="fill:#263238"/><path d="M1154.76,242.47a2.1,2.1,0,0,0,0-4.2,2.33,2.33,0,0,0-.53.07c-.53.74-1,1.48-1.55,2.24A2.09,2.09,0,0,0,1154.76,242.47Z" transform="translate(0.04)" style="fill:#263238"/><path d="M1225.92,229.51a2.1,2.1,0,1,0-2.1-2.1h0A2.1,2.1,0,0,0,1225.92,229.51Z" transform="translate(0.04)" style="fill:#263238"/><path d="M1211.69,229.51a2.1,2.1,0,1,0-2.1-2.1h0A2.1,2.1,0,0,0,1211.69,229.51Z" transform="translate(0.04)" style="fill:#263238"/><path d="M1197.46,225.31a2.1,2.1,0,1,0,2.1,2.1h0A2.1,2.1,0,0,0,1197.46,225.31Z" transform="translate(0.04)" style="fill:#263238"/><path d="M1183.22,225.31a2.1,2.1,0,1,0,2.1,2.1h0A2.1,2.1,0,0,0,1183.22,225.31Z" transform="translate(0.04)" style="fill:#263238"/><path d="M1169,225.31a2.1,2.1,0,1,0,2.1,2.1h0A2.1,2.1,0,0,0,1169,225.31Z" transform="translate(0.04)" style="fill:#263238"/><path d="M1225.92,216.55a2.1,2.1,0,1,0-2.1-2.1h0A2.1,2.1,0,0,0,1225.92,216.55Z" transform="translate(0.04)" style="fill:#263238"/><path d="M1211.69,216.55a2.1,2.1,0,1,0-2.1-2.1h0A2.1,2.1,0,0,0,1211.69,216.55Z" transform="translate(0.04)" style="fill:#263238"/><path d="M1197.46,212.35a2.1,2.1,0,1,0,2.1,2.1h0A2.1,2.1,0,0,0,1197.46,212.35Z" transform="translate(0.04)" style="fill:#263238"/><path d="M1183.22,216.55a2.1,2.1,0,0,0,2.1-2.1,2.12,2.12,0,0,0-.29-1.07c-1.28.57-2.54,1.16-3.77,1.79A2.08,2.08,0,0,0,1183.22,216.55Z" transform="translate(0.04)" style="fill:#263238"/><circle cx="1233.43" cy="350.37" r="2.1" style="fill:#263238"/><circle cx="1219.2" cy="350.37" r="2.1" style="fill:#263238"/><path d="M1204.92,348.27a2.1,2.1,0,1,0,2.1,2.1h0A2.1,2.1,0,0,0,1204.92,348.27Z" transform="translate(0.04)" style="fill:#263238"/><path d="M1190.69,348.27a2.1,2.1,0,1,0,2.1,2.1h0A2.1,2.1,0,0,0,1190.69,348.27Z" transform="translate(0.04)" style="fill:#263238"/><path d="M1233.39,339.51a2.1,2.1,0,1,0-2.1-2.1h0A2.1,2.1,0,0,0,1233.39,339.51Z" transform="translate(0.04)" style="fill:#263238"/><path d="M1219.16,339.51a2.1,2.1,0,1,0-2.1-2.1h0A2.1,2.1,0,0,0,1219.16,339.51Z" transform="translate(0.04)" style="fill:#263238"/><path d="M1204.92,335.31a2.1,2.1,0,1,0,2.1,2.1h0A2.1,2.1,0,0,0,1204.92,335.31Z" transform="translate(0.04)" style="fill:#263238"/><path d="M1190.69,335.31a2.1,2.1,0,1,0,2.1,2.1h0A2.1,2.1,0,0,0,1190.69,335.31Z" transform="translate(0.04)" style="fill:#263238"/><path d="M1176.45,335.31a2.1,2.1,0,1,0,2.1,2.1h0A2.1,2.1,0,0,0,1176.45,335.31Z" transform="translate(0.04)" style="fill:#263238"/><path d="M1233.39,326.55a2.1,2.1,0,1,0-2.1-2.1h0A2.1,2.1,0,0,0,1233.39,326.55Z" transform="translate(0.04)" style="fill:#263238"/><path d="M1219.16,326.55a2.1,2.1,0,1,0-2.1-2.1h0A2.1,2.1,0,0,0,1219.16,326.55Z" transform="translate(0.04)" style="fill:#263238"/><path d="M1204.92,322.35a2.1,2.1,0,1,0,2.1,2.1h0A2.1,2.1,0,0,0,1204.92,322.35Z" transform="translate(0.04)" style="fill:#263238"/><path d="M1190.69,322.35a2.1,2.1,0,1,0,2.1,2.1h0A2.1,2.1,0,0,0,1190.69,322.35Z" transform="translate(0.04)" style="fill:#263238"/><path d="M1176.45,322.35a2.1,2.1,0,1,0,2.1,2.1h0A2.1,2.1,0,0,0,1176.45,322.35Z" transform="translate(0.04)" style="fill:#263238"/><path d="M1162.22,322.35a2.1,2.1,0,1,0,2.1,2.1h0A2.1,2.1,0,0,0,1162.22,322.35Z" transform="translate(0.04)" style="fill:#263238"/><circle cx="1233.43" cy="311.49" r="2.1" style="fill:#263238"/><circle cx="1219.2" cy="311.49" r="2.1" style="fill:#263238"/><path d="M1204.92,309.39a2.1,2.1,0,1,0,2.1,2.1h0A2.1,2.1,0,0,0,1204.92,309.39Z" transform="translate(0.04)" style="fill:#263238"/><path d="M1190.69,309.39a2.1,2.1,0,1,0,2.1,2.1h0A2.1,2.1,0,0,0,1190.69,309.39Z" transform="translate(0.04)" style="fill:#263238"/><path d="M1176.45,309.39a2.1,2.1,0,1,0,2.1,2.1h0A2.1,2.1,0,0,0,1176.45,309.39Z" transform="translate(0.04)" style="fill:#263238"/><path d="M1162.22,309.39a2.1,2.1,0,1,0,2.1,2.1h0A2.1,2.1,0,0,0,1162.22,309.39Z" transform="translate(0.04)" style="fill:#263238"/><path d="M1148,313.59a2.1,2.1,0,1,0-2.1-2.1h0v.18c.17.41.35.82.53,1.23A2.12,2.12,0,0,0,1148,313.59Z" transform="translate(0.04)" style="fill:#263238"/><circle cx="1233.43" cy="298.53" r="2.1" style="fill:#263238"/><circle cx="1219.2" cy="298.53" r="2.1" style="fill:#263238"/><path d="M1204.92,296.43a2.1,2.1,0,1,0,2.1,2.1h0A2.1,2.1,0,0,0,1204.92,296.43Z" transform="translate(0.04)" style="fill:#263238"/><path d="M1190.69,296.43a2.1,2.1,0,1,0,2.1,2.1h0A2.1,2.1,0,0,0,1190.69,296.43Z" transform="translate(0.04)" style="fill:#263238"/><path d="M1176.45,296.43a2.1,2.1,0,1,0,2.1,2.1h0A2.1,2.1,0,0,0,1176.45,296.43Z" transform="translate(0.04)" style="fill:#263238"/><path d="M1162.22,296.43a2.1,2.1,0,1,0,2.1,2.1h0A2.1,2.1,0,0,0,1162.22,296.43Z" transform="translate(0.04)" style="fill:#263238"/><path d="M1148,296.43a2.1,2.1,0,1,0,2.1,2.1h0A2.1,2.1,0,0,0,1148,296.43Z" transform="translate(0.04)" style="fill:#263238"/><path d="M1233.39,287.67a2.1,2.1,0,1,0-2.1-2.1h0A2.1,2.1,0,0,0,1233.39,287.67Z" transform="translate(0.04)" style="fill:#263238"/><path d="M1219.16,287.67a2.1,2.1,0,1,0-2.1-2.1h0A2.1,2.1,0,0,0,1219.16,287.67Z" transform="translate(0.04)" style="fill:#263238"/><path d="M1204.92,283.47a2.1,2.1,0,1,0,2.1,2.1h0A2.1,2.1,0,0,0,1204.92,283.47Z" transform="translate(0.04)" style="fill:#263238"/><path d="M1190.69,283.47a2.1,2.1,0,1,0,2.1,2.1h0A2.1,2.1,0,0,0,1190.69,283.47Z" transform="translate(0.04)" style="fill:#263238"/><path d="M1176.45,283.47a2.1,2.1,0,1,0,2.1,2.1h0A2.1,2.1,0,0,0,1176.45,283.47Z" transform="translate(0.04)" style="fill:#263238"/><path d="M1162.22,283.47a2.1,2.1,0,1,0,2.1,2.1h0A2.1,2.1,0,0,0,1162.22,283.47Z" transform="translate(0.04)" style="fill:#263238"/><path d="M1148,283.47a2.1,2.1,0,1,0,2.1,2.1h0A2.1,2.1,0,0,0,1148,283.47Z" transform="translate(0.04)" style="fill:#263238"/><path d="M1233.39,274.71a2.1,2.1,0,1,0-2.1-2.1h0A2.1,2.1,0,0,0,1233.39,274.71Z" transform="translate(0.04)" style="fill:#263238"/><path d="M1219.16,274.71a2.1,2.1,0,1,0-2.1-2.1h0A2.1,2.1,0,0,0,1219.16,274.71Z" transform="translate(0.04)" style="fill:#263238"/><path d="M1204.92,270.51a2.1,2.1,0,1,0,2.1,2.1h0A2.1,2.1,0,0,0,1204.92,270.51Z" transform="translate(0.04)" style="fill:#263238"/><path d="M1190.69,270.51a2.1,2.1,0,1,0,2.1,2.1h0A2.1,2.1,0,0,0,1190.69,270.51Z" transform="translate(0.04)" style="fill:#263238"/><path d="M1176.45,270.51a2.1,2.1,0,1,0,2.1,2.1h0A2.1,2.1,0,0,0,1176.45,270.51Z" transform="translate(0.04)" style="fill:#263238"/><path d="M1162.22,270.51a2.1,2.1,0,1,0,2.1,2.1h0A2.1,2.1,0,0,0,1162.22,270.51Z" transform="translate(0.04)" style="fill:#263238"/><path d="M1148,270.51a2.1,2.1,0,1,0,2.1,2.1h0A2.1,2.1,0,0,0,1148,270.51Z" transform="translate(0.04)" style="fill:#263238"/><path d="M1233.39,261.75a2.1,2.1,0,1,0-2.1-2.1h0A2.1,2.1,0,0,0,1233.39,261.75Z" transform="translate(0.04)" style="fill:#263238"/><path d="M1219.16,261.75a2.1,2.1,0,1,0-2.1-2.1h0A2.1,2.1,0,0,0,1219.16,261.75Z" transform="translate(0.04)" style="fill:#263238"/><path d="M1204.92,257.55a2.1,2.1,0,1,0,2.1,2.1h0A2.1,2.1,0,0,0,1204.92,257.55Z" transform="translate(0.04)" style="fill:#263238"/><path d="M1190.69,257.55a2.1,2.1,0,1,0,2.1,2.1h0A2.1,2.1,0,0,0,1190.69,257.55Z" transform="translate(0.04)" style="fill:#263238"/><path d="M1176.45,257.55a2.1,2.1,0,1,0,2.1,2.1h0A2.1,2.1,0,0,0,1176.45,257.55Z" transform="translate(0.04)" style="fill:#263238"/><path d="M1162.22,257.55a2.1,2.1,0,1,0,2.1,2.1h0A2.1,2.1,0,0,0,1162.22,257.55Z" transform="translate(0.04)" style="fill:#263238"/><path d="M1148,257.55a2.1,2.1,0,1,0,2.1,2.1h0A2.1,2.1,0,0,0,1148,257.55Z" transform="translate(0.04)" style="fill:#263238"/><circle cx="1233.43" cy="246.69" r="2.1" style="fill:#263238"/><circle cx="1219.2" cy="246.69" r="2.1" style="fill:#263238"/><path d="M1204.92,244.59a2.1,2.1,0,1,0,2.1,2.1h0A2.1,2.1,0,0,0,1204.92,244.59Z" transform="translate(0.04)" style="fill:#263238"/><path d="M1190.69,244.59a2.1,2.1,0,1,0,2.1,2.1h0A2.1,2.1,0,0,0,1190.69,244.59Z" transform="translate(0.04)" style="fill:#263238"/><path d="M1176.45,244.59a2.1,2.1,0,1,0,2.1,2.1h0A2.1,2.1,0,0,0,1176.45,244.59Z" transform="translate(0.04)" style="fill:#263238"/><path d="M1162.22,244.59a2.1,2.1,0,1,0,2.1,2.1h0A2.1,2.1,0,0,0,1162.22,244.59Z" transform="translate(0.04)" style="fill:#263238"/><path d="M1150.09,246.69a2.11,2.11,0,0,0-.41-1.23c-.61,1.09-1.2,2.2-1.76,3.32h.07A2.1,2.1,0,0,0,1150.09,246.69Z" transform="translate(0.04)" style="fill:#263238"/><path d="M1233.39,235.83a2.1,2.1,0,1,0-2.1-2.1h0A2.1,2.1,0,0,0,1233.39,235.83Z" transform="translate(0.04)" style="fill:#263238"/><path d="M1219.16,235.83a2.1,2.1,0,1,0-2.1-2.1h0A2.1,2.1,0,0,0,1219.16,235.83Z" transform="translate(0.04)" style="fill:#263238"/><path d="M1204.92,231.63a2.1,2.1,0,1,0,2.1,2.1h0A2.1,2.1,0,0,0,1204.92,231.63Z" transform="translate(0.04)" style="fill:#263238"/><path d="M1190.69,231.63a2.1,2.1,0,1,0,2.1,2.1h0A2.1,2.1,0,0,0,1190.69,231.63Z" transform="translate(0.04)" style="fill:#263238"/><path d="M1176.45,231.63a2.1,2.1,0,1,0,2.1,2.1h0A2.1,2.1,0,0,0,1176.45,231.63Z" transform="translate(0.04)" style="fill:#263238"/><path d="M1162.22,231.63a2.1,2.1,0,1,0,2.1,2.1h0A2.1,2.1,0,0,0,1162.22,231.63Z" transform="translate(0.04)" style="fill:#263238"/><circle cx="1233.43" cy="220.77" r="2.1" style="fill:#263238"/><circle cx="1219.2" cy="220.77" r="2.1" style="fill:#263238"/><path d="M1204.92,218.67a2.1,2.1,0,1,0,2.1,2.1h0A2.1,2.1,0,0,0,1204.92,218.67Z" transform="translate(0.04)" style="fill:#263238"/><path d="M1190.69,218.67a2.1,2.1,0,1,0,2.1,2.1h0A2.1,2.1,0,0,0,1190.69,218.67Z" transform="translate(0.04)" style="fill:#263238"/><path d="M1176.45,218.67a2.1,2.1,0,1,0,2.1,2.1h0A2.1,2.1,0,0,0,1176.45,218.67Z" transform="translate(0.04)" style="fill:#263238"/><path d="M1233.39,209.91a2,2,0,0,0,1.26-.43c-1-.27-2.09-.52-3.14-.75A2.09,2.09,0,0,0,1233.39,209.91Z" transform="translate(0.04)" style="fill:#263238"/><path d="M1219.16,209.91a2.1,2.1,0,0,0,2.1-2.1,2,2,0,0,0-.1-.59c-1.31-.1-2.62-.16-4-.2a2.11,2.11,0,0,0,2,2.89Z" transform="translate(0.04)" style="fill:#263238"/><path d="M1204.92,209.91a2.1,2.1,0,0,0,2.1-2.1,1.93,1.93,0,0,0,0-.34c-1.39.16-2.78.35-4.14.58A2.08,2.08,0,0,0,1204.92,209.91Z" transform="translate(0.04)" style="fill:#263238"/><polyline points="411.87 357.07 455.25 387.66 498.65 357.1" style="fill:none;stroke:#263238;stroke-linecap:round;stroke-linejoin:round;stroke-width:4px"/><polyline points="238.35 357.01 281.72 387.61 325.11 357.04 368.48 387.63" style="fill:none;stroke:#263238;stroke-linecap:round;stroke-linejoin:round;stroke-width:4px"/><line x1="151.6" y1="356.99" x2="194.97" y2="387.58" style="fill:none;stroke:#263238;stroke-linecap:round;stroke-linejoin:round;stroke-width:4px"/><polyline points="368.49 360.12 411.88 329.55 455.26 360.14 498.66 329.58" style="fill:none;stroke:#fff;stroke-linecap:round;stroke-linejoin:round;stroke-width:4px"/><polyline points="151.6 329.47 194.98 360.06 238.36 329.5 281.73 360.09 325.12 329.52" style="fill:none;stroke:#fff;stroke-linecap:round;stroke-linejoin:round;stroke-width:4px"/><line x1="1121.57" y1="9.45" x2="1235.97" y2="123.85" style="fill:none;stroke:#263238;stroke-linecap:round;stroke-linejoin:round;stroke-width:4px"/><line x1="1142.46" y1="9.34" x2="1235.97" y2="102.85" style="fill:none;stroke:#fff;stroke-linecap:round;stroke-linejoin:round;stroke-width:4px"/></g></g></svg>