<svg id="b40fad75-bb13-463b-b287-4ba16fe9667b" data-name="Calque 1" xmlns="http://www.w3.org/2000/svg" xmlns:xlink="http://www.w3.org/1999/xlink" viewBox="0 0 453.9 374.3"><defs><clipPath id="a8010d11-b425-4fdb-914c-6b0c20806ef5" transform="translate(0 0)"><rect x="-22.85" y="-16.94" width="477.68" height="319.74" style="fill:none"/></clipPath><clipPath id="b7b6bcc8-c35a-4344-8f02-e902f2e9102c" transform="translate(0 0)"><rect x="73.35" y="44.4" width="134.29" height="115.22" style="fill:none"/></clipPath><clipPath id="aa7cbd66-d900-4ca1-b870-4092d3793cd2" transform="translate(0 0)"><path d="M122.07,236.39s8,17.76,9.91,21.34,4.13,13.77,4.4,19.83,0,7.29-1.37,7.15-1.93-7.71-1.93-8.94v-1.93s-.69,7.16-1.79,8.53-2.61,2.89-2.75,2.07.27-2.2.82-4.27a16.25,16.25,0,0,0,.28-4.82s-.83,3.86-2.75,5.23-4,1.93-3.31.83,2.48-2.34,2.89-3.72a17.74,17.74,0,0,0,.42-3.85s-2.62,4.27-3.72,5-1.1-.82-.41-1.51S125,272,125,272s-.41-.27-2.34-4.54-3-11.7-3.58-14.59-1.65-6.75-1.65-6.75l-10.6-17.76s-.83-4.26,3.16-5S122.07,236.39,122.07,236.39Z" style="fill:none"/></clipPath><clipPath id="a63a1453-1354-4270-8ab2-69f30e545886" transform="translate(0 0)"><path d="M132,263s1.38,6.75,1.24,9.78.55,4.54-.41,4.54-1.24-.69-2.21-3.72a35.73,35.73,0,0,1-1.24-6.88s-3.44,0-4.68-5.09" style="fill:none"/></clipPath><clipPath id="bbab9f8e-7155-4982-8cf3-214e72a4cca9" transform="translate(0 0)"><path d="M193.06,238.18c-1.09,0-7.89,0-12-1.09s-23.49-6.51-34.64-10.59-24.12-8.44-24.12-8.44a38.73,38.73,0,0,1-4.62-6.53c-1.24-2-4.46-8.52-7.82-15.48-10.86,2.85-16.32,8-19,12a265.4,265.4,0,0,0,18.39,23.35c3.81,4.35,13.33,5.44,21.77,6.53s44.13,3.52,44.13,3.52a44.51,44.51,0,0,0,9.8,4.35c4.35,1.09,6.8,1.36,9.8.28s9.25-1.64,11.15-2.18,3-1.63,2.18-2.18S194.15,238.18,193.06,238.18Z" style="fill:none"/></clipPath><clipPath id="b3dea5ad-fc06-412f-a57c-0fa2409d0eac" transform="translate(0 0)"><path d="M125.33,96.33a20.66,20.66,0,0,1,11.11,7.41,19.12,19.12,0,0,1,3.71,8.32c1.33,8.09-3.23,10.59-1.76,14.27s2.94,5.6,1.76,7.36-4.85,2.06-5.44,2.21-1.77,6.92-4.12,9.86-10.6-.44-10.6-.44-3.38,5.74-4.41,7.65,1,13.39-.44,18.55-4.86-.45-11.34-8.54-9.42-14.72-9.12-16.93,5.44-7.35,6.33-9.27,1.32-2.79.88-4.56-5.59-9-5.59-18.25,7.36-18.1,17.07-18.84A35.74,35.74,0,0,1,125.33,96.33Z" style="fill:none"/></clipPath><clipPath id="ab4598f6-52cf-4a04-9327-be233526af4d" transform="translate(0 0)"><path d="M289.15,220.89c.26.78-.52,11.75-1,30.82-.4,14.64-3.87,40.64-5.47,51.93h55.59c.4-11.46.91-37.67-2.32-48.53-4.17-14.11-8.88-17-10.44-23.25s-3.92-40.75-7.84-53.81-15.67-20.9-17.5-23.77-7.57-19.59-7.57-19.59l-9.92,8.37s7.31,11.75,8.36,15.41-7,12.28-11.23,21.16-5,15.93-1.31,21.42S288.9,220.06,289.15,220.89Z" style="fill:none"/></clipPath></defs><g id="ee937dae-db89-4cea-a0c2-6644c06a6f4a" data-name="Calque 2"><g id="fa1a3a9a-7678-41a7-a291-028ad28a3959" data-name="Calque 5"><g style="clip-path:url(#a8010d11-b425-4fdb-914c-6b0c20806ef5)"><path d="M89.47,58.89S41.2,104.63,50.41,168.06s65.74,112.5,110.19,153.28,107.55,46.38,153.06,15.17,20.84-70.68,46.61-126.95,42.5-68.19,28.7-126.43-96.39-95-178.64-79.62S89.47,58.89,89.47,58.89Z" transform="translate(0 0)" style="fill:#f19066"/><path d="M89.47,58.89S41.2,104.63,50.41,168.06s65.74,112.5,110.19,153.28,107.55,46.38,153.06,15.17,20.84-70.68,46.61-126.95,42.5-68.19,28.7-126.43-96.39-95-178.64-79.62S89.47,58.89,89.47,58.89Z" transform="translate(0 0)" style="fill:#fff;opacity:0.699999988079071;isolation:isolate"/><polygon points="297.46 49.11 225.24 49.11 225.97 38.58 298.19 38.58 297.46 49.11" style="fill:#fff"/><polygon points="297.46 63.86 225.24 63.86 225.97 53.33 298.19 53.33 297.46 63.86" style="fill:#fff"/><polygon points="297.46 78.62 225.24 78.62 225.97 68.08 298.19 68.08 297.46 78.62" style="fill:#fff"/><polygon points="297.46 93.37 225.24 93.37 225.97 82.83 298.19 82.83 297.46 93.37" style="fill:#fff"/><polygon points="297.46 108.12 225.24 108.12 225.97 97.58 298.19 97.58 297.46 108.12" style="fill:#fff"/><polygon points="297.46 122.87 225.24 122.87 225.97 112.33 298.19 112.33 297.46 122.87" style="fill:#fff"/><polygon points="297.46 137.62 225.24 137.62 225.97 127.09 298.19 127.09 297.46 137.62" style="fill:#fff"/><polygon points="297.46 152.38 225.24 152.38 225.97 141.84 298.19 141.84 297.46 152.38" style="fill:#fff"/><polygon points="297.46 167.13 225.24 167.13 225.97 156.59 298.19 156.59 297.46 167.13" style="fill:#fff"/><polygon points="297.46 181.88 225.24 181.88 225.97 171.34 298.19 171.34 297.46 181.88" style="fill:#fff"/><polygon points="297.46 196.63 225.24 196.63 225.97 186.09 298.19 186.09 297.46 196.63" style="fill:#fff"/><polygon points="373.83 49.11 301.6 49.11 302.33 38.58 374.56 38.58 373.83 49.11" style="fill:#fff"/><polygon points="373.83 63.86 301.6 63.86 302.33 53.33 374.56 53.33 373.83 63.86" style="fill:#fff"/><polygon points="373.83 78.62 301.6 78.62 302.33 68.08 374.56 68.08 373.83 78.62" style="fill:#fff"/><polygon points="373.83 93.37 301.6 93.37 302.33 82.83 374.56 82.83 373.83 93.37" style="fill:#fff"/><polygon points="373.83 108.12 301.6 108.12 302.33 97.58 374.56 97.58 373.83 108.12" style="fill:#fff"/><polygon points="373.83 122.87 301.6 122.87 302.33 112.33 374.56 112.33 373.83 122.87" style="fill:#fff"/><polygon points="373.83 137.62 301.6 137.62 302.33 127.09 374.56 127.09 373.83 137.62" style="fill:#fff"/><polygon points="373.83 152.38 301.6 152.38 302.33 141.84 374.56 141.84 373.83 152.38" style="fill:#fff"/><polygon points="373.83 167.13 301.6 167.13 302.33 156.59 374.56 156.59 373.83 167.13" style="fill:#fff"/><polygon points="373.83 181.88 301.6 181.88 302.33 171.34 374.56 171.34 373.83 181.88" style="fill:#fff"/><polygon points="373.83 196.63 301.6 196.63 302.33 186.09 374.56 186.09 373.83 196.63" style="fill:#fff"/><rect x="65.89" y="38" width="149.22" height="128.02" style="fill:#f19066"/><rect x="73.35" y="44.4" width="134.29" height="115.22" style="fill:#fff"/><g style="clip-path:url(#b7b6bcc8-c35a-4344-8f02-e902f2e9102c)"><path d="M207.65,79.33c-24.15,17.18-58.75,28.57-98.88,46.49A165,165,0,0,0,73.35,147v12.62h134.3Z" transform="translate(0 0)" style="fill:#f19066"/><path d="M207.65,44.4h-53.9c-6,5.13-13.09,10.86-21.46,17-30.68,22.5-17.38,45,19.43,28.63,18.89-8.39,39.92-27.82,55.93-44.76Z" transform="translate(0 0)" style="fill:#f19066"/><path d="M96.5,57.31c0-9.38-11.68-2-23.15,7.45v23.7C84.57,77.52,96.5,65.71,96.5,57.31Z" transform="translate(0 0)" style="fill:#f19066"/><path d="M107.75,94.63A10.74,10.74,0,1,1,97,83.9h0A10.74,10.74,0,0,1,107.75,94.63Z" transform="translate(0 0)" style="fill:#f19066"/><path d="M207.65,79.33c-24.15,17.18-58.75,28.57-98.88,46.49A165,165,0,0,0,73.35,147v12.62h134.3Z" transform="translate(0 0)" style="fill:#fff;opacity:0.75;isolation:isolate"/><path d="M207.65,44.4h-53.9c-6,5.13-13.09,10.86-21.46,17-30.68,22.5-17.38,45,19.43,28.63,18.89-8.39,39.92-27.82,55.93-44.76Z" transform="translate(0 0)" style="fill:#fff;opacity:0.75;isolation:isolate"/><g style="opacity:0.75"><path d="M96.5,57.31c0-9.38-11.68-2-23.15,7.45v23.7C84.57,77.52,96.5,65.71,96.5,57.31Z" transform="translate(0 0)" style="fill:#fff"/></g><path d="M107.75,94.63A10.74,10.74,0,1,1,97,83.9h0A10.74,10.74,0,0,1,107.75,94.63Z" transform="translate(0 0)" style="fill:#fff;opacity:0.75;isolation:isolate"/></g><path d="M184.43,128.89a14.31,14.31,0,1,1-14.3-14.32h0A14.3,14.3,0,0,1,184.43,128.89Z" transform="translate(0 0)" style="fill:#fff"/><path d="M413.3,301.88a22.27,22.27,0,0,0-5.08,10.55L398,318.15v-27l.2.27,16.23-11.88c2.05.32,9.93,1.21,17.11-2.65C439.9,272.4,446,257,446,257s-19.84-2.25-26.6,6.05c-5.47,6.77-5.65,13.32-5.53,15.55L398,290.2V270.28a22,22,0,0,0,12.06-14.56c2.89-11.22-12.5-33.33-12.5-33.33s-16,22.75-12.82,34.29c2.71,9.78,10,12.88,12.18,13.59v43.26L385.52,304c.27-2.27.47-9.4-5.88-16.55-7.69-8.65-28.21-8-28.21-8s8.66,17.31,16,23.08c6.44,5,15.33,3,17.47,2.39l12,10v13.14H379.09l7.29,45.56h21.87l7.29-45.56H398v-8.7l11.19-6.3c2.73.76,10.33,2.32,17.54-1.29,9-4.48,16.35-14.1,16.35-14.1S421.63,292.26,413.3,301.88Z" transform="translate(0 0)" style="fill:#f19066"/><path d="M413.3,301.88a22.27,22.27,0,0,0-5.08,10.55L398,318.15v-27l.2.27,16.23-11.88c2.05.32,9.93,1.21,17.11-2.65C439.9,272.4,446,257,446,257s-19.84-2.25-26.6,6.05c-5.47,6.77-5.65,13.32-5.53,15.55L398,290.2V270.28a22,22,0,0,0,12.06-14.56c2.89-11.22-12.5-33.33-12.5-33.33s-16,22.75-12.82,34.29c2.71,9.78,10,12.88,12.18,13.59v43.26L385.52,304c.27-2.27.47-9.4-5.88-16.55-7.69-8.65-28.21-8-28.21-8s8.66,17.31,16,23.08c6.44,5,15.33,3,17.47,2.39l12,10v13.14H379.09l7.29,45.56h21.87l7.29-45.56H398v-8.7l11.19-6.3c2.73.76,10.33,2.32,17.54-1.29,9-4.48,16.35-14.1,16.35-14.1S421.63,292.26,413.3,301.88Z" transform="translate(0 0)" style="fill:#fff;opacity:0.5;isolation:isolate"/><path d="M397.09,164.23l-29.44.24s-1.94-.24-2.43,1.22c0,0-5.11,12.89-5.35,17.52s1,3.89-1,10-7.54,20.43-10.71,32.11c-4.25,15.69-5.35,32.35-5.62,48.55-.05,2.59-1.6,25,2.44,25,3.36,0,34.33,4.1,34.7-1.87,1.49-23.79-2.81-47,5.46-70.18,3.21-9,6.89-18.48,9.61-27.89s3.2-19.17,5-28.79C401,163.5,397.09,164.23,397.09,164.23Z" transform="translate(0 0)" style="fill:#263238"/><path d="M400,167.15c-.29-3.4-2.88-2.92-2.88-2.92l-29.44.24s-1.94-.24-2.43,1.22c0,0-5.11,12.89-5.35,17.52a23.56,23.56,0,0,0,.1,3.66l.63,1s1,8.51,12.65,9,18.24-4.87,20.68-10,3.4-13.37,5.35-18.24A13.27,13.27,0,0,1,400,167.15Z" transform="translate(0 0)" style="fill:#f19066"/><path d="M393.15,176.65c-2,7.1-.79,9.08-2.77,21.32s-9.08,26.09-11.84,38.69-1.58,57.24-1.18,59.21a17.8,17.8,0,0,1,.17,3.18c1.32-.5,2.13-1.18,2.18-2.12,1.49-23.79-2.81-47,5.46-70.18,3.21-9,6.89-18.48,9.61-27.89s3.2-19.17,5-28.79c.75-4-.43-5.31-1.45-5.7h0A52.65,52.65,0,0,0,393.15,176.65Z" transform="translate(0 0)" style="fill:#f19066"/><path d="M336.3,356.28l-.2-.16V328.64h3.95V311.27H325.44v17.37h3.95v27.95l-34.94,11.14v2.76a3.16,3.16,0,1,0,6.32,0v-.43L330,366.67v4.18a2.77,2.77,0,0,0,5.53.33,1.82,1.82,0,0,0,0-.33v-4.29l30.4,3.53v.4a3.16,3.16,0,0,0,6.31.36,2.16,2.16,0,0,0,0-.36v-2.76Z" transform="translate(0 0)" style="fill:#263238"/><rect x="287.18" y="294.33" width="94.77" height="20.15" rx="4" style="fill:#263238"/><path d="M5.4,164.23l29.43.24s1.94-.24,2.43,1.22c0,0,5.11,12.89,5.35,17.52s-1,3.89,1,10,7.54,20.43,10.7,32.11c4.25,15.69,5.36,32.35,5.63,48.55,0,2.59,1.59,25-2.45,25-3.36,0-34.33,4.1-34.7-1.87-1.49-23.79,2.81-47-5.46-70.18-3.21-9-6.89-18.48-9.61-27.89s-3.2-19.17-5-28.79C1.5,163.5,5.4,164.23,5.4,164.23Z" transform="translate(0 0)" style="fill:#263238"/><path d="M2.51,167.15c.29-3.4,2.89-2.92,2.89-2.92l29.43.24s1.94-.24,2.43,1.22c0,0,5.11,12.89,5.35,17.52a22.39,22.39,0,0,1-.1,3.66l-.63,1s-1,8.51-12.65,9S11,192,8.56,186.87s-3.41-13.39-5.35-18.26A15.06,15.06,0,0,0,2.51,167.15Z" transform="translate(0 0)" style="fill:#f19066"/><path d="M9.34,176.65c2,7.1.79,9.08,2.76,21.32s9,26.09,11.84,38.69,1.58,57.24,1.19,59.21a17.8,17.8,0,0,0-.17,3.18c-1.33-.5-2.13-1.18-2.19-2.12-1.49-23.79,2.81-47-5.46-70.18-3.21-9-6.89-18.48-9.61-27.89s-3.2-19.17-5-28.79c-.75-4,.43-5.31,1.45-5.7h0A52.68,52.68,0,0,1,9.34,176.65Z" transform="translate(0 0)" style="fill:#f19066"/><path d="M66.15,356.28l.19-.16V328.64h-3.9V311.27H77v17.37H73v27.95L108,367.73v2.76a3.16,3.16,0,0,1-6.31.36,2.16,2.16,0,0,1,0-.36v-.43l-29.22-3.39v4.18a2.76,2.76,0,0,1-5.52,0h0v-4.29l-30.35,3.5v.4a3.16,3.16,0,1,1-6.32,0h0V367.7Z" transform="translate(0 0)" style="fill:#263238"/><rect x="20.53" y="294.33" width="94.77" height="20.15" rx="4" style="fill:#263238"/><rect x="91.95" y="237.74" width="237.6" height="136.56" style="fill:#ccc"/><rect x="92.07" y="241.02" width="237.3" height="3.78" style="fill:#263238"/><rect x="86.66" y="235.5" width="244.65" height="5.97" style="fill:#ccc"/></g></g><g id="b49e8ec4-3801-4c1e-a2f0-26485073ac8c" data-name="Characters"><path d="M188.49,96.66s-12.79-4.08-22.59,6-4.63,30.21-4.63,37.29-9,52-9,52-4.35,16.33,7.62,26.67,34.12,9.45,43.57-10.47-.57-48.32-.57-63,2.18-24.5-1.09-35.11A20.78,20.78,0,0,0,188.49,96.66Z" transform="translate(0 0)" style="fill:#263238;stroke:#263238;stroke-linecap:round;stroke-linejoin:round"/><path d="M184.69,104.3S172.35,119.63,164,124" transform="translate(0 0)" style="fill:none;stroke:#fff;stroke-linecap:round;stroke-linejoin:round"/><path d="M174,103s-6.33,15.34-12,19.67" transform="translate(0 0)" style="fill:none;stroke:#fff;stroke-linecap:round;stroke-linejoin:round"/><path d="M209.53,155.69a10.2,10.2,0,0,1,4.28,7.2c.73,5.1-4.71,16.89-5.8,22.72a208.37,208.37,0,0,0-2,21.31c0,1.82,6.2,28.78,7.29,35.34s-.55,22-1.46,23.13-3.46-4.19-3.64-7.65-6.92-30.05-9.47-38.07-1.83-18.61-1.83-18.61,3.46-24.22,3.46-33.51.28-16.24.28-16.24Z" transform="translate(0 0)" style="fill:#f19066;stroke:#263238;stroke-linecap:round;stroke-linejoin:round"/><path d="M211.83,265.39c.91-1.09,2.55-16.57,1.46-23.13S206,208.74,206,206.92a208.37,208.37,0,0,1,2-21.31,46.62,46.62,0,0,1,1.55-5.55,15.7,15.7,0,0,1-6.87,1.56c-1.27,0-2.51,1.18-3.7,3.16-1,8.46-2.08,16.28-2.08,16.28s-.73,10.57,1.82,18.58,9.29,34.61,9.47,38.07S210.92,266.49,211.83,265.39Z" transform="translate(0 0)" style="fill:#fff;stroke:#263238;stroke-linecap:round;stroke-linejoin:round"/><path d="M175.26,303.64c.4-4.47,1.24-13.6,1.78-17.12.73-4.73,2.19-14.39,2.19-14.39l3.68,31.51h25.24c.91-6.87,3.21-25.29,3.64-38.25.55-16.21-11.66-49.72-12-52.28s.36-10,.36-12.2,6.36-16.16,6.9-23.26,2.19-9.29,2.19-9.29l.91-12c-.55-.19-8.72-6.62-16.92-9a30.62,30.62,0,0,0-15.3-.37s-11.78,5.28-17.78,7.83-10.93,7.47-11.11,13.85,11.66,33.52,12.75,35.52-2.37,9.11-3.83,12.75-7.47,16.76-11.47,31.33c-3.43,12.45-1.14,45.88-.39,55.37Z" transform="translate(0 0)" style="fill:#f19066;stroke:#263238;stroke-linecap:round;stroke-linejoin:round"/><path d="M180.94,199.16s9.35,1.13,18.69-7.85" transform="translate(0 0)" style="fill:none;stroke:#263238;stroke-linecap:round;stroke-linejoin:round"/><path d="M187.42,173.06c2.74-.73,6.2-12,6.56-17.85.2-3.27.4-5.71.31-7.5l-1-.33A30.62,30.62,0,0,0,178,147l-4.84,2.12a15.19,15.19,0,0,0,.81,7.7C176,162.29,184.69,173.77,187.42,173.06Z" transform="translate(0 0)" style="fill:#fff;stroke:#263238;stroke-linecap:round;stroke-linejoin:round"/><path d="M175.22,141.4s.92,10.73,1.47,13.36,6.08,13,9.21,12.43,5.16-14.12,5.16-15.44.37-12,.37-12S184.8,145.16,175.22,141.4Z" transform="translate(0 0)" style="fill:#fff;stroke:#263238;stroke-linecap:round;stroke-linejoin:round"/><path d="M157.15,156.65s-7.46.36-11.65,8.74.73,14,2.36,17.3,6.2,16.76,7.66,20.77,4.37,8.74,9.47,15.3,15.85,20.59,15.85,20.59l2.91,5.1s4.92,5.64,5.46,5.83,3.83,4.37,5.1,1.82,0-11.66,0-11.66,2,4,2.74,3.1-.18-2.92-.91-5.11-7.46-6.37-8.92-6.55-3.29-2-5.47-6.38-3.83-12-7.29-16.57-8-11.3-8-11.3-5.1-18.21-5.1-18.94a20.26,20.26,0,0,0-1.45-10" transform="translate(0 0)" style="fill:#f19066;stroke:#263238;stroke-linecap:round;stroke-linejoin:round"/><path d="M187.25,231.88c-1.47-.19-3.29-2-5.47-6.38s-3.83-12-7.29-16.57-8-11.3-8-11.3-3.45-12.34-4.67-17.11c-6.7-.94-11.12.41-13.93,2.13h0c1.64,3.28,6.2,16.76,7.66,20.77s4.37,8.74,9.47,15.3,15.85,20.59,15.85,20.59l2.91,5.1s4.92,5.64,5.46,5.83,3.83,4.37,5.1,1.82,0-11.66,0-11.66,2,4,2.74,3.1-.18-2.92-.91-5.11S188.71,232.06,187.25,231.88Z" transform="translate(0 0)" style="fill:#fff;stroke:#263238;stroke-linecap:round;stroke-linejoin:round"/><path d="M175.26,303.64c.4-4.47,1.24-13.6,1.78-17.12.73-4.73,2.19-14.39,2.19-14.39l3.68,31.51h25.24c.91-6.87,3.21-25.29,3.64-38.25.23-6.75-1.76-16.51-4.18-25.78-21.37,4.68-45.6,1.3-58.18-1.15-1.06,3.13-2.1,6.43-3,9.81-3.43,12.45-1.14,45.88-.39,55.37Z" transform="translate(0 0)" style="fill:#263238;stroke:#263238;stroke-linecap:round;stroke-linejoin:round"/><path d="M168.89,125.42s-1.63-.72-1.63,2.54,3.63,5.44,3.63,5.44Z" transform="translate(0 0)" style="fill:#fff;stroke:#263238;stroke-linecap:round;stroke-linejoin:round"/><path d="M187.61,107.46s-5.83,8.2-10.93,11.48a81.52,81.52,0,0,1-8.2,4.74s2.55,10.56,3.64,14,4.37,9.49,10.92,9.86,9.48-6.58,10.76-9.86a14.13,14.13,0,0,0,1.15-5.36,7.64,7.64,0,0,0,3.46-5.28c.36-3.46-.55-3.28-.55-3.28s-1,1.13-3.17-.56C192.93,121.87,187.06,112.38,187.61,107.46Z" transform="translate(0 0)" style="fill:#fff;stroke:#263238;stroke-linecap:round;stroke-linejoin:round"/><path d="M173.71,128.17s2.57-1.88,6.33,0" transform="translate(0 0)" style="fill:none;stroke:#263238;stroke-linecap:round;stroke-linejoin:round"/><path d="M185.34,128.51s3.08-2.73,6.33-.51" transform="translate(0 0)" style="fill:none;stroke:#263238;stroke-linecap:round;stroke-linejoin:round"/><path d="M173.2,124.06s1.37-2.57,6-1.37" transform="translate(0 0)" style="fill:none;stroke:#263238;stroke-linecap:round;stroke-linejoin:round"/><path d="M185.34,122.87a5.29,5.29,0,0,1,7,.68" transform="translate(0 0)" style="fill:none;stroke:#263238;stroke-linecap:round;stroke-linejoin:round"/><path d="M184.83,134.16s-2.74,1.88-3.93,0" transform="translate(0 0)" style="fill:none;stroke:#263238;stroke-linecap:round;stroke-linejoin:round"/><path d="M179.87,138.06s3.42,1.37,5.13-.17" transform="translate(0 0)" style="fill:none;stroke:#263238;stroke-linecap:round;stroke-linejoin:round"/><path d="M122.07,236.39s8,17.76,9.91,21.34,4.13,13.77,4.4,19.83,0,7.29-1.37,7.15-1.93-7.71-1.93-8.94v-1.93s-.69,7.16-1.79,8.53-2.61,2.89-2.75,2.07.27-2.2.82-4.27a16.25,16.25,0,0,0,.28-4.82s-.83,3.86-2.75,5.23-4,1.93-3.31.83,2.48-2.34,2.89-3.72a17.74,17.74,0,0,0,.42-3.85s-2.62,4.27-3.72,5-1.1-.82-.41-1.51S125,272,125,272s-.41-.27-2.34-4.54-3-11.7-3.58-14.59-1.65-6.75-1.65-6.75l-10.6-17.76s-.83-4.26,3.16-5S122.07,236.39,122.07,236.39Z" transform="translate(0 0)" style="fill:#fff"/><g style="clip-path:url(#aa7cbd66-d900-4ca1-b870-4092d3793cd2)"><path d="M122.07,236.39s8,17.76,9.91,21.34,4.13,13.77,4.4,19.83,0,7.29-1.37,7.15-1.93-7.71-1.93-8.94v-1.93s-.69,7.16-1.79,8.53-2.61,2.89-2.75,2.07.27-2.2.82-4.27a16.25,16.25,0,0,0,.28-4.82s-.83,3.86-2.75,5.23-4,1.93-3.31.83,2.48-2.34,2.89-3.72a17.74,17.74,0,0,0,.42-3.85s-2.62,4.27-3.72,5-1.1-.82-.41-1.51S125,272,125,272s-.41-.27-2.34-4.54-3-11.7-3.58-14.59-1.65-6.75-1.65-6.75l-10.6-17.76s-.83-4.26,3.16-5S122.07,236.39,122.07,236.39Z" transform="translate(0 0)" style="opacity:0.15000000596046448;isolation:isolate"/></g><path d="M122.07,236.39s8,17.76,9.91,21.34,4.13,13.77,4.4,19.83,0,7.29-1.37,7.15-1.93-7.71-1.93-8.94v-1.93s-.69,7.16-1.79,8.53-2.61,2.89-2.75,2.07.27-2.2.82-4.27a16.25,16.25,0,0,0,.28-4.82s-.83,3.86-2.75,5.23-4,1.93-3.31.83,2.48-2.34,2.89-3.72a17.74,17.74,0,0,0,.42-3.85s-2.62,4.27-3.72,5-1.1-.82-.41-1.51S125,272,125,272s-.41-.27-2.34-4.54-3-11.7-3.58-14.59-1.65-6.75-1.65-6.75l-10.6-17.76s-.83-4.26,3.16-5S122.07,236.39,122.07,236.39Z" transform="translate(0 0)" style="fill:none;stroke:#263238;stroke-linecap:round;stroke-linejoin:round"/><path d="M132,263s1.38,6.75,1.24,9.78.55,4.54-.41,4.54-1.24-.69-2.21-3.72a35.73,35.73,0,0,1-1.24-6.88s-3.44,0-4.68-5.09" transform="translate(0 0)" style="fill:#fff"/><g style="clip-path:url(#a63a1453-1354-4270-8ab2-69f30e545886)"><path d="M132,263s1.38,6.75,1.24,9.78.55,4.54-.41,4.54-1.24-.69-2.21-3.72a35.73,35.73,0,0,1-1.24-6.88s-3.44,0-4.68-5.09" transform="translate(0 0)" style="opacity:0.15000000596046448;isolation:isolate"/></g><path d="M132,263s1.38,6.75,1.24,9.78.55,4.54-.41,4.54-1.24-.69-2.21-3.72a35.73,35.73,0,0,1-1.24-6.88s-3.44,0-4.68-5.09" transform="translate(0 0)" style="fill:none;stroke:#263238;stroke-linecap:round;stroke-linejoin:round"/><path d="M70.58,303.64h50.67c.25-9.48,1.91-71.4,2.41-74.17.55-3,3.27-31.29,3.54-42.45s-4.63-27.22-4.63-28.31-.81-7.89-8.43-13.6-13.61-5.72-15.24-4.9c0,0-6,4.08-15.52,14.15s-12.79,18.23-12.79,33.75a163.25,163.25,0,0,0,2.45,28s-3,48.44-3,49.53S70.48,297.17,70.58,303.64Z" transform="translate(0 0)" style="fill:#fff;stroke:#263238;stroke-linecap:round;stroke-linejoin:round"/><path d="M93.57,194.14a28.82,28.82,0,0,0,3.22-.18c11.66-1.27,21.8-13.19,28.49-23.48-.31-1.5-.62-2.92-.93-4.23C118,176.53,107.84,189.74,96.47,191c-15.82,1.72-23-10.75-25-14.78-.28,1.54-.49,3.16-.63,4.88C74.39,186.43,81.53,194.14,93.57,194.14Z" transform="translate(0 0)" style="fill:#263238"/><path d="M89.77,170.06l2.9.77a62.62,62.62,0,0,1,17-28.57,25.16,25.16,0,0,0-3-1.34A64.92,64.92,0,0,0,89.77,170.06Z" transform="translate(0 0)" style="fill:#263238"/><path d="M92.62,184.43c.68-.34,14.85-7.73,29.81-27a16.15,16.15,0,0,0-1.1-3.52c-15.06,20-29.91,27.74-30.07,27.83Z" transform="translate(0 0)" style="fill:#263238"/><path d="M77.83,173.58l3-.44c0-.08-.87-7.18,6.11-22.4-1.11,1.11-2.29,2.31-3.53,3.62-.8.85-1.54,1.67-2.25,2.5C77.07,168,77.79,173.29,77.83,173.58Z" transform="translate(0 0)" style="fill:#263238"/><path d="M102.57,218.06c-17.24,2.23-26-1.39-29.92-4.16.23,1.45.39,2.26.39,2.26s0,.54-.09,1.49c3.84,2.12,10,4.11,19.43,4.11A83.21,83.21,0,0,0,103,221a56.51,56.51,0,0,0,22.41-8c.12-1.27.23-2.56.35-3.87A53.43,53.43,0,0,1,102.57,218.06Z" transform="translate(0 0)" style="fill:#263238"/><path d="M101.68,236.49A75.55,75.55,0,0,0,124,226.75c.12-1.07.26-2.39.42-3.91A73.71,73.71,0,0,1,101,233.58c-11.61,2.84-22.87-.34-28.83-2.63-.06,1-.13,2.09-.19,3.16a56.46,56.46,0,0,0,19.28,3.61A43.87,43.87,0,0,0,101.68,236.49Z" transform="translate(0 0)" style="fill:#263238"/><path d="M70.6,256.06c-.07,1.07-.13,2.09-.18,3A103.26,103.26,0,0,0,94,261.87a77.22,77.22,0,0,0,28.6-5.18c0-1.11.07-2.2.11-3.28C102.64,262,81.15,258.67,70.6,256.06Z" transform="translate(0 0)" style="fill:#263238"/><path d="M103.87,246.2a61.52,61.52,0,0,1-32.61-1c-.06,1-.13,2.1-.19,3.12a60,60,0,0,0,18,2.64,69.09,69.09,0,0,0,15.5-1.79,76.67,76.67,0,0,0,18.52-6.9c0-1.24.09-2.41.13-3.51A74.31,74.31,0,0,1,103.87,246.2Z" transform="translate(0 0)" style="fill:#263238"/><path d="M95.47,204c-12.29.61-20.25-3.93-24.66-7.67.07,1.38.16,2.72.26,4a37.24,37.24,0,0,0,22.13,6.77c.79,0,1.6,0,2.42-.07,12.07-.61,22.75-5.89,31.38-15.24.1-1.76.17-3.35.2-4.69v-.19C120.15,195.59,109.92,203.22,95.47,204Z" transform="translate(0 0)" style="fill:#263238"/><path d="M115.9,146.56a19.69,19.69,0,0,0-1.76-1.45c-7.62-5.72-13.61-5.72-15.24-4.9a81.73,81.73,0,0,0-9,7.61,8.25,8.25,0,0,0,1.64,7.08c5.17,6.54,22,31.57,26.4,26.13s3.26-20.41-1.64-33.47C116.15,147.21,116,146.88,115.9,146.56Z" transform="translate(0 0)" style="fill:#f19066;stroke:#263238;stroke-linecap:round;stroke-linejoin:round"/><path d="M100,175.32s14.69,31.29,17.69,36.19A38.73,38.73,0,0,0,122.3,218s13,4.38,24.15,8.46,30.56,9.56,34.64,10.56,10.88,1.09,12,1.09,14.15,3,15,3.54-.27,1.63-2.18,2.18-8.16,1.09-11.15,2.18-5.45.81-9.8-.28a44.51,44.51,0,0,1-9.8-4.35s-35.65-2.45-44.09-3.54-18-2.18-21.77-6.53a253.31,253.31,0,0,1-20.9-27.06c-5.12-7.74-14.49-18.6-10.94-28.46" transform="translate(0 0)" style="fill:#fff;stroke:#263238;stroke-linecap:round;stroke-linejoin:round"/><path d="M193.06,238.18c-1.09,0-7.89,0-12-1.09s-23.49-6.51-34.64-10.59-24.12-8.44-24.12-8.44a38.73,38.73,0,0,1-4.62-6.53c-1.24-2-4.46-8.52-7.82-15.48-10.86,2.85-16.32,8-19,12a265.4,265.4,0,0,0,18.39,23.35c3.81,4.35,13.33,5.44,21.77,6.53s44.13,3.52,44.13,3.52a44.51,44.51,0,0,0,9.8,4.35c4.35,1.09,6.8,1.36,9.8.28s9.25-1.64,11.15-2.18,3-1.63,2.18-2.18S194.15,238.18,193.06,238.18Z" transform="translate(0 0)" style="fill:#fff"/><g style="clip-path:url(#bbab9f8e-7155-4982-8cf3-214e72a4cca9)"><path d="M193.06,238.18c-1.09,0-7.89,0-12-1.09s-23.49-6.51-34.64-10.59-24.12-8.44-24.12-8.44a38.73,38.73,0,0,1-4.62-6.53c-1.24-2-4.46-8.52-7.82-15.48-10.86,2.85-16.32,8-19,12a265.4,265.4,0,0,0,18.39,23.35c3.81,4.35,13.33,5.44,21.77,6.53s44.13,3.52,44.13,3.52a44.51,44.51,0,0,0,9.8,4.35c4.35,1.09,6.8,1.36,9.8.28s9.25-1.64,11.15-2.18,3-1.63,2.18-2.18S194.15,238.18,193.06,238.18Z" transform="translate(0 0)" style="opacity:0.15000000596046448;isolation:isolate"/></g><path d="M193.06,238.18c-1.09,0-7.89,0-12-1.09s-23.49-6.51-34.64-10.59-24.12-8.44-24.12-8.44a38.73,38.73,0,0,1-4.62-6.53c-1.24-2-4.46-8.52-7.82-15.48-10.86,2.85-16.32,8-19,12a265.4,265.4,0,0,0,18.39,23.35c3.81,4.35,13.33,5.44,21.77,6.53s44.13,3.52,44.13,3.52a44.51,44.51,0,0,0,9.8,4.35c4.35,1.09,6.8,1.36,9.8.28s9.25-1.64,11.15-2.18,3-1.63,2.18-2.18S194.15,238.18,193.06,238.18Z" transform="translate(0 0)" style="fill:none;stroke:#263238;stroke-linecap:round;stroke-linejoin:round"/><path d="M121.25,303.64c.12-4.72.6-22.54,1.11-39.55a84.77,84.77,0,0,1-22.46,5.39c-16,1.88-25.23-2-29.79-5,0,.68-.06,1.09-.06,1.18,0,1,.43,31.5.53,38Z" transform="translate(0 0)" style="fill:#f19066;stroke:#263238;stroke-linecap:round;stroke-linejoin:round"/><path d="M108.5,301.37C106,292,112,280,103.37,273.73" transform="translate(0 0)" style="fill:none;stroke:#263238;stroke-linecap:round;stroke-linejoin:round"/><line x1="108.5" y1="279.73" x2="119.63" y2="269.03" style="fill:none;stroke:#263238;stroke-linecap:round;stroke-linejoin:round"/><path d="M80.57,279.79l-.29,21.59" transform="translate(0 0)" style="fill:none;stroke:#263238;stroke-linecap:round;stroke-linejoin:round"/><line x1="80.67" y1="272.02" x2="80.61" y2="275.97" style="fill:none;stroke:#263238;stroke-linecap:round;stroke-linejoin:round"/><path d="M125.33,96.33a20.66,20.66,0,0,1,11.11,7.41,19.12,19.12,0,0,1,3.71,8.32c1.33,8.09-3.23,10.59-1.76,14.27s2.94,5.6,1.76,7.36-4.85,2.06-5.44,2.21-1.77,6.92-4.12,9.86-10.6-.44-10.6-.44-3.38,5.74-4.41,7.65,1,13.39-.44,18.55-4.86-.45-11.34-8.54-9.42-14.72-9.12-16.93,5.44-7.35,6.33-9.27,1.32-2.79.88-4.56-5.59-9-5.59-18.25,7.36-18.1,17.07-18.84A35.74,35.74,0,0,1,125.33,96.33Z" transform="translate(0 0)" style="fill:#fff"/><g style="clip-path:url(#b3dea5ad-fc06-412f-a57c-0fa2409d0eac)"><path d="M125.33,96.33a20.66,20.66,0,0,1,11.11,7.41,19.12,19.12,0,0,1,3.71,8.32c1.33,8.09-3.23,10.59-1.76,14.27s2.94,5.6,1.76,7.36-4.85,2.06-5.44,2.21-1.77,6.92-4.12,9.86-10.6-.44-10.6-.44-3.38,5.74-4.41,7.65,1,13.39-.44,18.55-4.86-.45-11.34-8.54-9.42-14.72-9.12-16.93,5.44-7.35,6.33-9.27,1.32-2.79.88-4.56-5.59-9-5.59-18.25,7.36-18.1,17.07-18.84A35.74,35.74,0,0,1,125.33,96.33Z" transform="translate(0 0)" style="opacity:0.15000000596046448;isolation:isolate"/></g><path d="M125.33,96.33a20.66,20.66,0,0,1,11.11,7.41,19.12,19.12,0,0,1,3.71,8.32c1.33,8.09-3.23,10.59-1.76,14.27s2.94,5.6,1.76,7.36-4.85,2.06-5.44,2.21-1.77,6.92-4.12,9.86-10.6-.44-10.6-.44-3.38,5.74-4.41,7.65,1,13.39-.44,18.55-4.86-.45-11.34-8.54-9.42-14.72-9.12-16.93,5.44-7.35,6.33-9.27,1.32-2.79.88-4.56-5.59-9-5.59-18.25,7.36-18.1,17.07-18.84A35.74,35.74,0,0,1,125.33,96.33Z" transform="translate(0 0)" style="fill:none;stroke:#263238;stroke-linecap:round;stroke-linejoin:round"/><path d="M127.08,103.06c3.54-1.74,6-1.69,7.69-1.2a21.06,21.06,0,0,0-9.44-5.5,35.94,35.94,0,0,0-11.94-1.3c-9.71.74-17.07,9.57-17.07,18.84s5.15,16.48,5.59,18.25A4.47,4.47,0,0,1,102,134c7,1.38,9.29-2.11,9.29-2.11a6,6,0,0,1-4.56-1.33c-2.06-1.76-2.06-8.53.44-11.63s5,1.18,5,3.68,1.18,4.57,2.36,4.27.88-3.09,1.32-4.85,5.59-4.42,6.77-5.89-.59-2.8-2.5-5S119.86,106.56,127.08,103.06Z" transform="translate(0 0)" style="fill:#263238;stroke:#263238;stroke-linecap:round;stroke-linejoin:round"/><path d="M111,132.32s0,4.12,2.51,6.77" transform="translate(0 0)" style="fill:none;stroke:#263238;stroke-linecap:round;stroke-linejoin:round"/><path d="M133.94,124.87a8.1,8.1,0,0,0-3.95-.6" transform="translate(0 0)" style="fill:none;stroke:#263238;stroke-linecap:round;stroke-linejoin:round"/><path d="M136.15,121.31s-2.17-3.75-6.31-.79" transform="translate(0 0)" style="fill:none;stroke:#263238;stroke-linecap:round;stroke-linejoin:round"/><path d="M131,137.9a4,4,0,0,1-4.15-2.77" transform="translate(0 0)" style="fill:none;stroke:#263238;stroke-linecap:round;stroke-linejoin:round"/><path d="M102.47,180.59c-.8-1.69-1.45-3.07-1.88-4-12.09.22-19.17,4.73-23.17,9A30.75,30.75,0,0,0,79,189.74C82.15,185.65,88.94,180.3,102.47,180.59Z" transform="translate(0 0)" style="fill:#263238"/><path d="M106.66,189.38l-1.88-3.93C93.55,186,86,190.19,81.37,194c.71,1.16,1.45,2.3,2.2,3.41C87.85,193.8,95.27,189.59,106.66,189.38Z" transform="translate(0 0)" style="fill:#263238"/><path d="M236.83,216.11c1.26,3.77,2.1,17.18,2.1,24.3,0,6-3.8,49.15-5,63.23h56.81c.68-13.75,2.71-55.07,2.71-60.3,0-6.28-2.1-32,.63-41.06s5.86-32.69,1.05-40-23.05-11.52-28.5-13.41-13.62-2.93-17.6-1c0,0-10.89,6.07-17.6,12.36s-9.63,15.92-8.38,23.67S235.57,212.33,236.83,216.11Z" transform="translate(0 0)" style="fill:#fff;stroke:#263238;stroke-linecap:round;stroke-linejoin:round"/><path d="M286.2,155.68a72.52,72.52,0,0,0-7.51-3,165.35,165.35,0,0,1-42.54,61.8c.25.53.47,1.08.67,1.63a42,42,0,0,1,1.22,7.47A171.16,171.16,0,0,0,286.2,155.68Z" transform="translate(0 0)" style="fill:#263238"/><path d="M297.28,183a64.88,64.88,0,0,0-.27-15c-11.68,19.71-31.86,49.77-58.1,73.31-.07,2.06-.33,6.1-.72,11.22C263.73,231.35,283.93,204.06,297.28,183Z" transform="translate(0 0)" style="fill:#263238"/><path d="M290.69,303.64c.48-9.78,1.65-33.54,2.28-48.31-27.65,5.29-47.09.27-54.81-2.45-1.18,15.57-3.39,40.66-4.28,50.76Z" transform="translate(0 0)" style="fill:#263238;stroke:#263238;stroke-linecap:round;stroke-linejoin:round"/><ellipse cx="256.09" cy="159.52" rx="13.74" ry="13.29" style="fill:#f19066;stroke:#263238;stroke-linecap:round;stroke-linejoin:round"/><path d="M243.54,142.78s2.3,8.17,2.3,13,5.24,15.92,13.83,10.89,4.19-16.55,2.72-20.11a59.79,59.79,0,0,1-2.51-8.38s-2.73,5-8,5.24A31.14,31.14,0,0,1,243.54,142.78Z" transform="translate(0 0)" style="fill:#fff;stroke:#263238;stroke-linecap:round;stroke-linejoin:round"/><path d="M229.37,113.12s-1.44,3.6.36,6.49,4.33,6.85,4.33,6.85l-.36-15.87S230.09,107.71,229.37,113.12Z" transform="translate(0 0)" style="fill:#263238;stroke:#263238;stroke-linecap:round;stroke-linejoin:round"/><path d="M234.06,122.86s-2.89,1.08-1.45,5.77,3.61,3.24,3.61,3.24Z" transform="translate(0 0)" style="fill:#fff;stroke:#263238;stroke-linecap:round;stroke-linejoin:round"/><path d="M231.38,114.7s2.52,13,4,19.49,9.42,12.36,13.61,13.62,9.64-3.36,10.9-6.08,1.88-8.8,1.88-8.8,4.61-1.89,5-6.7-.84-6.29-3.35-6.92l-1.89-.84s1.05-7.75-1.67-12.57-12.36,1.47-17.39,2.94S230.76,109.88,231.38,114.7Z" transform="translate(0 0)" style="fill:#fff;stroke:#263238;stroke-linecap:round;stroke-linejoin:round"/><path d="M243.54,124.13s-1,7.54.42,8.17,4.19-.84,4.81-1.05" transform="translate(0 0)" style="fill:none;stroke:#263238;stroke-linecap:round;stroke-linejoin:round"/><path d="M247.52,136.91s5.86.84,8.17-5.87" transform="translate(0 0)" style="fill:none;stroke:#263238;stroke-linecap:round;stroke-linejoin:round"/><path d="M236.41,122.45a4.65,4.65,0,0,1,4.4-2.09" transform="translate(0 0)" style="fill:none;stroke:#263238;stroke-linecap:round;stroke-linejoin:round"/><path d="M246.47,119.31s4.19-2.09,6.7.21" transform="translate(0 0)" style="fill:none;stroke:#263238;stroke-linecap:round;stroke-linejoin:round"/><ellipse cx="239.96" cy="125.84" rx="1.05" ry="2.1" transform="translate(-18 42.95) rotate(-9.86)" style="fill:#263238"/><ellipse cx="249.18" cy="123.94" rx="1.05" ry="2.1" transform="translate(-17.54 44.5) rotate(-9.86)" style="fill:#263238"/><path d="M255.27,109.06a82.61,82.61,0,0,1-17.39,5.86c-9.22,1.89-13.41-.21-13-4.82s12.37-14.67,23.27-14.67,14.66,5,15.29,10.26a91.06,91.06,0,0,1,0,13.62l-1.89,2.75s.42-2.1-2.51-3.78S253.8,113.45,255.27,109.06Z" transform="translate(0 0)" style="fill:#263238;stroke:#263238;stroke-linecap:round;stroke-linejoin:round"/><path d="M313.58,124.06c2.05,1.58-.36,8.13,6.41,13.4,15.55,12.1,24.55,20.28,26.21,38.27,1.82,19.59-8.71,27.21-5.44,33.74s7.62,14.16.73,20-18.15,10.89-27.58-2.9-14.52-44.27-18.51-61-10.52-24.68-9.43-31.93c1-7,6.76-12,13.59-13.21A17.46,17.46,0,0,1,313.58,124.06Z" transform="translate(0 0)" style="fill:#263238;stroke:#263238;stroke-linecap:round;stroke-linejoin:round"/><path d="M294.84,193.7,265.76,215s-46.57,16.65-49.3,17.49-15.81,3.16-18.55,4.64-8,11.16-8.85,13.48a1.71,1.71,0,0,0,2.32,2.32c.63-.63,6.74-6.53,8.64-6.74s3.58-.43,3.58-.43-4.85,4.22-5.06,5.48.85.85,2.11.21,6.11-2.31,8-5.69,3.58-5.26,6.74-6.53,44.41-10.15,51.76-11.46,33.93-17.21,35.2-17.42S298.85,193.7,294.84,193.7Z" transform="translate(0 0)" style="fill:#fff;stroke:#263238;stroke-linecap:round;stroke-linejoin:round"/><path d="M289.15,220.89c.26.78-.52,11.75-1,30.82-.4,14.64-3.87,40.64-5.47,51.93h55.59c.4-11.46.91-37.67-2.32-48.53-4.17-14.11-8.88-17-10.44-23.25s-3.92-40.75-7.84-53.81-15.67-20.9-17.5-23.77-7.57-19.59-7.57-19.59l-9.92,8.37s7.31,11.75,8.36,15.41-7,12.28-11.23,21.16-5,15.93-1.31,21.42S288.9,220.06,289.15,220.89Z" transform="translate(0 0)" style="fill:#f19066"/><g style="clip-path:url(#ab4598f6-52cf-4a04-9327-be233526af4d)"><path d="M297.66,274.56l9.11,2,9.11-2,9.11,2,9.11-2,4.22.93-.09-2.07-4.13-.91-9.11,2-9.11-2-9.11,2-9.11-2-9.1,2-2.19-.48c-.07.67-.14,1.34-.22,2l2.41.53Z" transform="translate(0 0)" style="fill:#fff"/><path d="M307.72,206.12l-9.11,2-9.11-2-7.12,1.57,1,1.83,6.13-1.35,9.11,2,9.11-2,9.11,2,5.76-1.27c-.07-.66-.15-1.32-.23-2l-5.53,1.21Z" transform="translate(0 0)" style="fill:#fff"/><path d="M297.66,289.8l9.11,2,9.11-2,9.11,2,9.11-2,4.41,1v-2l-4.42-1-9.11,2-9.11-2-9.11,2-9.11-2-9.1,2-3.94-.86c-.08.67-.17,1.33-.25,2l4.19.92Z" transform="translate(0 0)" style="fill:#fff"/><path d="M338.43,296.32l-4.33-.95-9.11,2-9.11-2-9.11,2-9.11-2-9.1,2-4.9-1.08c-.1.69-.19,1.35-.27,2l5.17,1.14,9.1-2,9.11,2,9.11-2,9.11,2,9.11-2,4.29.94C338.41,297.7,338.42,297.06,338.43,296.32Z" transform="translate(0 0)" style="fill:#fff"/><path d="M277.09,186.59l3.3.72,9.11-2,9.11,2,9.11-2,9.11,2,2.73-.6c-.12-.67-.24-1.32-.36-2l-2.37.52-9.11-2-9.11,2-9.11-2-9.11,2-2.7-.6C277.47,185.3,277.27,186,277.09,186.59Z" transform="translate(0 0)" style="fill:#fff"/><path d="M307.72,190.89l-9.11,2-9.11-2-9.11,2-4.24-.94a17.53,17.53,0,0,0,0,2.05l4.24.93,9.11-2,9.11,2,9.11-2,9.11,2,3.9-.85c-.1-.67-.19-1.33-.29-2l-3.61.8Z" transform="translate(0 0)" style="fill:#fff"/><path d="M307.72,198.5l-9.11,2-9.11-2-9.11,2-2.6-.57a12.47,12.47,0,0,0,.66,1.11c.26.38.53.81.81,1.26l1.13.25,9.11-2,9.11,2,9.11-2,9.11,2,4.88-1.07c-.08-.67-.17-1.33-.25-2l-4.63,1Z" transform="translate(0 0)" style="fill:#fff"/><path d="M297.66,282.18l9.11,2,9.11-2,9.11,2,9.11-2,4.4,1v-2.06l-4.37-1-9.11,2-9.11-2-9.11,2-9.11-2-9.1,2-3-.66-.24,2,3.27.72Z" transform="translate(0 0)" style="fill:#fff"/></g><path d="M289.15,220.89c.26.78-.52,11.75-1,30.82-.4,14.64-3.87,40.64-5.47,51.93h55.59c.4-11.46.91-37.67-2.32-48.53-4.17-14.11-8.88-17-10.44-23.25s-3.92-40.75-7.84-53.81-15.67-20.9-17.5-23.77-7.57-19.59-7.57-19.59l-9.92,8.37s7.31,11.75,8.36,15.41-7,12.28-11.23,21.16-5,15.93-1.31,21.42S288.9,220.06,289.15,220.89Z" transform="translate(0 0)" style="fill:none;stroke:#263238;stroke-linecap:round;stroke-linejoin:round"/><path d="M282.62,204.06s3.36,6.73,14.58,4.12" transform="translate(0 0)" style="fill:none;stroke:#263238;stroke-linecap:round;stroke-linejoin:round"/><path d="M313.27,247.39s-16.82,20.56-24.3,37" transform="translate(0 0)" style="fill:none;stroke:#263238;stroke-linecap:round;stroke-linejoin:round"/><path d="M295.33,264.21s-7.1,13.08-9,21.31" transform="translate(0 0)" style="fill:none;stroke:#263238;stroke-linecap:round;stroke-linejoin:round"/><path d="M285.83,177.59c5.43-3,12.36-16,15.38-18.4l2.06-1.64a23.68,23.68,0,0,1-3.14-3.27c-1.83-2.87-7.57-19.59-7.57-19.59l-9.93,8.37s7.31,11.75,8.36,15.41c.92,3.23-5.29,10.34-9.63,18.08C281.87,178.06,283.07,179.12,285.83,177.59Z" transform="translate(0 0)" style="fill:#fff;stroke:#263238;stroke-linecap:round;stroke-linejoin:round"/><path d="M273.87,114.58a21.57,21.57,0,0,0-1.7,8.68c.18,2.65.75,4.74-.31,7.34-.61,1.5-2.72,3.41-2.43,5.14.26,1.57,4.18,2.09,4.18,2.09s3.92,12.28,6,12.54,6.79-1.05,12.8-6-1.31-23-6.54-27.69S276.48,111.45,273.87,114.58Z" transform="translate(0 0)" style="fill:#fff;stroke:#263238;stroke-linecap:round;stroke-linejoin:round"/><ellipse cx="275.65" cy="129.04" rx="0.68" ry="1.92" style="fill:#263238"/><path d="M273.84,124.62s.68-2.72,3.4-.68" transform="translate(0 0)" style="fill:none;stroke:#263238;stroke-linecap:round;stroke-linejoin:round"/><path d="M275.2,140.47s1.81.45,3.85-2" transform="translate(0 0)" style="fill:none;stroke:#263238;stroke-linecap:round;stroke-linejoin:round"/><path d="M279.62,100.74s-9.67.26-11.24,6.53,5.49,11.75,10.45,14.36,9.41,6.8,9.41,11.24.26,9.66,3.91,14.36,12,8.62,18.55,8.36-.52-15.67,3.13-26.64-1-21.94-8.35-26.64S279.62,100.74,279.62,100.74Z" transform="translate(0 0)" style="fill:#263238;stroke:#263238;stroke-linecap:round;stroke-linejoin:round"/><path d="M338.66,195.58a21.65,21.65,0,0,1-.64,4" transform="translate(0 0)" style="fill:none;stroke:#fff;stroke-linecap:round;stroke-linejoin:round"/><path d="M277.4,116.94c1.8,3,5.21,6.19,11.62,8,14,4,19.33,13.67,19.33,22s.67,14.34,14,21a29.68,29.68,0,0,1,15.68,20" transform="translate(0 0)" style="fill:none;stroke:#fff;stroke-linecap:round;stroke-linejoin:round"/><path d="M275.35,110.3a9.14,9.14,0,0,0,.17,1.73" transform="translate(0 0)" style="fill:none;stroke:#fff;stroke-linecap:round;stroke-linejoin:round"/><path d="M294,110.3s16.67,8.33,16.33,19.66.67,22,11,28.34,21,10.33,24.67,23" transform="translate(0 0)" style="fill:none;stroke:#fff;stroke-linecap:round;stroke-linejoin:round"/><path d="M303.32,170.94s-4.43,1.69-6.74,10.32,7.16,23.82,8.64,30.56,2.93,17.07,2.93,17.07-33.09,27-37.93,31.18a90.13,90.13,0,0,0-7.38,7s-12,10.53-13.06,12.64-4,13.06-2.95,13.49,2.95-4.22,2.95-5.06,2.1-5.48,2.1-5.48S250.2,293.41,250.2,294s1.68,0,1.9-.84l2.52-9.7s-1.26,9.91-.42,11,2.32-6.32,2.32-6.32l1.69-5.9s-.43,10.32.42,10.75,2.74-10.12,2.74-10.12,3.79-7.58,5.26-10.11a17,17,0,0,0,1.9-4.43s19.6-10.75,31.82-16.65S322.9,234.87,324.16,233s-1.47-28.45-3.58-39.83S314.07,168,303.32,170.94Z" transform="translate(0 0)" style="fill:#fff;stroke:#263238;stroke-linecap:round;stroke-linejoin:round"/><path d="M234.86,157.38s-7.54,5.13-13.57,10-5.14,14.43-5.14,16.54-.3,11.77-.3,11.77l-4.52,9.65s-6.94,6.33-8.45,7.84-10.25,18.7-10.25,18.7l-2.11,3L202,236.39a99.18,99.18,0,0,1,14.17-13c7.54-5.43,13.87-20.51,14.18-22.31A108.48,108.48,0,0,0,233,185.69" transform="translate(0 0)" style="fill:#fff;stroke:#263238;stroke-linecap:round;stroke-linejoin:round"/><path d="M231.06,197.9c-5.07-8.32-12-7.25-15.08-6.21-.06,2.21-.12,4-.12,4l-4.52,9.65s-6.94,6.33-8.45,7.84-10.25,18.7-10.25,18.7l-2.11,3L202,236.39a99.18,99.18,0,0,1,14.17-13c7.54-5.43,13.87-20.51,14.18-22.31C230.44,200.5,230.72,199.38,231.06,197.9Z" transform="translate(0 0)" style="fill:#fff;stroke:#263238;stroke-linecap:round;stroke-linejoin:round"/><path d="M196.94,228s-7.49,6.11-9,8.06-2.69,13.34-2.09,14.18,4.79,3.05,6.59,1.11,8.38-11.4,8.38-11.4-5,6.77-1.43,6.38,5.63-5.82,7.72-8.33,1.8-2.78,0-6.39L205.32,228" transform="translate(0 0)" style="fill:#fff;stroke:#263238;stroke-linecap:round;stroke-linejoin:round"/><path d="M185.86,250.2s3.81-13,5.33-14" transform="translate(0 0)" style="fill:none;stroke:#263238;stroke-linecap:round;stroke-linejoin:round"/><path d="M187.65,251.14s4.42-12.21,6.7-14.75" transform="translate(0 0)" style="fill:none;stroke:#263238;stroke-linecap:round;stroke-linejoin:round"/><path d="M190,252.06s4.8-12,7.93-14.91" transform="translate(0 0)" style="fill:none;stroke:#263238;stroke-linecap:round;stroke-linejoin:round"/><path d="M200.83,239.91s2.55-2.26,2.94-3.62" transform="translate(0 0)" style="fill:#fff;stroke:#263238;stroke-linecap:round;stroke-linejoin:round"/><line x1="0.5" y1="303.65" x2="453.4" y2="303.65" style="fill:none;stroke:#263238;stroke-linecap:round;stroke-linejoin:round"/></g></g></svg>