<?xml version="1.0" encoding="utf-8"?>
<!-- Generator: Adobe Illustrator 24.0.2, SVG Export Plug-In . SVG Version: 6.00 Build 0)  -->
<svg version="1.1" xmlns="http://www.w3.org/2000/svg" xmlns:xlink="http://www.w3.org/1999/xlink" x="0px" y="0px"
	 viewBox="0 0 535.61 500" style="enable-background:new 0 0 535.61 500;" xml:space="preserve">
<style type="text/css">
	.st0{display:none;}
	.st1{display:inline;}
	.st2{fill:#F19066;}
	.st3{opacity:0.6;fill:#FFFFFF;}
	.st4{opacity:0.4;fill:#FFFFFF;}
	.st5{fill:#FFFFFF;}
	.st6{fill:none;stroke:#CCCCCC;stroke-width:1.252;stroke-linecap:round;stroke-linejoin:round;stroke-miterlimit:10;}
	.st7{clip-path:url(#SVGID_2_);}
	.st8{opacity:0.7;fill:#FFFFFF;}
	.st9{clip-path:url(#XMLID_7_);fill:#F19066;}
	.st10{clip-path:url(#XMLID_7_);}
	.st11{opacity:0.75;clip-path:url(#XMLID_7_);fill:#FFFFFF;}
	.st12{opacity:0.75;clip-path:url(#XMLID_7_);}
	.st13{opacity:0.5;fill:#FFFFFF;}
	.st14{fill:#263238;}
	.st15{fill:#CCCCCC;}
	.st16{fill:#263238;stroke:#263238;stroke-linecap:round;stroke-linejoin:round;stroke-miterlimit:10;}
	.st17{fill:none;stroke:#FFFFFF;stroke-linecap:round;stroke-linejoin:round;stroke-miterlimit:10;}
	.st18{fill:#F19066;stroke:#263238;stroke-linecap:round;stroke-linejoin:round;stroke-miterlimit:10;}
	.st19{fill:#FFFFFF;stroke:#263238;stroke-linecap:round;stroke-linejoin:round;stroke-miterlimit:10;}
	.st20{fill:none;stroke:#263238;stroke-linecap:round;stroke-linejoin:round;stroke-miterlimit:10;}
	.st21{opacity:0.15;clip-path:url(#XMLID_8_);}
	.st22{opacity:0.15;clip-path:url(#XMLID_9_);}
	.st23{opacity:0.15;clip-path:url(#XMLID_10_);}
	.st24{opacity:0.15;clip-path:url(#XMLID_11_);}
	.st25{clip-path:url(#XMLID_12_);}
</style>
<g id="Background_Simple" class="st0">
	<g class="st1">
		<path class="st2" d="M434.75,398.49H74.07c0,0-14.33,4.67-22.25-32.57c-7.92-37.24,32.81-47.21,42.48-79.38
			c9.68-32.16-32.55-25.39-29.03-69.4c3.52-44.01,61.58-44.86,89.73-38.93c28.15,5.92,24.63-14.39,57.18-48.24
			c32.55-33.85,81.81-30.47,106.44-4.23c24.63,26.24,16.71,53.32,47.5,53.32s58.94,5.92,77.41,62.63s-15.29,82.62-14.68,108.17
			C429.47,375.42,434.75,398.49,434.75,398.49z"/>
		<path class="st3" d="M434.75,398.49H74.07c0,0-14.33,4.67-22.25-32.57c-7.92-37.24,32.81-47.21,42.48-79.38
			c9.68-32.16-32.55-25.39-29.03-69.4c3.52-44.01,61.58-44.86,89.73-38.93c28.15,5.92,24.63-14.39,57.18-48.24
			c32.55-33.85,81.81-30.47,106.44-4.23c24.63,26.24,16.71,53.32,47.5,53.32s58.94,5.92,77.41,62.63s-15.29,82.62-14.68,108.17
			C429.47,375.42,434.75,398.49,434.75,398.49z"/>
	</g>
</g>
<g id="Pictures" class="st0">
	<g class="st1">
		<g>
			<rect x="209.33" y="124.7" class="st2" width="68" height="98"/>
			<rect x="209.33" y="124.7" class="st4" width="68" height="98"/>
			<rect x="219.05" y="138.7" class="st5" width="48.57" height="70"/>
		</g>
		<g>
			<rect x="108" y="183.37" class="st2" width="47.18" height="68"/>
			<rect x="108" y="183.37" class="st4" width="47.18" height="68"/>
			<rect x="114.74" y="193.08" class="st5" width="33.7" height="48.57"/>
		</g>
		<g>
			<rect x="337" y="183.37" class="st2" width="47.18" height="68"/>
			<rect x="337" y="183.37" class="st4" width="47.18" height="68"/>
			<rect x="343.74" y="193.08" class="st5" width="33.7" height="48.57"/>
		</g>
	</g>
</g>
<g id="Plants_1_" class="st0">
	<g class="st1">
		<g>
			<g>
				<path class="st5" d="M331.63,319.41c-2.03,5.02-4.12,0.98-3.79-20.06c0.15-9.86,0.85-30.01,11.75-25.57
					c10.48,4.26-3.33,34.05-3.33,34.05L331.63,319.41z M346.61,322.39c0,0,22.73-23.69,14.21-31.12
					c-8.87-7.74-16.07,11.09-19.42,20.37c-7.14,19.79-6.48,24.28-2.93,20.2L346.61,322.39z M351.4,343.65
					c0,0,20.81-14.82,15.37-21.74c-5.66-7.2-13.9,6.15-17.8,12.76c-8.33,14.1-8.48,17.63-5.17,15.02L351.4,343.65z M357.03,364.85
					c0,0,20.81-14.82,15.37-21.74c-5.66-7.2-13.9,6.15-17.8,12.76c-8.33,14.1-8.48,17.63-5.17,15.02L357.03,364.85z M320.69,322.23
					c0,0-29.12-15.16-33.86-4.89c-4.93,10.69,15.16,12.31,25.01,12.91c21,1.29,25.13-0.6,20.21-2.86L320.69,322.23z M324.79,338.91
					c0,0-31.56-9.07-34.16,1.94c-2.71,11.46,17.31,9.05,27.07,7.69c20.84-2.91,24.51-5.59,19.24-6.82L324.79,338.91z M332.01,357.11
					c0,0-26.89-6.94-28.84,2.43c-2.02,9.75,14.85,7.25,23.07,5.87c17.56-2.94,20.6-5.29,16.11-6.22L332.01,357.11z M336.22,372.13
					c0,0-26.01-9.75-28.93-0.64c-3.05,9.48,13.99,8.79,22.32,8.29c17.77-1.06,21.04-3.07,16.68-4.47L336.22,372.13z M318.81,296.04
					c0,0-11.87-36.9-25.35-30.19c-14.03,6.98,2.18,23.61,10.29,31.58c17.3,17,22.65,18.19,20.37,12.25L318.81,296.04z"/>
				<path class="st6" d="M299.1,278.99c0,0,29.82,36.38,36.95,54.59c8.2,20.92,13.78,44.5,14.89,64.02"/>
				<line class="st6" x1="330.11" y1="321.7" x2="334.26" y2="287.01"/>
				<line class="st6" x1="336.05" y1="333.58" x2="351.05" y2="304.42"/>
				<line class="st6" x1="333.86" y1="329.26" x2="302.44" y2="322.86"/>
				<line class="st6" x1="341.95" y1="350.13" x2="360.42" y2="329.09"/>
				<line class="st6" x1="339.37" y1="343.2" x2="315.66" y2="342.99"/>
				<line class="st6" x1="343.94" y1="360.42" x2="325.75" y2="361.13"/>
				<line class="st6" x1="347.67" y1="371.4" x2="357.41" y2="358.42"/>
				<line class="st6" x1="348.39" y1="376.23" x2="327.11" y2="375.17"/>
			</g>
		</g>
		<g>
			<g>
				<path class="st5" d="M407.65,348.14c-3.67,1.38-2.55-1.71,8.81-11.87c5.32-4.76,16.38-14.3,19.38-6.32
					c2.88,7.67-19.75,14.96-19.75,14.96L407.65,348.14z M413.42,357.57c0,0,23.77,0.45,23.54-7.74c-0.25-8.52-13.8-3.1-20.38-0.32
					c-14.04,5.93-16.1,8.49-12.18,8.37L413.42,357.57z M404.47,370.57c0,0,18.11,3.79,19.12-2.51c1.05-6.55-10.1-4.37-15.54-3.2
					c-11.59,2.5-13.54,4.16-10.53,4.63L404.47,370.57z M395.96,383.99c0,0,18.11,3.79,19.12-2.51c1.05-6.55-10.1-4.37-15.54-3.2
					c-11.59,2.5-13.54,4.16-10.53,4.63L395.96,383.99z M400.77,343.71c0,0-6.25-22.94-14.04-20.41c-8.11,2.63,0.91,14.12,5.42,19.65
					c9.63,11.81,12.67,13.07,11.46,9.34L400.77,343.71z M393.91,354.09c0,0-10.69-21.24-17.82-17.21
					c-7.42,4.19,3.69,13.65,9.22,18.18c11.79,9.66,15.02,10.29,13.09,6.88L393.91,354.09z M387.78,366.87
					c0,0-9.53-17.72-15.47-14.15c-6.18,3.72,3.44,11.46,8.22,15.16c10.19,7.89,12.94,8.35,11.22,5.51L387.78,366.87z M381.86,376.5
					c0,0-7.6-18.63-13.88-15.71c-6.54,3.04,2.2,11.76,6.56,15.95c9.3,8.93,11.98,9.68,10.58,6.67L381.86,376.5z M413.77,329.83
					c0,0,13.79-24.45,3.6-28.33c-10.61-4.03-11.49,12.77-11.74,20.99c-0.54,17.55,1.46,20.99,3.49,16.86L413.77,329.83z"/>
				<path class="st6" d="M413.15,310.97c0,0-4.69,33.74-10.88,46.49c-7.1,14.64-17.82,30.23-27.66,40.41"/>
				<line class="st6" x1="405.68" y1="348.46" x2="426.17" y2="333.62"/>
				<line class="st6" x1="402.28" y1="357.46" x2="425.16" y2="351.1"/>
				<line class="st6" x1="403.5" y1="354.17" x2="391.46" y2="334.31"/>
				<line class="st6" x1="396.38" y1="368.73" x2="416.65" y2="368.21"/>
				<line class="st6" x1="398.8" y1="363.95" x2="387.25" y2="351.23"/>
				<line class="st6" x1="391.88" y1="374.84" x2="382.56" y2="365.52"/>
				<line class="st6" x1="387.87" y1="382.23" x2="399.57" y2="381.03"/>
				<line class="st6" x1="385.65" y1="384.98" x2="375.76" y2="373.15"/>
			</g>
		</g>
	</g>
	<g class="st1">
		<g>
			<g>
				<path class="st5" d="M101.21,319.41c-2.03,5.02-4.12,0.98-3.79-20.06c0.15-9.86,0.85-30.01,11.75-25.57
					c10.48,4.26-3.33,34.05-3.33,34.05L101.21,319.41z M116.19,322.39c0,0,22.73-23.69,14.21-31.12
					c-8.87-7.74-16.07,11.09-19.42,20.37c-7.14,19.79-6.48,24.28-2.93,20.2L116.19,322.39z M120.98,343.65
					c0,0,20.81-14.82,15.37-21.74c-5.66-7.2-13.9,6.15-17.8,12.76c-8.33,14.1-8.48,17.63-5.17,15.02L120.98,343.65z M126.62,364.85
					c0,0,20.81-14.82,15.37-21.74c-5.66-7.2-13.9,6.15-17.8,12.76c-8.33,14.1-8.48,17.63-5.17,15.02L126.62,364.85z M90.27,322.23
					c0,0-29.12-15.16-33.86-4.89c-4.93,10.69,15.16,12.31,25.01,12.91c21,1.29,25.13-0.6,20.21-2.86L90.27,322.23z M94.37,338.91
					c0,0-31.56-9.07-34.16,1.94c-2.71,11.46,17.31,9.05,27.07,7.69c20.84-2.91,24.51-5.59,19.24-6.82L94.37,338.91z M101.59,357.11
					c0,0-26.89-6.94-28.84,2.43c-2.02,9.75,14.85,7.25,23.07,5.87c17.56-2.94,20.6-5.29,16.11-6.22L101.59,357.11z M105.8,372.13
					c0,0-26.01-9.75-28.93-0.64c-3.05,9.48,13.99,8.79,22.32,8.29c17.77-1.06,21.04-3.07,16.68-4.47L105.8,372.13z M88.39,296.04
					c0,0-11.87-36.9-25.35-30.19c-14.03,6.98,2.18,23.61,10.29,31.58c17.3,17,22.65,18.19,20.37,12.25L88.39,296.04z"/>
				<path class="st6" d="M68.68,278.99c0,0,29.82,36.38,36.95,54.59c8.2,20.92,13.78,44.5,14.89,64.02"/>
				<line class="st6" x1="99.7" y1="321.7" x2="103.84" y2="287.01"/>
				<line class="st6" x1="105.63" y1="333.58" x2="120.63" y2="304.42"/>
				<line class="st6" x1="103.44" y1="329.26" x2="72.03" y2="322.86"/>
				<line class="st6" x1="111.53" y1="350.13" x2="130.01" y2="329.09"/>
				<line class="st6" x1="108.95" y1="343.2" x2="85.24" y2="342.99"/>
				<line class="st6" x1="113.52" y1="360.42" x2="95.33" y2="361.13"/>
				<line class="st6" x1="117.26" y1="371.4" x2="127" y2="358.42"/>
				<line class="st6" x1="117.97" y1="376.23" x2="96.69" y2="375.17"/>
			</g>
		</g>
		<g>
			<g>
				<path class="st5" d="M177.23,348.14c-3.67,1.38-2.55-1.71,8.81-11.87c5.32-4.76,16.38-14.3,19.38-6.32
					c2.88,7.67-19.75,14.96-19.75,14.96L177.23,348.14z M183,357.57c0,0,23.77,0.45,23.54-7.74c-0.25-8.52-13.8-3.1-20.38-0.32
					c-14.04,5.93-16.1,8.49-12.18,8.37L183,357.57z M174.05,370.57c0,0,18.11,3.79,19.12-2.51c1.05-6.55-10.1-4.37-15.54-3.2
					c-11.59,2.5-13.54,4.16-10.53,4.63L174.05,370.57z M165.54,383.99c0,0,18.11,3.79,19.12-2.51c1.05-6.55-10.1-4.37-15.54-3.2
					c-11.59,2.5-13.54,4.16-10.53,4.63L165.54,383.99z M170.35,343.71c0,0-6.25-22.94-14.04-20.41c-8.11,2.63,0.91,14.12,5.42,19.65
					c9.63,11.81,12.67,13.07,11.46,9.34L170.35,343.71z M163.49,354.09c0,0-10.69-21.24-17.82-17.21
					c-7.42,4.19,3.69,13.65,9.22,18.18c11.79,9.66,15.02,10.29,13.09,6.88L163.49,354.09z M157.36,366.87
					c0,0-9.53-17.72-15.47-14.15c-6.18,3.72,3.44,11.46,8.22,15.16c10.19,7.89,12.94,8.35,11.22,5.51L157.36,366.87z M151.44,376.5
					c0,0-7.6-18.63-13.88-15.71c-6.54,3.04,2.2,11.76,6.56,15.95c9.3,8.93,11.98,9.68,10.58,6.67L151.44,376.5z M183.35,329.83
					c0,0,13.79-24.45,3.6-28.33c-10.61-4.03-11.49,12.77-11.74,20.99c-0.54,17.55,1.46,20.99,3.49,16.86L183.35,329.83z"/>
				<path class="st6" d="M182.73,310.97c0,0-4.69,33.74-10.88,46.49c-7.1,14.64-17.82,30.23-27.66,40.41"/>
				<line class="st6" x1="175.26" y1="348.46" x2="195.75" y2="333.62"/>
				<line class="st6" x1="171.86" y1="357.46" x2="194.74" y2="351.1"/>
				<line class="st6" x1="173.08" y1="354.17" x2="161.04" y2="334.31"/>
				<line class="st6" x1="165.96" y1="368.73" x2="186.23" y2="368.21"/>
				<line class="st6" x1="168.38" y1="363.95" x2="156.83" y2="351.23"/>
				<line class="st6" x1="161.46" y1="374.84" x2="152.14" y2="365.52"/>
				<line class="st6" x1="157.45" y1="382.23" x2="169.15" y2="381.03"/>
				<line class="st6" x1="155.24" y1="384.98" x2="145.34" y2="373.15"/>
			</g>
		</g>
	</g>
</g>
<g id="Calque_5">
	<g>
		<defs>
			<rect id="SVGID_1_" x="23.13" y="78.1" width="477.68" height="319.74"/>
		</defs>
		<clipPath id="SVGID_2_">
			<use xlink:href="#SVGID_1_"  style="overflow:visible;"/>
		</clipPath>
		<g class="st7">
			<path class="st2" d="M135.45,153.92c0,0-48.27,45.74-39.06,109.2c9.21,63.46,65.69,112.47,110.18,153.25
				s107.55,46.38,153.06,15.17c45.51-31.21,20.84-70.67,46.61-126.95c25.77-56.27,42.5-68.2,28.7-126.43
				c-13.8-58.23-96.38-95.02-178.64-79.62C174.05,113.94,135.45,153.92,135.45,153.92z"/>
			<path class="st8" d="M135.45,153.92c0,0-48.27,45.74-39.06,109.2c9.21,63.46,65.69,112.47,110.18,153.25
				s107.55,46.38,153.06,15.17c45.51-31.21,20.84-70.67,46.61-126.95c25.77-56.27,42.5-68.2,28.7-126.43
				c-13.8-58.23-96.38-95.02-178.64-79.62C174.05,113.94,135.45,153.92,135.45,153.92z"/>
		</g>
		<g class="st7">
			<g>
				<polygon class="st5" points="343.44,144.15 271.22,144.15 271.95,133.61 344.18,133.61 				"/>
				<polygon class="st5" points="343.44,158.9 271.22,158.9 271.95,148.36 344.18,148.36 				"/>
				<polygon class="st5" points="343.44,173.65 271.22,173.65 271.95,163.11 344.18,163.11 				"/>
				<polygon class="st5" points="343.44,188.4 271.22,188.4 271.95,177.87 344.18,177.87 				"/>
				<polygon class="st5" points="343.44,203.15 271.22,203.15 271.95,192.62 344.18,192.62 				"/>
				<polygon class="st5" points="343.44,217.91 271.22,217.91 271.95,207.37 344.18,207.37 				"/>
				<polygon class="st5" points="343.44,232.66 271.22,232.66 271.95,222.12 344.18,222.12 				"/>
				<polygon class="st5" points="343.44,247.41 271.22,247.41 271.95,236.87 344.18,236.87 				"/>
				<polygon class="st5" points="343.44,262.16 271.22,262.16 271.95,251.63 344.18,251.63 				"/>
				<polygon class="st5" points="343.44,276.91 271.22,276.91 271.95,266.38 344.18,266.38 				"/>
				<polygon class="st5" points="343.44,291.67 271.22,291.67 271.95,281.13 344.18,281.13 				"/>
			</g>
			<g>
				<polygon class="st5" points="419.81,144.15 347.59,144.15 348.32,133.61 420.54,133.61 				"/>
				<polygon class="st5" points="419.81,158.9 347.59,158.9 348.32,148.36 420.54,148.36 				"/>
				<polygon class="st5" points="419.81,173.65 347.59,173.65 348.32,163.11 420.54,163.11 				"/>
				<polygon class="st5" points="419.81,188.4 347.59,188.4 348.32,177.87 420.54,177.87 				"/>
				<polygon class="st5" points="419.81,203.15 347.59,203.15 348.32,192.62 420.54,192.62 				"/>
				<polygon class="st5" points="419.81,217.91 347.59,217.91 348.32,207.37 420.54,207.37 				"/>
				<polygon class="st5" points="419.81,232.66 347.59,232.66 348.32,222.12 420.54,222.12 				"/>
				<polygon class="st5" points="419.81,247.41 347.59,247.41 348.32,236.87 420.54,236.87 				"/>
				<polygon class="st5" points="419.81,262.16 347.59,262.16 348.32,251.63 420.54,251.63 				"/>
				<polygon class="st5" points="419.81,276.91 347.59,276.91 348.32,266.38 420.54,266.38 				"/>
				<polygon class="st5" points="419.81,291.67 347.59,291.67 348.32,281.13 420.54,281.13 				"/>
			</g>
		</g>
		<g class="st7">
			<rect x="111.87" y="133.03" class="st2" width="149.22" height="128.02"/>
			<g>
				<g>
					<defs>
						<rect id="XMLID_14_" x="119.33" y="139.43" width="134.29" height="115.22"/>
					</defs>
					<use xlink:href="#XMLID_14_"  style="overflow:visible;fill:#FFFFFF;"/>
					<clipPath id="XMLID_7_">
						<use xlink:href="#XMLID_14_"  style="overflow:visible;"/>
					</clipPath>
					<path class="st9" d="M253.63,174.37c-24.15,17.18-58.74,28.57-98.88,46.49c-14.53,6.49-26.15,13.83-35.42,21.17v12.62h134.29
						V174.37z"/>
					<path class="st9" d="M253.63,139.43h-53.9c-5.98,5.13-13.09,10.87-21.46,17.01c-30.67,22.49-17.38,44.99,19.43,28.63
						c18.89-8.4,39.92-27.82,55.93-44.76V139.43z"/>
					<g class="st10">
						<path class="st2" d="M142.48,152.35c0-9.38-11.69-2.02-23.15,7.45v23.7C130.55,172.56,142.48,160.75,142.48,152.35z"/>
					</g>
					<path class="st9" d="M153.73,189.67c0,5.93-4.81,10.74-10.74,10.74c-5.93,0-10.74-4.81-10.74-10.74
						c0-5.93,4.81-10.74,10.74-10.74C148.92,178.93,153.73,183.74,153.73,189.67z"/>
					<path class="st11" d="M253.63,174.37c-24.15,17.18-58.74,28.57-98.88,46.49c-14.53,6.49-26.15,13.83-35.42,21.17v12.62h134.29
						V174.37z"/>
					<path class="st11" d="M253.63,139.43h-53.9c-5.98,5.13-13.09,10.87-21.46,17.01c-30.67,22.49-17.38,44.99,19.43,28.63
						c18.89-8.4,39.92-27.82,55.93-44.76V139.43z"/>
					<g class="st12">
						<path class="st5" d="M142.48,152.35c0-9.38-11.69-2.02-23.15,7.45v23.7C130.55,172.56,142.48,160.75,142.48,152.35z"/>
					</g>
					<path class="st11" d="M153.73,189.67c0,5.93-4.81,10.74-10.74,10.74c-5.93,0-10.74-4.81-10.74-10.74
						c0-5.93,4.81-10.74,10.74-10.74C148.92,178.93,153.73,183.74,153.73,189.67z"/>
				</g>
				<path class="st5" d="M230.41,223.92c0,7.91-6.41,14.31-14.31,14.31c-7.91,0-14.31-6.41-14.31-14.31s6.41-14.31,14.31-14.31
					C224,209.61,230.41,216.02,230.41,223.92z"/>
			</g>
		</g>
		<g class="st7">
			<path class="st2" d="M459.28,396.91c-3.85,4.44-4.87,9.27-5.08,10.56l-10.19,5.71v-27.01l0.2,0.27l16.23-11.88
				c2.05,0.32,9.93,1.21,17.11-2.65c8.33-4.49,14.42-19.87,14.42-19.87s-19.87-2.24-26.6,6.09c-5.46,6.76-5.65,13.32-5.52,15.55
				l-15.84,11.59v-19.95c1.91-0.84,9.55-4.77,12.06-14.56c2.89-11.22-12.5-33.34-12.5-33.34s-16.03,22.76-12.82,34.3
				c2.72,9.78,10.02,12.87,12.19,13.59v43.25l-11.43-9.53c0.26-2.28,0.47-9.41-5.88-16.55c-7.69-8.65-28.21-8.01-28.21-8.01
				s8.65,17.31,16.03,23.08c6.44,5.04,15.33,2.99,17.47,2.39l12.02,10.02v13.15h-17.87l7.29,45.56h21.87l7.29-45.56h-17.51v-8.7
				l11.2-6.28c2.72,0.76,10.33,2.32,17.54-1.29c8.97-4.49,16.35-14.1,16.35-14.1S467.61,387.3,459.28,396.91z"/>
			<path class="st13" d="M459.28,396.91c-3.85,4.44-4.87,9.27-5.08,10.56l-10.19,5.71v-27.01l0.2,0.27l16.23-11.88
				c2.05,0.32,9.93,1.21,17.11-2.65c8.33-4.49,14.42-19.87,14.42-19.87s-19.87-2.24-26.6,6.09c-5.46,6.76-5.65,13.32-5.52,15.55
				l-15.84,11.59v-19.95c1.91-0.84,9.55-4.77,12.06-14.56c2.89-11.22-12.5-33.34-12.5-33.34s-16.03,22.76-12.82,34.3
				c2.72,9.78,10.02,12.87,12.19,13.59v43.25l-11.43-9.53c0.26-2.28,0.47-9.41-5.88-16.55c-7.69-8.65-28.21-8.01-28.21-8.01
				s8.65,17.31,16.03,23.08c6.44,5.04,15.33,2.99,17.47,2.39l12.02,10.02v13.15h-17.87l7.29,45.56h21.87l7.29-45.56h-17.51v-8.7
				l11.2-6.28c2.72,0.76,10.33,2.32,17.54-1.29c8.97-4.49,16.35-14.1,16.35-14.1S467.61,387.3,459.28,396.91z"/>
		</g>
		<g class="st7">
			<g>
				<g>
					<g>
						<path class="st14" d="M443.07,259.27l-29.43,0.24c0,0-1.95-0.24-2.43,1.22c0,0-5.11,12.89-5.35,17.51
							c-0.24,4.62,0.97,3.89-0.97,9.97c-1.95,6.08-7.54,20.43-10.7,32.11c-4.25,15.69-5.36,32.35-5.63,48.55
							c-0.04,2.6-1.6,24.96,2.45,24.96c3.36,0,34.33,4.1,34.7-1.87c1.49-23.8-2.81-47.05,5.46-70.19
							c3.21-8.99,6.89-18.48,9.61-27.88c2.73-9.44,3.2-19.17,4.98-28.79C446.96,258.54,443.07,259.27,443.07,259.27z"/>
						<path class="st2" d="M445.95,262.18c-0.29-3.4-2.88-2.91-2.88-2.91l-29.43,0.24c0,0-1.95-0.24-2.43,1.22
							c0,0-5.11,12.89-5.35,17.51c-0.09,1.79,0.03,2.77,0.1,3.66l0.63,0.96c0,0,0.97,8.51,12.65,9c11.68,0.49,18.24-4.86,20.68-9.97
							c2.43-5.11,3.41-13.38,5.35-18.24C445.45,263.16,445.69,262.67,445.95,262.18z"/>
					</g>
					<path class="st2" d="M439.13,271.68c-1.97,7.11-0.79,9.08-2.76,21.32c-1.97,12.24-9.08,26.06-11.84,38.69
						c-2.76,12.63-1.58,57.24-1.18,59.22c0.15,0.75,0.19,1.96,0.17,3.17c1.33-0.49,2.13-1.18,2.19-2.11
						c1.49-23.8-2.81-47.05,5.45-70.19c3.21-8.99,6.89-18.48,9.61-27.88c2.73-9.44,3.2-19.17,4.98-28.79
						c0.75-4.04-0.43-5.31-1.46-5.7l-0.03,0.04C444.26,259.45,441.1,264.58,439.13,271.68z"/>
				</g>
				<path class="st14" d="M382.28,451.31l-0.2-0.16v-27.48h3.95v-17.37h-14.61v17.37h3.95v27.95l-34.94,11.13v2.76
					c0,1.74,1.41,3.16,3.16,3.16c1.74,0,3.16-1.41,3.16-3.16v-0.39l29.21-3.4v4.19c0,1.53,1.24,2.76,2.76,2.76
					c1.53,0,2.76-1.24,2.76-2.76v-4.32l30.4,3.53v0.39c0,1.74,1.41,3.16,3.16,3.16c1.74,0,3.16-1.41,3.16-3.16v-2.76L382.28,451.31z
					"/>
				<path class="st14" d="M423.93,409.51h-86.77c-2.21,0-4-1.79-4-4v-12.15c0-2.21,1.79-4,4-4h86.77c2.21,0,4,1.79,4,4v12.15
					C427.93,407.72,426.14,409.51,423.93,409.51z"/>
			</g>
			<g>
				<g>
					<g>
						<path class="st14" d="M51.37,259.27l29.43,0.24c0,0,1.95-0.24,2.43,1.22c0,0,5.11,12.89,5.35,17.51
							c0.24,4.62-0.97,3.89,0.97,9.97c1.95,6.08,7.54,20.43,10.7,32.11c4.25,15.69,5.36,32.35,5.63,48.55
							c0.04,2.6,1.6,24.96-2.45,24.96c-3.36,0-34.33,4.1-34.7-1.87c-1.49-23.8,2.81-47.05-5.45-70.19
							c-3.21-8.99-6.89-18.48-9.61-27.88c-2.73-9.44-3.2-19.17-4.98-28.79C47.48,258.54,51.37,259.27,51.37,259.27z"/>
						<path class="st2" d="M48.49,262.18c0.29-3.4,2.88-2.91,2.88-2.91l29.43,0.24c0,0,1.95-0.24,2.43,1.22
							c0,0,5.11,12.89,5.35,17.51c0.09,1.79-0.03,2.77-0.1,3.66l-0.63,0.96c0,0-0.97,8.51-12.65,9
							c-11.68,0.49-18.24-4.86-20.68-9.97c-2.43-5.11-3.41-13.38-5.35-18.24C48.99,263.16,48.75,262.67,48.49,262.18z"/>
					</g>
					<path class="st2" d="M55.31,271.68c1.97,7.11,0.79,9.08,2.76,21.32c1.97,12.24,9.08,26.06,11.84,38.69
						c2.76,12.63,1.58,57.24,1.18,59.22c-0.15,0.75-0.19,1.96-0.17,3.17c-1.33-0.49-2.13-1.18-2.19-2.11
						c-1.49-23.8,2.81-47.05-5.45-70.19c-3.21-8.99-6.89-18.48-9.61-27.88c-2.73-9.44-3.2-19.17-4.98-28.79
						c-0.75-4.04,0.43-5.31,1.46-5.7l0.03,0.04C50.18,259.45,53.34,264.58,55.31,271.68z"/>
				</g>
				<path class="st14" d="M112.16,451.31l0.2-0.16v-27.48h-3.95v-17.37h14.61v17.37h-3.95v27.95l34.94,11.13v2.76
					c0,1.74-1.41,3.16-3.16,3.16c-1.74,0-3.16-1.41-3.16-3.16v-0.39l-29.21-3.4v4.19c0,1.53-1.24,2.76-2.76,2.76
					c-1.53,0-2.76-1.24-2.76-2.76v-4.32l-30.4,3.53v0.39c0,1.74-1.41,3.16-3.16,3.16c-1.74,0-3.16-1.41-3.16-3.16v-2.76
					L112.16,451.31z"/>
				<path class="st14" d="M70.51,409.51h86.77c2.21,0,4-1.79,4-4v-12.15c0-2.21-1.79-4-4-4H70.51c-2.21,0-4,1.79-4,4v12.15
					C66.51,407.72,68.3,409.51,70.51,409.51z"/>
			</g>
			<g>
				<g>
					<g>
						<g>
							<rect x="137.94" y="332.78" class="st15" width="237.6" height="136.56"/>
						</g>
						<rect x="138.05" y="336.05" class="st14" width="237.3" height="3.78"/>
						<rect x="132.65" y="330.54" class="st15" width="244.65" height="5.97"/>
					</g>
				</g>
			</g>
		</g>
	</g>
</g>
<g id="Characters">
	<g>
		<g>
			<g>
				<path class="st16" d="M234.47,191.7c0,0-12.79-4.08-22.59,5.99c-9.8,10.07-4.63,30.21-4.63,37.29c0,7.08-8.98,51.98-8.98,51.98
					s-4.35,16.33,7.62,26.67c11.97,10.34,34.12,9.45,43.57-10.47c9.45-19.92-0.57-48.32-0.57-63.02s2.18-24.49-1.09-35.11
					C244.54,194.42,234.47,191.7,234.47,191.7z"/>
				<path class="st17" d="M230.67,199.33c0,0-12.33,15.33-20.67,19.67"/>
				<path class="st17" d="M220,198c0,0-6.33,15.33-12,19.67"/>
			</g>
			<g>
				<path class="st18" d="M255.51,250.73c0,0,3.55,2.1,4.28,7.2s-4.71,16.89-5.81,22.72c-1.09,5.83-2,19.49-2,21.31
					c0,1.82,6.19,28.78,7.29,35.34c1.09,6.56-0.55,22.04-1.46,23.13s-3.46-4.19-3.64-7.65c-0.18-3.46-6.92-30.06-9.47-38.07
					c-2.55-8.01-1.82-18.58-1.82-18.58s3.46-24.23,3.46-33.52c0-9.29,0.28-16.24,0.28-16.24L255.51,250.73z"/>
				<path class="st19" d="M257.81,360.43c0.91-1.09,2.55-16.58,1.46-23.13c-1.09-6.56-7.29-33.52-7.29-35.34
					c0-1.82,0.91-15.48,2-21.31c0.28-1.51,0.86-3.43,1.55-5.52c-1.86,0.89-4.15,1.56-6.88,1.56c-1.27,0-2.51,1.18-3.7,3.16
					c-0.96,8.46-2.08,16.28-2.08,16.28s-0.73,10.57,1.82,18.58c2.55,8.02,9.29,34.61,9.47,38.07
					C254.35,356.24,256.9,361.52,257.81,360.43z"/>
			</g>
			<g>
				<path class="st18" d="M221.24,398.68c0.4-4.48,1.24-13.6,1.78-17.12c0.73-4.74,2.19-14.39,2.19-14.39l3.69,31.51h25.28
					c0.91-6.87,3.2-25.29,3.64-38.25c0.55-16.21-11.66-49.73-12.02-52.28s0.36-10.02,0.36-12.2c0-2.19,6.35-16.16,6.9-23.26
					c0.55-7.1,2.19-9.29,2.19-9.29l0.91-12.02c-0.55-0.18-8.72-6.61-16.92-8.98c-8.2-2.37-15.3-0.36-15.3-0.36
					s-11.84,5.28-17.85,7.83c-6.01,2.55-10.93,7.47-11.11,13.84c-0.18,6.38,11.66,33.52,12.75,35.52c1.09,2-2.37,9.11-3.83,12.75
					s-7.47,16.76-11.48,31.33c-3.42,12.44-1.13,45.87-0.39,55.37H221.24z"/>
				<path class="st20" d="M226.92,294.2c0,0,9.35,1.12,18.69-7.85"/>
			</g>
			<path class="st19" d="M233.4,268.08c2.73-0.73,6.19-12.02,6.56-17.85c0.2-3.27,0.4-5.71,0.31-7.5c-0.34-0.11-0.69-0.23-1.04-0.33
				c-8.2-2.37-15.3-0.36-15.3-0.36s-2.02,0.9-4.82,2.14c-0.28,1.68-0.39,4.42,0.81,7.7C221.93,257.33,230.67,268.81,233.4,268.08z"
				/>
			<path class="st19" d="M221.2,236.44c0,0,0.92,10.73,1.47,13.37c0.55,2.64,6.08,12.99,9.21,12.42c3.13-0.56,5.16-14.12,5.16-15.44
				c0-1.32,0.37-12.05,0.37-12.05S230.78,240.2,221.2,236.44z"/>
			<path class="st18" d="M203.16,251.68c0,0-7.47,0.36-11.66,8.74c-4.19,8.38,0.73,14.03,2.37,17.31
				c1.64,3.28,6.19,16.76,7.65,20.77c1.46,4.01,4.37,8.74,9.47,15.3c5.1,6.56,15.85,20.58,15.85,20.58l2.91,5.1
				c0,0,4.92,5.65,5.46,5.83s3.83,4.37,5.1,1.82c1.28-2.55,0-11.66,0-11.66s2,4.01,2.73,3.1s-0.18-2.91-0.91-5.1
				c-0.73-2.19-7.46-6.38-8.92-6.56c-1.46-0.18-3.28-2-5.47-6.38s-3.83-12.02-7.29-16.58c-3.46-4.55-8.01-11.29-8.01-11.29
				s-5.1-18.22-5.1-18.94s0.73-4.74-1.46-10.02"/>
			<path class="st19" d="M233.22,326.91c-1.46-0.18-3.28-2-5.47-6.38c-2.19-4.37-3.83-12.02-7.29-16.58s-8.01-11.29-8.01-11.29
				s-3.45-12.34-4.68-17.11c-6.7-0.94-11.11,0.41-13.93,2.13c0.01,0.01,0.02,0.03,0.02,0.05c1.64,3.28,6.19,16.76,7.65,20.77
				c1.46,4.01,4.37,8.74,9.47,15.3c5.1,6.56,15.85,20.58,15.85,20.58l2.91,5.1c0,0,4.92,5.65,5.46,5.83
				c0.55,0.18,3.83,4.37,5.1,1.82c1.28-2.55,0-11.66,0-11.66s2,4.01,2.73,3.1c0.73-0.91-0.18-2.91-0.91-5.1
				S234.69,327.1,233.22,326.91z"/>
			<path class="st16" d="M221.24,398.68c0.4-4.48,1.24-13.6,1.78-17.12c0.73-4.74,2.19-14.39,2.19-14.39l3.69,31.51h25.28
				c0.91-6.87,3.2-25.29,3.64-38.25c0.23-6.75-1.76-16.51-4.18-25.78c-21.37,4.68-45.6,1.29-58.18-1.15
				c-1.06,3.13-2.1,6.42-3.03,9.81c-3.42,12.44-1.13,45.87-0.39,55.37H221.24z"/>
			<g>
				<path class="st19" d="M214.87,220.46c0,0-1.63-0.73-1.63,2.54c0,3.27,3.63,5.44,3.63,5.44L214.87,220.46z"/>
				<path class="st19" d="M233.58,202.5c0,0-5.83,8.2-10.93,11.48c-5.1,3.28-8.2,4.74-8.2,4.74s2.55,10.57,3.64,14.03
					c1.09,3.46,4.36,9.49,10.92,9.86c6.56,0.36,9.48-6.58,10.75-9.86c1.28-3.28,1.15-5.36,1.15-5.36s3.1-1.82,3.46-5.28
					c0.36-3.46-0.55-3.28-0.55-3.28s-0.96,1.13-3.18-0.57C238.91,216.91,233.04,207.42,233.58,202.5z"/>
				<path class="st20" d="M219.69,223.21c0,0,2.57-1.88,6.33,0"/>
				<path class="st20" d="M231.32,223.55c0,0,3.08-2.74,6.33-0.51"/>
				<path class="st20" d="M219.18,219.1c0,0,1.37-2.57,5.99-1.37"/>
				<path class="st20" d="M231.32,217.91c0,0,3.59-2.74,7.01,0.68"/>
				<path class="st20" d="M230.81,229.19c0,0-2.74,1.88-3.93,0"/>
				<path class="st20" d="M225.85,233.13c0,0,3.42,1.37,5.13-0.17"/>
			</g>
		</g>
		<g>
			<g>
				<defs>
					<path id="XMLID_4_" d="M168.05,331.43c0,0,7.98,17.76,9.91,21.34c1.93,3.58,4.13,13.77,4.41,19.82c0.28,6.06,0,7.3-1.38,7.16
						s-1.93-7.71-1.93-8.95c0-1.24,0-1.93,0-1.93s-0.69,7.16-1.79,8.54c-1.1,1.38-2.62,2.89-2.75,2.06
						c-0.14-0.83,0.28-2.2,0.83-4.27c0.55-2.06,0.28-4.82,0.28-4.82s-0.83,3.85-2.75,5.23c-1.93,1.38-3.99,1.93-3.3,0.83
						c0.69-1.1,2.48-2.34,2.89-3.72c0.41-1.38,0.41-3.85,0.41-3.85s-2.62,4.27-3.72,4.96c-1.1,0.69-1.1-0.83-0.41-1.51
						c0.69-0.69,2.2-5.37,2.2-5.37s-0.41-0.28-2.34-4.54s-3.03-11.7-3.58-14.59c-0.55-2.89-1.65-6.75-1.65-6.75l-10.6-17.76
						c0,0-0.83-4.27,3.17-4.96C159.92,317.67,168.05,331.43,168.05,331.43z"/>
				</defs>
				<use xlink:href="#XMLID_4_"  style="overflow:visible;fill:#FFFFFF;"/>
				<clipPath id="XMLID_8_">
					<use xlink:href="#XMLID_4_"  style="overflow:visible;"/>
				</clipPath>
				<path class="st21" d="M168.05,331.43c0,0,7.98,17.76,9.91,21.34c1.93,3.58,4.13,13.77,4.41,19.82c0.28,6.06,0,7.3-1.38,7.16
					s-1.93-7.71-1.93-8.95c0-1.24,0-1.93,0-1.93s-0.69,7.16-1.79,8.54c-1.1,1.38-2.62,2.89-2.75,2.06c-0.14-0.83,0.28-2.2,0.83-4.27
					c0.55-2.06,0.28-4.82,0.28-4.82s-0.83,3.85-2.75,5.23c-1.93,1.38-3.99,1.93-3.3,0.83c0.69-1.1,2.48-2.34,2.89-3.72
					c0.41-1.38,0.41-3.85,0.41-3.85s-2.62,4.27-3.72,4.96c-1.1,0.69-1.1-0.83-0.41-1.51c0.69-0.69,2.2-5.37,2.2-5.37
					s-0.41-0.28-2.34-4.54s-3.03-11.7-3.58-14.59c-0.55-2.89-1.65-6.75-1.65-6.75l-10.6-17.76c0,0-0.83-4.27,3.17-4.96
					C159.92,317.67,168.05,331.43,168.05,331.43z"/>
				
					<use xlink:href="#XMLID_4_"  style="overflow:visible;fill:none;stroke:#263238;stroke-linecap:round;stroke-linejoin:round;stroke-miterlimit:10;"/>
			</g>
			<g>
				<defs>
					<path id="XMLID_5_" d="M177.96,358c0,0,1.38,6.75,1.24,9.77c-0.14,3.03,0.55,4.54-0.41,4.54s-1.24-0.69-2.2-3.72
						c-0.96-3.03-1.24-6.88-1.24-6.88s-3.44,0-4.68-5.09"/>
				</defs>
				<use xlink:href="#XMLID_5_"  style="overflow:visible;fill:#FFFFFF;"/>
				<clipPath id="XMLID_9_">
					<use xlink:href="#XMLID_5_"  style="overflow:visible;"/>
				</clipPath>
				<path class="st22" d="M177.96,358c0,0,1.38,6.75,1.24,9.77c-0.14,3.03,0.55,4.54-0.41,4.54s-1.24-0.69-2.2-3.72
					c-0.96-3.03-1.24-6.88-1.24-6.88s-3.44,0-4.68-5.09"/>
				
					<use xlink:href="#XMLID_5_"  style="overflow:visible;fill:none;stroke:#263238;stroke-linecap:round;stroke-linejoin:round;stroke-miterlimit:10;"/>
			</g>
			<path class="st19" d="M116.55,398.68h50.67c0.25-9.48,1.91-71.41,2.42-74.17c0.54-2.99,3.27-31.3,3.54-42.46
				s-4.63-27.22-4.63-28.3s-0.82-7.89-8.44-13.61c-7.62-5.72-13.61-5.72-15.24-4.9c0,0-5.99,4.08-15.51,14.15
				s-12.79,18.23-12.79,33.75s2.45,28.03,2.45,28.03s-2.99,48.44-2.99,49.53C116.03,361.68,116.46,392.21,116.55,398.68z"/>
			<g>
				<path class="st14" d="M139.55,289.18c1.04,0,2.12-0.06,3.23-0.18c11.66-1.27,21.79-13.19,28.49-23.49
					c-0.31-1.5-0.62-2.92-0.93-4.23c-6.31,10.29-16.51,23.49-27.89,24.73c-15.82,1.72-23.05-10.75-24.96-14.78
					c-0.28,1.54-0.49,3.16-0.63,4.88C120.36,281.47,127.51,289.18,139.55,289.18z"/>
				<path class="st14" d="M135.75,265.12l2.9,0.77c3.62-13.63,11.45-23.19,17.01-28.58c-1.05-0.55-2.05-0.99-2.99-1.34
					C146.92,241.73,139.39,251.4,135.75,265.12z"/>
				<path class="st14" d="M138.6,279.47c0.67-0.34,14.84-7.73,29.81-26.98c-0.16-0.87-0.48-2.09-1.09-3.51
					c-15.06,19.98-29.91,27.74-30.08,27.82L138.6,279.47z"/>
				<path class="st14" d="M123.81,268.62l2.97-0.45c-0.01-0.08-0.87-7.17,6.11-22.4c-1.11,1.11-2.29,2.31-3.52,3.62
					c-0.8,0.85-1.54,1.67-2.25,2.5C123.05,263.02,123.77,268.32,123.81,268.62z"/>
				<path class="st14" d="M148.55,313.07c-17.24,2.24-25.96-1.39-29.92-4.16c0.24,1.46,0.39,2.26,0.39,2.26s-0.03,0.54-0.09,1.49
					c3.84,2.12,9.96,4.11,19.43,4.11c3.14,0,6.66-0.22,10.58-0.73c8.97-1.17,16.42-4.24,22.42-7.91c0.11-1.26,0.23-2.56,0.34-3.86
					C165.68,308.32,157.98,311.85,148.55,313.07z"/>
				<path class="st14" d="M147.66,331.53c9.23-2.26,16.96-6.3,22.34-9.74c0.12-1.07,0.27-2.39,0.42-3.9
					c-5.18,3.53-13.47,8.28-23.48,10.73c-11.61,2.84-22.88-0.34-28.83-2.63c-0.06,1.03-0.13,2.09-0.19,3.16
					c4.54,1.68,11.45,3.61,19.28,3.61C140.55,332.76,144.08,332.4,147.66,331.53z"/>
				<path class="st14" d="M116.58,351.13c-0.06,1.08-0.13,2.1-0.18,3.03c5.64,1.34,14.01,2.81,23.56,2.81
					c8.93,0,18.89-1.3,28.61-5.18c0.03-1.11,0.07-2.2,0.1-3.28C148.62,357.03,127.14,353.7,116.58,351.13z"/>
				<path class="st14" d="M149.85,341.23c-15.11,3.47-26.99,0.79-32.61-1.05c-0.06,1.05-0.13,2.09-0.19,3.12
					c3.91,1.23,10.09,2.64,17.96,2.64c4.63,0,9.84-0.49,15.51-1.79c7.13-1.64,13.35-4.18,18.52-6.9c0.04-1.24,0.09-2.42,0.13-3.51
					C163.89,336.68,157.38,339.5,149.85,341.23z"/>
				<path class="st14" d="M141.45,298.99c-12.3,0.62-20.25-3.93-24.66-7.67c0.07,1.38,0.16,2.72,0.26,4
					c4.73,3.39,11.97,6.73,22.13,6.73c0.79,0,1.6-0.02,2.43-0.06c12.06-0.61,22.75-5.89,31.38-15.25c0.1-1.76,0.16-3.35,0.2-4.69
					c0-0.06,0-0.13,0-0.19C166.13,290.62,155.9,298.26,141.45,298.99z"/>
			</g>
			<path class="st18" d="M161.88,241.6c-0.55-0.49-1.12-0.98-1.76-1.46c-7.62-5.72-13.61-5.72-15.24-4.9c0,0-3.34,2.28-8.99,7.61
				c-0.46,2.23-0.23,4.73,1.64,7.08c5.17,6.53,22.04,31.57,26.4,26.13c4.35-5.44,3.27-20.41-1.63-33.47
				C162.16,242.25,162.02,241.92,161.88,241.6z"/>
			<path class="st19" d="M145.96,270.35c0,0,14.7,31.3,17.69,36.2c2.99,4.9,4.63,6.53,4.63,6.53s12.99,4.37,24.14,8.45
				c11.16,4.08,30.56,9.51,34.64,10.6c4.08,1.09,10.89,1.09,11.97,1.09c1.09,0,14.15,2.99,14.97,3.54c0.82,0.54-0.27,1.63-2.18,2.18
				c-1.91,0.54-8.16,1.09-11.16,2.18s-5.44,0.82-9.8-0.27s-9.8-4.35-9.8-4.35s-35.65-2.45-44.09-3.54s-17.96-2.18-21.77-6.53
				c-7.51-8.58-14.61-17.54-20.9-27.06c-5.11-7.74-14.49-18.6-10.94-28.46"/>
			<g>
				<defs>
					<path id="XMLID_3_" d="M239.04,333.22c-1.09,0-7.89,0-11.97-1.09c-4.08-1.09-23.48-6.51-34.64-10.6
						c-11.16-4.08-24.14-8.45-24.14-8.45s-1.63-1.63-4.63-6.53c-1.23-2.02-4.46-8.53-7.82-15.48c-10.85,2.84-16.32,8.02-19.01,11.99
						c5.65,8.15,11.86,15.89,18.39,23.35c3.81,4.35,13.34,5.44,21.77,6.53s44.09,3.54,44.09,3.54s5.44,3.27,9.8,4.35
						s6.8,1.36,9.8,0.27s9.25-1.63,11.16-2.18c1.91-0.54,2.99-1.63,2.18-2.18C253.19,336.21,240.13,333.22,239.04,333.22z"/>
				</defs>
				<use xlink:href="#XMLID_3_"  style="overflow:visible;fill:#FFFFFF;"/>
				<clipPath id="XMLID_10_">
					<use xlink:href="#XMLID_3_"  style="overflow:visible;"/>
				</clipPath>
				<path class="st23" d="M239.04,333.22c-1.09,0-7.89,0-11.97-1.09c-4.08-1.09-23.48-6.51-34.64-10.6
					c-11.16-4.08-24.14-8.45-24.14-8.45s-1.63-1.63-4.63-6.53c-1.23-2.02-4.46-8.53-7.82-15.48c-10.85,2.84-16.32,8.02-19.01,11.99
					c5.65,8.15,11.86,15.89,18.39,23.35c3.81,4.35,13.34,5.44,21.77,6.53s44.09,3.54,44.09,3.54s5.44,3.27,9.8,4.35
					s6.8,1.36,9.8,0.27s9.25-1.63,11.16-2.18c1.91-0.54,2.99-1.63,2.18-2.18C253.19,336.21,240.13,333.22,239.04,333.22z"/>
				
					<use xlink:href="#XMLID_3_"  style="overflow:visible;fill:none;stroke:#263238;stroke-linecap:round;stroke-linejoin:round;stroke-miterlimit:10;"/>
			</g>
			<g>
				<path class="st18" d="M167.23,398.68c0.13-4.72,0.6-22.55,1.11-39.56c-5.04,2.08-12.3,4.2-22.46,5.39
					c-15.95,1.88-25.22-2.01-29.79-4.99c-0.04,0.68-0.06,1.09-0.06,1.18c0,0.97,0.43,31.5,0.53,37.97H167.23z"/>
				<path class="st20" d="M154.48,396.41c-2.48-9.38,3.52-21.38-5.14-27.64"/>
				<line class="st20" x1="154.48" y1="374.76" x2="165.62" y2="364.06"/>
				<path class="st20" d="M126.55,374.83c-0.1,7.19-0.19,14.39-0.29,21.58"/>
				<line class="st20" x1="126.65" y1="367.06" x2="126.6" y2="371"/>
			</g>
			<g>
				<g>
					<defs>
						<path id="XMLID_2_" d="M171.3,191.36c4.41,1.2,8.37,3.76,11.12,7.42c1.66,2.21,3.2,5.03,3.73,8.26
							c1.32,8.09-3.24,10.6-1.77,14.28c1.47,3.68,2.94,5.59,1.77,7.36s-4.86,2.06-5.45,2.21s-1.77,6.92-4.12,9.86
							c-2.35,2.94-10.6-0.44-10.6-0.44s-3.38,5.74-4.42,7.65c-1.03,1.91,1.03,13.39-0.44,18.54c-1.47,5.15-4.86-0.44-11.33-8.54
							c-6.48-8.09-9.42-14.72-9.12-16.92s5.45-7.36,6.33-9.27c0.88-1.91,1.32-2.8,0.88-4.56c-0.44-1.77-5.59-8.98-5.59-18.25
							s7.36-18.1,17.07-18.84C163.93,189.77,168.13,190.5,171.3,191.36z"/>
					</defs>
					<use xlink:href="#XMLID_2_"  style="overflow:visible;fill:#FFFFFF;"/>
					<clipPath id="XMLID_11_">
						<use xlink:href="#XMLID_2_"  style="overflow:visible;"/>
					</clipPath>
					<path class="st24" d="M171.3,191.36c4.41,1.2,8.37,3.76,11.12,7.42c1.66,2.21,3.2,5.03,3.73,8.26
						c1.32,8.09-3.24,10.6-1.77,14.28c1.47,3.68,2.94,5.59,1.77,7.36s-4.86,2.06-5.45,2.21s-1.77,6.92-4.12,9.86
						c-2.35,2.94-10.6-0.44-10.6-0.44s-3.38,5.74-4.42,7.65c-1.03,1.91,1.03,13.39-0.44,18.54c-1.47,5.15-4.86-0.44-11.33-8.54
						c-6.48-8.09-9.42-14.72-9.12-16.92s5.45-7.36,6.33-9.27c0.88-1.91,1.32-2.8,0.88-4.56c-0.44-1.77-5.59-8.98-5.59-18.25
						s7.36-18.1,17.07-18.84C163.93,189.77,168.13,190.5,171.3,191.36z"/>
					
						<use xlink:href="#XMLID_2_"  style="overflow:visible;fill:none;stroke:#263238;stroke-linecap:round;stroke-linejoin:round;stroke-miterlimit:10;"/>
				</g>
				<path class="st16" d="M173.06,198.07c3.55-1.74,6.06-1.69,7.7-1.2c-2.58-2.64-5.86-4.52-9.45-5.5
					c-3.18-0.87-7.38-1.59-11.94-1.24c-9.71,0.74-17.07,9.57-17.07,18.84s5.15,16.48,5.59,18.25c0.18,0.71,0.21,1.27,0.13,1.82
					c6.96,1.38,9.29-2.11,9.29-2.11s-2.5,0.44-4.56-1.32c-2.06-1.77-2.06-8.54,0.44-11.63c2.5-3.09,5,1.18,5,3.68
					s1.18,4.56,2.35,4.27c1.18-0.29,0.88-3.09,1.32-4.86c0.44-1.77,5.59-4.42,6.77-5.89c1.18-1.47-0.59-2.8-2.5-5
					C164.22,203.95,165.84,201.6,173.06,198.07z"/>
				<path class="st20" d="M157.01,227.35c0,0,0,4.12,2.5,6.77"/>
				<path class="st20" d="M179.92,219.9c0,0-1.58-0.79-3.95-0.59"/>
				<path class="st20" d="M182.09,216.35c0,0-2.17-3.75-6.32-0.79"/>
				<path class="st20" d="M176.96,232.93c0,0-2.96,0.39-4.15-2.76"/>
			</g>
			<g>
				<path class="st14" d="M148.45,275.63c-0.8-1.69-1.45-3.07-1.89-4c-12.08,0.21-19.17,4.72-23.17,8.97
					c0.41,1.39,0.97,2.78,1.62,4.15C128.17,280.69,134.92,275.34,148.45,275.63z"/>
				<path class="st14" d="M152.64,284.42c-0.65-1.35-1.28-2.68-1.88-3.94c-11.23,0.59-18.78,4.74-23.41,8.53
					c0.71,1.16,1.45,2.3,2.2,3.41C133.82,288.83,141.25,284.63,152.64,284.42z"/>
			</g>
		</g>
	</g>
	<g>
		<g>
			<g>
				<path class="st19" d="M282.81,311.14c1.26,3.77,2.1,17.18,2.1,24.3c0,5.95-3.8,49.15-5.05,63.24h56.81
					c0.68-13.75,2.71-55.07,2.71-60.3c0-6.29-2.1-32.06,0.63-41.06c2.72-9.01,5.87-32.68,1.05-40.02s-23.05-11.52-28.49-13.41
					c-5.45-1.89-13.62-2.93-17.6-1.05c0,0-10.89,6.08-17.6,12.36c-6.7,6.29-9.64,15.92-8.38,23.67
					C270.24,286.63,281.55,307.37,282.81,311.14z"/>
				<g>
					<path class="st14" d="M332.18,250.71c-2.39-1.14-4.98-2.14-7.51-3.02c-5.62,14.62-17.91,39.23-42.53,61.82
						c0.31,0.69,0.54,1.25,0.67,1.63c0.47,1.42,0.88,4.19,1.22,7.48C312.31,294.16,326.01,266.95,332.18,250.71z"/>
					<path class="st14" d="M343.26,278.02c0.43-5.42,0.44-10.84-0.28-15.05c-11.67,19.71-31.85,49.77-58.09,73.31
						c-0.07,2.06-0.33,6.11-0.72,11.22C309.71,326.39,329.91,299.06,343.26,278.02z"/>
				</g>
			</g>
			<path class="st16" d="M336.67,398.68c0.49-9.79,1.65-33.54,2.29-48.31c-27.66,5.29-47.09,0.26-54.81-2.45
				c-1.18,15.57-3.39,40.66-4.28,50.76H336.67z"/>
			<ellipse class="st18" cx="302.08" cy="254.55" rx="13.74" ry="13.29"/>
			<path class="st19" d="M289.52,237.81c0,0,2.3,8.17,2.3,12.99c0,4.82,5.24,15.92,13.83,10.89c8.59-5.03,4.19-16.55,2.72-20.11
				c-1.47-3.56-2.51-8.38-2.51-8.38s-2.72,5.03-7.96,5.24C292.66,238.65,289.52,237.81,289.52,237.81z"/>
			<g>
				<path class="st16" d="M275.35,208.15c0,0-1.44,3.61,0.36,6.49s4.33,6.85,4.33,6.85l-0.36-15.87
					C279.68,205.63,276.07,202.74,275.35,208.15z"/>
				<path class="st19" d="M280.04,217.89c0,0-2.89,1.08-1.44,5.77c1.44,4.69,3.61,3.25,3.61,3.25L280.04,217.89z"/>
				<path class="st19" d="M277.36,209.74c0,0,2.51,12.99,3.98,19.48c1.47,6.49,9.43,12.36,13.62,13.62
					c4.19,1.26,9.64-3.35,10.89-6.08c1.26-2.72,1.89-8.8,1.89-8.8s4.61-1.89,5.03-6.7c0.42-4.82-0.84-6.29-3.35-6.91l-1.89-0.84
					c0,0,1.05-7.75-1.68-12.57s-12.36,1.47-17.39,2.93C283.44,205.34,276.73,204.92,277.36,209.74z"/>
				<path class="st20" d="M289.52,219.17c0,0-1.05,7.54,0.42,8.17c1.47,0.63,4.19-0.84,4.82-1.05"/>
				<path class="st20" d="M293.5,231.95c0,0,5.87,0.84,8.17-5.87"/>
				<path class="st20" d="M282.39,217.49c0,0,1.26-2.3,4.4-2.1"/>
				<path class="st20" d="M292.45,214.35c0,0,4.19-2.1,6.7,0.21"/>
				
					<ellipse transform="matrix(0.9852 -0.1713 0.1713 0.9852 -33.6059 52.2522)" class="st14" cx="285.95" cy="220.84" rx="1.05" ry="2.1"/>
				
					<ellipse transform="matrix(0.9852 -0.1713 0.1713 0.9852 -33.1466 53.8035)" class="st14" cx="295.17" cy="218.96" rx="1.05" ry="2.1"/>
			</g>
			<path class="st16" d="M301.25,204.08c0,0-8.17,3.98-17.39,5.87s-13.41-0.21-12.99-4.82c0.42-4.61,12.36-14.67,23.26-14.67
				s14.67,5.03,15.29,10.27c0.63,5.24,0,13.62,0,13.62l-1.89,2.72c0,0,0.42-2.1-2.51-3.77
				C302.09,211.62,299.78,208.48,301.25,204.08z"/>
		</g>
		<g>
			<path class="st16" d="M359.56,219.06c2.05,1.57-0.37,8.13,6.4,13.39c15.55,12.1,24.55,20.29,26.22,38.27
				c1.81,19.6-8.71,27.22-5.44,33.75c3.27,6.53,7.62,14.15,0.73,19.96c-6.89,5.81-18.14,10.89-27.58-2.9
				c-9.43-13.79-14.51-44.27-18.51-60.96c-3.99-16.69-10.52-24.67-9.44-31.93c1.05-7.04,6.76-12.02,13.6-13.21
				C350.93,214.49,355.63,216.05,359.56,219.06z"/>
			<path class="st19" d="M340.82,288.73l-29.08,21.28c0,0-46.57,16.65-49.31,17.49s-15.8,3.16-18.54,4.64
				c-2.74,1.48-8.01,11.17-8.85,13.49s1.69,2.95,2.32,2.32c0.63-0.63,6.74-6.53,8.64-6.74s3.58-0.42,3.58-0.42s-4.85,4.21-5.06,5.48
				c-0.21,1.26,0.84,0.84,2.11,0.21c1.26-0.63,6.11-2.32,8.01-5.69s3.58-5.27,6.74-6.53c3.16-1.26,44.4-10.2,51.78-11.46
				s33.93-17.21,35.2-17.42S344.83,288.73,340.82,288.73z"/>
			<g>
				<g>
					<defs>
						<path id="XMLID_1_" d="M335.14,315.93c0.26,0.78-0.52,11.75-1.04,30.82c-0.4,14.64-3.88,40.63-5.47,51.93h55.59
							c0.4-11.46,0.9-37.67-2.32-48.54c-4.18-14.1-8.88-16.98-10.45-23.25s-3.92-40.75-7.84-53.81
							c-3.92-13.06-15.67-20.9-17.5-23.77s-7.57-19.59-7.57-19.59l-9.93,8.36c0,0,7.31,11.75,8.36,15.41
							c1.04,3.66-7.05,12.28-11.23,21.16s-4.96,15.93-1.31,21.42C328.09,301.56,334.88,315.14,335.14,315.93z"/>
					</defs>
					<use xlink:href="#XMLID_1_"  style="overflow:visible;fill:#F19066;"/>
					<clipPath id="XMLID_12_">
						<use xlink:href="#XMLID_1_"  style="overflow:visible;"/>
					</clipPath>
					<g class="st25">
						<path class="st5" d="M343.64,369.6l9.11,2l9.11-2l9.11,2l9.11-2l4.22,0.93c-0.03-0.69-0.06-1.38-0.09-2.07l-4.13-0.91l-9.11,2
							l-9.11-2l-9.11,2l-9.11-2l-9.11,2l-2.19-0.48c-0.07,0.67-0.14,1.33-0.22,2l2.41,0.53L343.64,369.6z"/>
						<path class="st5" d="M353.7,301.16l-9.11,2l-9.11-2l-7.13,1.56c0.33,0.6,0.67,1.21,1,1.83l6.13-1.35l9.11,2l9.11-2l9.11,2
							l5.76-1.27c-0.08-0.66-0.15-1.33-0.23-2l-5.53,1.22L353.7,301.16z"/>
						<path class="st5" d="M343.64,384.83l9.11,2l9.11-2l9.11,2l9.11-2l4.42,0.97c0.01-0.67,0.01-1.36,0.01-2.04l-4.43-0.97l-9.11,2
							l-9.11-2l-9.11,2l-9.11-2l-9.11,2l-3.94-0.86c-0.09,0.67-0.17,1.34-0.25,1.99l4.19,0.92L343.64,384.83z"/>
						<path class="st5" d="M384.41,391.36l-4.34-0.95l-9.11,2l-9.11-2l-9.11,2l-9.11-2l-9.11,2l-4.9-1.08
							c-0.09,0.68-0.18,1.35-0.27,1.99l5.17,1.14l9.11-2l9.11,2l9.11-2l9.11,2l9.11-2l4.29,0.94
							C384.38,392.74,384.4,392.06,384.41,391.36z"/>
						<path class="st5" d="M323.07,281.63l3.3,0.72l9.11-2l9.11,2l9.11-2l9.11,2l2.74-0.6c-0.12-0.67-0.24-1.33-0.36-1.97
							l-2.37,0.52l-9.11-2l-9.11,2l-9.11-2l-9.11,2l-2.71-0.59C323.45,280.36,323.25,281,323.07,281.63z"/>
						<path class="st5" d="M353.7,285.92l-9.11,2l-9.11-2l-9.11,2l-4.24-0.93c-0.04,0.7-0.04,1.38,0,2.05l4.25,0.93l9.11-2l9.11,2
							l9.11-2l9.11,2l3.9-0.86c-0.1-0.67-0.19-1.33-0.29-1.98l-3.61,0.79L353.7,285.92z"/>
						<path class="st5" d="M353.7,293.54l-9.11,2l-9.11-2l-9.11,2l-2.61-0.57c0.2,0.37,0.42,0.74,0.66,1.1
							c0.26,0.38,0.53,0.81,0.81,1.27l1.13,0.25l9.11-2l9.11,2l9.11-2l9.11,2l4.88-1.07c-0.08-0.67-0.17-1.33-0.25-1.99l-4.63,1.02
							L353.7,293.54z"/>
						<path class="st5" d="M343.64,377.22l9.11,2l9.11-2l9.11,2l9.11-2l4.41,0.97c-0.01-0.68-0.02-1.37-0.03-2.05l-4.38-0.96
							l-9.11,2l-9.11-2l-9.11,2l-9.11-2l-9.11,2l-3.03-0.66c-0.08,0.67-0.16,1.33-0.24,1.99l3.27,0.72L343.64,377.22z"/>
					</g>
					
						<use xlink:href="#XMLID_1_"  style="overflow:visible;fill:none;stroke:#263238;stroke-linecap:round;stroke-linejoin:round;stroke-miterlimit:10;"/>
				</g>
				<path class="st20" d="M328.6,299.06c0,0,3.36,6.73,14.58,4.11"/>
				<path class="st20" d="M359.25,342.42c0,0-16.82,20.56-24.3,37.01"/>
				<path class="st20" d="M341.31,359.25c0,0-7.1,13.08-8.97,21.31"/>
			</g>
			<path class="st19" d="M331.81,272.63c5.43-3.02,12.37-15.98,15.38-18.4c0.96-0.77,1.61-1.29,2.06-1.65
				c-1.51-1.42-2.66-2.52-3.14-3.26c-1.83-2.87-7.57-19.59-7.57-19.59l-9.93,8.36c0,0,7.31,11.75,8.36,15.41
				c0.92,3.23-5.29,10.34-9.63,18.08C327.85,273.04,329.05,274.16,331.81,272.63z"/>
			<g>
				<path class="st19" d="M319.85,209.62c-1,2.78-1.9,5.7-1.7,8.68c0.18,2.64,0.74,4.73-0.32,7.34c-0.61,1.5-2.72,3.41-2.43,5.14
					c0.26,1.57,4.18,2.09,4.18,2.09s3.92,12.28,6.01,12.54c2.09,0.26,6.79-1.04,12.8-6.01c6.01-4.96-1.31-22.99-6.53-27.69
					C326.64,207.01,322.46,206.48,319.85,209.62z"/>
				<g>
					<ellipse class="st14" cx="321.63" cy="224.07" rx="0.68" ry="1.92"/>
					<path class="st20" d="M319.82,219.66c0,0,0.68-2.72,3.4-0.68"/>
					<path class="st20" d="M321.18,235.5c0,0,1.81,0.45,3.85-2.04"/>
				</g>
			</g>
			<g>
				<path class="st16" d="M325.6,195.77c0,0-9.66,0.26-11.23,6.53c-1.57,6.27,5.49,11.75,10.45,14.37s9.4,6.79,9.4,11.23
					s0.26,9.66,3.92,14.37c3.66,4.7,12.02,8.62,18.55,8.36c6.53-0.26-0.52-15.67,3.13-26.64c3.66-10.97-1.04-21.94-8.36-26.64
					C344.14,192.64,325.6,195.77,325.6,195.77z"/>
				<path class="st17" d="M384.64,290.61c-0.09,1.4-0.31,2.76-0.64,4.05"/>
				<path class="st17" d="M323.38,211.97c1.81,2.96,5.21,6.19,11.62,8.03c14,4,19.33,13.67,19.33,22s0.67,14.33,14,21
					c8.75,4.38,13.91,12.2,15.67,19.98"/>
				<path class="st17" d="M321.33,205.33c0,0-0.02,0.67,0.17,1.73"/>
				<path class="st17" d="M340,205.33c0,0,16.67,8.33,16.33,19.67c-0.33,11.33,0.67,22,11,28.33c10.33,6.33,21,10.33,24.67,23"/>
			</g>
			<path class="st19" d="M349.3,265.98c0,0-4.43,1.69-6.74,10.33c-2.32,8.64,7.16,23.81,8.64,30.55c1.48,6.74,2.95,17.07,2.95,17.07
				s-33.08,26.97-37.93,31.19c-4.85,4.21-7.38,6.95-7.38,6.95s-12.01,10.54-13.06,12.64s-4,13.06-2.95,13.49
				c1.05,0.42,2.95-4.21,2.95-5.06c0-0.84,2.11-5.48,2.11-5.48s-1.69,10.75-1.69,11.38c0,0.63,1.69,0,1.9-0.84s2.53-9.69,2.53-9.69
				s-1.26,9.9-0.42,10.96c0.84,1.05,2.32-6.32,2.32-6.32l1.69-5.9c0,0-0.42,10.33,0.42,10.75c0.84,0.42,2.74-10.11,2.74-10.11
				s3.79-7.59,5.27-10.11c1.48-2.53,1.9-4.43,1.9-4.43s19.6-10.75,31.82-16.65c12.22-5.9,22.55-16.86,23.81-18.75
				c1.26-1.9-1.48-28.45-3.58-39.83C364.47,276.72,360.05,263.03,349.3,265.98z"/>
		</g>
		<g>
			<path class="st19" d="M280.84,252.42c0,0-7.54,5.13-13.57,9.95c-6.03,4.83-5.13,14.48-5.13,16.59s-0.3,11.76-0.3,11.76
				l-4.52,9.65c0,0-6.94,6.33-8.44,7.84c-1.51,1.51-10.25,18.7-10.25,18.7l-2.11,3.02l11.46,1.51c0,0,6.63-7.54,14.17-12.97
				c7.54-5.43,13.87-20.51,14.17-22.32c0.3-1.81,2.11-7.84,2.71-15.38"/>
			<g>
				<path class="st19" d="M277.04,292.93c-5.07-8.32-11.98-7.24-15.08-6.2c-0.06,2.2-0.12,3.99-0.12,3.99l-4.52,9.65
					c0,0-6.94,6.33-8.44,7.84c-1.51,1.51-10.25,18.7-10.25,18.7l-2.11,3.02l11.46,1.51c0,0,6.63-7.54,14.17-12.97
					c7.54-5.43,13.87-20.51,14.17-22.32C276.42,295.54,276.7,294.42,277.04,292.93z"/>
				<g>
					<path class="st19" d="M242.92,322.99c0,0-7.49,6.12-8.99,8.06c-1.5,1.95-2.7,13.34-2.1,14.18s4.79,3.06,6.59,1.11
						c1.8-1.95,8.39-11.4,8.39-11.4s-4.99,6.77-1.44,6.38c3.56-0.39,5.63-5.82,7.72-8.33c2.1-2.5,1.8-2.78,0-6.39
						c-1.8-3.61-1.8-3.61-1.8-3.61"/>
					<path class="st20" d="M231.84,345.23c0,0,3.81-12.95,5.34-13.97"/>
					<path class="st20" d="M233.63,346.18c0,0,4.41-12.22,6.7-14.75"/>
					<path class="st20" d="M235.96,347.05c0,0,4.79-11.96,7.93-14.91"/>
					<path class="st19" d="M246.81,334.95c0,0,2.54-2.26,2.93-3.62"/>
				</g>
			</g>
		</g>
	</g>
	<line class="st20" x1="46.48" y1="398.68" x2="499.39" y2="398.68"/>
</g>
</svg>
