<svg id="b462f777-a7a2-44c5-b0b7-65befd30ef49" data-name="Calque 1" xmlns="http://www.w3.org/2000/svg" viewBox="0 0 420.78 332.59"><g id="ab3b1385-29e5-46a5-9be5-86b097c1d23a" data-name="Calque 2"><g id="e1e220e8-1501-4066-8cfc-c1ec9ad602ad" data-name="Background Simple"><path d="M397.24,134.4c-8-30.65-21.31-59.24-35.23-78.84C328.55,8.44,250.74-12.3,197,7.44c-45.8,16.82-61.84,67.68-101.85,92-36.81,22.41-70.21,40.68-83.08,83.38C-15.13,273.08,92.41,345,172.77,322.13c25.36-7.22,46.8-22.42,73.85-22.51,54.88-.19,74.22,7.33,118.61-22.31C409,248.1,411.25,188.08,397.24,134.4Z" transform="translate(0 0)" style="fill:#f19066"/><path d="M397.24,134.4c-8-30.65-21.31-59.24-35.23-78.84C328.55,8.44,250.74-12.3,197,7.44c-45.8,16.82-61.84,67.68-101.85,92-36.81,22.41-70.21,40.68-83.08,83.38C-15.13,273.08,92.41,345,172.77,322.13c25.36-7.22,46.8-22.42,73.85-22.51,54.88-.19,74.22,7.33,118.61-22.31C409,248.1,411.25,188.08,397.24,134.4Z" transform="translate(0 0)" style="fill:#fff;opacity:0.800000011920929;isolation:isolate"/></g><g id="a43b070c-395a-48fe-8690-25f3680bbbf0" data-name="Clouds"><path d="M394.47,183.83c-3-1.65-4.39-.28-5.48-1.65s3-4.93-5.21-8.49c0,0-.55-7.68-11.78-7.95s-8.23,7.67-11.24,9.59-3.84-1.09-6.85.82-1.64,5.76-4.11,6.31-5.8-2.46-8.8-.55-3,3.56-4.38,3.56-4.11-1.1-5.76,0-3.56,2.47-3.56,2.47h69.33S397.48,185.47,394.47,183.83Z" transform="translate(0 0)" style="fill:#fff"/><path d="M359.1,65.8c-4.18-2.28-6.07-.38-7.59-2.28s4.17-6.83-7.22-11.77c0,0-.75-10.63-16.32-11S316.58,51.37,312.4,54s-5.31-1.52-9.49,1.14-2.28,8-5.69,8.73-8-3.41-12.15-.76-4.18,4.94-6.08,4.94-5.69-1.52-8,0-4.93,3.42-4.93,3.42h96.05S363.28,68.08,359.1,65.8Z" transform="translate(0 0)" style="fill:#fff"/><path d="M290.58,63.46c-5.89-3.21-8.57-.54-10.71-3.21s5.89-9.65-10.18-16.61c0,0-1.07-15-23-15.54s-16.07,15-22,18.75-7.5-2.14-13.39,1.61-3.22,11.25-8,12.32S192,56,186.12,59.71s-5.9,7-8.58,7-8-2.14-11.25,0-7,4.83-7,4.83H294.87S296.48,66.67,290.58,63.46Z" transform="translate(0 0)" style="fill:#fff"/></g><g id="a3c64a64-79d6-4286-b997-7d9cb52ae441" data-name="Plants"><path d="M7.33,153.78c1.66.72,5.71.63,5.71.63s-.87-2.65-.95-2.81c-.88-1.86-3.7-4.93-6-4.62a2.73,2.73,0,0,0-2.26,3.12c0,.1,0,.2.07.3C4.3,152,5.92,153.16,7.33,153.78Z" transform="translate(0 0)" style="fill:#263238"/><path d="M60.4,140c-2.3-.25-5,2.9-5.86,4.78-.08.16-.92,2.84-.87,2.84h0c-.43.49-.89,1-1.38,1.62-.9,1.1-1.9,2.35-2.9,3.79a47.57,47.57,0,0,0-3,4.8,35.1,35.1,0,0,0-2.57,5.78V161c-.27-2-2-5.84-4.25-6.26a2.74,2.74,0,0,0-3.12,2.3,1.24,1.24,0,0,0,0,.27,5.57,5.57,0,0,0,2.19,4.27c1.3,1.16,4.89,2.28,5.18,2.37a46.56,46.56,0,0,0-1.52,6.27c-.22,1.23-.4,2.48-.57,3.74v-1.18c-.27-2-2-5.84-4.25-6.26a2.74,2.74,0,0,0-3.12,2.3,1.24,1.24,0,0,0,0,.27,5.57,5.57,0,0,0,2.19,4.27,19.37,19.37,0,0,0,5,2.32l-.18,1.44c-.28,2.32-.54,4.63-.87,6.89-.12.8-.26,1.58-.4,2.36v-1c-.27-2-2-5.84-4.25-6.26a2.74,2.74,0,0,0-3.12,2.3,1.24,1.24,0,0,0,0,.27,5.57,5.57,0,0,0,2.19,4.27,17.37,17.37,0,0,0,4.88,2.27c-.17.8-.34,1.59-.54,2.36-.15.52-.25,1-.43,1.54s-.33,1-.49,1.51c-.34,1-.7,1.94-1.06,2.86-.24.65-.49,1.25-.74,1.87.13-.79.34-2.35.34-2.48a10.53,10.53,0,0,0-1.42-5.16,3,3,0,0,0,0-.6,2.73,2.73,0,0,0-3-2.37l-.29.05c-2.23.59-3.64,4.51-3.75,6.57,0,.12.07,1.44.14,2.28-.11-.49-.22-1-.34-1.46-.23-1-.5-2-.77-3-.16-.51-.31-1-.47-1.53s-.36-1-.53-1.56c-.45-1.21-.95-2.41-1.49-3.61A18.33,18.33,0,0,0,30,183.55c1.23-.92,2.51-2.47,2.5-4.1a2.73,2.73,0,0,0-2.65-2.81h-.3c-2.29.25-4.28,3.91-4.7,5.92,0,.13-.16,1.61-.22,2.43-.33-.72-.65-1.44-1-2.15-1-2.07-2.12-4.13-3.22-6.19-.33-.63-.66-1.26-1-1.89.3-.07,4-.92,5.33-2s2.52-2.47,2.5-4.1a2.73,2.73,0,0,0-2.65-2.81h-.3c-2.29.25-4.28,3.91-4.7,5.93,0,.15-.22,2.28-.24,2.82-.73-1.39-1.43-2.78-2.08-4.18A50,50,0,0,1,15,164.62c.15,0,4-.9,5.37-2,1.22-.93,2.51-2.47,2.5-4.1a2.71,2.71,0,0,0-2.63-2.8,2.26,2.26,0,0,0-.37,0c-2.29.25-4.28,3.9-4.7,5.92,0,.16-.24,2.45-.25,2.87a1.75,1.75,0,0,0-.11-.35A35.09,35.09,0,0,1,13.58,158c-.13-1.14-.19-2.25-.22-3.32.72-.09,4-.53,5.42-1.36a5.5,5.5,0,0,0,2.94-3.8,2.75,2.75,0,0,0-2.36-3.09l-.27,0c-2.31,0-4.69,3.41-5.32,5.38,0,.1-.27,1.22-.43,2v-1.45c0-1.74.12-3.34.22-4.75.07-.81.15-1.53.23-2.21.67-.46,3.34-2.34,4.16-3.69s1.46-3.21.86-4.73a2.73,2.73,0,0,0-3.52-1.59l-.29.13c-2,1.06-2.59,5.19-2.25,7.22,0,.17.8,2.87.84,2.84h0c-.09.65-.18,1.35-.26,2.11-.14,1.42-.29,3-.33,4.77a46.46,46.46,0,0,0,.13,5.66,35.52,35.52,0,0,0,1,6.24v.08c-.36-.58-1.43-2.14-1.52-2.25-1.35-1.56-4.87-3.77-7-2.87a2.74,2.74,0,0,0-1.35,3.62,2.15,2.15,0,0,0,.14.26c.79,1.43,2.67,2.13,4.19,2.35,1.72.25,5.33-.79,5.62-.88a46.74,46.74,0,0,0,2.19,6.07c.5,1.15,1,2.29,1.59,3.43-.33-.48-.63-.91-.68-1-1.35-1.56-4.87-3.78-7-2.88A2.74,2.74,0,0,0,9,173.89a2.15,2.15,0,0,0,.14.26c.78,1.43,2.66,2.13,4.19,2.36s4.64-.61,5.46-.84c.21.43.43.87.64,1.31,1,2.08,2.11,4.16,3.08,6.22.34.73.65,1.46,1,2.19-.29-.43-.54-.79-.59-.84-1.34-1.56-4.86-3.77-7-2.87a2.74,2.74,0,0,0-1.35,3.62,2.15,2.15,0,0,0,.14.26c.79,1.43,2.66,2.13,4.19,2.35a17.09,17.09,0,0,0,5.31-.79c.3.75.6,1.51.86,2.26.16.51.35,1,.49,1.52s.28,1,.43,1.53c.23,1,.48,2,.69,3,.15.68.28,1.32.41,2-.33-.73-1-2.15-1.09-2.26-1.09-1.74-4.24-4.47-6.47-3.9a2.73,2.73,0,0,0-1.89,3.37c0,.09.06.19.1.28.56,1.53,2.31,2.51,3.78,3s5.21,0,5.66,0c.22,1.07.42,2.11.59,3.1.6,3.43,1,6.31,1.21,8.32a7.65,7.65,0,0,0,.11,1h-7l2.54,3.22h12l2.54-3.22H32.66c0-.1.09-.19.14-.3.89-1.85,2.12-4.5,3.45-7.76.42-1,.85-2.13,1.29-3.27.43.09,4,.81,5.64.44s3.32-1.19,4-2.67A2.73,2.73,0,0,0,46,193.12a2.36,2.36,0,0,0-.28-.12c-2.19-.73-5.53,1.75-6.75,3.41-.07.1-.74,1.25-1.14,2,.17-.47.35-.92.52-1.4.35-.95.67-1.91,1-2.95l.45-1.52c.17-.51.27-1.07.41-1.6.3-1.25.54-2.53.76-3.83.83.31,3.81,1.34,5.35,1.24s3.46-.68,4.35-2a2.73,2.73,0,0,0-.62-3.81,3,3,0,0,0-.3-.19c-2.05-1.06-5.73.89-7.19,2.34-.09.09-1,1.26-1.52,1.9.13-.78.25-1.55.35-2.35.28-2.28.5-4.61.73-6.93.06-.71.14-1.42.22-2.12.29.11,3.81,1.42,5.53,1.29,1.54-.1,3.46-.67,4.35-2a2.73,2.73,0,0,0-.61-3.81l-.3-.19c-2.06-1.06-5.73.89-7.19,2.34-.11.11-1.45,1.79-1.77,2.23.16-1.56.34-3.11.58-4.64a48.59,48.59,0,0,1,1.33-6.09c.14.05,3.8,1.43,5.57,1.31,1.53-.11,3.46-.67,4.35-2a2.73,2.73,0,0,0-.62-3.81,3,3,0,0,0-.3-.19c-2-1.06-5.73.89-7.19,2.35-.11.11-1.55,1.91-1.79,2.26a1.21,1.21,0,0,1,.1-.36A35.47,35.47,0,0,1,46.75,158c.52-1,1.08-2,1.65-2.89.65.33,3.67,1.79,5.27,1.85s3.51-.28,4.55-1.54a2.74,2.74,0,0,0-.29-3.85l-.19-.15c-1.92-1.28-5.79.26-7.4,1.54-.09.07-.9.88-1.49,1.48.27-.41.53-.84.79-1.22,1-1.46,1.93-2.73,2.81-3.85.5-.63,1-1.19,1.4-1.71.81,0,4.08-.12,5.51-.79s3-1.87,3.32-3.47a2.73,2.73,0,0,0-2-3.33A1.94,1.94,0,0,0,60.4,140ZM35,201.64c-1.39,3.19-2.66,5.8-3.58,7.61l-.51,1h-.15q-.06-.52-.15-1.17c-.28-2-.72-4.93-1.41-8.38-.21-1.09-.46-2.25-.73-3.44a28.23,28.23,0,0,0,3.15-1.48,20.57,20.57,0,0,0,4.6,3C35.8,199.74,35.39,200.72,35,201.64Z" transform="translate(0 0)" style="fill:#263238"/><path d="M48.31,154.67s.73-2.69.76-2.87c.28-2-.37-6.15-2.45-7.15A2.72,2.72,0,0,0,43,146a2.33,2.33,0,0,0-.11.28c-.56,1.53.14,3.41,1,4.7C44.87,152.51,48.3,154.67,48.31,154.67Z" transform="translate(0 0)" style="fill:#263238"/><path d="M235.48,164.36c2.27,1,7.82.87,7.82.87s-1.19-3.63-1.29-3.85c-1.22-2.55-5.07-6.75-8.2-6.33a3.74,3.74,0,0,0-3.09,4.29,2.59,2.59,0,0,0,.09.4C231.33,161.91,233.55,163.52,235.48,164.36Z" transform="translate(0 0)" style="fill:#fff"/><path d="M308.14,145.48c-3.14-.34-6.87,4-8,6.55-.1.22-1.25,3.88-1.19,3.88H299c-.59.68-1.22,1.41-1.89,2.22-1.23,1.51-2.61,3.23-4,5.2a65.58,65.58,0,0,0-4.12,6.56,49.61,49.61,0,0,0-3.52,7.92v.1c0-.92,0-3.51-.05-3.71-.36-2.8-2.71-8-5.81-8.57a3.74,3.74,0,0,0-4.28,3.13c0,.13,0,.26,0,.39-.18,2.22,1.43,4.45,3,5.85,1.77,1.59,6.69,3.12,7.08,3.24a66.35,66.35,0,0,0-2.08,8.59c-.3,1.69-.55,3.4-.78,5.12v-1.62c-.36-2.8-2.71-8-5.82-8.56a3.74,3.74,0,0,0-4.27,3.1c0,.14,0,.27,0,.41-.18,2.23,1.43,4.45,3,5.85s5.76,2.82,6.87,3.17c-.08.67-.17,1.32-.25,2-.38,3.18-.74,6.34-1.19,9.44-.16,1.09-.36,2.16-.55,3.23v-1.41c-.36-2.79-2.71-8-5.81-8.56a3.74,3.74,0,0,0-4.28,3.11c0,.13,0,.27,0,.4-.18,2.23,1.43,4.45,3,5.86s5.36,2.68,6.68,3.1c-.23,1.09-.46,2.18-.73,3.23-.21.71-.35,1.4-.59,2.11s-.45,1.39-.68,2.07c-.47,1.31-1,2.66-1.45,3.92-.33.88-.67,1.71-1,2.55.17-1.08.46-3.21.46-3.39a14.52,14.52,0,0,0-1.94-7.07,5.61,5.61,0,0,0,0-.82,3.76,3.76,0,0,0-4.19-3.25l-.39.07c-3,.82-5,6.18-5.13,9,0,.17.1,2,.19,3.13-.16-.67-.3-1.31-.47-2-.32-1.36-.68-2.69-1.06-4.14-.21-.68-.42-1.38-.63-2.08s-.49-1.42-.74-2.14c-.6-1.65-1.29-3.3-2-4.94,1.18-.28,5.37-1.35,7.05-2.63s3.44-3.39,3.43-5.62a3.75,3.75,0,0,0-3.66-3.84h-.34c-3.14.35-5.87,5.35-6.44,8.11,0,.18-.22,2.2-.3,3.32-.45-1-.89-2-1.38-2.94-1.41-2.83-2.91-5.65-4.41-8.47-.46-.86-.9-1.73-1.35-2.59.42-.1,5.42-1.26,7.3-2.7,1.67-1.29,3.45-3.38,3.43-5.61a3.73,3.73,0,0,0-3.62-3.84h-.38c-3.14.34-5.87,5.34-6.44,8.11,0,.2-.3,3.12-.33,3.87-1-1.91-2-3.81-2.84-5.73a65.68,65.68,0,0,1-3.08-8c.19,0,5.42-1.23,7.34-2.71,1.67-1.28,3.45-3.38,3.43-5.61a3.75,3.75,0,0,0-3.64-3.84h-.36c-3.14.34-5.86,5.35-6.43,8.11,0,.22-.33,3.36-.34,3.93,0-.16-.12-.31-.16-.47a47.1,47.1,0,0,1-1.6-8.41c-.18-1.57-.26-3.08-.31-4.55,1-.12,5.54-.73,7.42-1.87s3.8-3,4-5.2a3.75,3.75,0,0,0-3.21-4.22,2.43,2.43,0,0,0-.38,0c-3.16,0-6.42,4.67-7.29,7.36,0,.14-.37,1.68-.58,2.8v-2c0-2.39.15-4.58.3-6.52.09-1.1.2-2.09.31-3,.92-.63,4.57-3.21,5.69-5.05s2-4.4,1.18-6.47a3.74,3.74,0,0,0-4.77-2.28l-.38.16c-2.8,1.45-3.54,7.1-3.08,9.89,0,.24,1.1,3.93,1.15,3.89h0c-.12.89-.24,1.84-.35,2.89-.2,1.94-.39,4.13-.45,6.53a66.85,66.85,0,0,0,.18,7.75A49.13,49.13,0,0,0,245,178.8v.1c-.5-.78-2-2.92-2.09-3.07-1.85-2.14-6.67-5.17-9.58-3.94a3.73,3.73,0,0,0-1.84,4.94,2.58,2.58,0,0,0,.19.37c1.07,2,3.64,2.92,5.73,3.23,2.35.34,7.3-1.09,7.69-1.21a68,68,0,0,0,3,8.31c.68,1.57,1.41,3.14,2.17,4.7-.45-.66-.86-1.25-.93-1.32-1.84-2.14-6.67-5.18-9.57-3.94a3.74,3.74,0,0,0-1.84,5,2.31,2.31,0,0,0,.18.35c1.07,2,3.65,2.92,5.73,3.23s6.36-.83,7.48-1.15l.89,1.79c1.43,2.85,2.87,5.7,4.2,8.53.47,1,.9,2,1.33,3-.41-.59-.75-1.08-.81-1.15-1.85-2.13-6.67-5.17-9.58-3.93a3.73,3.73,0,0,0-1.84,4.94,2.58,2.58,0,0,0,.19.37c1.07,2,3.64,2.92,5.73,3.23s5.95-.73,7.28-1.1c.41,1,.82,2.08,1.17,3.1.22.7.48,1.36.67,2.08s.39,1.41.58,2.1c.33,1.35.67,2.75.95,4.07.21.92.38,1.8.57,2.69-.46-1-1.39-2.94-1.49-3.09-1.5-2.39-5.81-6.12-8.87-5.34a3.74,3.74,0,0,0-2.57,4.62c0,.13.08.26.13.38.77,2.09,3.16,3.44,5.18,4.06,2.22.67,7.13,0,7.74,0,.3,1.47.57,2.9.8,4.26.83,4.69,1.34,8.63,1.66,11.39.06.48.1.92.15,1.34h-9.51l3.47,4.41h16.21L279,241.7h-8.86l.2-.41c1.21-2.53,2.9-6.17,4.72-10.63.58-1.4,1.17-2.92,1.76-4.48.59.13,5.46,1.11,7.72.6,2.06-.46,4.55-1.62,5.47-3.66a3.75,3.75,0,0,0-1.71-5A2.17,2.17,0,0,0,288,218c-3-1-7.57,2.4-9.25,4.67-.1.13-1,1.71-1.56,2.71.23-.64.47-1.26.71-1.92.48-1.3.92-2.61,1.39-4,.21-.69.42-1.38.63-2.09s.37-1.45.56-2.19c.41-1.71.74-3.46,1-5.23,1.14.41,5.22,1.83,7.33,1.68s4.74-.92,6-2.79a3.73,3.73,0,0,0-.9-5.2l-.36-.22c-2.81-1.45-7.84,1.22-9.84,3.21-.12.13-1.4,1.72-2.08,2.6.17-1.06.34-2.13.47-3.21.39-3.14.69-6.32,1-9.5.09-1,.2-1.94.3-2.9.4.15,5.21,1.94,7.58,1.77,2.1-.15,4.74-.92,6-2.79a3.75,3.75,0,0,0-.92-5.21,3.87,3.87,0,0,0-.34-.21c-2.81-1.45-7.84,1.22-9.84,3.21-.16.15-2,2.44-2.42,3,.22-2.14.47-4.26.79-6.35a67.72,67.72,0,0,1,1.82-8.34c.19.07,5.2,2,7.63,1.79,2.1-.15,4.74-.92,5.95-2.79a3.73,3.73,0,0,0-.9-5.2c-.11-.08-.23-.15-.35-.22-2.81-1.45-7.85,1.22-9.85,3.21-.15.16-2.12,2.62-2.45,3.1.05-.16.08-.33.13-.49a47.13,47.13,0,0,1,3.31-7.9c.71-1.4,1.48-2.71,2.25-4,.9.45,5,2.45,7.22,2.54s4.81-.39,6.23-2.12a3.75,3.75,0,0,0-.36-5.29,1.76,1.76,0,0,0-.3-.24c-2.63-1.74-7.93.36-10.13,2.12-.12.09-1.23,1.2-2,2,.36-.56.71-1.15,1.07-1.68,1.32-2,2.65-3.73,3.85-5.26.68-.87,1.32-1.64,1.92-2.35,1.11,0,5.58-.16,7.54-1.07s4.09-2.57,4.55-4.75a3.75,3.75,0,0,0-2.81-4.5Zm-34.79,84.41c-1.89,4.37-3.64,7.94-4.9,10.42-.25.5-.48.94-.69,1.35h-.21c-.06-.49-.13-1-.21-1.61-.39-2.78-1-6.75-1.93-11.47-.29-1.49-.63-3.08-1-4.71a38.39,38.39,0,0,0,4.32-2c1.62,1.75,5.76,3.8,6.3,4.06C274.47,227.29,273.9,228.63,273.35,229.89Z" transform="translate(0 0)" style="fill:#fff"/><path d="M291.59,165.58s1-3.68,1-3.93c.39-2.79-.5-8.42-3.35-9.79a3.74,3.74,0,0,0-4.95,1.88c-.05.12-.1.24-.14.37-.76,2.1.21,4.67,1.35,6.44C286.89,162.62,291.58,165.58,291.59,165.58Z" transform="translate(0 0)" style="fill:#fff"/></g><g id="a8fbc9c1-8e90-481d-819d-33630d16eb83" data-name="Blocks"><rect x="13.81" y="195.21" width="119.43" height="66.65" style="fill:#fff;stroke:#263238;stroke-linecap:round;stroke-linejoin:round"/><rect x="99.38" y="195.21" width="33.86" height="66.65" style="fill:#263238;stroke:#263238;stroke-linecap:round;stroke-linejoin:round"/><rect x="102.15" y="111.65" width="119.43" height="216.28" style="fill:#fff;stroke:#263238;stroke-linecap:round;stroke-linejoin:round"/><rect x="187.72" y="111.65" width="33.86" height="216.28" style="fill:#263238;stroke:#263238;stroke-linecap:round;stroke-linejoin:round"/><rect x="13.81" y="261.46" width="119.43" height="66.65" style="fill:#fff;stroke:#263238;stroke-linecap:round;stroke-linejoin:round"/><rect x="124.23" y="261.46" width="64.78" height="66.65" style="fill:#263238;stroke:#263238;stroke-linecap:round;stroke-linejoin:round"/><rect x="129.26" y="261.46" width="96.22" height="66.65" style="fill:#fff;stroke:#263238;stroke-linecap:round;stroke-linejoin:round"/><polygon points="229.4 226.96 167.25 145.22 133.22 145.22 133.22 166.53 87.27 226.96 229.4 226.96" style="fill:#263238;stroke:#263238;stroke-linecap:round;stroke-linejoin:round"/><polygon points="133.22 145.22 71.06 226.96 195.37 226.96 133.22 145.22" style="fill:#fff;stroke:#263238;stroke-linecap:round;stroke-linejoin:round"/><rect x="182.04" y="227.37" width="119.43" height="100.74" style="fill:#f19066;stroke:#263238;stroke-linecap:round;stroke-linejoin:round"/><rect x="255.97" y="227.37" width="45.5" height="100.74" style="fill:#263238;stroke:#263238;stroke-linecap:round;stroke-linejoin:round"/><rect x="56.68" y="227.37" width="119.43" height="100.74" style="fill:#f19066;stroke:#263238;stroke-linecap:round;stroke-linejoin:round"/><rect x="130.61" y="227.37" width="45.5" height="100.74" style="fill:#263238;stroke:#263238;stroke-linecap:round;stroke-linejoin:round"/></g><g id="fdbb17e3-1eab-46fc-9189-49b084aecbb5" data-name="Character 2"><path d="M316.9,235.79l-30.89-5s-1.74-3.85-2.63-4.73-6.08-.6-6.08-.6-1,.59.45,1.33,2.52.54,2.82,1,1.6,5.54,2.78,6a9.59,9.59,0,0,0,2.81.44s31.93,12.13,33.55,11.83,2.66-4.43,2.66-4.43Z" transform="translate(0 0)" style="fill:#fff;stroke:#263238;stroke-linecap:round;stroke-linejoin:round"/><path d="M282.65,230.31s-2.08-2.57-2.7-2.57-.61,1-.12,1.47a15.07,15.07,0,0,1,1.84,3.06c.61,1.23,2.94,1.47,2.94,1.47" transform="translate(0 0)" style="fill:#fff;stroke:#263238;stroke-linecap:round;stroke-linejoin:round"/><path d="M331.84,224.41l-17.6,11.23,6.06,12.72,16.86-10.94S340,227.22,331.84,224.41Z" transform="translate(0 0)" style="fill:#fff;stroke:#263238;stroke-linecap:round;stroke-linejoin:round"/><polygon points="324.44 223.52 330.65 223.97 332.28 216.28 326.22 214.36 320.16 215.83 321.34 220.71 324.44 223.52" style="fill:#fff;stroke:#263238;stroke-linecap:round;stroke-linejoin:round"/><path d="M307.44,219.09a9.52,9.52,0,0,1-4.28,1.47c-2.66.3-5.32-2.95-5.32-6.8s9.16-12.26,15.52-13.15,12.71,10.49,13.6,12.86-1.33,3.4-3.11,3.4-2.66-.15-3.25-.15.59,1.63-1.33,2.51-4.43.74-5.62,1.19S308,220.56,307.44,219.09Z" transform="translate(0 0)" style="fill:#263238;stroke:#263238;stroke-linecap:round;stroke-linejoin:round"/><path d="M305.08,216.57a25.22,25.22,0,0,0,3.55,5.92c2.07,2.36,4.14,2.07,4.28,2.66s.59,2.36,1.78,2.81a2.38,2.38,0,0,0,2.21-.45s5.18,1.78,6.8,1.19,2.22-5.47,1.78-7.1a9.17,9.17,0,0,0-2.37-3.4s-.14-4.88-2.21-5.32-4,1.77-3.55,3,.89,1.93.74,2.37-2.81-.44-3.4-.89-.89,1.78-3.11,1.92S305.08,216.57,305.08,216.57Z" transform="translate(0 0)" style="fill:#fff;stroke:#263238;stroke-linecap:round;stroke-linejoin:round"/><path d="M331.54,215.1s-3.1,9.9-3.7,11.67,1.19,5.77,1.19,5.77l6.21-16.26Z" transform="translate(0 0)" style="fill:#fff;stroke:#263238;stroke-linecap:round;stroke-linejoin:round"/><path d="M343.93,259.68l-1.11,6s-7.13,11.14-11.36,19.61-2,11.36-1.79,12.48,31.87,23.84,31.87,23.84h5.57l-23.84-27.85L359.53,273s10,22.5,12.7,25.17S399,320.28,399,320.28l4.9.67L383,287.75s-8.69-28.07-12.48-32.75-5.35-6.69-5.35-6.69Z" transform="translate(0 0)" style="fill:#263238;stroke:#263238;stroke-linecap:round;stroke-linejoin:round"/><polyline points="348.9 267.69 359.53 273.05 351.82 271.98" style="fill:none;stroke:#fff;stroke-linecap:round;stroke-linejoin:round;stroke-width:0.5px"/><line x1="343.27" y1="293.77" x2="336.42" y2="291.67" style="fill:none;stroke:#fff;stroke-linecap:round;stroke-linejoin:round;stroke-width:0.5px"/><polyline points="351.04 261.44 352.99 263.59 351.43 266.51 353.77 267.1 355.53 263.39 354.36 261.44" style="fill:none;stroke:#fff;stroke-linecap:round;stroke-linejoin:round;stroke-width:0.5px"/><path d="M334.2,217.61s-4.43,11.38-5,14-.29,6.21,1.48,10.5,8.72,11.53,9.91,13.15.59,4,3.1,5.33,8.37.31,12.38-1.7c3.14-1.57,8.91-7.47,9.06-9.39s-8.28-12.27-12.72-19.51-6.65-10.5-10.64-12.57S335.24,216.28,334.2,217.61Z" transform="translate(0 0)" style="fill:#fff;stroke:#263238;stroke-linecap:round;stroke-linejoin:round"/><path d="M337,234.69s11.41-.25,12.4-.25" transform="translate(0 0)" style="fill:none;stroke:#263238;stroke-linecap:round;stroke-linejoin:round"/><path d="M335.48,235.93s16.13,6.2,21.34,6.45" transform="translate(0 0)" style="fill:none;stroke:#263238;stroke-linecap:round;stroke-linejoin:round"/><path d="M318.24,237.86S281.57,234.31,280,234s-4.45-5.57-4.9-6.16-5-2.2-5.76-2.2-3.75.48-2.57,1.22a33.06,33.06,0,0,1,3.92,3.56,43.34,43.34,0,0,0,4.58,4.61,15.34,15.34,0,0,0,4.24,1.88s39.22,10,41,9.36-1.62-8.58-1.62-8.58Z" transform="translate(0 0)" style="fill:#fff;stroke:#263238;stroke-linecap:round;stroke-linejoin:round"/><path d="M341,220.12a4.41,4.41,0,0,0-5,.74c-2.36,2.22-19.07,16.26-19.07,16.26l4.29,12.27,23.95-18.18s2.66-4,.44-7.39" transform="translate(0 0)" style="fill:#fff;stroke:#263238;stroke-linecap:round;stroke-linejoin:round"/><path d="M361.54,321.62,357.75,325s-5.35,1.11-5.13,2.67,8.47.67,10,.67,6.24-1.56,6.91-3.12-2.45-3.56-2.45-3.56Z" transform="translate(0 0)" style="fill:#fff;stroke:#263238;stroke-linecap:round;stroke-linejoin:round"/><path d="M399,320.28l-1.78,4.9s-5.13,2.23-4.68,3.57,10.91.67,11.81-.45-.45-7.35-.45-7.35Z" transform="translate(0 0)" style="fill:#fff;stroke:#263238;stroke-linecap:round;stroke-linejoin:round"/></g><g id="ab285e79-7278-437c-93e1-c41df6bfd48f" data-name="Character 1"><path d="M101.39,78.32s1.78,3.88,7.42,4.62c8.72,1.15,15-7.3,15.6-14.87s-.15-14.71-.15-18.42-1-11.44-2.82-13.67-5.64,1.64-8.47,7.58-4,9.21-7.28,14.41-5.34,8.76-5.64,12.62A18.94,18.94,0,0,0,101.39,78.32Z" transform="translate(0 0)" style="fill:#263238;stroke:#263238;stroke-linecap:round;stroke-linejoin:round"/><path d="M79.55,135.51s-7.57-5.2-8.61-6.39-2.53.89-1.64,4.16,6.39,9.36,7.87,9.36,4.16-5.35,4.16-5.35Z" transform="translate(0 0)" style="fill:#fff;stroke:#263238;stroke-linecap:round;stroke-linejoin:round"/><path d="M77,136.84l.83-2.51a73.19,73.19,0,0,1-6.92-5.21c-1-1.19-2.53.89-1.64,4.16s6.39,9.36,7.87,9.36c.81,0,2-1.57,2.85-3C78.59,138.41,77,136.84,77,136.84Z" transform="translate(0 0)" style="fill:#fff;stroke:#263238;stroke-linecap:round;stroke-linejoin:round"/><path d="M95.44,103.12S82.37,121,79.55,123.47s-4.75,4-4.75,4a96,96,0,0,1-9.66-1.78c-3.12-.89-5.49-1.19-4.6,1.34s9.95,7.43,12.33,8.17,2.52-.15,3.41-.89,4.31-5.2,7.13-7.88,10.7-7.27,13.82-14,3.41-10.69,1.78-10.54A11.29,11.29,0,0,0,95.44,103.12Z" transform="translate(0 0)" style="fill:#fff;stroke:#263238;stroke-linecap:round;stroke-linejoin:round"/><path d="M99,101.94a11.28,11.28,0,0,0-3.57,1.18S82.37,121,79.55,123.47c-1.48,1.33-2.71,2.36-3.55,3a10.89,10.89,0,0,1,4.47,3c1-1.09,2-2.2,2.94-3.11,2.83-2.67,10.7-7.27,13.82-14S100.64,101.79,99,101.94Z" transform="translate(0 0)" style="fill:#263238;stroke:#263238;stroke-linecap:round;stroke-linejoin:round"/><path d="M129,95.25S106.14,97.92,101.39,99s-6.39,2.38-6.84,3.57-15,33-15,33,0,1.33,1.78,1.78c0,0,13.37-14.41,16.34-17.83s5.8-9.5,5.8-9.5,23,4.9,31.64,1.33,9.06-10.84,8.76-12.33S129,95.25,129,95.25Z" transform="translate(0 0)" style="fill:#263238;stroke:#263238;stroke-linecap:round;stroke-linejoin:round"/><path d="M123.37,55.44s2.82,4.46,3.42,5.94-2.53,9.36-2.08,12.18,5.79,9.81,5.79,12-4.16,10.1-4.16,10.1l17.53,4.3s1-13.36,1-21.24-6.09-18.57-9.51-21.39S128.57,51,128.57,51Z" transform="translate(0 0)" style="fill:#fff;stroke:#263238;stroke-linecap:round;stroke-linejoin:round"/><path d="M122.25,33.4a6.21,6.21,0,0,0-7.46.92c-1.36,1.29-2.86,3.14-2.86,5.08a20.64,20.64,0,0,0,5,12.77c3.42,3.72,7.28,4.76,9.81,3.72s3.12-6.24,1.33-12-3-8.62-5.79-10.4Z" transform="translate(0 0)" style="fill:#fff;stroke:#263238;stroke-linecap:round;stroke-linejoin:round"/><path d="M120.85,37.32s3.71,3.86,5.34,4.6,1.79-1.18,1.49-4.45-4.16-6.54-6.24-6.54S119.66,34.5,120.85,37.32Z" transform="translate(0 0)" style="fill:#263238;stroke:#263238;stroke-linecap:round;stroke-linejoin:round"/><path d="M121.44,36a19.57,19.57,0,0,1-5.2,10.85c-4.75,5-12.33,13.81-14.11,18.71a21.62,21.62,0,0,0-.74,12.78,13.6,13.6,0,0,1-1.19-11.89c2.37-7,7-14.26,7.28-20.5s.89-14,6.24-16.48S121.89,30.78,121.44,36Z" transform="translate(0 0)" style="fill:#263238;stroke:#263238;stroke-linecap:round;stroke-linejoin:round"/><path d="M119.74,35.72s1.93,3.24-3.84,9.37-11.05,11.29-11.05,11.29" transform="translate(0 0)" style="fill:none;stroke:#fff;stroke-linecap:round;stroke-linejoin:round;stroke-width:0.5px"/><path d="M103.45,79.23a7.68,7.68,0,0,0,1.64,1.18" transform="translate(0 0)" style="fill:none;stroke:#fff;stroke-linecap:round;stroke-linejoin:round;stroke-width:0.5px"/><path d="M114.34,50.74s-8.65,8.53-12,14.29c-2.46,4.23-2.41,9.09-.32,12.43" transform="translate(0 0)" style="fill:none;stroke:#fff;stroke-linecap:round;stroke-linejoin:round;stroke-width:0.5px"/><path d="M109.21,44.27a6.44,6.44,0,0,1-1.24.22" transform="translate(0 0)" style="fill:none;stroke:#fff;stroke-linecap:round;stroke-linejoin:round;stroke-width:0.5px"/><path d="M118.3,31.87s-2.44,8.52-7.26,11.57" transform="translate(0 0)" style="fill:none;stroke:#fff;stroke-linecap:round;stroke-linejoin:round;stroke-width:0.5px"/><path d="M135.4,57.37c-1.34-1.11-2.68-2.33-3.82-3.41a20.1,20.1,0,0,1-5.64,5.76,17.3,17.3,0,0,1,.85,1.66c.59,1.49-2.53,9.36-2.08,12.18s5.79,9.81,5.79,12-4.16,10.1-4.16,10.1l17.53,4.3s1-13.36,1-21.24S138.82,60.19,135.4,57.37Z" transform="translate(0 0)" style="fill:#f19066;stroke:#263238;stroke-linecap:round;stroke-linejoin:round"/><path d="M130.06,61.38s-3.42,2.08-.75,7.43S139,83.66,139,83.66s-9.66,7.73-11.59,9.36A13,13,0,0,1,122,95.55c-.44,0-5-.89-5.79-.74s-3.86,1.93-3,2.22a13.56,13.56,0,0,0,3.71-.15,14.2,14.2,0,0,0,4.46,1.34c2.08.15,4.75-1.48,4.75-1.48S146.54,86.64,148,85s-9.81-22.58-11.14-24.06a5.24,5.24,0,0,0-3.12-1.64" transform="translate(0 0)" style="fill:#f19066;stroke:#263238;stroke-linecap:round;stroke-linejoin:round"/><path d="M124.42,94.78a9.54,9.54,0,0,1-2.39.77c-.44,0-5-.89-5.79-.74s-3.86,1.93-3,2.22a13.56,13.56,0,0,0,3.71-.15,14.2,14.2,0,0,0,4.46,1.34A9.06,9.06,0,0,0,125.72,97Z" transform="translate(0 0)" style="fill:#fff;stroke:#263238;stroke-linecap:round;stroke-linejoin:round"/><path d="M65.14,125.7c-3.12-.89-5.49-1.19-4.6,1.34s9.95,7.43,12.33,8.17,2.52-.15,3.41-.89a27.83,27.83,0,0,0,2.23-2.5l-5.2-2.7,1.49-1.64A96,96,0,0,1,65.14,125.7Z" transform="translate(0 0)" style="fill:#fff;stroke:#263238;stroke-linecap:round;stroke-linejoin:round"/><path d="M75.09,135.21c-2.52-1.93-5-4-10-7.28a28.75,28.75,0,0,0-4.47-2.57c-.35.29-.44.82-.13,1.68.89,2.52,9.95,7.43,12.33,8.17,1.24.39,1.87.33,2.32.07Z" transform="translate(0 0)" style="fill:#263238;stroke:#263238;stroke-linecap:round;stroke-linejoin:round"/></g><g id="fb98c03b-b3dc-4ee3-a312-2e5580ec036e" data-name="Ground"><rect x="0.5" y="327.63" width="419.78" height="4.46" style="fill:#263238;stroke:#263238;stroke-linecap:round;stroke-linejoin:round"/></g></g></svg>